<?xml version="1.0" encoding="UTF-8"?>
<svg id="_레이어_2" data-name="레이어 2" xmlns="http://www.w3.org/2000/svg" viewBox="0 0 117.16 186.59">
  <defs>
    <style>
      .cls-1 {
        fill: #fff;
      }
    </style>
  </defs>
  <g id="_레이어_1-2" data-name="레이어 1">
    <g>
      <path d="M106.49,28.67c.93,1.55,6.87,1.15,5.84,7.61-.3,1.88-2.62,3.25-1.98,5.54,1.76.31,4.69,1.38,5.48,3.03.35.73,1.35,10.12,1.32,11.53-.11,6.49-5.62,6.23-5.87,7.12l-7.97,100.84c-.05,12.08-8.69,14.45-18.47,17.53-18.63,5.87-39.31,6.8-57.79-.24-4.36-1.66-9.98-3.89-11.21-8.79L7.37,63.48c-9.06-.24-8.35-12.56-5.36-18.36.96-1.87,3.86-2.25,4.02-3.74.41-3.64-5.38-5.41,3.24-10.08,3.43-1.86,6.57-1.59,9.29-2.71,7.15-2.94,9.3-5.31,18.38-6.62,19.51-2.83,42.94-1.66,61.82,3.84,2.71-.57,3.94-24.83,9.2-25.81,1.8.18,4.09,1.04,4.17,3.12.16,4.5-7.07,23.16-5.64,25.55ZM109.32,1.86c-2.15-.38-2.38.96-2.98,2.51-3.32,8.52-4.01,21.43-7.01,30.48,2.83.51,1.64-.68,2.25-2.19,3.71-9.26,6.67-20.96,7.74-30.8ZM16.32,34.85c-4.39-.79-.61,4.23,1.01,2.99l-1.01-2.99ZM38.83,42.85h31.5c.22-1.76-2.26-.95-3.49-1-6.97-.29-14.05.41-21-.01-7.97-.48-16.07-2.47-24-3.02-2.72-.19-2.82.44-.08,1.08,5.62,1.31,11.53,1.33,17.06,2.95ZM91.32,44.86c-14.78,2.02-29.59,2.37-44.51,2.99-1.22.05-3.72-.76-3.48.99h25.49s22.5-3.98,22.5-3.98Z"/>
      <path class="cls-1" d="M109.32,1.86c-1.07,9.84-4.03,21.54-7.74,30.8-.61,1.52.58,2.71-2.25,2.19,3-9.06,3.68-21.96,7.01-30.48.6-1.55.83-2.89,2.98-2.51Z"/>
      <path class="cls-1" d="M91.32,44.86l-22.5,3.98h-25.49c-.23-1.75,2.27-.94,3.48-.99,14.92-.62,29.72-.97,44.51-2.99Z"/>
      <path class="cls-1" d="M38.83,42.85c-5.54-1.62-11.44-1.64-17.06-2.95-2.74-.64-2.64-1.27.08-1.08,7.92.56,16.02,2.54,24,3.02,6.95.42,14.03-.28,21,.01,1.23.05,3.71-.76,3.49,1h-31.5Z"/>
    </g>
  </g>
</svg>