<?xml version="1.0" encoding="UTF-8"?>
<svg id="_레이어_2" data-name="레이어 2" xmlns="http://www.w3.org/2000/svg" viewBox="0 0 163.04 185.32">
  <defs>
    <style>
      .cls-1 {
        fill: #fff;
      }
    </style>
  </defs>
  <g id="_레이어_1-2" data-name="레이어 1">
    <g>
      <path d="M116.29,26.27c9.19.37,33.38-.38,39.56,6.94,1.76,2.09,2.4,5.39,2.99,8.01,6.1,27.61,4.65,77.05,1.44,105.54-1.42,12.63-2,37.95-18.45,38.55-34.86-3.23-75.53.77-109.57-6.5-4.97-1.06-22.15-6.61-25.92-9.08-2.21-1.45-4.57-4.36-4.99-7.01-2.68-16.96-.59-37.87-.07-54.95.57-18.68-.32-51.84,5.11-68.89,2.51-7.89,8.46-8.31,15.53-9.47,18.28-3,36.93-2.8,55.37-4.14l-7.22-5.26C61.36-.22,87.12-.89,100.65.41c15.76,1.51,21.1,11.04,15.63,25.87ZM86.78,24.28c4.72.66,10.63-.48,15.5,0v-5.01c4.87.14,12.87.96,9.5-6-2.96-6.1-27.74-5.24-33.78-3.77-4.13,1-5.33,5.55-2.32,7.88s8.2-1.48,7.8,5.69c1.09.1,2.52,1.1,3.3,1.21ZM71.07,29.57c-10.06.43-25.77.82-35.26,2.74-7.4,1.5-7.8,19.85-8.52,26.48-2.8,25.53-4.01,52.29-5.02,77.98-.37,9.37-2.13,19.53-1.01,29.03,1.01,8.58,17.19,9.6,24.53,10.47,21.42,2.54,43.45,2.43,64.98,3.02,10.45.29,21.45,2,32.06,1.04,8.77-.79,9.83-8.38,11.17-15.83,5.78-32.05,6.25-81.37,2.27-113.71-2-16.3-4.51-17.1-20.62-19.38-20.4-2.89-43.93-2.71-64.58-1.83ZM26.28,36.28c-12.12-.11-14.79-.41-16.86,11.63-2.7,15.76-2.53,32.88-3.15,48.85-.72,18.55-3.15,44.99-1.01,63.03.59,4.99,5.37,9.26,10.51,9.51,3.47.17.68-7.55.72-9.53.49-25.64,1.66-53.46,3.81-78.99,1.25-14.86,3.04-29.93,5.99-44.5Z"/>
      <path class="cls-1" d="M71.07,29.57c20.65-.87,44.18-1.06,64.58,1.83,16.11,2.28,18.61,3.08,20.62,19.38,3.98,32.35,3.51,81.67-2.27,113.71-1.34,7.44-2.4,15.03-11.17,15.83-10.61.96-21.61-.75-32.06-1.04-21.54-.59-43.56-.48-64.98-3.02-7.33-.87-23.52-1.9-24.53-10.47-1.12-9.49.64-19.66,1.01-29.03,1.01-25.69,2.22-52.46,5.02-77.98.73-6.63,1.13-24.98,8.52-26.48,9.49-1.92,25.2-2.31,35.26-2.74ZM35.29,39.27c3.67-.02,3.67-2.97,0-2.99v2.99ZM78.16,36.38l-3.88-.11,1.51,5.99c2.41.47,3.88-4.1,2.37-5.89ZM111.91,36.35c-3.41.54-3.85,7.59,1.77,5.84,3.37-1.05.68-6.24-1.77-5.84ZM99.28,37.28h-1.99v2.99h1.99v-2.99ZM54.29,44.27c5.52,1.18,7.45-4.74,1.51-4.98l-1.51,4.98ZM127.29,44.27c5.32.46,5.28-4.47,0-3.99v3.99ZM143.29,46.27c4.43,1.55,5.29-5.32,2.48-5.99s-2.78,4.51-2.48,5.99ZM103.28,48.27c.7-6.69-4.71-6.63-3.99,0h3.99ZM34.29,44.28c-.35.3-2.16,7.68,1.48,7,4.98-2.22,1.35-9.44-1.48-7ZM63.3,57.25c1.54,1.02,5.92-.38,4.97-3.47-.44-1.43-4.11-2.07-4.97-1.49-.58.4-.58,4.57,0,4.95ZM90.18,67.18c2.39-1.63-.29-16.41-5.37-14.89-4.07,1.22-.33,18.77,5.37,14.89ZM45.2,54.36c-8.4-3.26-4.96,8.46-.88,5.48l.88-5.48ZM132.28,56.28c-3.93,0-3.98,3.97,0,3.99v-3.99ZM115.29,62.27l4.98-1.51c-.24-5.95-6.17-4.01-4.98,1.51ZM151.28,59.28c-4.76.17-5.95,7.76-.47,4.02l.47-4.02ZM64.26,63.29l-3.04.44c-4.6,13.92,9.98,14.56,3.04-.44ZM129.28,66.28c-3.19-.53-4.06.57-5.98,2.51-1.21,1.22-5.95,7.62-2.5,8.49,4.16,1.05,9.32-10.25,8.48-10.99ZM48.12,76.12c1.6-2.89,1.48-4.86-1.34-6.83-2.57,1.75-2.81,4.07-2.49,6.98l3.83-.15ZM147.38,74.39c-2.43,1.52-.55,8.61,3.96,5.45,3.14-2.2-.58-7.56-3.96-5.45ZM34.05,76.54c-3.23-3.12-6.46.81-4.33,3.8,2.47,3.48,7.39-.85,4.33-3.8ZM136.01,86.5c-5.38,1.1-8.74,6.19-1.25,5.84s11.05-7.84,1.25-5.84ZM58.97,90.57c-2.37-2.58-13.62-5.36-14.69-1.76-1.51,5.09,11.35,8.32,14.58,5.51,1.59-1.08,1.28-2.48.11-3.75ZM29.3,99.27c4.46,3.02,6.53-8.01,2.47-8.99-3.31-.8-4.22,7.8-2.47,8.99ZM89.02,105.54c1.12,1.13,1.18,4.22,3.26,5.25,7.59,3.76,10.34-9.17,2.55-9.37-1.44-.04-2.79,1.01-4.79.7-2.47-.38-19.74-9.93-20.74-8.84-.82.88-.2,2.36,1.25,3.26,3.9,2.44,16.21,6.71,18.48,9ZM145.28,103.27c.89-6.81-5.85-6.94-5.01,0h5.01ZM46.29,108.27c.58.61,5.6-.02,4.99-2.48-1.33-5.32-7.53-.18-4.99,2.48ZM152.28,111.27c.12-2.09.38-3.75-1.49-4.97-3.69,2.64-3.08,5.25,1.49,4.97ZM29.89,110.36c-4.06,1.3-.77,8.75,4.43,5.45,2.29-1.45-.59-6.68-4.43-5.45ZM129.28,117.27c11.88,1.94,16.55-5.17,1.65-3.84l-1.21.78-.44,3.05ZM61.28,114.28c-5.36-.21-13.59-.68-14.99,5.99,1.03.91,16.95-.5,14.99-5.99ZM148.28,128.28c6.81.89,6.94-5.85,0-5.01v5.01ZM27.29,125.28l.47,6.02c3,4.5,9.83-5.5-.47-6.02ZM43.28,138.29c.92,3.92,11.62,1.51,10.99-1.5-.79-3.79-9.17,1.44-10.99,1.5ZM77.28,135.28c-1.89-.32-3.32,1.17-2.99,2.99h2.99s0-2.99,0-2.99ZM138.12,136.43l-3.84-.16.09,4.9,4.9.1-1.16-4.84ZM39.29,146.27c4.96.19,3.4-8.15-1.02-5.49l1.02,5.49ZM151.28,142.28c-1.13-1.5-5.5.04-4.99,2.48.74,3.53,7.12.35,4.99-2.48ZM23.29,144.28c-1.69,9.61,7.98,5.75,4.56.93l-4.56-.93ZM119.29,146.28c-1.27,1.44,5.53,14.91,9.48,13.99,1.79-1.45,1.33-1.08.69-2.65-.6-1.48-8.59-13.13-10.17-11.34ZM146.28,155.27c1.23-1.24-.77-6.5-3.98-4.99l-.57,4.02c.67,1.15,4.24,1.29,4.55.97ZM100.28,151.28h-1.99v2.99h1.99v-2.99ZM66.28,153.28c-3.82-3.46-14.1,12.65-3.23,8.78l3.23-8.78ZM41.38,162.17c4.58,2.86,6.91-5.86,3.36-6.88-4.1-1.18-5.47,5.56-3.36,6.88ZM29.28,167.27c1.11-3.17,1.31-5.62-1.5-7.97-3.31-.13.62,12.85,1.99,12.92,2.05.1,3.21-2.44,2.54-4.44l-3.03-.5ZM89.28,161.28l-3.02.47-.97,3.52,3.02-.47.97-3.52ZM99.28,162.27c-6.7-1.27-6.94,6.93-1.49,8.98,2.63-2.15,1.2-6.01,1.49-8.98ZM148.29,171.28c1.12-8.17-6.1-8.3-5.01,0h5.01ZM129,167.55c-.22-.26-2.6-1.39-2.71-1.28-5.72,12.09,8.77,8.49,2.71,1.28ZM61.17,173.18c2.84-4.06-4.44-6.77-5.8-2.3-1.26,4.14,4.82,3.7,5.8,2.3ZM111.26,169.29c-2.92-2.01-6.02,4.19-2.37,4.91s3.88-3.87,2.37-4.91ZM83.28,175.27c.56-.56-.14-4.94-1.49-4.97-5.22-.12-1.07,7.52,1.49,4.97Z"/>
      <path class="cls-1" d="M26.28,36.28c-2.95,14.57-4.74,29.64-5.99,44.5-2.15,25.53-3.31,53.35-3.81,78.99-.04,1.98,2.75,9.7-.72,9.53-5.13-.25-9.92-4.52-10.51-9.51-2.14-18.05.3-44.48,1.01-63.03.62-15.97.45-33.09,3.15-48.85,2.07-12.04,4.74-11.74,16.86-11.63ZM18.27,55.27l1-13.99-2,4.49,1,9.5ZM13.27,65.27l1-14.99c-2.91,2-2.13,8.33-1.99,11.51.05,1.22-.77,3.71.99,3.48ZM11.27,83.27l1-10.99c-1.82.38-1.86,1.97-2.03,3.46-.16,1.41-.71,6.94,1.03,7.53ZM15.27,84.27l1-10.99c-1.48.45-1.89,5.2-1.98,6.51-.07,1.12-.81,4.64.98,4.48ZM14.28,104.28c-4-.62-1.21,6.96-1.99,8.99l1.99-8.99ZM9.27,116.27l1-10.99c-1.61.17-1.87,4.29-1.98,5.51-.1,1.15-.83,5.48.98,5.48ZM17.28,125.28v-19h-1v16.5c0,.37-1.34,1.47-1,2.49h2ZM11.28,136.29c-2.79-.42-1.87.47-2,2.47-.23,3.47.15,7.04.01,10.51l1.99-12.99ZM15.28,151.28v-14h-1v14h1ZM10.27,159.27v-3.99h-.98v3.99h.98ZM15.28,165.28l-.98-7-2.01,6.99h2.99Z"/>
      <path class="cls-1" d="M86.78,24.28c-.77-.11-2.2-1.11-3.3-1.21.4-7.16-4.79-3.35-7.8-5.69s-1.81-6.88,2.32-7.88c6.03-1.46,30.82-2.33,33.78,3.77,3.37,6.96-4.63,6.14-9.5,6v5.01c-4.87-.48-10.78.66-15.5,0Z"/>
      <path d="M89.02,105.54c-2.27-2.29-14.59-6.55-18.48-9-1.45-.91-2.06-2.38-1.25-3.26,1.01-1.09,18.28,8.45,20.74,8.84,2,.31,3.35-.73,4.79-.7,7.8.2,5.04,13.13-2.55,9.37-2.08-1.03-2.14-4.12-3.26-5.25Z"/>
      <path d="M58.97,90.57c1.18,1.28,1.48,2.67-.11,3.75-3.23,2.81-16.09-.42-14.58-5.51,1.07-3.6,12.31-.82,14.69,1.76Z"/>
      <path d="M90.18,67.18c-5.69,3.88-9.44-13.67-5.37-14.89,5.08-1.53,7.76,13.26,5.37,14.89Z"/>
      <path d="M61.28,114.28c1.96,5.49-13.96,6.9-14.99,5.99,1.41-6.67,9.63-6.19,14.99-5.99Z"/>
      <path d="M119.29,146.28c1.58-1.79,9.56,9.87,10.17,11.34.64,1.57,1.1,1.2-.69,2.65-3.95.92-10.75-12.55-9.48-13.99Z"/>
      <path d="M129.28,66.28c.85.74-4.32,12.04-8.48,10.99-3.45-.87,1.28-7.27,2.5-8.49,1.93-1.94,2.79-3.03,5.98-2.51Z"/>
      <path d="M64.26,63.29c6.95,14.99-7.64,14.35-3.04.44l3.04-.44Z"/>
      <path d="M136.01,86.5c9.8-2,6.4,5.49-1.25,5.84s-4.13-4.75,1.25-5.84Z"/>
      <path d="M66.28,153.28l-3.23,8.78c-10.87,3.87-.59-12.24,3.23-8.78Z"/>
      <path d="M129.28,117.27l.44-3.05,1.21-.78c14.9-1.34,10.23,5.77-1.65,3.84Z"/>
      <path d="M29.28,167.27l3.03.5c.68,2-.48,4.54-2.54,4.44-1.37-.06-5.3-13.05-1.99-12.92,2.8,2.36,2.61,4.8,1.5,7.97Z"/>
      <path d="M29.3,99.27c-1.75-1.19-.84-9.79,2.47-8.99,4.06.98,1.99,12.01-2.47,8.99Z"/>
      <path d="M99.28,162.27c-.29,2.97,1.14,6.83-1.49,8.98-5.45-2.05-5.21-10.25,1.49-8.98Z"/>
      <path d="M41.38,162.17c-2.11-1.32-.74-8.07,3.36-6.88,3.55,1.02,1.22,9.75-3.36,6.88Z"/>
      <path d="M29.89,110.36c3.84-1.23,6.71,4,4.43,5.45-5.2,3.3-8.49-4.15-4.43-5.45Z"/>
      <path d="M43.28,138.29c1.82-.05,10.2-5.29,10.99-1.5.63,3-10.08,5.42-10.99,1.5Z"/>
      <path d="M27.29,125.28c10.3.52,3.47,10.52.47,6.02l-.47-6.02Z"/>
      <path d="M129,167.55c6.07,7.2-8.43,10.81-2.71-1.28.1-.11,2.48,1.02,2.71,1.28Z"/>
      <path d="M147.38,74.39c3.38-2.11,7.1,3.25,3.96,5.45-4.51,3.16-6.38-3.93-3.96-5.45Z"/>
      <path d="M61.17,173.18c-.98,1.4-7.06,1.84-5.8-2.3,1.36-4.47,8.63-1.76,5.8,2.3Z"/>
      <path d="M111.91,36.35c2.45-.39,5.14,4.8,1.77,5.84-5.62,1.75-5.18-5.3-1.77-5.84Z"/>
      <path d="M45.2,54.36l-.88,5.48c-4.07,2.99-7.52-8.74.88-5.48Z"/>
      <path d="M148.29,171.28h-5.01c-1.09-8.3,6.13-8.17,5.01,0Z"/>
      <path d="M48.12,76.12l-3.83.15c-.32-2.91-.08-5.23,2.49-6.98,2.82,1.97,2.94,3.94,1.34,6.83Z"/>
      <path d="M34.05,76.54c3.06,2.96-1.86,7.29-4.33,3.8-2.13-3,1.1-6.93,4.33-3.8Z"/>
      <path d="M34.29,44.28c2.83-2.44,6.46,4.78,1.48,7-3.64.69-1.83-6.69-1.48-7Z"/>
      <path d="M23.29,144.28l4.56.93c3.42,4.82-6.26,8.69-4.56-.93Z"/>
      <path d="M63.3,57.25c-.58-.39-.58-4.55,0-4.95.86-.59,4.53.06,4.97,1.49.95,3.08-3.43,4.49-4.97,3.47Z"/>
      <polygon points="138.12 136.43 139.28 141.27 134.38 141.17 134.28 136.27 138.12 136.43"/>
      <path d="M148.28,128.28v-5.01c6.94-.84,6.81,5.89,0,5.01Z"/>
      <path d="M145.28,103.27h-5.01c-.84-6.94,5.89-6.81,5.01,0Z"/>
      <path d="M78.16,36.38c1.51,1.79.04,6.36-2.37,5.89l-1.51-5.99,3.88.11Z"/>
      <path d="M115.29,62.27c-1.18-5.52,4.74-7.45,4.98-1.51l-4.98,1.51Z"/>
      <path d="M54.29,44.27l1.51-4.98c5.95.24,4.01,6.17-1.51,4.98Z"/>
      <path d="M146.28,155.27c-.31.32-3.89.18-4.55-.97l.57-4.02c3.21-1.51,5.21,3.75,3.98,4.99Z"/>
      <path d="M143.29,46.27c-.3-1.48-.24-6.64,2.48-5.99s1.95,7.54-2.48,5.99Z"/>
      <path d="M39.29,146.27l-1.02-5.49c4.42-2.66,5.98,5.67,1.02,5.49Z"/>
      <path d="M46.29,108.27c-2.54-2.66,3.66-7.8,4.99-2.48.62,2.46-4.41,3.09-4.99,2.48Z"/>
      <path d="M111.26,169.29c1.5,1.04,1.38,5.64-2.37,4.91s-.55-6.92,2.37-4.91Z"/>
      <path d="M103.28,48.27h-3.99c-.72-6.63,4.69-6.69,3.99,0Z"/>
      <path d="M151.28,142.28c2.13,2.83-4.25,6.01-4.99,2.48-.51-2.44,3.86-3.98,4.99-2.48Z"/>
      <path d="M151.28,59.28l-.47,4.02c-5.48,3.75-4.29-3.84.47-4.02Z"/>
      <path d="M83.28,175.27c-2.56,2.55-6.71-5.09-1.49-4.97,1.35.03,2.05,4.42,1.49,4.97Z"/>
      <path d="M152.28,111.27c-4.58.27-5.19-2.33-1.49-4.97,1.88,1.23,1.62,2.89,1.49,4.97Z"/>
      <polygon points="89.28 161.28 88.3 164.8 85.29 165.27 86.26 161.75 89.28 161.28"/>
      <path d="M127.29,44.27v-3.99c5.28-.48,5.32,4.45,0,3.99Z"/>
      <path d="M132.28,56.28v3.99c-3.98-.02-3.93-3.99,0-3.99Z"/>
      <path d="M77.28,135.28v2.99s-2.99,0-2.99,0c-.33-1.82,1.1-3.31,2.99-2.99Z"/>
      <path d="M35.29,39.27v-2.99c3.67.02,3.67,2.97,0,2.99Z"/>
      <rect x="97.29" y="37.28" width="1.99" height="2.99"/>
      <rect x="98.29" y="151.28" width="1.99" height="2.99"/>
      <path d="M17.28,125.28h-2c-.34-1.03,1-2.13,1-2.5v-16.5h1v19Z"/>
      <path d="M13.27,65.27c-1.75.23-.93-2.26-.99-3.48-.14-3.18-.93-9.51,1.99-11.51l-1,14.99Z"/>
      <polygon points="18.27 55.27 17.27 45.77 19.27 41.28 18.27 55.27"/>
      <path d="M9.27,116.27c-1.8,0-1.08-4.33-.98-5.48.11-1.22.37-5.34,1.98-5.51l-1,10.99Z"/>
      <path d="M11.27,83.27c-1.74-.59-1.19-6.12-1.03-7.53.17-1.5.21-3.08,2.03-3.46l-1,10.99Z"/>
      <rect x="14.28" y="137.28" width="1" height="14"/>
      <path d="M11.28,136.29l-1.99,12.99c.14-3.47-.24-7.04-.01-10.51.13-2-.79-2.89,2-2.47Z"/>
      <path d="M15.27,84.27c-1.79.17-1.05-3.36-.98-4.48.09-1.31.49-6.07,1.98-6.51l-1,10.99Z"/>
      <polygon points="15.28 165.28 12.29 165.27 14.29 158.28 15.28 165.28"/>
      <path d="M14.28,104.28l-1.99,8.99c.77-2.03-2.01-9.61,1.99-8.99Z"/>
      <rect x="9.29" y="155.28" width=".98" height="3.99"/>
    </g>
  </g>
</svg>