<?xml version="1.0" encoding="UTF-8"?>
<svg id="_레이어_2" data-name="레이어 2" xmlns="http://www.w3.org/2000/svg" viewBox="0 0 274.89 363.67">
  <defs>
    <style>
      .cls-1 {
        fill: #fff;
      }
    </style>
  </defs>
  <g id="_레이어_1-2" data-name="레이어 1">
    <g>
      <path d="M179.98,124.34c-11.04,11.81-57.68,8.61-59.62,11.4l4.45,20.96c.71,1.18,1.73,1,2.87.94,13.93-.71,29.43-5.72,43.27-6.82,17.85-1.43,67.79,9.56,84.37,17.37,8.52,4.01,13.72,11.06,1.78,14.78l-61.78,10.71c18.16-1.29,36.37-3.61,54.18-7.3,2.29-.47,9.28-3.4,10.33-1.71.56.9,1.57,7.12,1.53,8.49-.32,9.89-10.42,11.78-10.69,14l24.2,140.59c-3.64,2.82-7.96-.35-8.86-4.26l-28.89-133.1-2.29-1.74-49.08,4.97-1.41,85.59c-.66,5.51-4.17,10.02-10.09,8.05l-1.93-93.57c-27.96.36-57,4.47-84-4.99l10.09,148.52c-.07,7.31-7.76,9.05-10.08,1.96l-10.24-151.76c-.39-1.76-.98-2.55-2.5-3.5-7.54-4.72-22.2-6.86-30.28-12.21l-22.47,125.04c-1.38,4.87-3.58,9.08-9.14,6.05-2.26-1.8-1.5-9.43-1.27-12.46,3.41-45.38,19.21-95.92,24.77-142.23,1.13-9.4.58-19.88,2.11-29.4-14.23-.45-24.25,2.08-28.71-13.79C5.65,107.24-1.85,47.54.42,30.27,3.52,6.64,40.27,5.5,58.84,3.69,84.9,1.15,118.99-1.16,144.88.64c12.14.85,20.44,3.14,24.93,15.07,6.92,18.35,13.9,72.02,14.56,92.43.2,6.17.07,11.43-4.39,16.2ZM140.33,3.7c-12.15.3-24.39-.42-36.54-.05-16.49.5-34.46,1.41-50.95,3.05-8.7.87-18.77,2.18-27.02,4.98-1.12.38-3.62.56-3.48,2,29.48-6.67,60.28-6.59,90.48-8,1.93-.09,3.84-.94,5.97-1.03,5.99-.26,12.05.29,18.05.04,1.22-.05,3.72.75,3.48-.99ZM176.32,65.68c-2.25-14.7-3.12-31.13-7.06-45.42-1.16-4.2-2.81-11.46-7.92-12.56,4.45,4.3,5.91,9.25,7.34,15.15l7.65,42.84ZM18.33,15.7c-6.38,1.89-10.34,11.39-11.01,17.48-2.06,18.98,4.39,40.41,5.02,59.5,1.78.17,1.06-3.37.98-4.48-1.28-16.96-4.38-33.9-5.02-50.96.78-8.82,3.12-15.86,10.03-21.54ZM12.33,16.7c-6.65,2.2-9.53,13.12-10.04,19.45-1.78,22.33,6.15,48.01,7.05,70.53,1.72.25,1.06-2.37.98-3.48-1.42-19.34-5.9-39.36-6.89-58.91,1.31-9.72,2.09-19.99,8.9-27.6ZM14.32,99.68v-5.99h-.98v5.99h.98ZM21.33,134.68l-4.57-4.92-5.42-16.06c.48,6.87,1.64,19.71,9.99,20.99ZM47.33,144.19c-.77,5.99.57,13.34,0,19.5l64.99-5.01c.66-2.53-1.33-21.84-2.57-22.05l-60.96,2.02c.01,1.82-1.28,4.13-1.46,5.54ZM42.33,168.69l-2.89,1.65.91,5.35c3.71.81,1.42-4.88,1.98-7ZM61.32,174.7c-.31-.29-4.45-1.25-4.99-1-.55,1.33,4.16,2.36,4.99,1.98-.05-.32.14-.85,0-.98ZM70.32,177.7c-.47-.44-5.27-1.34-5.99-1v.98c2.04.08,3.95,1.05,5.99,1-.05-.32.14-.85,0-.98ZM113.33,203.7l-71.99-24.01c-2.52,2.59,8.12,9.47,9.98,10.51,7.66,4.29,16.82,6.34,24.63,10.39l1.38.1c-.78-6.04,6.11-3.84,8.49-.98,1.51,1.81.61,4,2.77,5.29,3.63,2.17,24.81,7.3,24.75-1.3ZM165.33,195.7c-11.87.04-23.58.35-35.35-1.15-18.42-2.36-35.67-9.7-53.64-13.85-.23,1.46,1.74,1.33,2.79,1.68,14.37,4.85,32.1,10.77,46.98,13.03,11.23,1.71,24.32,1.74,35.73,1.28,1.22-.05,3.72.76,3.48-.99ZM236.27,193.77c-1.44-.4-2.87-1.1-4.42-1.09-10.11.05-23.45,3.2-34.03,4-20.24,1.53-40.71,2.53-61.03,2.05-2.18-.05-16.49-2.9-16.44.46,3.17,4.28,8.79,5.31,13.75,6.23,20.15,3.73,74.24-2.46,95.46-7,2.27-.49,4.48-1.25,6.73-1.79l-.02-2.86ZM194.33,193.7h-5.99v.98h5.99v-.98ZM15.32,315.68c5.47-34.74,13.53-69.12,18-103.99l-13.67,69.81c-.95,10.15-4.25,20.8-5.19,30.82-.1,1.12-.93,3.59.86,3.36ZM90.32,352.68c.43-16.54-1.96-33.03-2.98-49.51-.27-4.31.26-8.67-.02-12.98-1.48-22.99-4.14-45.98-4.99-69.02-.04-1.21.75-3.72-.99-3.48,1.31,43.91,6.21,87.67,7.99,131.5.05,1.22-.76,3.72.99,3.49ZM176.33,220.69v81c1.76.22.95-2.26,1-3.49.46-10.99-.93-22.1,1.05-32.96-1.34-13.53,1.63-29.91-.05-43.07-.19-1.47-.78-3.11-2-1.48ZM247.33,226.69l-2.69,1.45,19.01,92.73,2.68,8.8-18.99-102.99Z"/>
      <path class="cls-1" d="M236.27,193.77l.02,2.86c-2.25.54-4.46,1.3-6.73,1.79-21.22,4.54-75.3,10.73-95.46,7-4.96-.92-10.58-1.95-13.75-6.23-.06-3.36,14.26-.51,16.44-.46,20.32.48,40.79-.52,61.03-2.05,10.57-.8,23.91-3.96,34.03-4,1.55,0,2.98.69,4.42,1.09Z"/>
      <path class="cls-1" d="M113.33,203.7c.06,8.6-21.12,3.47-24.75,1.3-2.15-1.29-1.26-3.47-2.77-5.29-2.38-2.86-9.27-5.06-8.49.98l-1.38-.1c-7.8-4.05-16.97-6.1-24.63-10.39-1.86-1.04-12.5-7.92-9.98-10.51l71.99,24.01Z"/>
      <path class="cls-1" d="M140.33,3.7c.23,1.74-2.27.94-3.48.99-6,.25-12.06-.3-18.05-.04-2.13.09-4.04.94-5.97,1.03-30.2,1.41-61,1.33-90.48,8-.15-1.44,2.36-1.62,3.48-2,8.25-2.8,18.32-4.12,27.02-4.98,16.5-1.64,34.47-2.55,50.95-3.05,12.15-.37,24.39.35,36.54.05Z"/>
      <path class="cls-1" d="M15.32,315.68c-1.79.23-.97-2.24-.86-3.36.94-10.02,4.24-20.67,5.19-30.82l13.67-69.81c-4.47,34.87-12.54,69.25-18,103.99Z"/>
      <path class="cls-1" d="M90.32,352.68c-1.74.23-.94-2.27-.99-3.49-1.78-43.83-6.68-87.6-7.99-131.5,1.74-.24.95,2.27.99,3.48.85,23.05,3.51,46.03,4.99,69.02.28,4.31-.25,8.67.02,12.98,1.02,16.47,3.41,32.97,2.98,49.51Z"/>
      <path class="cls-1" d="M12.33,16.7c-6.81,7.61-7.59,17.88-8.9,27.6.99,19.55,5.47,39.57,6.89,58.91.08,1.11.74,3.73-.98,3.48-.9-22.53-8.83-48.2-7.05-70.53.51-6.33,3.38-17.25,10.04-19.45Z"/>
      <path class="cls-1" d="M176.33,220.69c1.23-1.62,1.81.01,2,1.48,1.68,13.16-1.29,29.53.05,43.07-1.98,10.87-.59,21.97-1.05,32.96-.05,1.23.76,3.71-1,3.49v-81Z"/>
      <path class="cls-1" d="M165.33,195.7c.23,1.74-2.27.94-3.48.99-11.41.47-24.5.43-35.73-1.28-14.88-2.26-32.61-8.18-46.98-13.03-1.05-.36-3.02-.22-2.79-1.68,17.97,4.15,35.22,11.49,53.64,13.85,11.78,1.51,23.48,1.19,35.35,1.15Z"/>
      <path class="cls-1" d="M18.33,15.7c-6.92,5.68-9.26,12.73-10.03,21.54.64,17.06,3.74,34,5.02,50.96.08,1.11.8,4.65-.98,4.48-.63-19.09-7.08-40.52-5.02-59.5.66-6.09,4.62-15.59,11.01-17.48Z"/>
      <path class="cls-1" d="M176.32,65.68l-7.65-42.84c-1.43-5.9-2.89-10.84-7.34-15.15,5.11,1.1,6.76,8.36,7.92,12.56,3.94,14.29,4.82,30.72,7.06,45.42Z"/>
      <path class="cls-1" d="M21.33,134.68c-8.35-1.27-9.51-14.11-9.99-20.99l5.42,16.06,4.57,4.92Z"/>
      <path class="cls-1" d="M42.33,168.69c-.56,2.12,1.72,7.81-1.98,7l-.91-5.35,2.89-1.65Z"/>
      <path class="cls-1" d="M70.32,177.7c.14.13-.05.66,0,.98-2.04.05-3.95-.92-5.99-1v-.98c.72-.34,5.51.57,5.99,1Z"/>
      <rect class="cls-1" x="13.34" y="93.69" width=".98" height="5.99"/>
      <rect class="cls-1" x="188.34" y="193.7" width="5.99" height=".98"/>
      <path class="cls-1" d="M61.32,174.7c.14.13-.05.66,0,.98-.83.38-5.54-.65-4.99-1.98.54-.25,4.68.71,4.99,1Z"/>
    </g>
  </g>
</svg>