<?xml version="1.0" encoding="UTF-8"?>
<svg id="_레이어_2" data-name="레이어 2" xmlns="http://www.w3.org/2000/svg" viewBox="0 0 181.33 232.11">
  <defs>
    <style>
      .cls-1 {
        fill: #fff;
      }
    </style>
  </defs>
  <g id="_레이어_1-2" data-name="레이어 1">
    <g>
      <path d="M73.16,19.36l1.44-13.06c.86-2.39,2.67-3.49,5.12-3.88,5.53-.87,28.36-.88,33.88,0,3.63.58,4.33,3.49,8,3.99,6.94.95,17.69-1.83,25.01-2.09,3.04-.11,7.49-.78,9.54,1.54v26.5c11.69-.59,22.63,6.26,24,18.5,3.7,32.88-2.81,72.45.04,106.04-2.53,17.84.36,36.62-2.49,54.51-3.77,23.7-25.72,19.25-43.09,19.91-29.16,1.1-57.76,1.02-86.92,0-26.81-.94-43.22,4.68-45.53-29.47C-.6,160.99-.44,110.96,1.11,69.81c.29-7.57.47-20.15,3.51-26.49,3.46-7.22,10.39-11.58,18.54-10.96.79-7.62-.13-18.18,1.05-25.44.86-5.27,4.83-6.08,9.45-6.55,7.48-.75,27.63-.39,34.77,1.2,1.18.26,4.71,2.51,4.71,3.29v14.5ZM69.16,5.36H29.16c.32.98-1,2.17-1,2.5v57.5h42l-1-60ZM114.16,5.36h-35l-1.86,59.36,1.9,1.22,9.96-.59c-.63-2.41-.5-15.97,1.5-15.97,4.21,2.27-1.7,16.98,2,16.98h22.5l-1-61ZM120.16,9.36v57l11.07-.43,3.43-14.55c4.06,2.21-1.64,13.31.44,14.51l16.01-.58c1.98-18.9,2.23-37.95,2.05-56.96l-33.01,1.01ZM160.15,66.36c-1.88-.08-2.05-.47-2.03,1.52.1,9.56,3.24,21.5,3.04,31.48-4.32-.73-8.4.82-12.46,1.04-34.81,1.95-75.1.31-110-1.08-5.07-.2-15.99,1.08-19.89.05-1.06-.28-.29-2.33-1.14-2.01-1.35.91-1.38,2-1.54,3.46-.87,7.8.75,17.08,0,25.08l3.15,46.36,143.9,1.11,1.04-68.55-4.05-38.46Z"/>
      <path class="cls-1" d="M69.16,5.36l1,60H28.16V7.86c0-.33,1.32-1.52,1-2.5h40ZM39.13,19.36h-2.97s0,8,0,8h2.97v-8ZM46.14,26.36l-.48-5.99c-1.72,1.28-3.06,6.87.48,5.99Z"/>
      <path class="cls-1" d="M114.16,5.36l1,61h-22.5c-3.7,0,2.21-14.71-2-16.98-2,0-2.13,13.56-1.5,15.97l-9.96.59-1.9-1.22,1.86-59.36h35ZM87.15,20.36h-1.99v5.99h1.99v-5.99ZM94.14,25.35l.98-2.5-1.96-1.49v3.99s.98,0,.98,0Z"/>
      <path class="cls-1" d="M120.16,9.36l33.01-1.01c.18,19.01-.07,38.06-2.05,56.96l-16.01.58c-2.08-1.2,3.62-12.3-.44-14.51l-3.43,14.55-11.07.43V9.36ZM130.15,19.35h-2.99c.16,2.69-.96,6.03,1.51,8,3.14.06.82-6.26,1.48-8ZM136.17,26.36l2.04-2.5-1.56-2.49-.49,4.99Z"/>
      <path class="cls-1" d="M160.15,66.36l4.05,38.46-1.04,68.55-143.9-1.11-3.15-46.36c.75-8-.87-17.28,0-25.08.16-1.46.19-2.54,1.54-3.46.85-.33.08,1.73,1.14,2.01,3.91,1.03,14.83-.25,19.89-.05,34.9,1.4,75.19,3.03,110,1.08,4.06-.23,8.14-1.78,12.46-1.04.2-9.98-2.94-21.92-3.04-31.48-.02-2,.15-1.6,2.03-1.52ZM161.16,169.86v-67l-142.42-1.56c-.77.14-1.21,4.33-1.2,5.39.07,7.2,1.97,61.39,4.55,63.23l139.07-.07Z"/>
      <polygon points="39.13 19.36 39.13 27.36 36.16 27.37 36.16 19.35 39.13 19.36"/>
      <path d="M46.14,26.36c-3.54.88-2.2-4.71-.48-5.99l.48,5.99Z"/>
      <rect x="85.16" y="20.36" width="1.99" height="5.99"/>
      <polygon points="94.14 25.35 93.17 25.35 93.17 21.36 95.13 22.85 94.14 25.35"/>
      <path d="M130.15,19.35c-.66,1.73,1.66,8.05-1.48,8-2.47-1.96-1.35-5.31-1.51-8h2.99Z"/>
      <polygon points="136.17 26.36 136.65 21.36 138.21 23.86 136.17 26.36"/>
      <path d="M161.16,169.86l-139.07.07c-2.58-1.84-4.49-56.03-4.55-63.23,0-1.06.43-5.26,1.2-5.39l142.42,1.56v67ZM104.03,155.23l2.11-11.87-2.99,10.99c-4.29-.12-3.55-4.71-4.03-7.47-.31-1.78,1.08-2.98-1.95-2.52l1.43,10.05,5.44.81ZM83.16,153.35c-1.7-2.61-1.75-6.58-4.99-7.99-.62,1.95,1.86,10.33,4.99,7.99ZM146.14,161.35l1.58-12.02-1.07-3.97-1.54,6.45,1.03,9.53ZM134.17,155.36c3.3-1.54,4.05-5.69,3.98-9l-3.98,9ZM45.15,159.37l-13.06-.44-2.92-11.56c.47,3.36-1.31,10.97,1.39,13.09,2.76,1.38,6.96,1.17,10.1.91,1.17-.1,4.48-.3,4.49-1.99ZM53.15,156.35l-2.49-7.99c-2.1,1.78-.76,8.5,2.49,7.99Z"/>
      <path class="cls-1" d="M45.15,159.37c0,1.69-3.32,1.89-4.49,1.99-3.14.26-7.34.47-10.1-.91-2.7-2.12-.92-9.73-1.39-13.09l2.92,11.56,13.06.44Z"/>
      <path class="cls-1" d="M104.03,155.23l-5.44-.81-1.43-10.05c3.04-.47,1.64.73,1.95,2.52.48,2.77-.26,7.35,4.03,7.47l2.99-10.99-2.11,11.87Z"/>
      <polygon class="cls-1" points="146.14 161.35 145.11 151.82 146.65 145.36 147.72 149.33 146.14 161.35"/>
      <path class="cls-1" d="M83.16,153.35c-3.13,2.34-5.61-6.04-4.99-7.99,3.24,1.41,3.29,5.38,4.99,7.99Z"/>
      <path class="cls-1" d="M53.15,156.35c-3.25.51-4.59-6.21-2.49-7.99l2.49,7.99Z"/>
      <path class="cls-1" d="M134.17,155.36l3.98-9c.07,3.31-.68,7.46-3.98,9Z"/>
    </g>
  </g>
</svg>