<?xml version="1.0" encoding="UTF-8"?>
<svg id="_레이어_2" data-name="레이어 2" xmlns="http://www.w3.org/2000/svg" viewBox="0 0 117.22 139.42">
  <defs>
    <style>
      .cls-1 {
        fill: #fff;
      }
    </style>
  </defs>
  <g id="_레이어_1-2" data-name="레이어 1">
    <g>
      <path d="M69.43,17.18l-5.82,1.17v7.91c30.01,3.73,59.82,32.04,52.48,64.08-10.06,43.95-57.22,65.13-94.01,34.94C-21.74,89.33,4.46,27.41,58.57,26.31c1.08-5.45-1.26-7.54-3.86-11.68-.43-4.73,10.28-3.3,13.21-3.19,2.15.71,1.89,3.87,1.51,5.74ZM58.36,38.6C8.51,43.32-1.05,101.42,47.89,121.48c38.1,15.61,72.74-33.52,50.67-62.67-8.98-11.87-25.04-21.64-40.21-20.21Z"/>
      <path d="M38.26,27.01c-3.46,4.06-18.14,9.02-22.67,13.87l-3.77-.83c-6.17-6.41,9.79-15.3,14.43-18.58,1.52-1.08,4.21-1.57,5.3-2.7,2.53-2.6,2.2-9.57,6.79-13.49,7.34-6.26,34.08-6.62,42.63-2.89,7.11,3.1,9.02,9.55,10.53,16.47,4.16,3.79,14.52,11.49,17.12,15.88s-.68,7.51-5.3,6.34c-1.18-.3-18.33-13.47-19.33-14.71-5.38-6.64,4.8-5.89,2.13-14.14-3.49-10.79-27.97-9.39-36.79-7.69-6.44,1.24-12.01,4.1-12.7,11.36-.52,5.53,5.16,6.97,1.64,11.1Z"/>
      <path class="cls-1" d="M58.36,38.6c15.16-1.44,31.23,8.34,40.21,20.21,22.07,29.16-12.57,78.29-50.67,62.67C-1.05,101.42,8.51,43.32,58.36,38.6ZM60.57,43.8c.56,10.27-.41,20.71,0,31,0,3.26-8.33-1.92-9.73-2.27-.86-.22-4.3-.75-4.28.28.69,3.78,5.6,4.1,7.98,6.02s2.67,5.33,6.03,5.47v39c1.62-.15,1.89-4.29,1.99-5.51.8-9.43-1.61-23.54.03-31.97.47-2.44,3.1-2.99,3.1-6.01s-2.62-3.57-3.1-6.01c-1.1-5.68,1.47-30.85-1.03-33.49-4-.54-1.05,2.43-.99,3.5ZM55.55,48.3c.16-2.57-.33-5.89-2.98-7,.11,2.29.59,6.01,2.98,7ZM46.56,46.3c.67-1.25-1.6-3.49-1.98-3-.67,1.25,1.6,3.49,1.98,3ZM39.57,46.31c2.54,7.22,5.81,1.73,1.49,0-.43-.17-1.01.03-1.49,0ZM81.57,55.3c2.23-1.16,4.43-3.23,3.98-6-1.59.27-4.81,4.98-3.98,6ZM37.56,56.29l-6.99-4.99c-1.44,1.52,5.33,5.87,6.99,4.99ZM33.56,59.32l-6.97-2.52c1.03,1.36,5.67,5.38,6.97,2.52ZM93.56,60.3v-1.99s-1.99,1.5-1.99,1.5l1.99.49ZM30.56,63.32l-7.98-3.01c-2,1.89,6.88,6.27,7.98,3.01ZM98.56,63.31c-1.87-.26-3.46,0-3.99,1.98h3.99s0-1.98,0-1.98ZM31.56,70.32c-4.25-.75-7.42-4.59-11.99-4,1.36,2.24,6.26,4.11,8.73,4.76.97.26,3.52,1,3.26-.76ZM100.56,69.31l-4.99,1.01v1.98s5-1.01,5-1.01v-1.98ZM30.57,73.31l-13-1c-.27,1.31,1.84,1.59,2.74,1.74,2.87.46,5.96.81,8.85,1.18,1.98.25,1.44-.23,1.42-1.92ZM28.56,81.31c-2.28.73-9.72-1.95-9,1.98,2.83-.32,7.51,1.33,9-1.98ZM102.55,84.3v-1.99h-.98v1.99h.98ZM102.57,88.31l-12.99-3.01c-.45,2.54.38,1.81,1.99,2.45,1.95.78,6.68,2.06,8.73,2.33s2.56.86,2.27-1.77ZM31.56,86.31c-3.41.67-8.92.87-11,3.98,3.44-.2,8.86-1.01,11-3.98ZM31.56,93.31c-.72-.66-8.01,2.16-6.98,4.99,2.35-1.35,7.07-1.34,6.98-4.99ZM100.56,96.29l-1.99-1.99v1.99s1.99,0,1.99,0ZM29.57,105.3c.74.71,12.47-6.5,10.98-7.99-1.09.45-12.99,6.06-10.98,7.99ZM96.56,101.29l-1.51-1.98h-1.48s0,1.98,0,1.98h2.99ZM91.56,106.29c-.82-2.08-3.12-3.12-4.99-3.99-1.5,1.52,3.99,4.3,4.99,3.99ZM51.56,103.31c-1.62-1.97-4.42,5.46-3.99,5.99,1.62,1.97,4.42-5.46,3.99-5.99ZM39.56,108.31c-3.25-.85-3.59,1.85-5,3.98,1.08.97,4.67-2.76,5-3.98ZM79.27,109.6c-.23-.29-3.4-2.5-2.69.18.86.71,4.03,9.48,5.99,7.51-1.27-2.3-1.71-5.68-3.29-7.69ZM86.56,115.29c.37-.35-3.43-5.91-4.99-5.99-.71,1.7,3.57,7.33,4.99,5.99ZM43.07,114.3v1c.65-.33.65-.67,0-1ZM45.57,118.3c.38.49,2.65-1.75,1.98-3-.38-.49-2.65,1.75-1.98,3ZM74.56,122.3c.45-2.79-1.78-4.86-3.98-6-.83,1.01,2.41,5.75,3.98,6ZM54.56,120.3l-.49-2.99-1.5,1.51v1.48s1.98,0,1.98,0Z"/>
      <path d="M60.57,43.8c-.06-1.07-3.01-4.04.99-3.5,2.5,2.63-.08,27.8,1.03,33.49.47,2.44,3.1,2.99,3.1,6.01s-2.62,3.57-3.1,6.01c-1.63,8.43.77,22.54-.03,31.97-.1,1.22-.37,5.36-1.99,5.51v-39c-3.37-.14-3.77-3.64-6.03-5.47s-7.29-2.24-7.98-6.02c-.02-1.04,3.43-.5,4.28-.28,1.39.35,9.73,5.53,9.73,2.27-.41-10.29.56-20.73,0-31Z"/>
      <path d="M102.57,88.31c.29,2.63-.14,2.05-2.27,1.77s-6.78-1.55-8.73-2.33c-1.61-.64-2.44.09-1.99-2.45l12.99,3.01Z"/>
      <path d="M29.57,105.3c-2.01-1.93,9.9-7.55,10.98-7.99,1.48,1.49-10.24,8.71-10.98,7.99Z"/>
      <path d="M30.57,73.31c.02,1.69.56,2.17-1.42,1.92-2.89-.37-5.98-.72-8.85-1.18-.89-.14-3-.43-2.74-1.74l13,1Z"/>
      <path d="M31.56,70.32c.26,1.76-2.29,1.02-3.26.76-2.48-.66-7.37-2.53-8.73-4.76,4.57-.59,7.74,3.25,11.99,4Z"/>
      <path d="M79.27,109.6c1.59,2.01,2.03,5.4,3.29,7.69-1.96,1.97-5.13-6.8-5.99-7.51-.7-2.69,2.47-.47,2.69-.18Z"/>
      <path d="M31.56,86.31c-2.14,2.97-7.56,3.78-11,3.98,2.08-3.11,7.59-3.31,11-3.98Z"/>
      <path d="M28.56,81.31c-1.49,3.32-6.16,1.66-9,1.98-.73-3.93,6.71-1.26,9-1.98Z"/>
      <path d="M31.56,93.31c.09,3.66-4.64,3.64-6.98,4.99-1.02-2.83,6.27-5.66,6.98-4.99Z"/>
      <path d="M30.56,63.32c-1.1,3.26-9.99-1.12-7.98-3.01l7.98,3.01Z"/>
      <path d="M37.56,56.29c-1.66.88-8.43-3.47-6.99-4.99l6.99,4.99Z"/>
      <path d="M55.55,48.3c-2.39-.99-2.87-4.71-2.98-7,2.65,1.11,3.14,4.43,2.98,7Z"/>
      <path d="M51.56,103.31c.43.53-2.37,7.96-3.99,5.99-.43-.53,2.37-7.96,3.99-5.99Z"/>
      <path d="M86.56,115.29c-1.42,1.34-5.7-4.29-4.99-5.99,1.56.08,5.36,5.64,4.99,5.99Z"/>
      <path d="M81.57,55.3c-.83-1.02,2.39-5.73,3.98-6,.45,2.77-1.75,4.84-3.98,6Z"/>
      <path d="M74.56,122.3c-1.57-.25-4.81-4.99-3.98-6,2.2,1.14,4.43,3.21,3.98,6Z"/>
      <polygon points="100.56 69.31 100.56 71.29 95.57 72.3 95.56 70.31 100.56 69.31"/>
      <path d="M39.56,108.31c-.33,1.22-3.92,4.95-5,3.98,1.41-2.13,1.75-4.83,5-3.98Z"/>
      <path d="M33.56,59.32c-1.31,2.86-5.94-1.16-6.97-2.52l6.97,2.52Z"/>
      <path d="M91.56,106.29c-.99.31-6.49-2.47-4.99-3.99,1.87.87,4.17,1.9,4.99,3.99Z"/>
      <path d="M39.57,46.31c.47.03,1.05-.17,1.49,0,4.32,1.73,1.06,7.22-1.49,0Z"/>
      <path d="M98.56,63.31v1.99s-3.99,0-3.99,0c.53-1.99,2.13-2.24,3.99-1.98Z"/>
      <polygon points="96.56 101.29 93.57 101.3 93.57 99.31 95.05 99.31 96.56 101.29"/>
      <polygon points="54.56 120.3 52.57 120.3 52.57 118.82 54.07 117.31 54.56 120.3"/>
      <path d="M45.57,118.3c-.67-1.25,1.6-3.49,1.98-3,.67,1.25-1.6,3.49-1.98,3Z"/>
      <path d="M46.56,46.3c-.38.49-2.65-1.75-1.98-3,.38-.49,2.65,1.75,1.98,3Z"/>
      <polygon points="100.56 96.29 98.57 96.3 98.58 94.3 100.56 96.29"/>
      <polygon points="93.56 60.3 91.57 59.81 93.56 58.3 93.56 60.3"/>
      <rect x="101.58" y="82.31" width=".98" height="1.99"/>
      <path d="M43.07,114.3c.65.33.65.67,0,1v-1Z"/>
    </g>
  </g>
</svg>