<?xml version="1.0" encoding="UTF-8"?>
<svg id="_레이어_2" data-name="레이어 2" xmlns="http://www.w3.org/2000/svg" viewBox="0 0 327.14 371.14">
  <defs>
    <style>
      .cls-1 {
        fill: #fff;
      }
    </style>
  </defs>
  <g id="_레이어_1-2" data-name="레이어 1">
    <g id="_4s8cgh" data-name="4s8cgh">
      <g>
        <path class="cls-1" d="M208.79,16.95c-7.89-5.48-13.79-10.22-23.35-13.17-21.83-6.74-56.28-4.56-76.14,7.3-2.35,1.4-10.11,8.1-10.77,8.26-1.97.46-7.08-1.67-9.82-1.82-28.77-1.61-43.15,7.93-61.51,28.46C7.8,67.66-5.85,94.94,2.5,124.72c11.6,41.38,65.87,51.63,70.59,1.15,2.53-27.05,2.29-54.21,13.11-79.89l5.01-9.47c-6.78,27.2-21.26,60.47-3.82,86.32,2.34,3.47,6.54,4.88,6.19,9.49-.51,6.87-4.88,19.92-7.1,26.95-9.44,29.88-26.11,55.89-35.29,85.71-9.03,29.35-16.96,80.88-7.02,110.06,5.6,16.45,13.38,9.21,25.5,11.5,1.93.37,3.02,2.04,4.55,2.45,8.76,2.37,35.07,2.62,44.52,1.53,6.36-.73,6.83-4.6,8.03-9.97,5.5-24.74-3.28-56.04,4.5-80.5,1.29-4.04,6.23-9.81,4.56-4.44-9.01,29.06-4.49,60.78-5.62,90.89l68.58.02c-1.94-32.36,2.16-67.1-12.57-97.01,2-.43,2.32.99,3.24,2.25,5.89,8.01,8.94,35.7,9.75,46.25.98,12.86-.62,29.8,1.1,41.9.81,5.73,4.58,9.92,10.39,10.61,8.08.96,36.03.79,42.76-2.29,2.88-1.32,5.26-5.03,6.68-5.32,3.33-.67,13.61.89,18.57.57,19.31-1.24,34.58-7.69,43.22-25.78,4.74-9.92,9.61-30.55-1.76-37.66-10.81-6.76-11.33,8.02-16.13,14.78-7.93,11.18-22.77,18.79-36.41,14.74,2.59-42.37-20.79-79.48-32.13-118.85-7.32-25.4-11.6-51.62-15.34-77.77.08-3.08,4.91-7.32,6.69-10.32,10.89-18.34,7.29-32.84,2.09-52.34-3.05-11.43-8-22.25-10.71-33.78,3.82,4.37,6.01,11.83,8.01,17.48,4.32,12.19,8.54,26.58,10.69,39.31,4.3,25.49-.9,68.95,37.67,65.09,28.98-2.9,40.13-36.03,37.5-61.25-3.53-33.86-49.19-84.09-86.27-80.52l-15.13,2.01c-1.73-.04-1.41-1.31-1.9-1.65Z"/>
        <path d="M208.79,16.95c.49.34.17,1.61,1.9,1.65l15.13-2.01c37.08-3.56,82.74,46.67,86.27,80.52,2.63,25.23-8.52,58.35-37.5,61.25-38.57,3.86-33.37-39.6-37.67-65.09-2.15-12.73-6.37-27.12-10.69-39.31-2-5.65-4.19-13.11-8.01-17.48,2.7,11.53,7.66,22.35,10.71,33.78,5.2,19.5,8.8,34.01-2.09,52.34-1.78,2.99-6.61,7.24-6.69,10.32,3.74,26.15,8.02,52.37,15.34,77.77,11.35,39.36,34.72,76.48,32.13,118.85,13.64,4.05,28.47-3.56,36.41-14.74,4.79-6.75,5.32-21.54,16.13-14.78,11.37,7.11,6.49,27.74,1.76,37.66-8.63,18.09-23.91,24.54-43.22,25.78-4.96.32-15.24-1.25-18.57-.57-1.42.29-3.8,4-6.68,5.32-6.73,3.08-34.67,3.25-42.76,2.29-5.81-.69-9.58-4.88-10.39-10.61-1.71-12.11-.11-29.05-1.1-41.9-.81-10.55-3.86-38.24-9.75-46.25-.92-1.26-1.24-2.68-3.24-2.25,14.73,29.91,10.63,64.65,12.57,97.01l-68.58-.02c1.13-30.11-3.39-61.83,5.62-90.89,1.67-5.37-3.28.4-4.56,4.44-7.78,24.45,1,55.76-4.5,80.5-1.19,5.37-1.67,9.24-8.03,9.97-9.45,1.09-35.76.84-44.52-1.53-1.53-.41-2.61-2.09-4.55-2.45-12.12-2.3-19.89,4.95-25.5-11.5-9.94-29.18-2.01-80.71,7.02-110.06,9.18-29.82,25.85-55.83,35.29-85.71,2.22-7.03,6.59-20.09,7.1-26.95.34-4.6-3.85-6.01-6.19-9.49-17.44-25.85-2.97-59.12,3.82-86.32l-5.01,9.47c-10.82,25.68-10.58,52.84-13.11,79.89-4.72,50.48-58.99,40.22-70.59-1.15-8.35-29.78,5.3-57.06,24.69-78.74,18.36-20.53,32.74-30.07,61.51-28.46,2.74.15,7.85,2.28,9.82,1.82.66-.16,8.42-6.85,10.77-8.26C129.16-.78,163.6-2.96,185.44,3.78c9.56,2.95,15.47,7.69,23.35,13.17ZM118.92,55.71c-5.88,1.76-6.77,12.1.02,13.59,13.23,2.91,12.81-17.43-.02-13.59ZM197.85,55.75c-8.71.95-8.82,16.96,2.83,14.73,8.84-1.69,5.45-15.63-2.83-14.73ZM165.22,147.5v-31.5c6.72-3.46,18.55-11.13,17.97-19.94-.78-11.97-37.76-10.95-37.69-.25.05,7.41,9.92,18.59,17.72,18.69v33c-15.21.98-44.46-2.23-42.68-23.38.16-1.95,2.44-3.97,1.19-5.61-7.91,12.75,3.1,26.49,15.69,30.3,10.57,3.2,42,2.71,52.51-1.09,12.48-4.52,18.3-19.77,9.3-30.21,5.17,10.3,2.94,21.51-7.96,26.55-1.91.89-9.97,3.45-11.55,3.45h-14.5Z"/>
        <path class="cls-1" d="M165.22,147.5h14.5c1.58,0,9.63-2.57,11.55-3.45,10.9-5.04,13.13-16.24,7.96-26.55,8.99,10.44,3.17,25.68-9.3,30.21-10.51,3.81-41.93,4.29-52.51,1.09-12.59-3.81-23.6-17.55-15.69-30.3,1.25,1.64-1.02,3.67-1.19,5.61-1.77,21.16,27.47,24.36,42.68,23.38v-33c-7.8-.1-17.67-11.28-17.72-18.69-.07-10.71,36.91-11.72,37.69.25.58,8.81-11.25,16.48-17.97,19.94v31.5ZM158.98,90.76c-10.66,1.55-13.16,7-5.76,15.24,8,8.9,19.95,6.69,25.84-3.14,7.29-12.17-12.23-13.24-20.09-12.1Z"/>
        <path class="cls-1" d="M197.85,55.75c8.28-.9,11.67,13.05,2.83,14.73-11.65,2.23-11.54-13.79-2.83-14.73ZM197.95,57.66c-7.06,1.08-6.03,11.77.77,11.77,7.97,0,7.01-12.96-.77-11.77Z"/>
        <path class="cls-1" d="M118.92,55.71c12.83-3.84,13.26,16.5.02,13.59-6.8-1.49-5.9-11.83-.02-13.59ZM119.95,56.65c-5.52,1.47-4.69,11.48.72,11.79,9.51.53,7.58-14-.72-11.79Z"/>
        <path d="M158.98,90.76c7.85-1.14,27.38-.07,20.09,12.1-5.89,9.83-17.84,12.04-25.84,3.14-7.4-8.24-4.9-13.68,5.76-15.24Z"/>
        <path d="M197.95,57.66c7.79-1.19,8.75,11.77.77,11.77-6.8,0-7.83-10.69-.77-11.77Z"/>
        <path d="M119.95,56.65c8.3-2.21,10.23,12.32.72,11.79-5.41-.3-6.24-10.31-.72-11.79Z"/>
      </g>
    </g>
  </g>
</svg>