<?xml version="1.0" encoding="UTF-8"?>
<svg id="_레이어_2" data-name="레이어 2" xmlns="http://www.w3.org/2000/svg" viewBox="0 0 286.6 382.04">
  <defs>
    <style>
      .cls-1 {
        fill: #fff;
      }
    </style>
  </defs>
  <g id="_레이어_1-2" data-name="레이어 1">
    <g>
      <path d="M139.31,267.69c3.03.47,1.6-.74,2.02-2.43.57-2.28,1.51-14.45,2.56-14.63,17.94.43,36.04-.69,53.91,1.07,7.11.7,27.77,3.2,31.4,9.6,3.07,5.43-.58,15-1.97,20.81-7.38,30.95-19.7,61.74-27.17,92.83-.75,2.13-2.55,2.83-4.52,3.48-6.65,2.2-20.32,2.97-27.69,3.31-20.75.96-43.23-.11-63.31-5.27-4.81-14.14-9.46-28.45-13.72-42.77-4.83-16.22-10.4-34.43-14.22-50.78-5.58-23.89-4.97-28.44,21.17-30.26,10.42-.72,21.42-.13,31.91-.82l3.13,8.86c4-4.71-4.23-17.29-7.5-21.49-8.19-10.56-41.8-24.86-55.32-30.68-7.51-3.23-21.34-9.81-29.21-8.88-2.96.35-10.38,7.49-10.47,1.61-.03-1.79,2.3-5.08,3.48-6.58,19.37-24.65,63.12.27,77.94,19.11,5.69,7.23,12.3,17.92,18.03,25.99.73,1.03,2.97,7.44,3.58,2.42.32-2.61-.43-6.24-1.28-8.74-1.94-5.69-13.56-23.89-17.51-29.49-22.18-31.38-54.07-51.6-82.24-76.76C19.09,115.41-3.72,89.31.52,70.4c2.57-11.46,24.98-6.41,33-4.42,27.8,6.92,50.18,33.29,66.61,55.39,17.48,23.51,23.32,36.95,26.12,66.97.22,2.38-1.21,4.34-.79,6.61.32,1.73,4.81,8.3,6.03,11.06,1.31,2.94,1.33,6.24,3.33,8.67.4-3.1,1.35-6.32,1.54-9.45,1.3-21.82.45-44.38-5.78-65.3-5.23-17.57-11.58-19.72-22.24-32.76-19.43-23.78-28.72-47.38-23.75-78.7,1.14-7.16,6.18-29.95,15.74-28.39,14.72,2.41,39.48,31.13,45.8,44.29,15.11,31.47.75,76.62-4.82,109.31,2.32.63,1.68-.54,2.29-1.26,4.9-5.73,10.95-10.84,15.13-15.8,5.42-6.43,2.95-26.69,3.59-35.41,1.81-24.56,17.96-54.89,39.07-67.93,8.53-5.27,37.2-17.47,46.26-14.41,3.7,1.25,2.96,13.86,2.65,17.32-1.68,18.55-29.79,58.49-43.97,71.03-20.16,17.84-34.07,18.03-45.03,45.97-6.93,17.65-11.44,36.54-17.49,54.5l19.54-13.45c31.94-32.15,53.47-78.82,106.47-73.52,39.9,3.99-1.89,51.4-16.58,62.4-23.18,17.36-51.1,20.79-77.91,29.09-7.74,2.4-11.9,3.25-17.42,9.58-2.34,2.68-18.58,25.76-18.58,27.42v18.5ZM115.3,52.68c-1.72-8.66-4.1-17.17-6.97-25.51-2-5.8-5.24-14.83-7.8-20.2-.61-1.27-1.81-2.84-3.21-3.28,6.86,14.9,10.7,30.95,16.24,46.26.38,1.05.35,2.97,1.74,2.73ZM126.3,50.68c-1.23-11.04-6.42-25.69-12.46-35.02-2.02-3.12-4.57-6.23-8.53-6.96,6.59,4.78,9.36,11.56,12.86,18.63l8.13,23.35ZM108.3,49.68l-13.5-38.97,6.49,24.5,7.01,14.48ZM121.3,52.68l-8.22-26.26-6.76-13.73,13.25,37.24,1.73,2.75ZM136.3,61.68c-1.6-14.4-6.52-28.37-13.47-41.01-.81-1.46-1.98-4.43-3.51-4.98,7.7,14.4,11.49,27.48,15.28,43.22.24,1,.3,3.01,1.7,2.77ZM123.3,88.69c-5.23-16.37-15.09-30.35-23.17-45.32l-7.81-22.68c.14,9.15,4.84,17.3,7.82,25.67l23.16,42.33ZM241.82,21.71c-22.69,16.02-41.34,37.67-53.02,62.96,9.99-16.19,19.31-31.53,32.99-45l20.03-17.96ZM223.72,44.1c-18.22,20.34-31.2,44.52-43.93,68.56,12.28-16.58,19.91-36.29,32.12-52.87,10.09-13.71,23.08-24.2,34.37-36.62-3.05,1.79-5.95,4.57-8.57,6.95-4.79,4.36-9.65,9.12-13.99,13.98ZM188.29,70.68c5.76-14.66,16.84-25.85,28-36.5l13.52-10.47c-16.41,8.69-34.7,26.83-41.73,44.26-.36.9-1.79,2.88.21,2.71ZM138.3,100.68c2.75-23.66,7.83-50.09-6.5-70.97,3.8,9.78,7.78,19.83,8.5,30.49.83,12.33-2.31,24.7-3.03,36.96-.06,1.09-.64,3.79,1.03,3.53ZM171.3,118.68c.67-24.24,6.56-49.15,22.61-67.89l17.91-20.08c-13,11.82-25.68,24.8-32.69,41.3-4.72,11.11-8.15,27.09-8.86,39.14-.1,1.61-.75,6.85,1.03,7.54ZM132.3,119.68c-6.82-21.24-19.98-39.52-30.51-58.97l-13.47-29.02,5.28,16.21,38.7,71.78ZM234.96,44.34l-19.16,19.33-3,4.99c9.59-12.31,22.54-21.64,32-33.99.6-.79,2.7-1.92,1.02-2.98-4.11,3.75-7.11,8.6-10.85,12.65ZM195.29,103.68c9.55-19.36,22.54-35.57,38.53-49.98l12-14.99c-18.83,19.46-38.35,37.85-50.56,62.43-.42.84-2.19,2.48.04,2.54ZM166.3,116.68c1.79-17.51,4.21-35.43,12.19-51.31,3.87-7.7,9.73-14.44,14.33-21.66-18.17,18.2-26.11,44.19-27.55,69.45-.06,1.09-.64,3.79,1.03,3.53ZM142.29,133.68c2.65-29.11,11.02-60.78.51-89,.08,6.23,2.95,12.32,3.48,18.53,1.88,21.95-3.24,44.24-4.97,66-.09,1.1-.8,4.66.98,4.48ZM243.82,45.71c-6.01,6.46-8.65,15.73-13.1,22.89-7.42,11.95-19.67,21.82-26.92,34.07,16.1-16.8,31.28-35.11,40.02-56.96ZM126.81,53.69v1c.65-.33.65-.67,0-1ZM123.3,60.68c.77-1.64-1.34-7.37-1.98-5.99l1,5.99h.98ZM91.32,61.69c.32,2.53,1.78,5.14,3.5,6.97-.59-1.96-1.64-5.99-3.5-6.97ZM232.31,61.7c-.79-.76-5.75,4.53-6.56,5.4-8.22,8.82-16.35,18.9-21.95,29.57,8.97-12.1,18.39-23.82,28.51-34.97ZM136.3,64.68v-1.99h-.98v1.99h.98ZM125.3,65.68l-1.98.48,2.97,10.52-.99-11ZM14.31,68.67c12.27,4.63,20.33,15.33,28.97,24.54,2.55,2.72,5.71,6.27,9.01,7.98-9.86-11.56-20.71-26.88-35.27-32.73-.9-.36-2.88-1.79-2.71.21ZM119.3,111.69l-23.98-41.99c6.58,14.42,14.09,29.77,23.98,41.99ZM184.29,80.68l3-8.99c-1.66.71-2.78,4.55-3.3,6.19-.29.93-1.6,3.04.3,2.79ZM97.3,166.68c-4.03-23.02-12.12-40.99-26.02-59.47-5.61-7.45-15.22-20.22-21.45-26.55-2.69-2.74-5.96-4.72-9.04-6.95,1.62,3.08,5.02,4.74,7.48,7.51,13.94,15.73,28.56,37.03,38.52,55.48l10.5,29.98ZM81.3,146.68c-6.26-21.39-26.66-34.34-43.68-46.81L5.31,79.7c8,8.05,18.98,13.52,28.32,20.17,12.16,8.67,24.58,17.26,34.66,28.34l13.02,18.47ZM183.3,84.68v-2.99h-.98v2.99h.98ZM128.3,85.68v-1.48s-1.5-1.5-1.5-1.5l.52,2.97h.98ZM180.32,89.69c1.92-.49,2.25-2.21,1.98-3.99-.48-1.03-2.39,2.69-1.98,3.99ZM187.81,85.69v1c.65-.33.65-.67,0-1ZM132.3,89.68v-2.99h-.98v2.99h.98ZM7.8,87.71c2,4.14,5.85,8.51,9,11.99,13.38,14.82,28.62,27.35,43.53,40.47,7.21,6.34,13.7,14.2,21.97,19.02-24.38-24.31-50.91-46.31-74.49-71.49ZM127.3,97.68c-.65-2.39-1.96-6.5-3.98-7.99.65,2.38,1.95,6.49,3.98,7.99ZM180.3,94.68v-2.99h-.98v2.99h.98ZM179.3,99.68v-1.99h-.98v1.99h.98ZM177.81,100.69v1c.65-.33.65-.67,0-1ZM138.3,106.68v-4.99h-.98v4.99h.98ZM200.82,104.71l-1.49,1.49.47.47c.55-.64,2.01-1.3,1.02-1.96ZM190.81,107.69v1c.65-.33.65-.67,0-1ZM138.3,110.68v-1.99h-.98v1.99h.98ZM107.3,165.68c-5.67-19.07-8.43-40.66-23.5-54.97,2.29,5.12,6.19,9.26,8.69,14.3,5.94,11.96,8.23,25.56,13.08,37.94.41,1.06.29,2.98,1.73,2.74ZM187.81,111.69v1c.65-.33.65-.67,0-1ZM178.81,113.69v1c.65-.33.65-.67,0-1ZM176.81,116.69v1c.65-.33.65-.67,0-1ZM165.81,118.69v1c.65-.33.65-.67,0-1ZM175.81,118.69v1c.65-.33.65-.67,0-1ZM170.81,119.69v1c.65-.33.65-.67,0-1ZM262.3,125.69c-22.34,7.89-33.22,30.55-51.08,44.41l-31.91,17.57c1.68.3,2.93-.53,4.37-1.12,7.66-3.12,20.79-9.8,27.53-14.47,13.33-9.23,23.43-25.43,36.08-35.92l15.01-10.48ZM183.32,178.69c13.93-10.74,23.75-27.38,36.98-38.51,5.65-4.76,12.63-7.86,17.99-13-20.77,8.47-32.42,27.81-47.33,43.16-2.24,2.31-7.27,4.45-7.64,8.35ZM245.82,126.71c-19.12,13.46-33.71,31.63-51.49,46.49,12.73-6.55,21.2-18.93,31.45-28.54,5.66-5.3,12.22-9.85,18-15,.67-.6,2.76-1.96,2.04-2.95ZM136.15,130.84l-4.35-2.15c-1.48-.5,5.67,20.18,4.79,22.22l1.7,2.77-2.15-22.84ZM220.89,169.25c-3.68,3.21-7.54,6.17-11.57,8.95,9.75-3.27,15.67-11.63,22.97-18.02,2.74-2.41,6.33-4.55,9.03-6.97,8.4-7.54,15.86-16.19,24.97-23.02-10.35,4.45-16.87,13.82-24.97,21.02-6.75,6.01-13.66,12.15-20.43,18.05ZM281.31,129.7c-30.13,9.9-43.21,45.05-72.75,55.74l-20.24,6.24c33.35-2.1,49.86-27.06,71.98-47.5l21.01-14.48ZM140.32,203.69c1.73-.27,1.74-1.99,2.26-3.23,6.15-14.39,9.12-31.37,14.98-46.02l9.74-20.75c-11.89,9.7-24.58,20.14-25.98,36.51-.92,10.77.59,22.5-1.01,33.48ZM282.31,138.7c-27.04,9.51-42.5,41.65-69.46,50.03-4.3,1.34-7.74,1.37-11.78,2.23-.96.2-3,.36-2.75,1.72,16.16-1.04,30.1-9.1,42.01-19.48,5.47-4.77,10.02-10.73,15.51-15.49,8.29-7.16,18.01-12.15,26.47-19.02ZM120.31,183.68c-4.39-11.13-6.07-23.25-9.98-34.51-.65-1.87-.87-4.74-3.01-5.48,3.46,12.53,5.75,25.75,10.74,37.8.61,1.48-.61,2.73,2.25,2.19ZM81.81,147.69v1c.65-.33.65-.67,0-1ZM269.32,156.69c.33.35,6.74-5.52,6.5-6.98-1.36,1.32-2.67,2.69-4.03,4.01-1.15,1.11-3.18.29-2.47,2.97ZM267.3,158.7c-6.12,2.4-10.24,8.44-14.98,12.5s-10.29,7.66-14.99,12l13.45-9.54,16.52-14.96ZM98.3,169.68v-1.99h-.98v1.99h.98ZM261.82,167.71l-1.49,1.49.47.47c.55-.64,2.01-1.3,1.02-1.96ZM185.81,178.69v1c.65-.33.65-.67,0-1ZM207.81,178.69v1c.65-.33.65-.67,0-1ZM249.81,178.69v1c.65-.33.65-.67,0-1ZM205.81,179.69v1c.65-.33.65-.67,0-1ZM204.3,180.69c-1.22-.23-5.12,1.47-3.99,1.98,1.22.23,5.12-1.47,3.99-1.98ZM133.3,226.69c-1.31-12.1-8.61-22.21-13.54-32.95l-17.96-11.03,16.34,19.65,15.16,24.33ZM180.3,184.68v-1.99s-1.99,1.5-1.99,1.5l1.99.49ZM198.81,182.69v1c.65-.33.65-.67,0-1ZM226.31,189.68c3.62-.75,6.94-3.5,9.97-5.5-1.89-.15-3.89,1.64-5.47,2.52-1.37.76-4.14,1.65-4.5,2.98ZM193.81,184.69v1c.65-.33.65-.67,0-1ZM191.81,185.69v1c.65-.33.65-.67,0-1ZM62.81,186.69v1c.65-.33.65-.67,0-1ZM178.31,188.68l-1.51-1.98h-1.48s0,1.98,0,1.98h2.99ZM67.3,187.7h-1.99v.98h1.99v-.98ZM170.3,190.68v-1.99h-.98v1.99h.98ZM73.3,189.7h-1.99v.98h1.99v-.98ZM225.3,189.69c-15.68,7.54-34.88,2.66-50.34,11.14-1.19.66-5.16,2.96-4.65,4.85,13.02-9.58,29.88-9.2,45.19-11.3l9.79-4.7ZM233.81,189.69v1c.65-.33.65-.67,0-1ZM179.3,190.69c-1.54-1.49-25.21,13.32-27.91,15.58-11.08,9.3-12.6,19.36-12.08,33.41,7.31-5.73,11.14-14.66,16.57-21.92,7.51-10.04,12.47-14.92,21.43-23.57,1.08-1.04,2.34-1.76,1.98-3.51ZM187.31,192.68c-.91-2.82-2.83-1.57-4.99-.98v.98s4.99,0,4.99,0ZM82.3,194.7l-6.99-3c.28,1.12,3.41,2.56,4.45,3.03.8.37,2.43,2.25,2.53-.03ZM197.3,192.7h-3.99v.98h3.99v-.98ZM192.3,193.7h-4.99v.98h4.99v-.98ZM49.31,195.68c12.53.11,25.52,3.19,36.68,8.82,6.45,3.25,11.91,8.4,18.29,11.7-13.37-11.73-33.32-22.08-51.49-21.51-1.2.04-3.72-.74-3.49.99ZM181.82,194.71l-1.49,1.49.47.47c.55-.64,2.01-1.3,1.02-1.96ZM90.81,200.69v1c.65-.33.65-.67,0-1ZM185.3,203.7l-5.99,1v.98c1.63.77,7.37-1.34,5.99-1.98ZM188.81,203.69v1c.65-.33.65-.67,0-1ZM98.8,205.71c1.75,3.16,5.55,5.6,8.49,7.49-2.66-2.72-5.14-5.57-8.49-7.49ZM174.81,206.69v1c.65-.33.65-.67,0-1ZM82.81,209.69v1c.65-.33.65-.67,0-1ZM84.31,211.67l6.97,2.52-4.26-2.73-2.71.21ZM107.8,214.71c.27,2.21,2.57,4.39,4.02,5.96.06-2.43-2.44-4.42-4.02-5.96ZM105.81,216.69v1c.65-.33.65-.67,0-1ZM110.81,222.69v1c.65-.33.65-.67,0-1ZM132.32,265.69l1.98-1.51-1.5-2.48-.49,3.99ZM223.3,272.69c-35.78,6.23-72.04,10.79-108.54,9.04-8.52-.41-17.57-2.43-25.97-3.03-1.19-.09-5.47-.84-5.48.98,36.55,7.65,73.64,5.24,110.35-.13,8.8-1.29,18.63-2.71,27.21-4.83,1.69-.42,2.91.99,2.42-2.02ZM209.3,307.68l3-23.99c-1.49-.04-1.46,3.56-1.68,4.8-.77,4.43-1.96,10.4-2.29,14.71-.09,1.11-.81,4.64.97,4.47ZM196.3,310.68l.13-5.37,3.39-18.6c-2.15,5.18-3.77,12.97-4.39,18.6-.13,1.18-1.03,5.37.87,5.37ZM171.3,289.68v-1.99h-.98v1.99h.98ZM178.3,289.68v-1.99h-.98v1.99h.98ZM186.3,287.7h-1.99v.98h1.99v-.98ZM190.3,307.68l2-19.99-2.97,13.51.97,6.48ZM202.3,310.68l3-22.99-3.87,17.62.87,5.37ZM90.3,290.68v-1.99h-.98v1.99h.98ZM155.3,292.68v-3.99h-.98v3.99h.98ZM216.3,292.68v-3.99h-.98v3.99h.98ZM163.3,291.68v-1.99h-.98v1.99h.98ZM221.3,291.68v-1.99h-.98v1.99h.98ZM104.3,296.68v-5.99h-.98v5.99h.98ZM86.3,293.68v-1.99h-.98v1.99h.98ZM91.3,293.68v-1.99h-.98v1.99h.98ZM134.3,296.68v-3.99s-.98,0-.98,0l-1.01,3.99h1.99ZM125.3,298.68v-4.99h-.98v4.99h.98ZM156.3,297.68v-3.99h-.98v3.99h.98ZM178.3,296.68v-2.99h-.98v2.99h.98ZM185.81,293.69v1c.65-.33.65-.67,0-1ZM220.3,295.68v-1.99h-.98v1.99h.98ZM111.3,296.68v-1.99h-.98v1.99h.98ZM141.3,299.68v-4.99h-.98v4.99h.98ZM171.3,299.68v-4.99h-.98v4.99h.98ZM97.81,295.69v1c.65-.33.65-.67,0-1ZM118.3,300.68v-4.99h-.98v4.99h.98ZM146.81,295.69v1c.65-.33.65-.67,0-1ZM90.81,296.69v1c.65-.33.65-.67,0-1ZM184.3,308.68l1-11.99c-1.61.17-1.87,4.28-1.98,5.51-.12,1.3-.84,6.21.98,6.48ZM215.3,296.7h-1.99v.98h1.99v-.98ZM111.3,299.68v-1.99h-.98v1.99h.98ZM147.3,299.68v-1.99h-.98v1.99h.98ZM178.31,316.69v-19h-1v19h1ZM98.81,298.69v1c.65-.33.65-.67,0-1ZM106.3,313.68l-.11-7.37-1.87-7.62,1.98,14.99ZM156.3,307.68l-.48-8.99c-2.1,1.33-.91,2.29-.85,3.75.04,1.09-.11,5.35,1.34,5.24ZM92.3,301.68v-1.99h-.98v1.99h.98ZM134.31,299.7h-1.99s0,1.99,0,1.99l1.99-1.99ZM141.3,310.68c-.05-2.15.11-4.35,0-6.51-.06-1.22.76-3.71-.99-3.48.05,2.15-.11,4.35,0,6.51.06,1.22-.76,3.71.99,3.48ZM164.3,308.68c-.55-1.98,1.29-7.11-.98-7.99.55,1.98-1.29,7.11.98,7.99ZM170.81,300.69v1c.65-.33.65-.67,0-1ZM99.3,304.68v-1.99h-.98v1.99h.98ZM112.3,306.68v-3.99h-.98v3.99h.98ZM118.81,302.69v1c.65-.33.65-.67,0-1ZM126.3,310.68c-.55-1.98,1.29-7.11-.98-7.99.55,1.98-1.29,7.11.98,7.99ZM146.81,302.69v1c.65-.33.65-.67,0-1ZM216.3,306.68v-1.99h-.98v1.99h.98ZM93.3,305.7h-1.99v.98h1.99v-.98ZM134.31,305.7h-1.99s0,1.99,0,1.99l1.99-1.99ZM172.3,308.68l-.49-2.99-1.5,1.51v1.48s1.98,0,1.98,0ZM119.3,309.68v-1.99h-.98v1.99h.98ZM112.3,312.68v-3.99h-.98v3.99h.98ZM189.3,310.68v-1.99h-.98v1.99h.98ZM148.3,314.68v-4.99h-.98v4.99h.98ZM156.3,311.68v-1.99h-.98v1.99h.98ZM164.3,316.68v-6.99h-.98v6.99h.98ZM207.81,309.69v1c.65-.33.65-.67,0-1ZM101.3,325.68l-1.98-14.99.11,7.37,1.87,7.62ZM134.3,310.69c-4.05-.84.29,5.67-.98,7.99l.98-7.99ZM214.81,310.69v1c.65-.33.65-.67,0-1ZM141.3,318.68v-6.99h-.98v6.99h.98ZM172.31,311.7h-1.99s0,4.99,0,4.99h.98s1.01-4.99,1.01-4.99ZM188.81,311.69v1c.65-.33.65-.67,0-1ZM94.3,315.68v-2.99h-.98v2.99h.98ZM184.3,312.7h-1.99v.98h1.99v-.98ZM194.81,312.69v1c.65-.33.65-.67,0-1ZM118.81,313.69v1c.65-.33.65-.67,0-1ZM127.3,316.68v-2.99h-.98v2.99h.98ZM156.3,323.68c-.05-2.15.11-4.35,0-6.51-.06-1.22.76-3.71-.99-3.48.05,2.15-.11,4.35,0,6.51.06,1.22-.76,3.71.99,3.48ZM213.32,313.69l-.52,3.97c1.56-1.05,1.75-2.14,1.5-3.97h-.98ZM195.3,316.68v-1.99h-.98v1.99h.98ZM207.3,316.68v-1.99h-.98v1.99h.98ZM108.3,324.68l-1.98-8.99c.12,2.44-.44,7.47,1.98,8.99ZM113.3,328.68c-.07-3.15.14-6.35.01-9.51-.05-1.22.76-3.72-.99-3.48.07,3.15-.14,6.35-.01,9.51.05,1.22-.76,3.72.99,3.48ZM189.3,315.69h-1.99s0,1.48,0,1.48l1.5,1.51.49-2.99ZM95.3,318.68v-1.99h-.98v1.99h.98ZM148.3,329.68c-.08-3.15.13-6.35,0-9.51-.05-1.21.76-3.72-.99-3.48-.41,4.08,1.01,8.79-.99,12.51l1.98.48ZM118.32,317.69v1.48s1.5,1.5,1.5,1.5l-.52-2.97h-.98ZM171.3,319.68v-1.99h-.98v1.99h.98ZM178.3,319.68v-1.99h-.98v1.99h.98ZM194.81,317.69v1c.65-.33.65-.67,0-1ZM128.3,321.68v-1.99h-.98v1.99h.98ZM134.3,324.68v-4.99h-.98v4.99h.98ZM140.3,349.68c-1.12-2.6,2.01-30,.51-30-1.53,9.47-1.24,19.07-2.43,28.6-.25,1.98.23,1.45,1.93,1.41ZM165.3,319.7h-1.99v.98h1.99v-.98ZM194.3,321.68v-1.99h-.98v1.99h.98ZM211.81,319.69v1c.65-.33.65-.67,0-1ZM96.3,320.7h-1.99v.98h1.99v-.98ZM171.31,320.7c-4.12-.51-.62,6.8-3,8.98,4.12.51.62-6.8,3-8.98ZM177.81,320.69v1c.65-.33.65-.67,0-1ZM183.3,323.68v-2.99h-.98v2.99h.98ZM200.3,322.68v-1.99h-.98v1.99h.98ZM207.31,320.7h-1.99s0,2.98,0,2.98h.98s1.01-2.98,1.01-2.98ZM119.81,322.69v1c.65-.33.65-.67,0-1ZM128.3,328.68v-5.99h-.98v5.99h.98ZM177.3,330.68c-.55-1.98,1.29-7.11-.98-7.99.55,1.98-1.29,7.11.98,7.99ZM188.3,326.68v-3.99h-.98v3.99h.98ZM96.3,325.68v-1.99h-.98v1.99h.98ZM193.3,331.68l1-7.99c-1.42-.1-1.38,3.86-1.49,5-.1,1.05-1.46,3.19.49,2.99ZM205.81,324.69v1c.65-.33.65-.67,0-1ZM120.3,327.68v-1.99h-.98v1.99h.98ZM134.3,330.68v-4.99h-.98v4.99h.98ZM165.3,329.68v-3.99h-.98v3.99h.98ZM209.81,325.69v1c.65-.33.65-.67,0-1ZM102.3,328.68v-1.99h-.98v1.99h.98ZM156.3,335.68c-.58-2.31,1.32-7.68-.98-8.99.59,2.31-1.33,7.6.98,8.99ZM200.31,326.7h-1.99s0,2.98,0,2.98h.98s1.01-2.98,1.01-2.98ZM205.3,328.68v-1.99h-.98v1.99h.98ZM96.81,327.69v1c.65-.33.65-.67,0-1ZM188.3,330.68v-2.99h-.98v2.99h.98ZM108.3,330.68v-1.99h-.98v1.99h.98ZM121.3,333.68v-4.99h-.98v4.99h.98ZM183.3,328.7h-1.99v.98h1.99v-.98ZM210.3,328.7h-1.99v.98h1.99v-.98ZM115.3,341.69l-1.98-11.99c.61,3.62-1.78,9.79,1.98,11.99ZM98.3,332.68v-1.99h-.98v1.99h.98ZM101.81,330.69v1c.65-.33.65-.67,0-1ZM146.32,336.69c2.55-.77,2-3.8,1.98-6-2.55.77-2,3.8-1.98,6ZM109.3,333.68v-1.99h-.98v1.99h.98ZM169.3,338.68v-6.99h-.98v6.99h.98ZM177.3,338.68v-6.99h-.98v6.99h.98ZM134.3,334.68v-1.99h-.98v1.99h.98ZM204.3,334.68v-1.99h-.98v1.99h.98ZM103.3,336.68v-2.99h-.98v2.99h.98ZM129.3,335.68v-1.99h-.98v1.99h.98ZM164.3,336.68v-2.99h-.98v2.99h.98ZM192.29,338.68c.42-.45,1.08-3.97,1-4.99-2.3.64-2.12,3.17-1.98,5,.32-.05.85.14.98,0ZM98.81,334.69v1c.65-.33.65-.67,0-1ZM181.81,334.69v1c.65-.33.65-.67,0-1ZM188.3,336.68v-1.99h-.98v1.99h.98ZM198.3,337.68v-2.99h-.98v2.99h.98ZM109.3,340.68v-4.99h-.98v4.99h.98ZM122.3,336.69h-1.99v1.99h1.99v-1.99ZM203.3,336.7h-1.99v.98h1.99v-.98ZM104.3,339.68v-1.99h-.98v1.99h.98ZM128.81,337.69v1c.65-.33.65-.67,0-1ZM134.3,339.68l-.49-1.99-1.5,1.99h1.99ZM156.31,364.69v-27h-1v27h1ZM146.81,338.69v1c.65-.33.65-.67,0-1ZM99.81,339.69v1c.65-.33.65-.67,0-1ZM122.3,341.68v-1.99h-.98v1.99h.98ZM177.3,341.68v-1.99h-.98v1.99h.98ZM201.81,339.69v1c.65-.33.65-.67,0-1ZM163.81,340.69v1c.65-.33.65-.67,0-1ZM169.3,340.69h-1.99s1.5,1.99,1.5,1.99l.49-1.99ZM198.3,343.68v-2.99h-.98v2.99h.98ZM147.3,345.68v-3.99h-.98v3.99h.98ZM187.3,343.68v-1.99h-.98v1.99h.98ZM192.3,349.68l-.98-7.99c1.28,2.32-3.07,8.83.98,7.99ZM201.81,341.69v1c.65-.33.65-.67,0-1ZM105.3,345.68v-2.99h-.98v2.99h.98ZM110.3,342.7h-1.99v.98h1.99v-.98ZM115.3,344.68v-1.99h-.98v1.99h.98ZM163.3,345.68v-1.99h-.98v1.99h.98ZM168.3,356.68c-.07-3.15.14-6.35.01-9.51-.05-1.22.76-3.72-.99-3.48.07,3.15-.14,6.35-.01,9.51.05,1.22-.76,3.72.99,3.48ZM177.3,343.69h-1.99v1.99h1.99v-1.99ZM122.3,352.68c-.55-1.98,1.29-7.11-.98-7.99.55,1.98-1.29,7.11.98,7.99ZM115.3,347.68v-1.99h-.98v1.99h.98ZM130.3,347.68v-1.99h-.98v1.99h.98ZM106.3,348.68v-1.99h-.98v1.99h.98ZM110.3,349.68v-2.99h-.98v2.99h.98ZM163.3,349.68v-1.99h-.98v1.99h.98ZM175.32,351.69l1.96-1.49-.98-2.5h-.98s0,3.99,0,3.99ZM101.81,348.69v1c.65-.33.65-.67,0-1ZM117.3,361.68c.48-2.67-.47-5.08-.87-7.62-.22-1.4.63-4.52-1.11-4.37-.45,2.37.37,4.53.7,6.79.22,1.47-.35,5.19,1.28,5.2ZM146.31,366.19c.52-5.25-.38-11.17,0-16.5l-2.05,18.46,1.04,3.53c-.79-2.04.89-4.24,1.01-5.5ZM106.81,350.69v1c.65-.33.65-.67,0-1ZM131.31,353.68l-1.99-1.99v1.99s1.99,0,1.99,0ZM191.3,356.68v-4.99h-.98v4.99h.98ZM197.3,353.68v-1.99h-.98v1.99h.98ZM104.3,352.7h-1.99v.98h1.99v-.98ZM110.81,352.69v1c.65-.33.65-.67,0-1ZM162.3,357.68v-4.99h-.98v4.99h.98ZM107.81,353.69v1c.65-.33.65-.67,0-1ZM140.31,353.7h-1.99s0,2.98,0,2.98h.98s1.01-2.98,1.01-2.98ZM176.3,362.68c-.58-2.31,1.32-7.68-.98-8.99.59,2.31-1.33,7.6.98,8.99ZM131.3,356.68v-1.99h-.98v1.99h.98ZM186.3,356.68v-1.99h-.98v1.99h.98ZM182.3,357.68v-1.99h-.98v1.99h.98ZM104.81,356.69v1c.65-.33.65-.67,0-1ZM108.81,356.69v1c.65-.33.65-.67,0-1ZM112.3,359.68v-2.99h-.98v2.99h.98ZM123.3,356.7h-1.99v.98h1.99v-.98ZM131.3,361.68v-3.99h-.98v3.99h.98ZM196.3,359.68v-1.99h-.98v1.99h.98ZM140.3,358.7h-1.99v.98h1.99v-.98ZM168.31,358.7h-1.99s0,1.99,0,1.99l1.99-1.99ZM185.81,358.69v1c.65-.33.65-.67,0-1ZM191.3,358.69h-1.99s1.5,1.99,1.5,1.99l.49-1.99ZM122.81,359.69v1c.65-.33.65-.67,0-1ZM113.3,363.68v-1.99h-.98v1.99h.98ZM123.3,364.68v-2.99h-.98v2.99h.98ZM160.32,364.69l1.97-1.5-1.48-1.5-.49,2.99ZM164.32,377.69c3.6-3.57,2.77-11.24,2.98-15.99l-2.98,15.99ZM186.3,363.68v-1.99h-.98v1.99h.98ZM191.3,361.69h-1.99v1.99h1.99v-1.99ZM195.81,361.69v1c.65-.33.65-.67,0-1ZM139.3,372.68l1-9.99c-1.71.02-1.87,3.3-1.99,4.49-.11,1.1-.78,5.52.99,5.5ZM118.3,366.68v-1.99h-.98v1.99h.98ZM132.3,364.69h-1.99v1.99h1.99v-1.99ZM176.3,368.68v-3.99h-.98v3.99h.98ZM114.3,367.68v-1.99h-.98v1.99h.98ZM123.3,368.68v-2.99h-.98v2.99h.98ZM156.3,368.68v-2.99h-.98v2.99h.98ZM186.3,368.68v-2.99h-.98v2.99h.98ZM191.3,365.69c-4.15-.73-.74,4.91-.98,6.99l.98-6.99ZM160.81,366.69v1c.65-.33.65-.67,0-1ZM182.3,368.68v-1.99h-.98v1.99h.98ZM196.3,371.68v-4.99h-.98v4.99h.98ZM131.81,367.69v1c.65-.33.65-.67,0-1ZM113.81,368.69v1c.65-.33.65-.67,0-1ZM118.81,368.69v1c.65-.33.65-.67,0-1ZM160.81,369.69v1c.65-.33.65-.67,0-1ZM176.31,369.7h-1.99s0,2.98,0,2.98h.98s1.01-2.98,1.01-2.98ZM186.3,372.68v-2.99h-.98v2.99h.98ZM132.3,374.68v-3.99h-.98v3.99h.98ZM155.3,373.68v-1.99h-.98v1.99h.98ZM124.3,374.68v-1.99h-.98v1.99h.98ZM114.81,373.69v1c.65-.33.65-.67,0-1ZM175.3,375.68v-1.99h-.98v1.99h.98ZM182.3,373.69h-1.99v1.99h1.99v-1.99ZM173.81,377.69v1c.65-.33.65-.67,0-1Z"/>
      <path class="cls-1" d="M140.32,203.69c1.59-10.99.08-22.71,1.01-33.48,1.4-16.37,14.08-26.82,25.98-36.51l-9.74,20.75c-5.86,14.65-8.83,31.63-14.98,46.02-.53,1.23-.53,2.95-2.26,3.23Z"/>
      <path class="cls-1" d="M179.3,190.69c.36,1.75-.9,2.47-1.98,3.51-8.96,8.64-13.93,13.53-21.43,23.57-5.43,7.26-9.26,16.19-16.57,21.92-.52-14.06,1-24.12,12.08-33.41,2.7-2.26,26.36-17.07,27.91-15.58Z"/>
      <path class="cls-1" d="M223.3,272.69c.49,3.01-.74,1.6-2.42,2.02-8.58,2.12-18.42,3.54-27.21,4.83-36.71,5.37-73.8,7.78-110.35.13,0-1.82,4.29-1.06,5.48-.98,8.4.6,17.45,2.62,25.97,3.03,36.5,1.76,72.76-2.8,108.54-9.04Z"/>
      <path class="cls-1" d="M81.3,146.68l-13.02-18.47c-10.08-11.08-22.5-19.68-34.66-28.34-9.34-6.66-20.31-12.12-28.32-20.17l32.32,20.17c17.02,12.47,37.42,25.41,43.68,46.81Z"/>
      <path class="cls-1" d="M133.3,226.69l-15.16-24.33-16.34-19.65,17.96,11.03c4.93,10.74,12.23,20.85,13.54,32.95Z"/>
      <path class="cls-1" d="M97.3,166.68l-10.5-29.98c-9.96-18.45-24.58-39.75-38.52-55.48-2.46-2.77-5.86-4.43-7.48-7.51,3.08,2.23,6.35,4.22,9.04,6.95,6.23,6.34,15.84,19.1,21.45,26.55,13.9,18.48,21.98,36.45,26.02,59.47Z"/>
      <path class="cls-1" d="M7.8,87.71c23.58,25.18,50.11,47.18,74.49,71.49-8.27-4.83-14.76-12.68-21.97-19.02-14.91-13.12-30.15-25.66-43.53-40.47-3.15-3.49-6.99-7.85-9-11.99Z"/>
      <path class="cls-1" d="M262.3,125.69l-15.01,10.48c-12.65,10.49-22.75,26.69-36.08,35.92-6.74,4.67-19.87,11.35-27.53,14.47-1.45.59-2.69,1.42-4.37,1.12l31.91-17.57c17.85-13.85,28.74-36.52,51.08-44.41Z"/>
      <path class="cls-1" d="M132.3,119.68l-38.7-71.78-5.28-16.21,13.47,29.02c10.53,19.45,23.69,37.73,30.51,58.97Z"/>
      <path class="cls-1" d="M142.29,133.68c-1.77.18-1.06-3.38-.98-4.48,1.74-21.76,6.85-44.05,4.97-66-.53-6.2-3.41-12.3-3.48-18.53,10.51,28.22,2.14,59.9-.51,89Z"/>
      <path class="cls-1" d="M281.31,129.7l-21.01,14.48c-22.12,20.44-38.64,45.41-71.98,47.5l20.24-6.24c29.54-10.69,42.63-45.83,72.75-55.74Z"/>
      <path class="cls-1" d="M282.31,138.7c-8.46,6.86-18.19,11.85-26.47,19.02-5.5,4.75-10.04,10.72-15.51,15.49-11.91,10.38-25.85,18.43-42.01,19.48-.25-1.36,1.79-1.52,2.75-1.72,4.05-.85,7.48-.89,11.78-2.23,26.96-8.38,42.42-40.52,69.46-50.03Z"/>
      <path class="cls-1" d="M220.89,169.25c6.76-5.9,13.68-12.04,20.43-18.05,8.1-7.21,14.62-16.57,24.97-21.02-9.11,6.83-16.57,15.48-24.97,23.02-2.7,2.42-6.29,4.57-9.03,6.97-7.29,6.4-13.21,14.75-22.97,18.02,4.03-2.78,7.89-5.74,11.57-8.95Z"/>
      <path class="cls-1" d="M138.3,100.68c-1.67.27-1.09-2.43-1.03-3.53.72-12.26,3.86-24.63,3.03-36.96-.72-10.66-4.7-20.71-8.5-30.49,14.33,20.88,9.25,47.31,6.5,70.97Z"/>
      <path class="cls-1" d="M107.3,165.68c-1.44.24-1.32-1.68-1.73-2.74-4.84-12.38-7.14-25.97-13.08-37.94-2.5-5.04-6.4-9.18-8.69-14.3,15.07,14.32,17.84,35.91,23.5,54.97Z"/>
      <path class="cls-1" d="M115.3,52.68c-1.4.24-1.37-1.68-1.74-2.73-5.53-15.32-9.38-31.36-16.24-46.26,1.4.44,2.6,2.01,3.21,3.28,2.56,5.37,5.8,14.4,7.8,20.2,2.87,8.34,5.25,16.85,6.97,25.51Z"/>
      <path class="cls-1" d="M171.3,118.68c-1.78-.69-1.13-5.93-1.03-7.54.71-12.05,4.14-28.02,8.86-39.14,7.01-16.5,19.69-29.48,32.69-41.3l-17.91,20.08c-16.05,18.74-21.94,43.66-22.61,67.89Z"/>
      <path class="cls-1" d="M166.3,116.68c-1.67.26-1.09-2.43-1.03-3.53,1.44-25.25,9.38-51.25,27.55-69.45-4.6,7.22-10.46,13.96-14.33,21.66-7.98,15.88-10.4,33.81-12.19,51.31Z"/>
      <path class="cls-1" d="M123.3,88.69l-23.16-42.33c-2.98-8.37-7.68-16.51-7.82-25.67l7.81,22.68c8.08,14.96,17.94,28.95,23.17,45.32Z"/>
      <path class="cls-1" d="M14.31,68.67c-.17-1.99,1.81-.57,2.71-.21,14.56,5.85,25.4,21.16,35.27,32.73-3.3-1.72-6.45-5.26-9.01-7.98-8.63-9.21-16.7-19.91-28.97-24.54Z"/>
      <path class="cls-1" d="M120.31,183.68c-2.86.53-1.64-.71-2.25-2.19-4.99-12.05-7.28-25.26-10.74-37.8,2.14.74,2.36,3.62,3.01,5.48,3.91,11.26,5.59,23.38,9.98,34.51Z"/>
      <path class="cls-1" d="M225.3,189.69l-9.79,4.7c-15.32,2.09-32.17,1.72-45.19,11.3-.51-1.89,3.45-4.19,4.65-4.85,15.45-8.49,34.66-3.61,50.34-11.14Z"/>
      <path class="cls-1" d="M188.29,70.68c-1.99.17-.57-1.81-.21-2.71,7.03-17.43,25.32-35.57,41.73-44.26l-13.52,10.47c-11.16,10.65-22.24,21.85-28,36.5Z"/>
      <path class="cls-1" d="M136.3,61.68c-1.41.24-1.46-1.77-1.7-2.77-3.79-15.73-7.58-28.81-15.28-43.22,1.53.55,2.7,3.52,3.51,4.98,6.95,12.64,11.88,26.61,13.47,41.01Z"/>
      <path class="cls-1" d="M183.32,178.69c.37-3.9,5.4-6.04,7.64-8.35,14.91-15.35,26.56-34.69,47.33-43.16-5.37,5.14-12.34,8.24-17.99,13-13.22,11.13-23.05,27.77-36.98,38.51Z"/>
      <path class="cls-1" d="M136.15,130.84l2.15,22.84-1.7-2.77c.88-2.04-6.28-22.71-4.79-22.22l4.35,2.15Z"/>
      <path class="cls-1" d="M119.3,111.69c-9.89-12.22-17.4-27.58-23.98-41.99l23.98,41.99Z"/>
      <path class="cls-1" d="M126.3,50.68l-8.13-23.35c-3.49-7.07-6.27-13.85-12.86-18.63,3.96.73,6.51,3.84,8.53,6.96,6.04,9.33,11.23,23.98,12.46,35.02Z"/>
      <path class="cls-1" d="M195.29,103.68c-2.23-.06-.46-1.71-.04-2.54,12.21-24.58,31.73-42.97,50.56-62.43l-12,14.99c-15.99,14.41-28.98,30.61-38.53,49.98Z"/>
      <polygon class="cls-1" points="108.3 49.68 101.29 35.2 94.8 10.71 108.3 49.68"/>
      <polygon class="cls-1" points="121.3 52.68 119.57 49.93 106.32 12.69 113.08 26.42 121.3 52.68"/>
      <path class="cls-1" d="M243.82,45.71c-8.74,21.85-23.92,40.16-40.02,56.96,7.25-12.25,19.5-22.12,26.92-34.07,4.45-7.16,7.09-16.43,13.1-22.89Z"/>
      <path class="cls-1" d="M140.3,349.68c-1.7.04-2.17.57-1.93-1.41,1.19-9.53.9-19.13,2.43-28.6,1.51,0-1.62,27.41-.51,30Z"/>
      <path class="cls-1" d="M245.82,126.71c.73,1-1.37,2.36-2.04,2.95-5.78,5.15-12.34,9.7-18,15-10.25,9.61-18.72,21.98-31.45,28.54,17.78-14.86,32.37-33.03,51.49-46.49Z"/>
      <path class="cls-1" d="M209.3,307.68c-1.78.17-1.06-3.37-.97-4.47.34-4.31,1.52-10.28,2.29-14.71.22-1.24.19-4.84,1.68-4.8l-3,23.99Z"/>
      <rect class="cls-1" x="155.31" y="337.69" width="1" height="27"/>
      <path class="cls-1" d="M223.72,44.1c4.35-4.85,9.2-9.61,13.99-13.98,2.62-2.38,5.51-5.16,8.57-6.95-11.29,12.42-24.28,22.91-34.37,36.62-12.21,16.58-19.84,36.29-32.12,52.87,12.72-24.05,25.71-48.23,43.93-68.56Z"/>
      <path class="cls-1" d="M146.31,366.19c-.12,1.26-1.8,3.45-1.01,5.5l-1.04-3.53,2.05-18.46c-.38,5.33.52,11.25,0,16.5Z"/>
      <path class="cls-1" d="M49.31,195.68c-.24-1.73,2.28-.95,3.49-.99,18.17-.57,38.12,9.78,51.49,21.51-6.39-3.29-11.85-8.44-18.29-11.7-11.16-5.63-24.15-8.71-36.68-8.82Z"/>
      <path class="cls-1" d="M234.96,44.34c3.74-4.05,6.75-8.89,10.85-12.65,1.68,1.07-.41,2.19-1.02,2.98-9.46,12.35-22.41,21.68-32,33.99l3-4.99,19.16-19.33Z"/>
      <rect class="cls-1" x="177.31" y="297.69" width="1" height="19"/>
      <path class="cls-1" d="M164.32,377.69l2.98-15.99c-.21,4.75.62,12.42-2.98,15.99Z"/>
      <path class="cls-1" d="M241.82,21.71l-20.03,17.96c-13.67,13.47-22.99,28.82-32.99,45,11.68-25.29,30.33-46.94,53.02-62.96Z"/>
      <polygon class="cls-1" points="101.3 325.68 99.43 318.06 99.32 310.69 101.3 325.68"/>
      <path class="cls-1" d="M232.31,61.7c-10.12,11.15-19.54,22.87-28.51,34.97,5.6-10.67,13.73-20.75,21.95-29.57.81-.87,5.77-6.16,6.56-5.4Z"/>
      <path class="cls-1" d="M184.3,308.68c-1.82-.27-1.1-5.18-.98-6.48.11-1.23.37-5.34,1.98-5.51l-1,11.99Z"/>
      <path class="cls-1" d="M148.3,329.68l-1.98-.48c2.01-3.73.58-8.43.99-12.51,1.74-.23.94,2.27.99,3.48.13,3.16-.09,6.36,0,9.51Z"/>
      <polygon class="cls-1" points="202.3 310.68 201.43 305.31 205.3 287.69 202.3 310.68"/>
      <polygon class="cls-1" points="125.3 65.68 126.3 76.68 123.33 66.17 125.3 65.68"/>
      <path class="cls-1" d="M113.3,328.68c-1.74.23-.94-2.27-.99-3.48-.13-3.16.08-6.36.01-9.51,1.74-.23.94,2.27.99,3.48.13,3.16-.08,6.36-.01,9.51Z"/>
      <path class="cls-1" d="M139.3,372.68c-1.77.02-1.11-4.4-.99-5.5.12-1.19.29-4.47,1.99-4.49l-1,9.99Z"/>
      <path class="cls-1" d="M168.3,356.68c-1.74.23-.94-2.27-.99-3.48-.13-3.16.08-6.36.01-9.51,1.74-.23.94,2.27.99,3.48.13,3.16-.08,6.36-.01,9.51Z"/>
      <path class="cls-1" d="M115.3,341.69c-3.76-2.2-1.37-8.37-1.98-11.99l1.98,11.99Z"/>
      <path class="cls-1" d="M267.3,158.7l-16.52,14.96-13.45,9.54c4.7-4.34,10.15-7.85,14.99-12s8.86-10.1,14.98-12.5Z"/>
      <polygon class="cls-1" points="190.3 307.68 189.32 301.2 192.3 287.69 190.3 307.68"/>
      <path class="cls-1" d="M196.3,310.68c-1.9,0-1-4.2-.87-5.37.62-5.63,2.24-13.42,4.39-18.6l-3.39,18.6-.13,5.37Z"/>
      <path class="cls-1" d="M191.3,365.69l-.98,6.99c.25-2.08-3.16-7.72.98-6.99Z"/>
      <path class="cls-1" d="M171.31,320.7c-2.38,2.19,1.12,9.49-3,8.98,2.38-2.19-1.12-9.49,3-8.98Z"/>
      <path class="cls-1" d="M108.3,324.68c-2.42-1.52-1.86-6.55-1.98-8.99l1.98,8.99Z"/>
      <path class="cls-1" d="M156.3,307.68c-1.45.11-1.3-4.15-1.34-5.24-.06-1.47-1.25-2.43.85-3.75l.48,8.99Z"/>
      <path class="cls-1" d="M192.3,349.68c-4.05.84.29-5.67-.98-7.99l.98,7.99Z"/>
      <path class="cls-1" d="M134.3,310.69l-.98,7.99c1.28-2.32-3.07-8.83.98-7.99Z"/>
      <path class="cls-1" d="M156.3,323.68c-1.75.23-.93-2.26-.99-3.48-.1-2.16.06-4.35,0-6.51,1.75-.23.93,2.26.99,3.48.1,2.16-.06,4.35,0,6.51Z"/>
      <path class="cls-1" d="M141.3,310.68c-1.75.23-.93-2.26-.99-3.48-.1-2.16.06-4.35,0-6.51,1.75-.23.93,2.26.99,3.48.1,2.16-.06,4.35,0,6.51Z"/>
      <path class="cls-1" d="M146.32,336.69c-.02-2.2-.57-5.23,1.98-6,.02,2.2.57,5.23-1.98,6Z"/>
      <path class="cls-1" d="M176.3,362.68c-2.31-1.39-.39-6.68-.98-8.99,2.3,1.31.4,6.68.98,8.99Z"/>
      <path class="cls-1" d="M156.3,335.68c-2.31-1.39-.39-6.68-.98-8.99,2.3,1.31.4,6.68.98,8.99Z"/>
      <polygon class="cls-1" points="106.3 313.68 104.32 298.69 106.18 306.31 106.3 313.68"/>
      <path class="cls-1" d="M164.3,308.68c-2.27-.88-.43-6.01-.98-7.99,2.27.88.43,6.01.98,7.99Z"/>
      <path class="cls-1" d="M122.3,352.68c-2.27-.88-.43-6.01-.98-7.99,2.27.88.43,6.01.98,7.99Z"/>
      <path class="cls-1" d="M177.3,330.68c-2.27-.88-.43-6.01-.98-7.99,2.27.88.43,6.01.98,7.99Z"/>
      <path class="cls-1" d="M126.3,310.68c-2.27-.88-.43-6.01-.98-7.99,2.27.88.43,6.01.98,7.99Z"/>
      <path class="cls-1" d="M187.31,192.68h-4.99s0-.98,0-.98c2.16-.6,4.08-1.85,4.99.98Z"/>
      <path class="cls-1" d="M192.29,338.68c-.13.14-.65-.05-.98,0-.14-1.82-.32-4.36,1.98-5,.07,1.03-.59,4.54-1,4.99Z"/>
      <path class="cls-1" d="M185.3,203.7c1.38.64-4.35,2.75-5.99,1.98v-.98s5.99-1,5.99-1Z"/>
      <rect class="cls-1" x="176.32" y="331.69" width=".98" height="6.99"/>
      <rect class="cls-1" x="163.32" y="309.69" width=".98" height="6.99"/>
      <path class="cls-1" d="M123.3,60.68h-.98s-1-5.99-1-5.99c.64-1.38,2.75,4.35,1.98,5.99Z"/>
      <rect class="cls-1" x="140.32" y="311.69" width=".98" height="6.99"/>
      <rect class="cls-1" x="168.32" y="331.69" width=".98" height="6.99"/>
      <rect class="cls-1" x="127.32" y="322.69" width=".98" height="5.99"/>
      <polygon class="cls-1" points="132.32 265.69 132.8 261.69 134.3 264.17 132.32 265.69"/>
      <path class="cls-1" d="M117.3,361.68c-1.63-.01-1.07-3.73-1.28-5.2-.33-2.26-1.15-4.42-.7-6.79,1.75-.15.89,2.97,1.11,4.37.39,2.54,1.35,4.96.87,7.62Z"/>
      <polygon class="cls-1" points="172.31 311.7 171.3 316.68 170.32 316.68 170.31 311.69 172.31 311.7"/>
      <rect class="cls-1" x="103.32" y="290.69" width=".98" height="5.99"/>
      <polygon class="cls-1" points="134.3 296.68 132.31 296.68 133.32 292.69 134.3 292.69 134.3 296.68"/>
      <polygon class="cls-1" points="178.31 188.68 175.31 188.68 175.31 186.69 176.79 186.7 178.31 188.68"/>
      <rect class="cls-1" x="117.32" y="295.69" width=".98" height="4.99"/>
      <rect class="cls-1" x="170.32" y="294.69" width=".98" height="4.99"/>
      <rect class="cls-1" x="140.32" y="294.69" width=".98" height="4.99"/>
      <rect class="cls-1" x="195.32" y="366.69" width=".98" height="4.99"/>
      <rect class="cls-1" x="108.32" y="335.69" width=".98" height="4.99"/>
      <polygon class="cls-1" points="172.3 308.68 170.31 308.68 170.32 307.2 171.81 305.69 172.3 308.68"/>
      <rect class="cls-1" x="120.32" y="328.69" width=".98" height="4.99"/>
      <rect class="cls-1" x="147.32" y="309.69" width=".98" height="4.99"/>
      <rect class="cls-1" x="124.32" y="293.69" width=".98" height="4.99"/>
      <rect class="cls-1" x="187.31" y="193.7" width="4.99" height=".98"/>
      <rect class="cls-1" x="161.32" y="352.69" width=".98" height="4.99"/>
      <rect class="cls-1" x="190.32" y="351.69" width=".98" height="4.99"/>
      <polygon class="cls-1" points="175.32 351.69 175.32 347.69 176.29 347.69 177.28 350.2 175.32 351.69"/>
      <polygon class="cls-1" points="189.3 315.69 188.81 318.68 187.32 317.17 187.31 315.69 189.3 315.69"/>
      <rect class="cls-1" x="133.32" y="325.69" width=".98" height="4.99"/>
      <path class="cls-1" d="M180.32,89.69c-.41-1.3,1.5-5.03,1.98-3.99.27,1.78-.06,3.51-1.98,3.99Z"/>
      <rect class="cls-1" x="133.32" y="319.69" width=".98" height="4.99"/>
      <rect class="cls-1" x="137.32" y="101.69" width=".98" height="4.99"/>
      <path class="cls-1" d="M193.3,331.68c-1.96.2-.6-1.94-.49-2.99.11-1.14.07-5.1,1.49-5l-1,7.99Z"/>
      <polygon class="cls-1" points="207.31 320.7 206.29 323.68 205.32 323.68 205.31 320.69 207.31 320.7"/>
      <rect class="cls-1" x="187.32" y="322.69" width=".98" height="3.99"/>
      <rect class="cls-1" x="164.32" y="325.69" width=".98" height="3.99"/>
      <polygon class="cls-1" points="200.31 326.7 199.29 329.68 198.32 329.68 198.31 326.69 200.31 326.7"/>
      <rect class="cls-1" x="111.32" y="308.69" width=".98" height="3.99"/>
      <rect class="cls-1" x="111.32" y="302.69" width=".98" height="3.99"/>
      <rect class="cls-1" x="120.31" y="336.69" width="1.99" height="1.99"/>
      <rect class="cls-1" x="155.32" y="293.69" width=".98" height="3.99"/>
      <rect class="cls-1" x="215.32" y="288.69" width=".98" height="3.99"/>
      <rect class="cls-1" x="154.32" y="288.69" width=".98" height="3.99"/>
      <path class="cls-1" d="M107.8,214.71c1.58,1.54,4.08,3.53,4.02,5.96-1.45-1.57-3.75-3.75-4.02-5.96Z"/>
      <rect class="cls-1" x="146.32" y="341.69" width=".98" height="3.99"/>
      <rect class="cls-1" x="175.31" y="343.69" width="1.99" height="1.99"/>
      <path class="cls-1" d="M98.8,205.71c3.35,1.91,5.83,4.77,8.49,7.49-2.94-1.89-6.75-4.33-8.49-7.49Z"/>
      <polygon class="cls-1" points="140.31 353.7 139.29 356.68 138.32 356.68 138.31 353.69 140.31 353.7"/>
      <rect class="cls-1" x="193.31" y="192.7" width="3.99" height=".98"/>
      <rect class="cls-1" x="130.32" y="357.69" width=".98" height="3.99"/>
      <polygon class="cls-1" points="160.32 364.69 160.8 361.69 162.29 363.19 160.32 364.69"/>
      <rect class="cls-1" x="189.31" y="361.69" width="1.99" height="1.99"/>
      <rect class="cls-1" x="130.31" y="364.69" width="1.99" height="1.99"/>
      <rect class="cls-1" x="175.32" y="364.69" width=".98" height="3.99"/>
      <polygon class="cls-1" points="176.31 369.7 175.29 372.68 174.32 372.68 174.31 369.69 176.31 369.7"/>
      <rect class="cls-1" x="131.32" y="370.69" width=".98" height="3.99"/>
      <rect class="cls-1" x="180.31" y="373.69" width="1.99" height="1.99"/>
      <rect class="cls-1" x="185.32" y="369.69" width=".98" height="2.99"/>
      <rect class="cls-1" x="185.32" y="365.69" width=".98" height="2.99"/>
      <rect class="cls-1" x="155.32" y="365.69" width=".98" height="2.99"/>
      <rect class="cls-1" x="122.32" y="365.69" width=".98" height="2.99"/>
      <rect class="cls-1" x="122.32" y="361.69" width=".98" height="2.99"/>
      <polygon class="cls-1" points="191.3 358.69 190.81 360.68 189.31 358.7 191.3 358.69"/>
      <polygon class="cls-1" points="168.31 358.7 166.32 360.69 166.31 358.69 168.31 358.7"/>
      <rect class="cls-1" x="111.32" y="356.69" width=".98" height="2.99"/>
      <polygon class="cls-1" points="131.31 353.68 129.31 353.68 129.32 351.69 131.31 353.68"/>
      <rect class="cls-1" x="109.32" y="346.69" width=".98" height="2.99"/>
      <rect class="cls-1" x="104.32" y="342.69" width=".98" height="2.99"/>
      <rect class="cls-1" x="197.32" y="340.69" width=".98" height="2.99"/>
      <polygon class="cls-1" points="169.3 340.69 168.81 342.68 167.31 340.7 169.3 340.69"/>
      <polygon class="cls-1" points="134.3 339.68 132.31 339.68 133.81 337.69 134.3 339.68"/>
      <rect class="cls-1" x="197.32" y="334.69" width=".98" height="2.99"/>
      <rect class="cls-1" x="163.32" y="333.69" width=".98" height="2.99"/>
      <rect class="cls-1" x="102.32" y="333.69" width=".98" height="2.99"/>
      <rect class="cls-1" x="187.32" y="327.69" width=".98" height="2.99"/>
      <rect class="cls-1" x="182.32" y="320.69" width=".98" height="2.99"/>
      <path class="cls-1" d="M213.32,313.69h.98c.25,1.83.06,2.92-1.5,3.97l.52-3.97Z"/>
      <rect class="cls-1" x="126.32" y="313.69" width=".98" height="2.99"/>
      <rect class="cls-1" x="93.32" y="312.69" width=".98" height="2.99"/>
      <polygon class="cls-1" points="134.31 305.7 132.32 307.69 132.31 305.69 134.31 305.7"/>
      <polygon class="cls-1" points="134.31 299.7 132.32 301.69 132.31 299.69 134.31 299.7"/>
      <rect class="cls-1" x="177.32" y="293.69" width=".98" height="2.99"/>
      <polygon class="cls-1" points="180.3 184.68 178.31 184.19 180.3 182.69 180.3 184.68"/>
      <path class="cls-1" d="M184.29,80.68c-1.9.24-.59-1.87-.3-2.79.52-1.64,1.64-5.48,3.3-6.19l-3,8.99Z"/>
      <path class="cls-1" d="M269.32,156.69c-.71-2.69,1.31-1.86,2.47-2.97,1.37-1.32,2.67-2.69,4.03-4.01.24,1.46-6.17,7.33-6.5,6.98Z"/>
      <rect class="cls-1" x="182.32" y="81.69" width=".98" height="2.99"/>
      <rect class="cls-1" x="131.32" y="86.69" width=".98" height="2.99"/>
      <rect class="cls-1" x="179.32" y="91.69" width=".98" height="2.99"/>
      <rect class="cls-1" x="174.32" y="373.69" width=".98" height="1.99"/>
      <rect class="cls-1" x="123.32" y="372.69" width=".98" height="1.99"/>
      <rect class="cls-1" x="154.32" y="371.69" width=".98" height="1.99"/>
      <path class="cls-1" d="M91.32,61.69c1.86.99,2.92,5.01,3.5,6.97-1.72-1.84-3.18-4.45-3.5-6.97Z"/>
      <rect class="cls-1" x="135.32" y="62.69" width=".98" height="1.99"/>
      <rect class="cls-1" x="181.32" y="366.69" width=".98" height="1.99"/>
      <rect class="cls-1" x="113.32" y="365.69" width=".98" height="1.99"/>
      <rect class="cls-1" x="117.32" y="364.69" width=".98" height="1.99"/>
      <rect class="cls-1" x="185.32" y="361.69" width=".98" height="1.99"/>
      <rect class="cls-1" x="112.32" y="361.69" width=".98" height="1.99"/>
      <rect class="cls-1" x="138.31" y="358.7" width="1.99" height=".98"/>
      <rect class="cls-1" x="195.32" y="357.69" width=".98" height="1.99"/>
      <rect class="cls-1" x="121.31" y="356.7" width="1.99" height=".98"/>
      <rect class="cls-1" x="181.32" y="355.69" width=".98" height="1.99"/>
      <rect class="cls-1" x="185.32" y="354.69" width=".98" height="1.99"/>
      <rect class="cls-1" x="130.32" y="354.69" width=".98" height="1.99"/>
      <rect class="cls-1" x="102.31" y="352.7" width="1.99" height=".98"/>
      <rect class="cls-1" x="196.32" y="351.69" width=".98" height="1.99"/>
      <rect class="cls-1" x="162.32" y="347.69" width=".98" height="1.99"/>
      <rect class="cls-1" x="105.32" y="346.69" width=".98" height="1.99"/>
      <rect class="cls-1" x="129.32" y="345.69" width=".98" height="1.99"/>
      <rect class="cls-1" x="114.32" y="345.69" width=".98" height="1.99"/>
      <rect class="cls-1" x="162.32" y="343.69" width=".98" height="1.99"/>
      <rect class="cls-1" x="114.32" y="342.69" width=".98" height="1.99"/>
      <rect class="cls-1" x="108.31" y="342.7" width="1.99" height=".98"/>
      <rect class="cls-1" x="186.32" y="341.69" width=".98" height="1.99"/>
      <rect class="cls-1" x="176.32" y="339.69" width=".98" height="1.99"/>
      <rect class="cls-1" x="121.32" y="339.69" width=".98" height="1.99"/>
      <rect class="cls-1" x="103.32" y="337.69" width=".98" height="1.99"/>
      <rect class="cls-1" x="201.31" y="336.7" width="1.99" height=".98"/>
      <rect class="cls-1" x="187.32" y="334.69" width=".98" height="1.99"/>
      <rect class="cls-1" x="128.32" y="333.69" width=".98" height="1.99"/>
      <rect class="cls-1" x="203.32" y="332.69" width=".98" height="1.99"/>
      <rect class="cls-1" x="133.32" y="332.69" width=".98" height="1.99"/>
      <rect class="cls-1" x="108.32" y="331.69" width=".98" height="1.99"/>
      <rect class="cls-1" x="97.32" y="330.69" width=".98" height="1.99"/>
      <rect class="cls-1" x="208.31" y="328.7" width="1.99" height=".98"/>
      <rect class="cls-1" x="181.31" y="328.7" width="1.99" height=".98"/>
      <rect class="cls-1" x="107.32" y="328.69" width=".98" height="1.99"/>
      <polygon class="cls-1" points="128.3 85.68 127.32 85.68 126.8 82.71 128.3 84.2 128.3 85.68"/>
      <rect class="cls-1" x="204.32" y="326.69" width=".98" height="1.99"/>
      <rect class="cls-1" x="101.32" y="326.69" width=".98" height="1.99"/>
      <path class="cls-1" d="M127.3,97.68c-2.03-1.5-3.33-5.6-3.98-7.99,2.02,1.49,3.33,5.6,3.98,7.99Z"/>
      <rect class="cls-1" x="119.32" y="325.69" width=".98" height="1.99"/>
      <rect class="cls-1" x="95.32" y="323.69" width=".98" height="1.99"/>
      <rect class="cls-1" x="199.32" y="320.69" width=".98" height="1.99"/>
      <rect class="cls-1" x="94.31" y="320.7" width="1.99" height=".98"/>
      <rect class="cls-1" x="193.32" y="319.69" width=".98" height="1.99"/>
      <rect class="cls-1" x="163.31" y="319.7" width="1.99" height=".98"/>
      <rect class="cls-1" x="127.32" y="319.69" width=".98" height="1.99"/>
      <rect class="cls-1" x="178.32" y="97.69" width=".98" height="1.99"/>
      <rect class="cls-1" x="177.32" y="317.69" width=".98" height="1.99"/>
      <rect class="cls-1" x="170.32" y="317.69" width=".98" height="1.99"/>
      <polygon class="cls-1" points="118.32 317.69 119.3 317.69 119.82 320.67 118.32 319.17 118.32 317.69"/>
      <rect class="cls-1" x="94.32" y="316.69" width=".98" height="1.99"/>
      <rect class="cls-1" x="206.32" y="314.69" width=".98" height="1.99"/>
      <rect class="cls-1" x="194.32" y="314.69" width=".98" height="1.99"/>
      <rect class="cls-1" x="182.31" y="312.7" width="1.99" height=".98"/>
      <rect class="cls-1" x="155.32" y="309.69" width=".98" height="1.99"/>
      <rect class="cls-1" x="188.32" y="308.69" width=".98" height="1.99"/>
      <rect class="cls-1" x="118.32" y="307.69" width=".98" height="1.99"/>
      <rect class="cls-1" x="91.31" y="305.7" width="1.99" height=".98"/>
      <rect class="cls-1" x="215.32" y="304.69" width=".98" height="1.99"/>
      <rect class="cls-1" x="98.32" y="302.69" width=".98" height="1.99"/>
      <rect class="cls-1" x="91.32" y="299.69" width=".98" height="1.99"/>
      <rect class="cls-1" x="146.32" y="297.69" width=".98" height="1.99"/>
      <rect class="cls-1" x="110.32" y="297.69" width=".98" height="1.99"/>
      <rect class="cls-1" x="213.31" y="296.7" width="1.99" height=".98"/>
      <rect class="cls-1" x="137.32" y="108.69" width=".98" height="1.99"/>
      <rect class="cls-1" x="110.32" y="294.69" width=".98" height="1.99"/>
      <rect class="cls-1" x="219.32" y="293.69" width=".98" height="1.99"/>
      <rect class="cls-1" x="90.32" y="291.69" width=".98" height="1.99"/>
      <rect class="cls-1" x="85.32" y="291.69" width=".98" height="1.99"/>
      <rect class="cls-1" x="220.32" y="289.69" width=".98" height="1.99"/>
      <rect class="cls-1" x="162.32" y="289.69" width=".98" height="1.99"/>
      <rect class="cls-1" x="89.32" y="288.69" width=".98" height="1.99"/>
      <rect class="cls-1" x="184.31" y="287.7" width="1.99" height=".98"/>
      <rect class="cls-1" x="177.32" y="287.69" width=".98" height="1.99"/>
      <rect class="cls-1" x="170.32" y="287.69" width=".98" height="1.99"/>
      <polygon class="cls-1" points="84.31 211.67 87.02 211.47 91.29 214.2 84.31 211.67"/>
      <rect class="cls-1" x="97.32" y="167.69" width=".98" height="1.99"/>
      <path class="cls-1" d="M82.3,194.7c-.1,2.28-1.73.4-2.53.03-1.04-.48-4.17-1.92-4.45-3.03l6.99,3Z"/>
      <path class="cls-1" d="M204.3,180.69c1.13.52-2.76,2.21-3.99,1.98-1.13-.52,2.76-2.21,3.99-1.98Z"/>
      <rect class="cls-1" x="71.31" y="189.7" width="1.99" height=".98"/>
      <path class="cls-1" d="M226.31,189.68c.36-1.34,3.13-2.23,4.5-2.98,1.58-.87,3.58-2.66,5.47-2.52-3.03,2-6.35,4.75-9.97,5.5Z"/>
      <rect class="cls-1" x="169.32" y="188.69" width=".98" height="1.99"/>
      <rect class="cls-1" x="65.31" y="187.7" width="1.99" height=".98"/>
      <path class="cls-1" d="M193.81,184.69c.65.33.65.67,0,1v-1Z"/>
      <path class="cls-1" d="M191.81,185.69c.65.33.65.67,0,1v-1Z"/>
      <path class="cls-1" d="M198.81,182.69c.65.33.65.67,0,1v-1Z"/>
      <path class="cls-1" d="M62.81,186.69c.65.33.65.67,0,1v-1Z"/>
      <path class="cls-1" d="M233.81,189.69c.65.33.65.67,0,1v-1Z"/>
      <path class="cls-1" d="M205.81,179.69c.65.33.65.67,0,1v-1Z"/>
      <path class="cls-1" d="M249.81,178.69c.65.33.65.67,0,1v-1Z"/>
      <path class="cls-1" d="M207.81,178.69c.65.33.65.67,0,1v-1Z"/>
      <path class="cls-1" d="M185.81,178.69c.65.33.65.67,0,1v-1Z"/>
      <path class="cls-1" d="M181.82,194.71c.99.66-.47,1.32-1.02,1.96l-.47-.47,1.49-1.49Z"/>
      <path class="cls-1" d="M90.81,200.69c.65.33.65.67,0,1v-1Z"/>
      <path class="cls-1" d="M188.81,203.69c.65.33.65.67,0,1v-1Z"/>
      <path class="cls-1" d="M174.81,206.69c.65.33.65.67,0,1v-1Z"/>
      <path class="cls-1" d="M261.82,167.71c.99.66-.47,1.32-1.02,1.96l-.47-.47,1.49-1.49Z"/>
      <path class="cls-1" d="M82.81,209.69c.65.33.65.67,0,1v-1Z"/>
      <path class="cls-1" d="M81.81,147.69c.65.33.65.67,0,1v-1Z"/>
      <path class="cls-1" d="M170.81,119.69c.65.33.65.67,0,1v-1Z"/>
      <path class="cls-1" d="M105.81,216.69c.65.33.65.67,0,1v-1Z"/>
      <path class="cls-1" d="M175.81,118.69c.65.33.65.67,0,1v-1Z"/>
      <path class="cls-1" d="M165.81,118.69c.65.33.65.67,0,1v-1Z"/>
      <path class="cls-1" d="M110.81,222.69c.65.33.65.67,0,1v-1Z"/>
      <path class="cls-1" d="M176.81,116.69c.65.33.65.67,0,1v-1Z"/>
      <path class="cls-1" d="M178.81,113.69c.65.33.65.67,0,1v-1Z"/>
      <path class="cls-1" d="M185.81,293.69c.65.33.65.67,0,1v-1Z"/>
      <path class="cls-1" d="M187.81,111.69c.65.33.65.67,0,1v-1Z"/>
      <path class="cls-1" d="M97.81,295.69c.65.33.65.67,0,1v-1Z"/>
      <path class="cls-1" d="M146.81,295.69c.65.33.65.67,0,1v-1Z"/>
      <path class="cls-1" d="M90.81,296.69c.65.33.65.67,0,1v-1Z"/>
      <path class="cls-1" d="M98.81,298.69c.65.33.65.67,0,1v-1Z"/>
      <path class="cls-1" d="M190.81,107.69c.65.33.65.67,0,1v-1Z"/>
      <path class="cls-1" d="M170.81,300.69c.65.33.65.67,0,1v-1Z"/>
      <path class="cls-1" d="M200.82,104.71c.99.66-.47,1.32-1.02,1.96l-.47-.47,1.49-1.49Z"/>
      <path class="cls-1" d="M118.81,302.69c.65.33.65.67,0,1v-1Z"/>
      <path class="cls-1" d="M177.81,100.69c.65.33.65.67,0,1v-1Z"/>
      <path class="cls-1" d="M146.81,302.69c.65.33.65.67,0,1v-1Z"/>
      <path class="cls-1" d="M207.81,309.69c.65.33.65.67,0,1v-1Z"/>
      <path class="cls-1" d="M214.81,310.69c.65.33.65.67,0,1v-1Z"/>
      <path class="cls-1" d="M188.81,311.69c.65.33.65.67,0,1v-1Z"/>
      <path class="cls-1" d="M194.81,312.69c.65.33.65.67,0,1v-1Z"/>
      <path class="cls-1" d="M118.81,313.69c.65.33.65.67,0,1v-1Z"/>
      <path class="cls-1" d="M194.81,317.69c.65.33.65.67,0,1v-1Z"/>
      <path class="cls-1" d="M211.81,319.69c.65.33.65.67,0,1v-1Z"/>
      <path class="cls-1" d="M177.81,320.69c.65.33.65.67,0,1v-1Z"/>
      <path class="cls-1" d="M119.81,322.69c.65.33.65.67,0,1v-1Z"/>
      <path class="cls-1" d="M205.81,324.69c.65.33.65.67,0,1v-1Z"/>
      <path class="cls-1" d="M209.81,325.69c.65.33.65.67,0,1v-1Z"/>
      <path class="cls-1" d="M187.81,85.69c.65.33.65.67,0,1v-1Z"/>
      <path class="cls-1" d="M96.81,327.69c.65.33.65.67,0,1v-1Z"/>
      <path class="cls-1" d="M101.81,330.69c.65.33.65.67,0,1v-1Z"/>
      <path class="cls-1" d="M98.81,334.69c.65.33.65.67,0,1v-1Z"/>
      <path class="cls-1" d="M181.81,334.69c.65.33.65.67,0,1v-1Z"/>
      <path class="cls-1" d="M128.81,337.69c.65.33.65.67,0,1v-1Z"/>
      <path class="cls-1" d="M146.81,338.69c.65.33.65.67,0,1v-1Z"/>
      <path class="cls-1" d="M99.81,339.69c.65.33.65.67,0,1v-1Z"/>
      <path class="cls-1" d="M201.81,339.69c.65.33.65.67,0,1v-1Z"/>
      <path class="cls-1" d="M163.81,340.69c.65.33.65.67,0,1v-1Z"/>
      <path class="cls-1" d="M201.81,341.69c.65.33.65.67,0,1v-1Z"/>
      <path class="cls-1" d="M101.81,348.69c.65.33.65.67,0,1v-1Z"/>
      <path class="cls-1" d="M106.81,350.69c.65.33.65.67,0,1v-1Z"/>
      <path class="cls-1" d="M110.81,352.69c.65.33.65.67,0,1v-1Z"/>
      <path class="cls-1" d="M107.81,353.69c.65.33.65.67,0,1v-1Z"/>
      <path class="cls-1" d="M104.81,356.69c.65.33.65.67,0,1v-1Z"/>
      <path class="cls-1" d="M108.81,356.69c.65.33.65.67,0,1v-1Z"/>
      <path class="cls-1" d="M185.81,358.69c.65.33.65.67,0,1v-1Z"/>
      <path class="cls-1" d="M122.81,359.69c.65.33.65.67,0,1v-1Z"/>
      <path class="cls-1" d="M195.81,361.69c.65.33.65.67,0,1v-1Z"/>
      <path class="cls-1" d="M160.81,366.69c.65.33.65.67,0,1v-1Z"/>
      <path class="cls-1" d="M131.81,367.69c.65.33.65.67,0,1v-1Z"/>
      <path class="cls-1" d="M113.81,368.69c.65.33.65.67,0,1v-1Z"/>
      <path class="cls-1" d="M118.81,368.69c.65.33.65.67,0,1v-1Z"/>
      <path class="cls-1" d="M160.81,369.69c.65.33.65.67,0,1v-1Z"/>
      <path class="cls-1" d="M114.81,373.69c.65.33.65.67,0,1v-1Z"/>
      <path class="cls-1" d="M126.81,53.69c.65.33.65.67,0,1v-1Z"/>
      <path class="cls-1" d="M173.81,377.69c.65.33.65.67,0,1v-1Z"/>
    </g>
  </g>
</svg>