<?xml version="1.0" encoding="UTF-8"?>
<svg id="_레이어_2" data-name="레이어 2" xmlns="http://www.w3.org/2000/svg" viewBox="0 0 114 282.12">
  <defs>
    <style>
      .cls-1 {
        fill: #fff;
      }
    </style>
  </defs>
  <g id="_레이어_1-2" data-name="레이어 1">
    <g>
      <path d="M105,47.12c-.03-.08-.79-.04-1.3-1.22-3.8-8.89-6.38-19.27-12.69-26.78l14,33.99c1.85-.09.22-4.9-.01-5.99.03.08.74-.06,1.29,1.22,1.22,2.84,7.77,22.52,7.25,23.75-15.96,15.42-36.76,24.01-56.4,33.66l-.17,137.9,1.74,6.5,55.3,17.47v14.5H0l.99-13.51,37.52-16.48,1.53-94.34C.07,140.79-11.98,94.62,15.58,60.21c2.27-2.84,9.95-9.01,10.9-11.1,1.39-3.06.22-10.64.96-15.04C30.74,14.5,59.11-6.56,78.69,1.94c11.61,5.04,23.79,33.21,26.31,45.19ZM84,10.11c-14.94-17.34-39.98-1.18-49.17,14.34-4.98,8.42-5.27,13.49-4.87,23.21.65,16.14,5.03,33.22,6.05,49.45,1.77-.29,1.11-5.2,1.03-6.54-1.07-17.18-7.13-53.03,1.76-67.15,6.04-9.59,21.7-20.95,33.46-19.07,4.76.76,7.61,4.16,11.74,5.75ZM89.99,50.12c-.49-6.39-1.91-12.82-3.48-19.01-1.74-6.88-3.27-18.1-10.51-20.98l4.78,6.71,9.21,33.28ZM88.99,16.12c.26-2.1-2.15-3.93-3.98-5-.26,2.1,2.15,3.93,3.98,5ZM40.9,108.22c-3.37-.56-6.94-.87-7.68-4.81l-5.71-50.28c-35.3,30.75-30.05,81.44,12.49,101.99l.91-46.9ZM92,76.14l-12.53,2.95-13.46,6.03,25.99-8.98ZM63.99,86.13c-1.99.07-6.1.95-6.99,2.98,1.99-.07,6.1-.95,6.99-2.98ZM43,108.12v140c1.76.22.95-2.26,1-3.49,1.2-28.99.29-59.61.62-88.84.07-6.06.31-12.09.43-18.12.15-8.08.92-20.5-.05-28.07-.19-1.47-.78-3.11-2-1.48ZM39.99,257.13l-16.51,4.97-13.47,6c21.81,3.31,43.96,3.13,65.99,3l-29.51-2.98-25.49-1.02,18.99-9.98ZM49,277.11c-2.27-3.52-8.6-1.7-12.49-2-11.16-.86-22.35-2.2-33.51-2.99v6.01s46-1.02,46-1.02Z"/>
      <path class="cls-1" d="M84,10.11c-4.13-1.59-6.98-4.99-11.74-5.75-11.76-1.88-27.42,9.48-33.46,19.07-8.9,14.12-2.83,49.97-1.76,67.15.08,1.34.74,6.24-1.03,6.54-1.02-16.23-5.4-33.32-6.05-49.45-.39-9.71-.11-14.79,4.87-23.21,9.19-15.53,34.23-31.68,49.17-14.34Z"/>
      <path class="cls-1" d="M39.99,257.13l-18.99,9.98,25.49,1.02,29.51,2.98c-22.02.13-44.18.31-65.99-3l13.47-6,16.51-4.97Z"/>
      <path class="cls-1" d="M43,108.12c1.23-1.62,1.81.01,2,1.48.97,7.56.19,19.99.05,28.07-.11,6.03-.36,12.06-.43,18.12-.33,29.23.58,59.85-.62,88.84-.05,1.23.76,3.71-1,3.49V108.12Z"/>
      <path class="cls-1" d="M49,277.11l-46,1.02v-6.01c11.16.79,22.35,2.13,33.52,2.99,3.88.3,10.22-1.52,12.49,2Z"/>
      <path class="cls-1" d="M89.99,50.12l-9.21-33.28-4.78-6.71c7.24,2.88,8.77,14.1,10.51,20.98,1.57,6.19,2.99,12.62,3.48,19.01Z"/>
      <polygon class="cls-1" points="92 76.14 66.01 85.12 79.46 79.09 92 76.14"/>
      <path class="cls-1" d="M63.99,86.13c-.89,2.03-5,2.91-6.99,2.98.89-2.03,5-2.91,6.99-2.98Z"/>
      <path class="cls-1" d="M88.99,16.12c-1.83-1.07-4.24-2.9-3.98-5,1.83,1.07,4.24,2.9,3.98,5Z"/>
    </g>
  </g>
</svg>