<?xml version="1.0" encoding="UTF-8"?>
<svg id="_레이어_2" data-name="레이어 2" xmlns="http://www.w3.org/2000/svg" viewBox="0 0 158.05 217.97">
  <defs>
    <style>
      .cls-1 {
        fill: #fff;
      }
    </style>
  </defs>
  <g id="_레이어_1-2" data-name="레이어 1">
    <g>
      <path d="M60.89,113.02L0,17.66c.98-1.73,5.65-6.28,7.42-3.65l.19,3.69c17.17,28.7,35.69,61.55,55.26,89.85,1.37,1.97,2.63,3.94,4.53,5.47,1.39-.67-.18-2.53-.5-3.5-1.79-5.36-4.38-11.17-6.54-16.46-6.7-16.42-19.36-39.18-23.99-55.01-.39-1.34-.65-2.62-.47-4.02.91-.13,1.27-.11,2.02.47,1.48,1.17,11.42,23.97,13.16,27.84,7.19,16.01,13.67,32.39,20.38,48.62,1.72,3.04,5.43,1.96,8.44,2.05L46.87,19.79c-3.9-2.37-4.13-7.91-5.04-12.2l4.12-1.11c.51.29,4.01,7.45,4.31,8.52.43,1.49-.52,3.33.29,5.82,9.67,29.84,23.39,59.31,32.58,89.48,1.15,3.04,3.95,2.93,6.77,2.72l-12.27-86.22-4.72-14.28,7-1.49c-1.57,3.14,1.5,4.91,1.79,7.72.22,2.11-1.1,4.27-.84,6.72,2.65,24.84,6.87,58.74,12.3,82.79,1.57,6.95,7.22,7.49,7.78-.69,1.62-23.54.68-50.23.91-74.08.1-9.8.25-15.13-.46-24.95-.17-2.39,1.12-5.78.5-8.51h5.43s-3.43,112.01-3.43,112.01l6.06-.64,10.9-51c-.43-6.04-2.54-13.58,5.59-14.18,3.88.57-1.59,11.79-2.08,13.78-3.07,12.51-4.64,25.4-8.21,37.8l.74,3.24c9.26-25.75,18.11-51.82,28.26-77.24,1.83-4.58,4.3-12.64,6.55-16.45.81-1.37,1.21-2.69,3.19-2.3l-38.99,106.99c1.62,1.64,6.45-8.08,7.17-9.32,10.16-17.32,19.85-35.27,27.84-53.67.74-.55,5.39,1.58,4.86,3.32l-32.88,60.68h30.5c.81,0,3.98,4.32,4.29,5.71,2.09,9.28-5.46,47.43-8.28,58.3-5.11,19.77-14.41,36.06-36.27,39.73-21.97,3.69-48.26-.5-60.41-21.08-7.48-12.67-15.27-53.02-15.82-68.18-.14-3.96,1.16-14.49,6.49-14.49h17.5ZM150.89,123.02H45.89c-.08,24.43,1.68,71.34,25.33,85.17,1.55.91,4.89,3.21,6.67,2.33-28.92-15.31-29.55-56.7-30-85.5h102c-.33,10.16-1.26,20.33-2.04,30.47-.08,1.07-.63,3.8,1.03,3.53l2.01-36ZM126.89,207.01c1.75,1.67,10.29-9.78,11.19-11.3,4.14-6.94,7.19-16.63,7.8-24.69l-7.45,21.04-11.54,14.95Z"/>
      <path class="cls-1" d="M150.89,123.02l-2.01,36c-1.66.27-1.11-2.46-1.03-3.53.78-10.14,1.71-20.3,2.04-30.47H47.89c.44,28.81,1.07,70.19,30,85.5-1.77.88-5.11-1.43-6.67-2.33-23.65-13.83-25.41-60.74-25.33-85.17h105Z"/>
      <path class="cls-1" d="M126.89,207.01l11.54-14.95,7.45-21.04c-.6,8.06-3.65,17.75-7.8,24.69-.91,1.52-9.45,12.96-11.19,11.3Z"/>
    </g>
  </g>
</svg>