<?xml version="1.0" encoding="UTF-8"?>
<svg id="_레이어_2" data-name="레이어 2" xmlns="http://www.w3.org/2000/svg" viewBox="0 0 105.86 194.36">
  <defs>
    <style>
      .cls-1 {
        fill: #fff;
      }
    </style>
  </defs>
  <g id="_레이어_1-2" data-name="레이어 1">
    <g>
      <path d="M64.83,1.32c-1.79,15.99,3.47,12.85,14.5,18,7.84,3.67,21.43,9.63,23.2,18.8.98,42.85.19,85.74.5,128.6.01,1.95-1.03,4.75-.82,5.84.33,1.69,4.22,3.74,3.58,7.9-1.26,8.15-24.45,11.9-31.33,12.7-18.85,2.19-45.2,1.57-63.49-3.49-.56-.16-5.88-1.16-4.49-2.51,7.2,2.01,15,4.04,22.48,2.52-9.36-3.78-21.7-1.68-28.88-10.2-.64-2.47,2.37-4.77,2.59-6.93.16-1.51-.79-3.78-.76-5.83.68-43.93-.57-87.91.26-131.84.92-4.14,9.72-9.5,13.47-11.53s19-7.16,20.33-8.67c2.52-2.85-.66-11.5,2.65-13.59,2.48-1.56,25.16-1.43,26.19.22ZM61.97,8.18h-23l8.74,3.76c2.76.06,12.44,1.19,13.82-.7l.44-3.06ZM9.46,53.22l-1.03,106c25.1,8.81,54.89,7.57,80.59,1.46l.7-.95c-.41-1.3-.78-2.6-.79-3.99-.31-24.96.44-53.43-1.96-78.05-2.66-27.27-29.7-18.51-49.53-19.47-3.89-.19-10.32-.55-13.95-1.05-4.56-.62-9.79-2.11-14.02-3.96Z"/>
      <path class="cls-1" d="M9.46,53.22c4.23,1.84,9.46,3.33,14.02,3.96,3.64.5,10.06.86,13.95,1.05,19.83.96,46.87-7.8,49.53,19.47,2.4,24.62,1.65,53.09,1.96,78.05.02,1.39.38,2.7.79,3.99l-.7.95c-25.7,6.11-55.49,7.35-80.59-1.46l1.03-106Z"/>
      <path class="cls-1" d="M61.97,8.18l-.44,3.06c-1.38,1.89-11.06.76-13.82.7l-8.74-3.76h23Z"/>
    </g>
  </g>
</svg>