<?xml version="1.0" encoding="UTF-8"?>
<svg id="_레이어_2" data-name="레이어 2" xmlns="http://www.w3.org/2000/svg" viewBox="0 0 247.95 272.26">
  <defs>
    <style>
      .cls-1 {
        fill: #fff;
      }
    </style>
  </defs>
  <g id="_레이어_1-2" data-name="레이어 1">
    <g>
      <polygon class="cls-1" points="138.07 110.73 139.07 110.73 138.57 111.71 138.07 110.73"/>
      <path d="M21.87,132.03c40.88-4.41,88.19,2.72,129.75-.34,10.02,1.97,20.81.45,30.85,2.15s11.55,6.76,12.59,16.41c1.78,16.54,1.43,35.23,1.97,52.03.48,14.72,4.42,45.07-3.5,57.41-7.75,12.08-29.38,10.39-41.94,11.06-33.34,1.76-70.75,2.25-104.05.03-7.9-.53-28.41-1.72-34.41-5.59-14.71-9.5-10.69-39.7-11.01-54.99-.4-19.08-2.1-41.96-.05-60.97,1.3-12.04,8.67-16,19.8-17.2ZM174.08,142.73c3.67-.02,3.67-2.97,0-2.99v2.99ZM15.59,140.74c-2.45.55-1.74,5.6.97,4.99,2.45-.55,1.74-5.6-.97-4.99ZM52.59,140.74c-2.36.52-1.48,4.53.97,3.99s1.48-4.53-.97-3.99ZM110.07,140.74h-1.99v2.99h1.99v-2.99ZM26.59,141.74c-2.29.51-1.59,4.99-.01,4.97,2.12-.03,3.62-5.77.01-4.97ZM67.07,141.74h-2.99c-.12,2.09-.38,3.75,1.49,4.97,1.88-1.23,1.62-2.89,1.49-4.97ZM128.08,144.73c3.67-.02,3.67-2.97,0-2.99v2.99ZM150.08,144.73c3.67-.02,3.67-2.97,0-2.99v2.99ZM40.59,143.74c-2.36.52-1.48,4.53.97,3.99s1.48-4.53-.97-3.99ZM160.08,148.73c3.67-.02,3.67-2.97,0-2.99v2.99ZM82.08,146.74c-.22,9.64,5.77,1.67,1.48,0h-1.48ZM98.58,148.74c-3.15.89-.61,6.51,1.97,5.99s2.24-7.18-1.97-5.99ZM187.07,148.74c-6.18-1.06-1.24,4.33,0,2.99v-2.99ZM148.07,151.74h-1.99v2.99h1.99v-2.99ZM32.07,152.74c-.75-.75-4.05-.46-2.98,2.48,1.24,3.45,4.3-1.17,2.98-2.48ZM115.57,153.75l-1.49,2.47,1.49,1.49,1.49-2.47-1.49-1.49ZM175.07,154.74h-1.99c-.24,1.84-.04,2.91,1.5,3.99l.49-3.99ZM20.07,155.73h-2.99c-.23,1.84-.06,2.94,1.51,3.99h1.48s0-3.99,0-3.99ZM54.59,155.74c-2.29.51-1.59,4.99-.01,4.97,2.12-.03,3.62-5.77.01-4.97ZM128.08,155.74c-.57.57.83,2.98,1.49,2.97,2.77,0,.02-4.49-1.49-2.97ZM89.06,158.74h-1.99s0,3.99,0,3.99h1.48s1.49-1.49,1.49-1.49l-.99-2.5ZM45.07,159.74c-.75-.75-4.05-.46-2.98,2.48,1.24,3.45,4.3-1.17,2.98-2.48ZM71.07,162.73v-1.48s-1.98-1.51-1.98-1.51v2.99s1.98,0,1.98,0ZM154.07,163.73c1.02-1-1.95-4.01-2.99-2.99s1.95,4.01,2.99,2.99ZM188.07,160.74c-1.93-1.93-6.18,3.18-2.48,3.99,2.11.46,3.21-3.26,2.48-3.99ZM102.07,164.74c-.75-.75-4.05-.46-2.98,2.48,1.24,3.45,4.3-1.17,2.98-2.48ZM19.07,166.73c-.12-.16-2.85-1.18-3.52-.03-3.91,6.71,6.25,3.76,3.52.03ZM169.07,170.73c1.93-1.93-3.18-6.18-3.99-2.48-.46,2.11,3.26,3.21,3.99,2.48ZM48.06,171.73c-3.44-2.45-4.94,5.57-.5,3.99,1.6-.57,1.13-3.53.5-3.99ZM61.07,171.74h-1.99v2.99h1.99v-2.99ZM125.57,171.75c-1.89,0-1.89,4.96,0,4.96s1.89-4.96,0-4.96ZM31.08,172.74c-.73.73.37,4.45,2.48,3.99,3.7-.81-.55-5.92-2.48-3.99ZM91.06,178.73c.12-2.09.39-3.75-1.49-4.98l-1.5,2.47,2.99,2.51ZM142.07,173.74c-3.93,0-3.98,3.97,0,3.99v-3.99ZM20.08,178.74c-.62.67.47,3.96,1.49,3.98,2.98.03.28-5.88-1.49-3.98ZM75.08,178.74c-.12,2.09-.38,3.75,1.49,4.97,3.69-2.64,3.08-5.25-1.49-4.97ZM183.59,178.74c-2.46.55-1.97,6.65.97,5.99,2.46-.55,1.97-6.65-.97-5.99ZM166.57,179.75c-1.19,0-3.98,4.32-.99,4.97s3.04-4.98.99-4.97ZM105.07,184.73c.38-5-3.37-5-2.99,0h2.99ZM156.07,187.73c.65-.65-.03-5.54-2.48-4.99-3.83.87.2,7.28,2.48,4.99ZM49.98,185.82c-4.54-2.71-7.83,3.89-4.8,5.8,3.75,2.36,7.14-4.41,4.8-5.8ZM34.07,186.74c-6.18-1.06-1.24,4.33,0,2.99v-2.99ZM92.07,187.74h-1.99v2.99h1.99v-2.99ZM135.08,187.74c-1.91,1.77,4,4.48,3.98,1.49-.01-1.03-3.31-2.11-3.98-1.49ZM176.07,189.74c-1.59-1.59-4.58,1.4-2.99,2.99s4.58-1.4,2.99-2.99ZM64.07,190.74c-1.82-1.82-5.29,2.35-2.98,3.99,2.87,2.04,4.01-2.96,2.98-3.99ZM120.08,193.73c3.67-.02,3.67-2.97,0-2.99v2.99ZM15.59,193.74c-2.45.55-1.74,5.6.97,4.99,2.45-.55,1.74-5.6-.97-4.99ZM108.07,195.74h-1.99v1.99h1.99v-1.99ZM143.07,196.74c-.92-.92-5.21-.87-3.87,3.37,1.45,4.59,5.66-1.59,3.87-3.37ZM96.07,197.74h-1.99v3.99h1.99v-3.99ZM84.07,198.74h-1.99v3.99h1.99v-3.99ZM188.57,198.75l-1.49,1.49c-.22,1.94-.24,3.33,1.49,4.47l2.41-3.34-2.41-2.62ZM33.07,204.73c1.74-1.74-2.15-5.31-3.99-2.99-1.26,1.6,2.85,4.13,3.99,2.99ZM155.06,201.74c-1.86-1.33-4.81,3.35-1.48,4.99,3.03.53,2.36-4.35,1.48-4.99ZM164.08,208.73c2.28,2.29,6.31-4.12,2.48-4.99-2.45-.55-3.13,4.34-2.48,4.99ZM125.07,204.74h-2.99s0,3.99,0,3.99h1.48c1.57-1.06,1.74-2.15,1.51-3.99ZM48.07,205.74c-1.59-1.59-4.58,1.4-2.99,2.99s4.58-1.4,2.99-2.99ZM66.07,211.73c.62-.67-.47-3.96-1.49-3.98-2.98-.03-.28,5.88,1.49,3.98ZM19.07,215.73c.37-3.27-.21-5.59-3.99-4.99v5s3.99,0,3.99,0ZM91.58,210.74c-2.65.79-2.03,7.18,1.98,5.98,2.65-.79,2.03-7.18-1.98-5.98ZM108.07,211.74h-1.99c-.24,1.84-.04,2.91,1.5,3.99l.49-3.99ZM190.07,212.74c-1.84-.24-2.92-.04-3.99,1.51l2.49,3.47c1.88-1.23,1.62-2.89,1.49-4.97ZM31.17,217.62c2.38,3.13,6.27-2.42,2.39-3.88-3.04-1.14-3.32,2.66-2.39,3.88ZM165.07,214.74h-1.48c-1.57,1.06-1.74,2.15-1.51,3.99h2.99s0-3.99,0-3.99ZM181.07,214.74h-3.99v3.99h3.99v-3.99ZM147.07,217.74h-1.99v2.99h1.99v-2.99ZM76.57,218.75l-2.5,4.46c4.29,4.18,7.23-1.43,2.5-4.46ZM127.06,223.73c.27-1.86,0-3.46-1.98-4-.27,1.86,0,3.46,1.98,4ZM22.93,227.58c1.16-1.87,0-6.86-3.35-5.84-4.47,1.36.39,10.63,3.35,5.84ZM49.07,222.74h-1.99v1.99h1.99v-1.99ZM106.08,226.72c1.81,1.44,4.57-3.31,1.48-3.99-2.62-.57-2.32,3.32-1.48,3.99ZM93.08,228.73c3.67-.02,3.67-2.97,0-2.99v2.99ZM138.07,226.74h-1.99v2.99h1.99v-2.99ZM190.07,226.74c-4.08-.87-4.78,2.82-1.49,4.97,1.88-1.23,1.62-2.89,1.49-4.97ZM166.07,232.73c.38-5-3.37-5-2.99,0h2.99ZM148.08,233.73c5.32.46,5.28-4.47,0-3.99v3.99ZM176.08,229.74c-2.52,2.02,2.87,8.47,2.94,1.55-.48-1-2.19-2.15-2.94-1.55ZM37.07,231.73h-2.99v3.99h2.99v-3.99ZM125.07,235.73c.62-.67-.47-3.96-1.49-3.98-2.98-.03-.28,5.88,1.49,3.98ZM63.57,232.75l-1.49,2.47,1.49,1.49,1.49-2.47-1.49-1.49ZM47.08,237.74c-.65.65.03,5.54,2.48,4.99,3.83-.87-.2-7.28-2.48-4.99ZM111.07,237.74h-1.99v2.99h1.99v-2.99ZM98.07,242.73c.62-.67-.47-3.96-1.49-3.98-2.98-.03-.28,5.88,1.49,3.98ZM135.08,243.73c2.66,1.79,6.15-3.54,2.48-4.99s-3.19,4.51-2.48,4.99ZM156.07,243.73c.62-.67-.47-3.96-1.49-3.98-2.98-.03-.28,5.88,1.49,3.98ZM187.08,244.73c5.5.63,5.5-5.62,0-4.99v4.99ZM15.08,240.74c-2.52,2.02,2.87,8.47,2.94,1.55-.48-1-2.19-2.15-2.94-1.55ZM80.07,245.73c.38-5-3.37-5-2.99,0h2.99ZM165.59,242.74c-2.36.52-1.48,4.53.97,3.99s1.48-4.53-.97-3.99ZM64.08,248.73c3.67-.02,3.67-2.97,0-2.99v2.99ZM36.06,247.74h-1.99c-.24,1.83-.05,2.91,1.49,3.97l1.48-1.48-.99-2.5ZM125,247.8c-3-2.13-7.34,3.16-3.98,5.48,4.76,3.29,5.72-4.25,3.98-5.48ZM177.08,249.74c-.62.67.47,3.96,1.49,3.98,2.98.03.28-5.88-1.49-3.98ZM51.07,255.73c1.93-1.93-3.18-6.18-3.99-2.48-.46,2.11,3.26,3.21,3.99,2.48ZM21.07,252.74c-.75-.75-4.05-.46-2.98,2.48,1.24,3.45,4.3-1.17,2.98-2.48ZM149.59,252.74c-2.36.52-1.48,4.53.97,3.99s1.48-4.53-.97-3.99ZM82.07,257.73c2.13-2.83-4.25-6.01-4.99-2.48-.51,2.44,3.86,3.98,4.99,2.48ZM96.07,253.74c-3.21-2.83-4.52,5.37-.99,2.5.76-.62,1.49-2.06.99-2.5ZM163.08,253.74c-.62.67.47,3.96,1.49,3.98,2.98.03.28-5.88-1.49-3.98ZM135.08,259.73c3.93,0,3.98-3.97,0-3.99v3.99ZM67.07,261.73c.32-1.89-1.17-3.32-2.99-2.99v2.99s2.99,0,2.99,0ZM186.07,261.73v-1.48s-1.98-1.51-1.98-1.51v2.99s1.98,0,1.98,0ZM109.07,262.73v-1.48s-1.98-1.51-1.98-1.51v2.99s1.98,0,1.98,0ZM150.08,260.74c-.62.67.47,3.96,1.49,3.98,2.98.03.28-5.88-1.49-3.98ZM173.07,264.73c.23-1.84.06-2.93-1.51-3.98h-1.48s0,3.99,0,3.99h2.99ZM92.07,261.74h-1.99v2.99h1.99v-2.99ZM125.07,263.74h-1.99s0,2.99,0,2.99l1.98-1.51v-1.48Z"/>
      <path d="M89.07,125.72c-2.71,2.79-9.67-16.46-12.5-16.99l6.31,14.7c.6,1.2.33,3.11-1.29,2.29-2.74-1.38-12.67-18.77-18.02-20.97.83,6.46,10.78,12.97,12.08,17.94.33,1.29-.31,1.46-1.21,1.92-9.86-.53-19.93-3.58-29.82-3.92-13.29-.47-26.33,4.66-39.1.1-2.33-.83-5.05-1.85-5.47-4.59-1.35-13.41,30.47-9.46,38.25-8.18,11.59,1.89,21.63,6.67,31.76,12.23-6.54-7.3-15.06-12.2-24-15.99-7.77-3.3-22.05-4.24-22.95-14.47,10.26-4.96,20.46,1.82,29.94,5.46-7.26-6.67-17.77-8.69-26.34-12.65-5.18-2.4-23.62-10.35-14.63-17.34,2.89-2.25,14.36-1.88,18.38-1.41,7.53.88,16.46,6.02,22.53,10.47l18.06,15.93c-8.5-11.42-17.07-22.35-30.11-28.88-8.56-4.29-25.78-7.79-30.72-16.28-3.88-6.67,7.15-4.72,10.88-3.87,14.57,3.29,34.24,16.73,43.99,28,13.28,15.36,19,37.24,23.97,56.52ZM50.56,59.75l-.47.47,2.49,2.49.47-.47-2.49-2.49ZM55.69,69.12l14.89,16.59-6-8.99-8.48-8.52-4.01-1.98,3.6,2.9ZM57.56,65.75l-.47.47,2.49,2.49.47-.47-2.49-2.49ZM36.57,69.73v1c.65-.33.65-.67,0-1ZM42.07,71.74h-1.99v.98h1.99v-.98ZM43.57,72.73v1c.65-.33.65-.67,0-1ZM32.57,73.73v1c.65-.33.65-.67,0-1ZM45.56,73.75c-.99.7.54,1.37,1.02,1.96.99-.66-.47-1.32-1.02-1.96ZM48.57,75.73v1c.65-.33.65-.67,0-1ZM28.57,76.73v1c.65-.33.65-.67,0-1ZM39.57,76.73v1c.65-.33.65-.67,0-1ZM44.57,79.73v1c.65-.33.65-.67,0-1ZM46.57,80.73v1c.65-.33.65-.67,0-1ZM40.57,82.73v1c.65-.33.65-.67,0-1ZM42.57,83.73v1c.65-.33.65-.67,0-1ZM50.56,83.75c-.99.7.54,1.37,1.02,1.96.99-.66-.47-1.32-1.02-1.96ZM44.56,84.75c-.94,1.12,2.49,2.8,3.49,2.49l-3.49-2.49ZM53.56,85.75l-.47.47,3.49,3.49.47-.47-3.49-3.49ZM63.56,86.75c-.99.7.54,1.37,1.02,1.96.99-.66-.47-1.32-1.02-1.96ZM71.57,86.73v1c.65-.33.65-.67,0-1ZM49.57,87.73v1c.65-.33.65-.67,0-1ZM52.57,89.73v1c.65-.33.65-.67,0-1ZM73.57,89.73v1c.65-.33.65-.67,0-1ZM58.56,90.75c.72,2.86,4.26,4.73,6.02,6.96-.71-2.86-4.26-4.73-6.02-6.96ZM67.08,90.73l7.5,9.98c-1.34-3.72-4.75-7.16-7.5-9.98ZM55.57,91.73v1c.65-.33.65-.67,0-1ZM41.57,92.73v1c.65-.33.65-.67,0-1ZM79.06,104.73c-.19-3.74-1.58-7.56-4.5-9.97l4.5,9.97ZM54.57,95.73v1c.65-.33.65-.67,0-1ZM66.56,97.75l5.02,6.96c-.12-2.96-3.14-5.01-5.02-6.96ZM64.56,101.75c-.99.7.54,1.37,1.02,1.96.99-.66-.47-1.32-1.02-1.96ZM75.57,101.73v1c.65-.33.65-.67,0-1ZM18.07,109.74h-1.99v.98h1.99v-.98Z"/>
      <path d="M139.07,110.73h-1v-4.51s-17.99,22.51-17.99,22.51c2.48-7.42,7.31-14.35,11.57-20.92,20.81-32.05,59.58-74.8,101.4-52.58-.49.49-.92,1.08-1.46,1.52-3.65,2.92-27.46,9.46-34.48,12.52-14.39,6.27-30.28,15.63-42.51,25.49-5.37,4.33-12.36,9.97-15.53,15.97ZM192.57,56.73v1c.65-.33.65-.67,0-1ZM189.57,57.73v1c.65-.33.65-.67,0-1ZM187.57,58.73v1c.65-.33.65-.67,0-1ZM205.57,58.73v1c.65-.33.65-.67,0-1ZM185.57,59.73v1c.65-.33.65-.67,0-1ZM203.07,59.74h-1.99v.98h1.99v-.98ZM183.57,60.73v1c.65-.33.65-.67,0-1ZM200.07,60.74h-1.99v.98h1.99v-.98ZM181.57,61.73v1c.65-.33.65-.67,0-1ZM197.07,61.74h-1.99v.98h1.99v-.98ZM179.57,62.73v1c.65-.33.65-.67,0-1ZM194.06,62.74c-1.63.41-5.45,1.18-5.99,2.98,1.63-.41,5.45-1.18,5.99-2.98ZM174.58,65.75l-1.49,1.49.47.47c.55-.64,2.01-1.3,1.02-1.96ZM186.57,65.73v1c.65-.33.65-.67,0-1ZM184.57,66.73v1c.65-.33.65-.67,0-1ZM171.58,67.75l-2.49,2.49.47.47,2.49-2.49-.47-.47ZM182.58,67.75l-5.49,3.49c1.61-.12,5.92-1.7,5.49-3.49ZM166.58,71.75c-1.41,1.87-4.72,3.53-5.02,5.96,1.41-1.87,4.7-3.51,5.02-5.96ZM175.58,71.75l-6.62,4.37-4.87,4.12c2.05-.71,4.22-2.6,6.08-3.91,1.65-1.15,5.13-2.5,5.41-4.58ZM162.58,80.75l-2.49,2.49.47.47,2.49-2.49-.47-.47ZM158.58,83.75l-4.49,4.49.47.47,4.49-4.49-.47-.47ZM149.58,88.75c-1.41,1.87-4.72,3.53-5.02,5.96,1.41-1.87,4.7-3.51,5.02-5.96ZM139.08,104.73l11.5-13.98c-3.89,4.4-9.81,8.07-11.5,13.98Z"/>
      <path d="M139.07,110.73c15.23-11.54,31.21-27.18,50.75-30.75,17.94-3.27,43.01-2.3,51.74,16.75.86,1.87,4.46,11.76,1.01,11.97-7.43-3.95-14.09-9.25-22.29-11.69-32.67-9.72-55.84,5.05-80.22,24.71,5.91-2.17,11.64-5.12,17.79-6.7,26.95-6.91,83.79.7,90.05,34.39.51,2.75-3.55.9-4.56.54-9.82-3.55-20.52-12.51-31.3-16.7-25.14-9.79-44.61-8.06-70.44-7.55-3.24.06-6.25,2.17-9.55,2.03,5.01-8.33,12.96-14.02,19.52-20.97l24.47-14.01c-19.57,5.92-34.17,21.25-48.51,34.98-1.29.37-1.97-.2-1.47-1.47,1.53-3.93,9.55-11.31,11.99-15.52l.5.98.5-.98ZM215.07,81.74h-6.99v.98h6.99v-.98ZM219.07,82.74h-2.99v.98h2.99v-.98ZM222.07,83.74h-1.99v.98h1.99v-.98ZM223.57,84.73v1c.65-.33.65-.67,0-1ZM225.57,85.73v1c.65-.33.65-.67,0-1ZM227.57,86.73v1c.65-.33.65-.67,0-1ZM204.07,87.74l-11.39.1-8.6,2.89,19.99-2.98ZM229.56,87.75c-.99.7.54,1.37,1.02,1.96.99-.66-.47-1.32-1.02-1.96ZM183.07,90.74h-2.99v.98h2.99v-.98ZM179.07,91.74h-1.99v.98h1.99v-.98ZM234.56,96.75l-.47.47,3.49,3.49.47-.47-3.49-3.49ZM157.57,98.73v1c.65-.33.65-.67,0-1ZM239.57,102.73v1c.65-.33.65-.67,0-1ZM187.07,115.73h-15v1h15v-1ZM167.07,116.74h-1.99v.98h1.99v-.98Z"/>
      <path d="M116.08,126.73c1.57-8.02,5.71-15.33,8.46-23.03.35-.99-.12-2.26.16-3.04,2.38-6.64,4.48-13.47,8.34-19.44-1.37-.83-2.01,1.68-2.49,2.5-2.64,4.5-5.14,9.94-6.5,15.01l-1.98-1.99c-1.55,10.49-7.55,20.44-10.03,30.99-2.57.37-2.09-.31-1.9-2.4,1.35-15.14,13.77-49.03,21.4-62.62,8.79-15.66,40.64-53.63,59.03-54.97,3.71-.27,8.8-.49,8.5,4.41-.42,7.04-27.66,31.65-33.53,38.57-18.82,22.2-30.71,50.01-46.66,73.34-.7,1.02-1.54,2.39-2.82,2.67ZM189.57,10.73v1c.65-.33.65-.67,0-1ZM188.06,11.74l-8.69,3.79-3.28,2.71,11.97-6.5ZM189.57,14.73v1c.65-.33.65-.67,0-1ZM187.57,15.73v1c.65-.33.65-.67,0-1ZM185.58,16.75c-13.28,8.65-24.07,20.67-34.49,32.49.94.69,2.39-1.34,3.01-1.98,6.31-6.66,12.04-13.93,18.96-20.04l12.53-10.46ZM132.06,76.72c8.95-22.03,22.95-39.39,40.49-55.02.67-.6,2.76-1.96,2.04-2.95-16.93,14.14-34.37,34.66-42.73,55.27-.36.9-1.78,2.88.21,2.71ZM188.58,19.75c-1.97,1.36-4.01,2.55-5.49,4.49,1.57-.5,5.32-2.69,5.49-4.49ZM180.58,25.75l-2.49,2.49.47.47,2.49-2.49-.47-.47ZM176.58,28.75l-3.49,3.49.47.47,3.49-3.49-.47-.47ZM171.58,32.75c-3.51,4.02-8.42,7.19-11.02,11.96,3.51-4.02,8.42-7.19,11.02-11.96ZM158.58,46.75c-1.41,1.87-4.72,3.53-5.02,5.96,1.41-1.87,4.7-3.51,5.02-5.96ZM150.58,50.75c-1.45,1.58-3.76,3.76-4.02,5.96,1.45-1.58,3.76-3.76,4.02-5.96ZM145.57,57.73v1c.65-.33.65-.67,0-1ZM142.58,63.75c-3.39,3.96-6.23,9.02-8.02,13.96l8.02-13.96ZM130.57,77.73v1c.65-.33.65-.67,0-1ZM133.57,78.73v1c.65-.33.65-.67,0-1ZM128.06,85.72l2-5.99c-1.1-.14-4.2,5.97-2,5.99ZM126.06,90.72c.14-.15,1.16-3.65,1-3.99-1.45-.28-1.72,2.47-1.98,3.99.32-.05.85.14.98,0ZM124.57,91.73v1c.65-.33.65-.67,0-1ZM123.57,94.73v1c.65-.33.65-.67,0-1Z"/>
      <path d="M92.06,126.73c-2.11-.72-2.38-3.9-2.72-5.76-.93-5.09-.71-14.07-2.33-18.48-9.9-26.98-22.11-53.66-45.46-72.74-4.28-3.5-25.21-13.1-16.76-20.07,7.8-6.45,24.58,2.04,31.3,7.54,29.26,23.96,35.29,62.27,35.95,98.05.07,3.93,2.18,7.26.03,11.46ZM36.57,15.73v1c.65-.33.65-.67,0-1ZM38.57,16.73v1c.65-.33.65-.67,0-1ZM40.08,18.72c.2.17,4.09,1.49,4.97,1.52-.84-1.1-3.9-3-4.97-2.5.05.32-.14.86,0,.98ZM46.56,20.75c-.99.7.54,1.37,1.02,1.96.99-.66-.47-1.32-1.02-1.96ZM49.56,22.75c-.99.7.54,1.37,1.02,1.96.99-.66-.47-1.32-1.02-1.96ZM45.56,23.75l14.48,15.51,12.54,19.45c-5.45-13.83-15.4-25.83-27.02-34.96ZM53.56,25.75c1.88,4.05,6.2,6.64,9.02,9.96-1.88-4.04-6.2-6.64-9.02-9.96ZM63.56,36.75c-.99.7.54,1.37,1.02,1.96.99-.66-.47-1.32-1.02-1.96ZM66.56,40.75c-.99.7.54,1.37,1.02,1.96.99-.66-.47-1.32-1.02-1.96ZM68.56,43.75c-.99.7.54,1.37,1.02,1.96.99-.66-.47-1.32-1.02-1.96ZM70.57,46.73v1c.65-.33.65-.67,0-1ZM74.57,50.73v1c.65-.33.65-.67,0-1ZM76.06,54.73v-1.99h-.98v1.99h.98ZM78.06,59.72c.23-1.22-1.47-5.12-1.98-3.99-.23,1.22,1.47,5.12,1.98,3.99ZM73.57,59.73v1c.65-.33.65-.67,0-1ZM80.06,65.72l-1-4.99h-.98c-.47,1.37,1.4,6.28,1.98,4.99ZM80.06,77.72c-1.34-5.23-3.06-10.69-6.5-14.97l6.5,14.97ZM82.06,71.73c.47-1.37-1.4-6.28-1.98-4.99l1,4.99h.98ZM84.06,78.72l-1-5.99h-.98c-.78,1.64,1.35,7.38,1.98,5.99ZM81.06,80.73v-1.99h-.98v1.99h.98ZM85.06,85.73v-4.99h-.98v4.99h.98ZM86.06,89.73v-1.99h-.98v1.99h.98ZM87.06,99.73v-2.99h-.98v2.99h.98Z"/>
      <path d="M98.9.92c2.95,1.69,5.74,22.02,6.16,26.32,2.17,22.54.52,53.29-2,75.98-.43,3.91-1.92,19.5-3.01,21.74-.47.98-1.99,1.3-2.97,1.77-1.17-21.24-5.35-42.36-7-63.51-.97-12.47-1.93-28.7-1.05-41.03.28-3.88,3.08-25.16,9.87-21.27ZM95.57,5.73v1c.65-.33.65-.67,0-1ZM95.06,13.73v-2.99h-.98v2.99h.98ZM100.07,16.73l-1.93,1.41,1.93,12.59v-14ZM94.07,49.73v-17h-1v17h1ZM100.07,64.73v-14h-1v14h1ZM98.06,96.73l1-17.99-1.98,14.51.98,3.48Z"/>
      <path d="M106.06,126.73c-3.1.9-2.1-3.5-1.97-5.49,2-30.17,17.92-97.55,41.08-117.92,2.16-1.9,7.56-5.8,7.96-1.09.29,3.42-16.25,27.25-19.23,32.83-14.75,27.63-19.74,61.6-27.84,91.67Z"/>
      <path class="cls-1" d="M49.98,185.82c2.33,1.4-1.05,8.16-4.8,5.8-3.03-1.91.27-8.52,4.8-5.8Z"/>
      <path class="cls-1" d="M125,247.8c1.74,1.23.79,8.77-3.98,5.48-3.36-2.32.98-7.6,3.98-5.48Z"/>
      <path class="cls-1" d="M22.93,227.58c-2.96,4.78-7.81-4.49-3.35-5.84,3.34-1.02,4.5,3.97,3.35,5.84Z"/>
      <path class="cls-1" d="M91.58,210.74c4.01-1.2,4.63,5.19,1.98,5.98-4.01,1.2-4.63-5.19-1.98-5.98Z"/>
      <path class="cls-1" d="M98.58,148.74c4.22-1.19,4.45,5.48,1.97,5.99s-5.12-5.1-1.97-5.99Z"/>
      <path class="cls-1" d="M76.57,218.75c4.73,3.03,1.79,8.64-2.5,4.46l2.5-4.46Z"/>
      <path class="cls-1" d="M183.59,178.74c2.94-.66,3.43,5.44.97,5.99-2.94.66-3.43-5.44-.97-5.99Z"/>
      <path class="cls-1" d="M19.07,215.73h-3.99s0-4.99,0-4.99c3.78-.6,4.36,1.72,3.99,4.99Z"/>
      <path class="cls-1" d="M135.08,243.73c-.7-.47-1.3-6.48,2.48-4.99s.18,6.77-2.48,4.99Z"/>
      <path class="cls-1" d="M82.07,257.73c-1.13,1.5-5.5-.04-4.99-2.48.74-3.53,7.12-.35,4.99,2.48Z"/>
      <path class="cls-1" d="M143.07,196.74c1.78,1.78-2.43,7.97-3.87,3.37-1.34-4.25,2.96-4.29,3.87-3.37Z"/>
      <path class="cls-1" d="M187.08,244.73v-4.99c5.5-.63,5.5,5.62,0,4.99Z"/>
      <path class="cls-1" d="M47.08,237.74c2.28-2.29,6.31,4.12,2.48,4.99-2.45.55-3.13-4.34-2.48-4.99Z"/>
      <path class="cls-1" d="M156.07,187.73c-2.28,2.29-6.31-4.12-2.48-4.99,2.45-.55,3.13,4.34,2.48,4.99Z"/>
      <path class="cls-1" d="M164.08,208.73c-.65-.65.03-5.54,2.48-4.99,3.83.87-.2,7.28-2.48,4.99Z"/>
      <path class="cls-1" d="M31.17,217.62c-.93-1.22-.64-5.02,2.39-3.88,3.87,1.46-.02,7.01-2.39,3.88Z"/>
      <rect class="cls-1" x="177.08" y="214.74" width="3.99" height="3.99"/>
      <path class="cls-1" d="M15.59,140.74c2.71-.61,3.42,4.44.97,4.99-2.71.61-3.42-4.44-.97-4.99Z"/>
      <path class="cls-1" d="M19.07,166.73c2.73,3.73-7.43,6.68-3.52-.03.67-1.15,3.4-.13,3.52.03Z"/>
      <path class="cls-1" d="M188.57,198.75l2.41,2.62-2.41,3.34c-1.74-1.15-1.71-2.53-1.49-4.47l1.49-1.49Z"/>
      <path class="cls-1" d="M15.59,193.74c2.71-.61,3.42,4.44.97,4.99-2.71.61-3.42-4.44-.97-4.99Z"/>
      <path class="cls-1" d="M190.07,212.74c.12,2.09.38,3.75-1.49,4.97l-2.49-3.47c1.07-1.55,2.15-1.75,3.99-1.51Z"/>
      <path class="cls-1" d="M75.08,178.74c4.58-.27,5.19,2.33,1.49,4.97-1.88-1.23-1.62-2.89-1.49-4.97Z"/>
      <path class="cls-1" d="M155.06,201.74c.88.63,1.55,5.52-1.48,4.99-3.34-1.64-.38-6.32,1.48-4.99Z"/>
      <path class="cls-1" d="M166.57,179.75c2.05,0,2.05,5.64-.99,4.97s-.2-4.97.99-4.97Z"/>
      <path class="cls-1" d="M26.59,141.74c3.61-.8,2.1,4.95-.01,4.97-1.58.02-2.28-4.47.01-4.97Z"/>
      <path class="cls-1" d="M190.07,226.74c.12,2.09.38,3.75-1.49,4.97-3.29-2.16-2.59-5.85,1.49-4.97Z"/>
      <path class="cls-1" d="M148.08,233.73v-3.99c5.28-.48,5.32,4.45,0,3.99Z"/>
      <path class="cls-1" d="M54.59,155.74c3.61-.8,2.1,4.95-.01,4.97-1.58.02-2.28-4.47.01-4.97Z"/>
      <path class="cls-1" d="M176.08,229.74c.76-.61,2.46.55,2.94,1.55-.07,6.93-5.46.47-2.94-1.55Z"/>
      <path class="cls-1" d="M169.07,170.73c-.73.73-4.45-.37-3.99-2.48.81-3.7,5.92.55,3.99,2.48Z"/>
      <path class="cls-1" d="M48.06,171.73c.64.45,1.1,3.42-.5,3.99-4.44,1.58-2.95-6.44.5-3.99Z"/>
      <path class="cls-1" d="M15.08,240.74c.76-.61,2.46.55,2.94,1.55-.07,6.93-5.46.47-2.94-1.55Z"/>
      <path class="cls-1" d="M31.08,172.74c1.93-1.93,6.18,3.18,2.48,3.99-2.11.46-3.21-3.26-2.48-3.99Z"/>
      <path class="cls-1" d="M67.07,141.74c.12,2.09.38,3.75-1.49,4.97-1.88-1.23-1.62-2.89-1.49-4.97h2.99Z"/>
      <path class="cls-1" d="M188.07,160.74c.73.73-.37,4.45-2.48,3.99-3.7-.81.55-5.92,2.48-3.99Z"/>
      <path class="cls-1" d="M51.07,255.73c-.73.73-4.45-.37-3.99-2.48.81-3.7,5.92.55,3.99,2.48Z"/>
      <path class="cls-1" d="M64.07,190.74c1.02,1.03-.12,6.03-2.98,3.99-2.31-1.65,1.17-5.81,2.98-3.99Z"/>
      <path class="cls-1" d="M149.59,252.74c2.45-.54,3.33,3.47.97,3.99s-3.33-3.47-.97-3.99Z"/>
      <rect class="cls-1" x="34.08" y="231.73" width="2.99" height="3.99"/>
      <path class="cls-1" d="M33.07,204.73c-1.14,1.14-5.25-1.39-3.99-2.99,1.84-2.33,5.73,1.25,3.99,2.99Z"/>
      <path class="cls-1" d="M52.59,140.74c2.45-.54,3.33,3.47.97,3.99s-3.33-3.47-.97-3.99Z"/>
      <path class="cls-1" d="M40.59,143.74c2.45-.54,3.33,3.47.97,3.99s-3.33-3.47-.97-3.99Z"/>
      <path class="cls-1" d="M165.59,242.74c2.45-.54,3.33,3.47.97,3.99s-3.33-3.47-.97-3.99Z"/>
      <path class="cls-1" d="M82.08,146.74h1.48c4.29,1.67-1.7,9.64-1.48,0Z"/>
      <path class="cls-1" d="M165.07,214.74v3.99s-2.99,0-2.99,0c-.23-1.84-.06-2.93,1.51-3.98h1.48Z"/>
      <path class="cls-1" d="M125.07,204.74c.23,1.84.06,2.93-1.51,3.98h-1.48s0-3.99,0-3.99h2.99Z"/>
      <path class="cls-1" d="M173.07,264.73h-2.99s0-3.99,0-3.99h1.48c1.57,1.06,1.74,2.15,1.51,3.99Z"/>
      <path class="cls-1" d="M125.57,171.75c1.89,0,1.89,4.96,0,4.96s-1.89-4.96,0-4.96Z"/>
      <path class="cls-1" d="M20.07,155.73v3.99s-1.48,0-1.48,0c-1.57-1.05-1.74-2.14-1.51-3.98h2.99Z"/>
      <path class="cls-1" d="M106.08,226.72c-.84-.67-1.14-4.56,1.48-3.99,3.09.68.33,5.42-1.48,3.99Z"/>
      <path class="cls-1" d="M105.07,184.73h-2.99c-.38-5,3.37-5,2.99,0Z"/>
      <path class="cls-1" d="M166.07,232.73h-2.99c-.38-5,3.37-5,2.99,0Z"/>
      <path class="cls-1" d="M32.07,152.74c1.32,1.31-1.74,5.93-2.98,2.48-1.06-2.95,2.23-3.23,2.98-2.48Z"/>
      <path class="cls-1" d="M80.07,245.73h-2.99c-.38-5,3.37-5,2.99,0Z"/>
      <path class="cls-1" d="M142.07,173.74v3.99c-3.98-.02-3.93-3.99,0-3.99Z"/>
      <path class="cls-1" d="M91.06,178.73l-2.99-2.51,1.5-2.47c1.88,1.23,1.61,2.89,1.49,4.98Z"/>
      <path class="cls-1" d="M102.07,164.74c1.32,1.31-1.74,5.93-2.98,2.48-1.06-2.95,2.23-3.23,2.98-2.48Z"/>
      <path class="cls-1" d="M45.07,159.74c1.32,1.31-1.74,5.93-2.98,2.48-1.06-2.95,2.23-3.23,2.98-2.48Z"/>
      <path class="cls-1" d="M21.07,252.74c1.32,1.31-1.74,5.93-2.98,2.48-1.06-2.95,2.23-3.23,2.98-2.48Z"/>
      <path class="cls-1" d="M135.08,259.73v-3.99c3.98.02,3.93,3.99,0,3.99Z"/>
      <path class="cls-1" d="M177.08,249.74c1.77-1.91,4.48,4,1.49,3.98-1.03-.01-2.11-3.31-1.49-3.98Z"/>
      <path class="cls-1" d="M163.08,253.74c1.77-1.91,4.48,4,1.49,3.98-1.03-.01-2.11-3.31-1.49-3.98Z"/>
      <polygon class="cls-1" points="89.06 158.74 90.05 161.23 88.56 162.72 87.08 162.73 87.08 158.74 89.06 158.74"/>
      <path class="cls-1" d="M156.07,243.73c-1.77,1.91-4.48-4-1.49-3.98,1.03.01,2.11,3.31,1.49,3.98Z"/>
      <path class="cls-1" d="M150.08,260.74c1.77-1.91,4.48,4,1.49,3.98-1.03-.01-2.11-3.31-1.49-3.98Z"/>
      <path class="cls-1" d="M176.07,189.74c1.59,1.59-1.4,4.58-2.99,2.99s1.4-4.58,2.99-2.99Z"/>
      <path class="cls-1" d="M98.07,242.73c-1.77,1.91-4.48-4-1.49-3.98,1.03.01,2.11,3.31,1.49,3.98Z"/>
      <path class="cls-1" d="M135.08,187.74c.67-.62,3.96.47,3.98,1.49.03,2.98-5.88.28-3.98-1.49Z"/>
      <path class="cls-1" d="M125.07,235.73c-1.77,1.91-4.48-4-1.49-3.98,1.03.01,2.11,3.31,1.49,3.98Z"/>
      <path class="cls-1" d="M20.08,178.74c1.77-1.91,4.48,4,1.49,3.98-1.03-.01-2.11-3.31-1.49-3.98Z"/>
      <path class="cls-1" d="M66.07,211.73c-1.77,1.91-4.48-4-1.49-3.98,1.03.01,2.11,3.31,1.49,3.98Z"/>
      <path class="cls-1" d="M48.07,205.74c1.59,1.59-1.4,4.58-2.99,2.99s1.4-4.58,2.99-2.99Z"/>
      <path class="cls-1" d="M36.06,247.74l.99,2.5-1.48,1.48c-1.55-1.06-1.73-2.14-1.49-3.97h1.99Z"/>
      <polygon class="cls-1" points="115.57 153.75 117.07 155.25 115.57 157.71 114.08 156.22 115.57 153.75"/>
      <path class="cls-1" d="M187.07,148.74v2.99c-1.24,1.34-6.18-4.05,0-2.99Z"/>
      <rect class="cls-1" x="94.08" y="197.74" width="1.99" height="3.99"/>
      <path class="cls-1" d="M96.07,253.74c.5.44-.23,1.88-.99,2.5-3.53,2.87-2.22-5.33.99-2.5Z"/>
      <path class="cls-1" d="M67.07,261.73h-2.99s0-2.99,0-2.99c1.82-.33,3.31,1.1,2.99,2.99Z"/>
      <polygon class="cls-1" points="63.57 232.75 65.07 234.25 63.57 236.71 62.08 235.22 63.57 232.75"/>
      <path class="cls-1" d="M34.07,186.74v2.99c-1.24,1.34-6.18-4.05,0-2.99Z"/>
      <rect class="cls-1" x="82.08" y="198.74" width="1.99" height="3.99"/>
      <path class="cls-1" d="M154.07,163.73c-1.04,1.02-4.01-1.99-2.99-2.99s4.01,1.99,2.99,2.99Z"/>
      <path class="cls-1" d="M93.08,228.73v-2.99c3.67.02,3.67,2.97,0,2.99Z"/>
      <path class="cls-1" d="M120.08,193.73v-2.99c3.67.02,3.67,2.97,0,2.99Z"/>
      <path class="cls-1" d="M175.07,154.74l-.49,3.99c-1.54-1.08-1.74-2.15-1.5-3.99h1.99Z"/>
      <path class="cls-1" d="M160.08,148.73v-2.99c3.67.02,3.67,2.97,0,2.99Z"/>
      <path class="cls-1" d="M174.08,142.73v-2.99c3.67.02,3.67,2.97,0,2.99Z"/>
      <path class="cls-1" d="M150.08,144.73v-2.99c3.67.02,3.67,2.97,0,2.99Z"/>
      <path class="cls-1" d="M128.08,144.73v-2.99c3.67.02,3.67,2.97,0,2.99Z"/>
      <path class="cls-1" d="M108.07,211.74l-.49,3.99c-1.54-1.08-1.74-2.15-1.5-3.99h1.99Z"/>
      <path class="cls-1" d="M64.08,248.73v-2.99c3.67.02,3.67,2.97,0,2.99Z"/>
      <path class="cls-1" d="M128.08,155.74c1.51-1.51,4.26,2.97,1.49,2.97-.66,0-2.07-2.4-1.49-2.97Z"/>
      <rect class="cls-1" x="90.08" y="261.74" width="1.99" height="2.99"/>
      <rect class="cls-1" x="109.08" y="237.74" width="1.99" height="2.99"/>
      <rect class="cls-1" x="90.08" y="187.74" width="1.99" height="2.99"/>
      <rect class="cls-1" x="108.08" y="140.74" width="1.99" height="2.99"/>
      <rect class="cls-1" x="136.08" y="226.74" width="1.99" height="2.99"/>
      <rect class="cls-1" x="146.08" y="151.74" width="1.99" height="2.99"/>
      <path class="cls-1" d="M127.06,223.73c-1.99-.53-2.25-2.13-1.98-4,1.99.53,2.25,2.13,1.98,4Z"/>
      <rect class="cls-1" x="59.08" y="171.74" width="1.99" height="2.99"/>
      <rect class="cls-1" x="145.08" y="217.74" width="1.99" height="2.99"/>
      <polygon class="cls-1" points="125.07 263.74 125.06 265.22 123.08 266.73 123.08 263.74 125.07 263.74"/>
      <polygon class="cls-1" points="109.07 262.73 107.08 262.73 107.08 259.73 109.06 261.25 109.07 262.73"/>
      <polygon class="cls-1" points="71.07 162.73 69.08 162.73 69.08 159.73 71.06 161.25 71.07 162.73"/>
      <polygon class="cls-1" points="186.07 261.73 184.08 261.73 184.08 258.73 186.06 260.25 186.07 261.73"/>
      <rect class="cls-1" x="106.08" y="195.74" width="1.99" height="1.99"/>
      <rect class="cls-1" x="47.08" y="222.74" width="1.99" height="1.99"/>
      <polygon class="cls-1" points="55.69 69.12 52.09 66.22 56.1 68.2 64.58 76.72 70.58 85.71 55.69 69.12"/>
      <path class="cls-1" d="M67.08,90.73c2.75,2.82,6.16,6.26,7.5,9.98l-7.5-9.98Z"/>
      <path class="cls-1" d="M66.56,97.75c1.87,1.95,4.9,4,5.02,6.96l-5.02-6.96Z"/>
      <path class="cls-1" d="M79.06,104.73l-4.5-9.97c2.92,2.42,4.31,6.23,4.5,9.97Z"/>
      <rect class="cls-1" x="16.08" y="109.74" width="1.99" height=".98"/>
      <rect class="cls-1" x="40.08" y="71.74" width="1.99" height=".98"/>
      <path class="cls-1" d="M44.56,84.75l3.49,2.49c-1,.31-4.43-1.37-3.49-2.49Z"/>
      <path class="cls-1" d="M58.56,90.75c1.76,2.23,5.31,4.1,6.02,6.96-1.76-2.23-5.3-4.1-6.02-6.96Z"/>
      <path class="cls-1" d="M41.57,92.73c.65.33.65.67,0,1v-1Z"/>
      <path class="cls-1" d="M55.57,91.73c.65.33.65.67,0,1v-1Z"/>
      <path class="cls-1" d="M73.57,89.73c.65.33.65.67,0,1v-1Z"/>
      <path class="cls-1" d="M52.57,89.73c.65.33.65.67,0,1v-1Z"/>
      <rect class="cls-1" x="54.74" y="85.26" width=".66" height="4.94" transform="translate(-45.91 64.64) rotate(-45)"/>
      <path class="cls-1" d="M63.56,86.75c.55.64,2.01,1.3,1.02,1.96-.48-.59-2.01-1.26-1.02-1.96Z"/>
      <path class="cls-1" d="M49.57,87.73c.65.33.65.67,0,1v-1Z"/>
      <path class="cls-1" d="M71.57,86.73c.65.33.65.67,0,1v-1Z"/>
      <path class="cls-1" d="M50.56,83.75c.55.64,2.01,1.3,1.02,1.96-.48-.59-2.01-1.26-1.02-1.96Z"/>
      <path class="cls-1" d="M42.57,83.73c.65.33.65.67,0,1v-1Z"/>
      <path class="cls-1" d="M40.57,82.73c.65.33.65.67,0,1v-1Z"/>
      <path class="cls-1" d="M46.57,80.73c.65.33.65.67,0,1v-1Z"/>
      <path class="cls-1" d="M44.57,79.73c.65.33.65.67,0,1v-1Z"/>
      <path class="cls-1" d="M39.57,76.73c.65.33.65.67,0,1v-1Z"/>
      <path class="cls-1" d="M28.57,76.73c.65.33.65.67,0,1v-1Z"/>
      <path class="cls-1" d="M54.57,95.73c.65.33.65.67,0,1v-1Z"/>
      <path class="cls-1" d="M48.57,75.73c.65.33.65.67,0,1v-1Z"/>
      <path class="cls-1" d="M45.56,73.75c.55.64,2.01,1.3,1.02,1.96-.48-.59-2.01-1.26-1.02-1.96Z"/>
      <path class="cls-1" d="M32.57,73.73c.65.33.65.67,0,1v-1Z"/>
      <path class="cls-1" d="M43.57,72.73c.65.33.65.67,0,1v-1Z"/>
      <path class="cls-1" d="M36.57,69.73c.65.33.65.67,0,1v-1Z"/>
      <rect class="cls-1" x="58.24" y="65.47" width=".66" height="3.52" transform="translate(-30.38 61.11) rotate(-45)"/>
      <rect class="cls-1" x="51.24" y="59.47" width=".66" height="3.52" transform="translate(-28.19 54.4) rotate(-45)"/>
      <path class="cls-1" d="M64.56,101.75c.55.64,2.01,1.3,1.02,1.96-.48-.59-2.01-1.26-1.02-1.96Z"/>
      <path class="cls-1" d="M75.57,101.73c.65.33.65.67,0,1v-1Z"/>
      <polygon class="cls-1" points="204.07 87.74 184.08 90.72 192.68 87.84 204.07 87.74"/>
      <rect class="cls-1" x="172.07" y="115.73" width="15" height="1"/>
      <rect class="cls-1" x="208.08" y="81.74" width="6.99" height=".98"/>
      <rect class="cls-1" x="216.08" y="82.74" width="2.99" height=".98"/>
      <rect class="cls-1" x="180.08" y="90.74" width="2.99" height=".98"/>
      <rect class="cls-1" x="165.08" y="116.74" width="1.99" height=".98"/>
      <rect class="cls-1" x="220.08" y="83.74" width="1.99" height=".98"/>
      <rect class="cls-1" x="177.08" y="91.74" width="1.99" height=".98"/>
      <path class="cls-1" d="M223.57,84.73c.65.33.65.67,0,1v-1Z"/>
      <path class="cls-1" d="M157.57,98.73c.65.33.65.67,0,1v-1Z"/>
      <path class="cls-1" d="M185.58,16.75l-12.53,10.46c-6.92,6.11-12.65,13.38-18.96,20.04-.61.65-2.07,2.68-3.01,1.98,10.42-11.82,21.22-23.84,34.49-32.49Z"/>
      <path class="cls-1" d="M132.06,76.72c-1.99.17-.57-1.81-.21-2.71,8.36-20.61,25.8-41.13,42.73-55.27.73,1-1.37,2.36-2.04,2.95-17.53,15.62-31.54,32.99-40.49,55.02Z"/>
      <path class="cls-1" d="M142.58,63.75l-8.02,13.96c1.79-4.94,4.63-10,8.02-13.96Z"/>
      <polygon class="cls-1" points="188.06 11.74 176.09 18.24 179.37 15.53 188.06 11.74"/>
      <path class="cls-1" d="M188.58,19.75c-.17,1.8-3.92,3.99-5.49,4.49,1.48-1.94,3.52-3.13,5.49-4.49Z"/>
      <path class="cls-1" d="M150.58,50.75c-.26,2.2-2.57,4.38-4.02,5.96.26-2.2,2.57-4.38,4.02-5.96Z"/>
      <path class="cls-1" d="M128.06,85.72c-2.2-.01.9-6.13,2-5.99l-2,5.99Z"/>
      <path class="cls-1" d="M126.06,90.72c-.13.14-.66-.05-.98,0,.26-1.52.53-4.27,1.98-3.99.15.34-.86,3.84-1,3.99Z"/>
      <path class="cls-1" d="M124.57,91.73c.65.33.65.67,0,1v-1Z"/>
      <path class="cls-1" d="M171.58,32.75c-2.6,4.77-7.5,7.94-11.02,11.96,2.6-4.77,7.51-7.94,11.02-11.96Z"/>
      <path class="cls-1" d="M133.57,78.73c.65.33.65.67,0,1v-1Z"/>
      <path class="cls-1" d="M130.57,77.73c.65.33.65.67,0,1v-1Z"/>
      <path class="cls-1" d="M123.57,94.73c.65.33.65.67,0,1v-1Z"/>
      <rect class="cls-1" x="172.6" y="30.4" width="4.94" height=".66" transform="translate(29.55 132.79) rotate(-45)"/>
      <path class="cls-1" d="M145.57,57.73c.65.33.65.67,0,1v-1Z"/>
      <path class="cls-1" d="M158.58,46.75c-.31,2.45-3.61,4.09-5.02,5.96.3-2.43,3.61-4.09,5.02-5.96Z"/>
      <rect class="cls-1" x="177.81" y="26.9" width="3.52" height=".66" transform="translate(33.34 134.95) rotate(-45)"/>
      <path class="cls-1" d="M187.57,15.73c.65.33.65.67,0,1v-1Z"/>
      <path class="cls-1" d="M189.57,14.73c.65.33.65.67,0,1v-1Z"/>
      <path class="cls-1" d="M189.57,10.73c.65.33.65.67,0,1v-1Z"/>
      <path class="cls-1" d="M80.06,77.72l-6.5-14.97c3.44,4.28,5.16,9.74,6.5,14.97Z"/>
      <path class="cls-1" d="M45.56,23.75c11.62,9.13,21.57,21.13,27.02,34.96l-12.54-19.45-14.48-15.51Z"/>
      <rect class="cls-1" x="84.08" y="80.74" width=".98" height="4.99"/>
      <path class="cls-1" d="M84.06,78.72c-.63,1.39-2.76-4.35-1.98-5.99h.98s1,5.99,1,5.99Z"/>
      <path class="cls-1" d="M80.06,65.72c-.58,1.29-2.45-3.61-1.98-4.99h.98s1,4.99,1,4.99Z"/>
      <rect class="cls-1" x="86.08" y="96.74" width=".98" height="2.99"/>
      <path class="cls-1" d="M82.06,71.73h-.98s-1-4.99-1-4.99c.58-1.29,2.45,3.61,1.98,4.99Z"/>
      <path class="cls-1" d="M40.08,18.72c-.14-.12.05-.66,0-.98,1.07-.5,4.13,1.4,4.97,2.5-.88-.03-4.78-1.35-4.97-1.52Z"/>
      <rect class="cls-1" x="75.08" y="52.74" width=".98" height="1.99"/>
      <path class="cls-1" d="M78.06,59.72c-.52,1.13-2.21-2.76-1.98-3.99.52-1.13,2.21,2.76,1.98,3.99Z"/>
      <rect class="cls-1" x="80.08" y="78.74" width=".98" height="1.99"/>
      <rect class="cls-1" x="85.08" y="87.74" width=".98" height="1.99"/>
      <path class="cls-1" d="M66.56,40.75c.55.64,2.01,1.3,1.02,1.96-.48-.59-2.01-1.26-1.02-1.96Z"/>
      <path class="cls-1" d="M63.56,36.75c.55.64,2.01,1.3,1.02,1.96-.48-.59-2.01-1.26-1.02-1.96Z"/>
      <path class="cls-1" d="M53.56,25.75c2.82,3.32,7.14,5.92,9.02,9.96-2.82-3.32-7.14-5.91-9.02-9.96Z"/>
      <path class="cls-1" d="M73.57,59.73c.65.33.65.67,0,1v-1Z"/>
      <path class="cls-1" d="M74.57,50.73c.65.33.65.67,0,1v-1Z"/>
      <path class="cls-1" d="M49.56,22.75c.55.64,2.01,1.3,1.02,1.96-.48-.59-2.01-1.26-1.02-1.96Z"/>
      <path class="cls-1" d="M46.56,20.75c.55.64,2.01,1.3,1.02,1.96-.48-.59-2.01-1.26-1.02-1.96Z"/>
      <path class="cls-1" d="M38.57,16.73c.65.33.65.67,0,1v-1Z"/>
      <path class="cls-1" d="M36.57,15.73c.65.33.65.67,0,1v-1Z"/>
      <path class="cls-1" d="M70.57,46.73c.65.33.65.67,0,1v-1Z"/>
      <path class="cls-1" d="M68.56,43.75c.55.64,2.01,1.3,1.02,1.96-.48-.59-2.01-1.26-1.02-1.96Z"/>
      <path class="cls-1" d="M139.08,104.73c1.69-5.91,7.61-9.58,11.5-13.98l-11.5,13.98Z"/>
      <rect class="cls-1" x="201.08" y="59.74" width="1.99" height=".98"/>
      <rect class="cls-1" x="198.08" y="60.74" width="1.99" height=".98"/>
      <rect class="cls-1" x="195.08" y="61.74" width="1.99" height=".98"/>
      <path class="cls-1" d="M194.06,62.74c-.54,1.8-4.35,2.58-5.99,2.98.54-1.8,4.35-2.58,5.99-2.98Z"/>
      <path class="cls-1" d="M182.58,67.75c.43,1.79-3.88,3.37-5.49,3.49l5.49-3.49Z"/>
      <path class="cls-1" d="M175.58,71.75c-.28,2.08-3.76,3.43-5.41,4.58-1.86,1.3-4.03,3.19-6.08,3.91l4.87-4.12,6.62-4.37Z"/>
      <path class="cls-1" d="M149.58,88.75c-.31,2.45-3.61,4.09-5.02,5.96.3-2.43,3.61-4.09,5.02-5.96Z"/>
      <rect class="cls-1" x="153.4" y="85.9" width="6.35" height=".66" transform="translate(-15.12 135.97) rotate(-45)"/>
      <rect class="cls-1" x="159.81" y="81.9" width="3.52" height=".66" transform="translate(-10.82 138.33) rotate(-45)"/>
      <path class="cls-1" d="M166.58,71.75c-.31,2.45-3.61,4.09-5.02,5.96.3-2.43,3.61-4.09,5.02-5.96Z"/>
      <rect class="cls-1" x="168.81" y="68.9" width="3.52" height=".66" transform="translate(1.01 140.89) rotate(-45)"/>
      <path class="cls-1" d="M184.57,66.73c.65.33.65.67,0,1v-1Z"/>
      <path class="cls-1" d="M174.58,65.75c.99.66-.47,1.32-1.02,1.96l-.47-.47,1.49-1.49Z"/>
      <path class="cls-1" d="M186.57,65.73c.65.33.65.67,0,1v-1Z"/>
      <path class="cls-1" d="M179.57,62.73c.65.33.65.67,0,1v-1Z"/>
      <path class="cls-1" d="M181.57,61.73c.65.33.65.67,0,1v-1Z"/>
      <path class="cls-1" d="M183.57,60.73c.65.33.65.67,0,1v-1Z"/>
      <path class="cls-1" d="M185.57,59.73c.65.33.65.67,0,1v-1Z"/>
      <path class="cls-1" d="M205.57,58.73c.65.33.65.67,0,1v-1Z"/>
      <path class="cls-1" d="M187.57,58.73c.65.33.65.67,0,1v-1Z"/>
      <path class="cls-1" d="M189.57,57.73c.65.33.65.67,0,1v-1Z"/>
      <path class="cls-1" d="M192.57,56.73c.65.33.65.67,0,1v-1Z"/>
      <rect class="cls-1" x="93.07" y="32.73" width="1" height="17"/>
      <polygon class="cls-1" points="100.07 16.73 100.07 30.73 98.14 18.14 100.07 16.73"/>
      <rect class="cls-1" x="99.07" y="50.73" width="1" height="14"/>
      <polygon class="cls-1" points="98.06 96.73 97.08 93.25 99.06 78.74 98.06 96.73"/>
      <rect class="cls-1" x="94.08" y="10.74" width=".98" height="2.99"/>
      <path class="cls-1" d="M95.57,5.73c.65.33.65.67,0,1v-1Z"/>
    </g>
  </g>
</svg>