<?xml version="1.0" encoding="UTF-8"?>
<svg id="_레이어_2" data-name="레이어 2" xmlns="http://www.w3.org/2000/svg" viewBox="0 0 135.54 145.35">
  <defs>
    <style>
      .cls-1 {
        fill: #fff;
      }
    </style>
  </defs>
  <g id="_레이어_1-2" data-name="레이어 1">
    <g>
      <path d="M55.25.68c64.57-6.26,88.44,31.39,77.89,91.89-7.12,40.8-40.81,57.7-79.93,51.56C-17.7,133-18.45,7.82,55.25.68ZM59.44,20.39l-2.86,1.47c2.51,4.33,4.1,11.26,6.67,15.23.86,1.33,1.2,2.69,3.2,2.29,1.38-1.55-6.62-15.96-7.01-18.99ZM80.45,20.38h-2.99s-5.91,50.52-5.91,50.52c-.95,2.78-9.64,5.73-3.07,10.95,5.07,4.03,7.15-2.08,10.23-1.33l38.22,20.86c3.26-2.03-1.89-4.31-3.56-5.42-10.75-7.17-23.26-11.69-33.9-19.08.03-1.46,20.33-14.05,23.5-17.48,1.26-1.36,1.84-1.96,1.48-4.01-.77-.82-4.7,2.11-5.72,2.77-6.08,3.92-13.13,10.8-18.91,14.09-1.42.81-2.68,1.38-4.36,1.13l4.99-53ZM97.37,39.3c.66-4.48,3.97-8.3,5.08-12.44.22-.82,1.62-3.61-.49-3.46s-8.41,15.11-7.49,15.97l2.9-.08ZM48.45,55.38c.21-2.06-1.33-3.53-2.48-5.01-.86-1.11-11.75-11.11-12.5-11.5-1.36-.7-2.79-.06-3.01,1.03-.3,1.45,11.96,12.56,13.95,14.03,1.37,1.01,2.02,1.88,4.04,1.45ZM122.45,42.39c-1.11-1.1-12.71,7.44-10.99,8.99,2.98,1.58,12.24-7.74,10.99-8.99ZM28.45,75.37l-1.45-2.67c-3.4,1.81-12.27-1.38-12.54,3.67l13.99-1.01ZM123.45,72.39c-4.04.25-8.42-.43-12.4.09-.99.13-4.28.49-3.58,2.39.75,2.05,11.1-.3,13.48.51l2.5-2.99ZM28.46,103.38c2.02.43,2.67-.44,4.04-1.45,1.88-1.39,13.21-11.63,12.95-13.03-.3-1.59-1.21-1.36-2.49-.52-2.2,1.43-10.72,9.33-12.5,11.5-.92,1.13-2.43,1.61-1.99,3.5ZM101.45,117.38c1.59-1.82-8.23-11.17-9.97-12.52-1.58-1.23-3.46-3.53-5.02-.96l2.98,4,12.01,9.48ZM41.46,125.38c1.88.4,2.42-.95,3.41-2.08,1.46-1.67,9.74-15.22,10.15-16.87.44-1.79.46-1.83-1.08-3.04-1.61-.34-1.99,1.38-2.72,2.26-1.54,1.86-9.36,14.18-10.03,16.05-.56,1.58.05,2.2.27,3.68ZM73.46,129.38v-16.5c0-.25-.84-3.84-1.05-4.98-.3-1.62.7-1.75-1.95-1.51.05,6.95.18,14.61.99,21.52.18,1.51.82,3.05,2.01,1.48Z"/>
      <path class="cls-1" d="M80.45,20.38l-4.99,53c1.68.24,2.95-.32,4.36-1.13,5.78-3.29,12.83-10.18,18.91-14.09,1.02-.66,4.95-3.59,5.72-2.77.36,2.05-.22,2.65-1.48,4.01-3.16,3.43-23.47,16.02-23.5,17.48,10.64,7.39,23.15,11.91,33.9,19.08,1.66,1.11,6.82,3.39,3.56,5.42l-38.22-20.86c-3.08-.75-5.16,5.36-10.23,1.33-6.57-5.22,2.12-8.17,3.07-10.95l5.91-50.53h2.99Z"/>
      <path class="cls-1" d="M41.46,125.38c-.22-1.47-.83-2.09-.27-3.68.66-1.87,8.48-14.19,10.03-16.05.73-.88,1.11-2.6,2.72-2.26,1.54,1.21,1.52,1.25,1.08,3.04-.41,1.66-8.69,15.21-10.15,16.87-.99,1.13-1.53,2.48-3.41,2.08Z"/>
      <path class="cls-1" d="M48.45,55.38c-2.02.43-2.67-.44-4.04-1.45-1.99-1.47-14.25-12.58-13.95-14.03.22-1.09,1.65-1.73,3.01-1.03.76.39,11.64,10.39,12.5,11.5,1.15,1.48,2.69,2.95,2.48,5.01Z"/>
      <path class="cls-1" d="M28.46,103.38c-.44-1.89,1.07-2.37,1.99-3.5,1.78-2.17,10.3-10.07,12.5-11.5,1.29-.84,2.19-1.07,2.49.52.26,1.4-11.07,11.65-12.95,13.03-1.37,1.01-2.02,1.88-4.04,1.45Z"/>
      <path class="cls-1" d="M101.45,117.38l-12.01-9.48-2.98-4c1.56-2.57,3.44-.27,5.02.96,1.74,1.35,11.56,10.7,9.97,12.52Z"/>
      <path class="cls-1" d="M59.44,20.39c.38,3.03,8.39,17.44,7.01,18.99-2,.41-2.34-.96-3.2-2.29-2.57-3.97-4.16-10.9-6.67-15.23l2.86-1.47Z"/>
      <path class="cls-1" d="M73.46,129.38c-1.19,1.57-1.83.03-2.01-1.48-.81-6.91-.94-14.56-.99-21.52,2.65-.23,1.65-.11,1.95,1.51.21,1.14,1.05,4.73,1.05,4.98v16.5Z"/>
      <path class="cls-1" d="M97.37,39.3l-2.9.08c-.91-.86,5.49-15.83,7.49-15.97,2.12-.16.71,2.64.49,3.46-1.12,4.14-4.43,7.96-5.08,12.44Z"/>
      <path class="cls-1" d="M123.45,72.39l-2.5,2.99c-2.39-.81-12.73,1.55-13.48-.51-.69-1.9,2.59-2.26,3.58-2.39,3.98-.53,8.37.16,12.4-.09Z"/>
      <path class="cls-1" d="M28.45,75.37l-13.99,1.01c.27-5.05,9.14-1.86,12.54-3.67l1.45,2.67Z"/>
      <path class="cls-1" d="M122.45,42.39c1.25,1.24-8.01,10.57-10.99,8.99-1.72-1.55,9.88-10.09,10.99-8.99Z"/>
    </g>
  </g>
</svg>