<?xml version="1.0" encoding="UTF-8"?>
<svg id="_레이어_2" data-name="레이어 2" xmlns="http://www.w3.org/2000/svg" viewBox="0 0 167.05 214.94">
  <defs>
    <style>
      .cls-1 {
        fill: #fff;
      }
    </style>
  </defs>
  <g id="_레이어_1-2" data-name="레이어 1">
    <g>
      <path d="M1.05,214.94l-1.05-5.45L.73,15.13C3.2,5.61,12.79,5.74,21.01,5.9c-.88-9.47,13.93-4.64,19.96-4.89l.07,4.93,81,.99c-4.87-7.99,14.59-7.22,17.06-5.55,1.14.77.66,3.75,2.57,4.43,6.25,2.2,19.21-3.09,25.38,3.62v204l-1.5,1.5H1.05ZM28.04.95h-1.99v1.99h1.99V.95ZM34.04,1.94c-3.49-.53-1.46,1.51-.98,4h1.98s-1.01-4-1.01-4ZM126.04,3.94v-1.99h-.98v1.99h.98ZM132.04,1.95h-1.99v1.99h1.99v-1.99ZM137.05,1.95h-1.99s0,1.99,0,1.99l1.99-1.99ZM24.04,6.94l-.49-1.99-1.5,1.99h1.99ZM28.05,6.93l-1.5-1.97-1.5,1.48,2.99.49ZM134.05,6.93l-1.99-1.99v1.99s1.99,0,1.99,0ZM4.05,16.44v193.5h158V12.44c0-.28-1.55-2.73-2-3h-19.99c-3.25,1.76-.7,4.73-1.96,7.44,8.54.17,15.01,7.38,7.88,14.48-5.83,5.8-27.83,5.78-29.51-4.37-1.04-6.33,5.64-7.44,6.42-9.72s-.16-5.83.16-8.34H39.05l-2-2.99c2.38,4.06.57,7.42,1.04,11.95,8.13-.47,11.91,7.85,6.02,13.61-6.3,6.16-29.52,4.99-29.14-6.03.24-6.9,6.49-6.14,7.58-8.47l-.49-8.07c-6.16-.25-16.66-.15-18,7.51ZM127.04,5.95h-1.99v1.99h1.99v-1.99ZM140.05,7.93l-1.99-1.99v1.99s1.99,0,1.99,0ZM35.04,19.94c-.54-5.45,3.14-11.07-4.74-11.8-6.03-.56-6.06,5.39-4.82,9.88l9.56,1.93ZM135.91,9.07l-8.93.3-1.45,7.62c2.89,2.65,6.93,1.93,10.52,1.95l-.14-9.88ZM141.04,21.94v-2.99h-.98v2.99h.98ZM22.04,22.94v-2.99h-.98v2.99h.98ZM27.55,21.94v1c.65-.33.65-.67,0-1Z"/>
      <path class="cls-1" d="M4.05,16.44c1.35-7.66,11.85-7.76,18-7.51l.49,8.07c-1.08,2.33-7.34,1.57-7.58,8.47-.38,11.03,22.84,12.19,29.14,6.03,5.9-5.76,2.11-14.08-6.02-13.61-.47-4.53,1.33-7.89-1.04-11.95l2,2.99h84c-.32,2.51.61,6.06-.16,8.34s-7.46,3.39-6.42,9.72c1.67,10.15,23.67,10.17,29.51,4.37,7.13-7.1.66-14.31-7.88-14.48,1.26-2.71-1.29-5.68,1.96-7.44h19.99c.45.27,2,2.72,2,3v197.5H4.05V16.44ZM101.05,94.94c2.27-.27,10.45,1,10.99-1.52l-1.49-2.48H32.55c-1.79,0-2.41,3.96-2.56,5.44-2.55,25.48,2.06,55.17.01,81.11l2.04,3.96,78.03.02.97-3.52-8.36-.14-1.5-1.5-.14-16.37c14.68,1.52,14.63-5.52,0-3.99l-.05-16.43,11.04-3.08-1.64-2.55-9.33.04v-18h10s0-3.49,0-3.49l-10.01-.51v-17Z"/>
      <path class="cls-1" d="M35.04,19.94l-9.56-1.93c-1.24-4.48-1.21-10.44,4.82-9.88,7.88.74,4.21,6.35,4.74,11.8Z"/>
      <path class="cls-1" d="M135.91,9.07l.14,9.88c-3.59-.02-7.63.7-10.52-1.95l1.45-7.62,8.93-.3Z"/>
      <path class="cls-1" d="M34.04,1.94l1.01,3.99h-1.98c-.49-2.48-2.51-4.52.98-3.99Z"/>
      <rect class="cls-1" x="125.05" y="5.95" width="1.99" height="1.99"/>
      <rect class="cls-1" x="26.05" y=".95" width="1.99" height="1.99"/>
      <rect class="cls-1" x="130.05" y="1.95" width="1.99" height="1.99"/>
      <polygon class="cls-1" points="28.05 6.93 25.05 6.45 26.55 4.96 28.05 6.93"/>
      <polygon class="cls-1" points="134.05 6.93 132.05 6.94 132.06 4.94 134.05 6.93"/>
      <polygon class="cls-1" points="140.05 7.93 138.05 7.94 138.06 5.94 140.05 7.93"/>
      <polygon class="cls-1" points="24.04 6.94 22.05 6.93 23.55 4.95 24.04 6.94"/>
      <polygon class="cls-1" points="137.05 1.95 135.06 3.94 135.05 1.95 137.05 1.95"/>
      <rect class="cls-1" x="140.06" y="18.95" width=".98" height="2.99"/>
      <rect class="cls-1" x="21.06" y="19.95" width=".98" height="2.99"/>
      <rect class="cls-1" x="125.06" y="1.95" width=".98" height="1.99"/>
      <path class="cls-1" d="M27.55,21.94c.65.33.65.67,0,1v-1Z"/>
      <path class="cls-1" d="M53.05,115.94v18h-19c1.22-2.5-2.7-18,.5-18h18.5Z"/>
      <rect class="cls-1" x="79.05" y="115.94" width="19" height="18"/>
      <polygon class="cls-1" points="98.05 177.94 79.05 177.94 79.05 159.94 96.55 159.94 98.05 161.44 98.05 177.94"/>
      <path class="cls-1" d="M53.05,177.94h-19c1.25-3.47-2.2-16-.04-17.58,1.51-1.1,3.86.69,5.54.58,4.11-.25,9.91-2.95,13.5.49v16.5Z"/>
      <polygon class="cls-1" points="75.05 115.94 75.05 133.94 56.05 133.94 56.05 117.44 57.55 115.94 75.05 115.94"/>
      <polygon class="cls-1" points="75.05 159.94 75.05 177.94 57.55 177.94 56.05 176.44 56.05 161.44 57.55 159.94 75.05 159.94"/>
      <polygon class="cls-1" points="53.05 138.94 53.05 155.94 34.55 155.94 33.05 154.44 33.05 138.94 53.05 138.94"/>
      <path class="cls-1" d="M53.05,94.94v17h-18.5c-2.66-4.5-1.04-11.59-1.5-17h20Z"/>
      <path class="cls-1" d="M98.05,155.94h-19v-17c4.61-1.17,8.22-.23,12.39-.09,1.01.03,6.61-2.19,6.61.59v16.5Z"/>
      <rect class="cls-1" x="79.05" y="94.94" width="19" height="17"/>
      <polygon class="cls-1" points="75.05 94.94 75.05 111.94 57.55 111.94 56.05 110.44 56.05 94.94 75.05 94.94"/>
      <polygon class="cls-1" points="75.05 138.94 75.05 155.94 57.55 155.94 56.05 154.44 56.05 138.94 75.05 138.94"/>
      <g>
        <path d="M72.65,91.01v17l9.26.56.12,3.96-9.38-.52v18l13.45-.08-4.34,2.58-9.15,3.08.05,16.43c12.13-1.53,12.17,5.51,0,3.99l.12,16.37,1.24,1.5,6.93.14-.81,3.52-64.69-.02-1.69-3.96c1.7-25.94-2.12-55.63-.01-81.11.12-1.48.64-5.44,2.12-5.44h64.66l1.24,2.48c-.45,2.51-7.23,1.25-9.11,1.52ZM32.86,91.01h-16.58c.38,5.41-.96,12.5,1.24,17h15.34v-17ZM51.1,91.01h-15.75v15.5l1.24,1.5h14.51v-17ZM70.16,91.01h-15.75v17h15.75v-17ZM32.86,112.01h-15.34c-2.65,0,.6,15.5-.41,18h15.75v-18ZM51.1,112.01h-14.51l-1.24,1.5v16.5h15.75v-18ZM70.16,112.01h-15.75v18h15.75v-18ZM70.16,152.01v-16.5c0-2.77-4.64-.55-5.48-.59-3.46-.14-6.46-1.09-10.27.09v17h15.75ZM32.86,135.01h-16.58v15.5l1.24,1.5h15.34v-17ZM51.1,135.01h-15.75v15.5l1.24,1.5h14.51v-17ZM32.86,174.01v-16.5c-2.98-3.44-7.79-.75-11.19-.49-1.4.1-3.34-1.68-4.6-.58-1.79,1.58,1.07,14.1.03,17.58h15.75ZM51.1,156.01h-14.51l-1.24,1.5v15l1.24,1.5h14.51v-18ZM70.16,174.01v-16.5l-1.24-1.5h-14.51v18h15.75Z"/>
        <path d="M88.36,173.53v-17l-11.25-.52,2.41-3.47h8.84v-18l-14.33.08,4.63-2.58,9.75-3.08-.05-16.43c-12.93,1.53-12.97-5.51,0-3.99l-.13-16.37-1.33-1.5-7.38-.14.86-3.52,68.95.02,1.8,3.96c-1.81,25.94,2.26,55.63.01,81.11-.13,1.48-.68,5.44-2.26,5.44h-68.93l-1.32-2.48c.48-2.51,7.71-1.25,9.72-1.52ZM130.78,173.53h17.67c-.41-5.41,1.02-12.5-1.33-17h-16.35v17ZM111.34,173.53h16.79v-15.5l-1.33-1.5h-15.46v17ZM91.01,173.53h16.79v-17h-16.79v17ZM130.78,152.53h16.35c2.83,0-.63-15.5.44-18h-16.79v18ZM111.34,152.53h15.46l1.33-1.5v-16.5h-16.79v18ZM91.01,152.53h16.79v-18h-16.79v18ZM91.01,112.53v16.5c0,2.77,4.94.55,5.84.59,3.69.14,6.88,1.09,10.95-.09v-17h-16.79ZM130.78,129.53h17.67v-15.5l-1.33-1.5h-16.35v17ZM111.34,129.53h16.79v-15.5l-1.33-1.5h-15.46v17ZM130.78,90.53v16.5c3.17,3.44,8.3.75,11.93.49,1.49-.1,3.56,1.68,4.9.58,1.91-1.58-1.14-14.1-.04-17.58h-16.79ZM111.34,108.53h15.46l1.33-1.5v-15l-1.33-1.5h-15.46v18ZM91.01,90.53v16.5l1.33,1.5h15.46v-18h-16.79Z"/>
      </g>
    </g>
  </g>
</svg>