<?xml version="1.0" encoding="UTF-8"?>
<svg id="_레이어_2" data-name="레이어 2" xmlns="http://www.w3.org/2000/svg" viewBox="0 0 161.16 139.65">
  <defs>
    <style>
      .cls-1 {
        fill: #fff;
      }
    </style>
  </defs>
  <g id="_레이어_1-2" data-name="레이어 1">
    <g>
      <path d="M109.08,36.32c22.47-13.46,50.49-.77,52.04,26.46s-40.38,69.39-69.47,52.56c-5.06,11.25-4.94,16.96-17.78,21.25-14.76,4.93-38.85,4.9-49.76-7.8C8.88,111.07-.06,54.05,0,30.8c.02-6.73.94-15.29,6.14-19.92,15.08-13.43,83.06-15.19,97.84-.96,1.32,1.27,5.1,7.5,5.1,8.9v17.5ZM41.88,12.62c-5.07.47-25.36,3.81-13.06,10.46,7.55,4.08,26.83,3.94,35.48,2.96,3.31-.37,20.75-4.45,20.74-8.22-1.11-1.25-2.13-2.54-3.73-3.24-7.49-3.29-30.73-2.78-39.44-1.96ZM107.08,38.32v-15.5c0-1.65-5.06-10.23-7-8.49,3.92,4.01,8.76,11.39,3.01,15.99,2.83-7.19-1.35-12.01-7-16,1.03,6.03-8.38,9.78-13.21,11.3-14.77,4.66-37.97,4.81-53.02,1.42-8.28-1.86-15.94-5.56-6.78-13.23-5.23-1.7-18.11,7.78-17.98,13.03.17,6.94,25.84,12.53,31.61,13.36,17.95,2.56,37.69,1.8,54.96-3.82l.87,1.91c5.24-1.63,9.62-3.53,13.06-7.96l1.5,8ZM84.07,40.33c-25.98,4.94-53.82,4.74-77.99-7,.77,1.81,3.13,2.84,4.79,3.7,18.92,9.76,49.92,10.03,70.2,4.77,1.14-.3,3.25.07,3.01-1.47ZM142.07,36.33c-9.12-3.23-18.09-4.69-27.27-.79-6.88,2.92-7.36,5.37-7.72,12.77l14.47-8.02,13.17-3.92,7.35-.05ZM18.07,110.31c-5.64-20.18-10.54-40.61-12.99-61.5-.26-2.2.13-4.53-.13-6.87-.16-1.41-.53-6.08-1.87-6.62-.02,22.66,4.76,45.44,11.49,66.99.73,2.33,1.48,6.61,3.49,8ZM132.74,41.7c-7.75.12-22.44,6.73-25.88,13.9-3.08,6.41-5.33,23.65-7.28,31.72-1.11,4.62-6.48,19-5.36,22.32,3.19,4,8.56,4,13.34,3.65,26.19-1.92,50.72-31.6,42.81-57.78-2.73-9.04-7.79-13.96-17.64-13.81ZM105.07,51.31v-5.99h-.98v5.99h.98ZM154.08,56.82c.46,5.28,0,11.57,0,17,0,.64-2.77,5.18-.01,5.49,2.77-9,3.3-19.18-.48-28-3.52-2.94.45,5.05.49,5.51ZM96.07,91.31l3-15.99-3.74,12.75.74,3.24ZM121.08,112.33c-1.87.42-6.18,1.09-6.99,2.98,2.32-.18,5.99-.52,6.99-2.98Z"/>
      <path class="cls-1" d="M107.08,38.32l-1.5-8c-3.44,4.44-7.81,6.33-13.06,7.96l-.87-1.91c-17.27,5.63-37,6.38-54.96,3.82-5.76-.82-31.43-6.42-31.61-13.36-.13-5.25,12.75-14.73,17.98-13.03-9.15,7.67-1.5,11.36,6.78,13.23,15.06,3.39,38.26,3.23,53.02-1.42,4.83-1.52,14.24-5.27,13.21-11.3,5.65,3.98,9.83,8.81,7,16,5.75-4.6.91-11.98-3.01-15.99,1.94-1.74,7,6.84,7,8.49v15.5Z"/>
      <path class="cls-1" d="M41.88,12.62c8.71-.81,31.95-1.32,39.44,1.96,1.59.7,2.62,1.98,3.73,3.24,0,3.77-17.43,7.85-20.74,8.22-8.65.98-27.93,1.12-35.48-2.96-12.3-6.65,8-9.99,13.06-10.46Z"/>
      <path class="cls-1" d="M142.07,36.33l-7.35.05-13.17,3.92-14.47,8.02c.35-7.4.83-9.85,7.72-12.77,9.18-3.9,18.15-2.44,27.27.79Z"/>
      <path class="cls-1" d="M84.07,40.33c.24,1.54-1.87,1.17-3.01,1.47-20.28,5.26-51.28,4.99-70.2-4.77-1.66-.86-4.02-1.88-4.79-3.7,24.18,11.74,52.01,11.94,77.99,7Z"/>
      <path class="cls-1" d="M18.07,110.31c-2.01-1.39-2.76-5.67-3.49-8C7.85,80.76,3.06,57.98,3.09,35.32c1.34.53,1.71,5.21,1.87,6.62.26,2.34-.13,4.67.13,6.87,2.45,20.89,7.35,41.32,12.99,61.5Z"/>
      <path class="cls-1" d="M154.08,56.82c-.04-.46-4.01-8.46-.49-5.51,3.77,8.83,3.25,19,.48,28-2.76-.31.01-4.85.01-5.49,0-5.43.46-11.72,0-17Z"/>
      <polygon class="cls-1" points="96.07 91.31 95.33 88.07 99.07 75.32 96.07 91.31"/>
      <path class="cls-1" d="M121.08,112.33c-1.01,2.46-4.68,2.8-6.99,2.98.81-1.89,5.12-2.56,6.99-2.98Z"/>
      <rect class="cls-1" x="104.09" y="45.32" width=".98" height="5.99"/>
    </g>
  </g>
</svg>