<?xml version="1.0" encoding="UTF-8"?>
<svg id="_레이어_2" data-name="레이어 2" xmlns="http://www.w3.org/2000/svg" viewBox="0 0 253 230.88">
  <defs>
    <style>
      .cls-1 {
        fill: #fff;
      }
    </style>
  </defs>
  <g id="_레이어_1-2" data-name="레이어 1">
    <g>
      <path d="M0,230.88v-27.5c.86-.95,4.63-2.5,5.5-2.5h20.5l2.01-108.49C33.54,21.05,100.35-16.34,166.52,6.87c64.77,22.72,63.32,83.66,64.53,141.47.32,15.14-1.78,34.74-.09,49.09.17,1.46.12,2.57,1.55,3.45h15c.35,0,5.5-1.89,5.5,1.5v25L0,230.88ZM45,200.88h168.5c3.4-3.22.59-8.41.46-12.46-1.08-34.44.7-75.16-5.25-108.75C191.37-18.14,47.18-1.9,45.01,94.39v106.49ZM240,209.89c-64.72-2.63-129.73.09-194.55-.96-2.85-.05-5.27-1.02-7.91-1.09-6.95-.18-13.97.08-20.9.18-2.56,2.31-3.23,4.53.82,4.86,49.04,4.07,103.48-3.08,153.08.04,20.97-3.63,45.23,1.33,66-1,1.5-.17,3.09-.21,3.46-2.03ZM238.99,214.89c-35.83,1.09-71.65,1.19-107.54,1.95-2.37.05-4.55,1.03-6.92,1.08-33.44.74-71.22-1.7-104.08,1.92-1.5.16-3.08.22-3.46,2.03l221.99-6.98Z"/>
      <path class="cls-1" d="M45,200.88v-106.49C47.18-1.9,191.37-18.14,208.71,79.67c5.95,33.59,4.17,74.31,5.25,108.75.13,4.05,2.94,9.24-.46,12.46H45ZM130.92,36.82c4.03-12.64-4.82-13.73-2.92.07l2.92-.07ZM116.51,32.88l-2.35,3.68c3.21,8.59,7.15-4.8,2.35-3.68ZM140,37.88c1.27,1.51,5.49-.09,5-2.48-.86-4.22-6.72.45-5,2.48ZM100.51,37.89c-2.59.8-2.27,8.29,1.98,6.98,2.59-.8,2.27-8.29-1.98-6.98ZM160.52,38.89c-2.61,1.37-1.95,7.57.97,6.99,2.61-1.37,1.95-7.57-.97-6.99ZM89.99,54.88c.95-.98-.45-6.28-2.49-6.98-5.95,3.21,0,9.55,2.49,6.98ZM177.99,48.89c-4.36-1.36-6.93,5.92-3.48,6.99,4.08,1.25,3.75-4.75,3.48-6.99ZM78.9,63c-4.27-2.2-5.99,1.97-3.74,5.73l3.83.16-.09-5.89ZM187.99,69.89c-5.08-.92-6.24,2.92-4.99,6.99,4.53.45,5.48-3.18,4.99-6.99ZM66.61,92.97c-3.61,1.13-.48,6.85,2.86,5.9,2.72-.77,2.31-7.52-2.86-5.9ZM195.99,97.89l-4.55.94-.44,5.05c3.63-.17,5.69-2.34,4.99-5.99ZM64.99,114.88c1.3-6.84-7.16-6.76-3.83-.15l3.83.15ZM164.99,114.88c-1.08-.19-2.02.15-3.03.45-5.82,1.77-26.56,14.67-30.47,14.5-1.35-.06-2.74-1.8-4.96-2.04-3.04-.33-5.82,1.33-8.52.67-8.29-2.01-21.15-13.61-28.76-15.37-.94-.22-2.32-.59-3.12-.08l-2.16,5.32,32.9,14.68c-1.89,17.03,14.29,14.42,16.77.78l32.35-13.96-1-4.94ZM203,117.88l-14.42,1.89-.44,4.98c8.23,2.08,16.62,5.48,14.86-6.86ZM58.64,123.02c-8.44,11.73,11.14,11.03,10.44,3.38-.32-3.5-7.54-3.9-10.44-3.38ZM193.51,137.89c-3.13.84-.14,5.47,1.97,4.98,2.55-.58,1.91-6.03-1.97-4.98ZM66.51,150.89c-.69.15-2.56,2.41-2.54,3.49l2.53,3.48c3.15-1.18,3.39-7.69.01-6.98ZM189.01,150.89c-.96,6.33,6.37,8.84,4.56.92l-4.56-.92ZM77.86,167.03c-2.96-4.78-7.81,4.49-3.35,5.84,3.34,1.02,4.5-3.97,3.35-5.84ZM194.51,184.89c-3.44,2.46.43,4.15,1.99,5.97,3.23-1.56.36-6.4-1.99-5.97ZM181.99,190.88c1.3-6.84-7.16-6.76-3.83-.15l3.83.15ZM65.26,188.14c-2.12,2.22-.33,6.06,2.12,5.68,4.85-.76,1.61-9.58-2.12-5.68ZM87.99,186.89c-2.49-2.58-8.44,3.77-2.49,6.98,2.04-.7,3.44-6,2.49-6.98ZM130.6,186.93c-2.51.43-7.82,14.84,1.88,12.97,5.27-1.01,1.39-13.53-1.88-12.97ZM144.51,187.89c-3.15.89-.61,6.51,1.97,5.99s2.24-7.18-1.97-5.99ZM160.15,192.72c1.6,2.61,6.99.17,4.42-3.91-3.82-3.22-6.35.77-4.42,3.91ZM101.98,194.87c1.11-.76,1.87-7.28-2.47-5.98-3.48,1.04-.77,8.2,2.47,5.98ZM118.98,197.87c1.11-.76,1.87-7.28-2.47-5.98-3.48,1.04-.77,8.2,2.47,5.98Z"/>
      <path class="cls-1" d="M240,209.89c-.38,1.82-1.96,1.86-3.46,2.03-20.77,2.33-45.03-2.63-66,1-49.61-3.12-104.05,4.03-153.08-.04-4.04-.34-3.38-2.55-.82-4.86,6.93-.1,13.95-.36,20.9-.18,2.64.07,5.06,1.04,7.91,1.09,64.82,1.05,129.83-1.67,194.55.96Z"/>
      <path class="cls-1" d="M238.99,214.89l-221.99,6.98c.37-1.81,1.96-1.87,3.46-2.03,32.86-3.62,70.64-1.17,104.08-1.92,2.37-.05,4.55-1.03,6.92-1.08,35.88-.76,71.71-.86,107.54-1.95Z"/>
      <path d="M164.99,114.88l1,4.94-32.35,13.96c-2.48,13.64-18.66,16.26-16.77-.78l-32.9-14.68,2.16-5.32c.8-.5,2.17-.13,3.12.08,7.61,1.76,20.47,13.36,28.76,15.37,2.7.66,5.48-1,8.52-.67,2.22.24,3.61,1.99,4.96,2.04,3.91.16,24.65-12.73,30.47-14.5,1.01-.31,1.95-.64,3.03-.45Z"/>
      <path d="M203,117.88c1.76,12.34-6.63,8.94-14.86,6.86l.44-4.98,14.42-1.89Z"/>
      <path d="M58.64,123.02c2.9-.52,10.12-.12,10.44,3.38.7,7.65-18.87,8.35-10.44-3.38Z"/>
      <path d="M130.6,186.93c3.27-.56,7.15,11.96,1.88,12.97-9.71,1.86-4.39-12.55-1.88-12.97Z"/>
      <path d="M130.92,36.82l-2.92.07c-1.9-13.8,6.95-12.71,2.92-.07Z"/>
      <path d="M187.99,69.89c.49,3.81-.45,7.45-4.99,6.99-1.25-4.08-.09-7.92,4.99-6.99Z"/>
      <path d="M100.51,37.89c4.25-1.31,4.57,6.18,1.98,6.98-4.25,1.31-4.57-6.18-1.98-6.98Z"/>
      <path d="M66.61,92.97c5.17-1.61,5.58,5.13,2.86,5.9-3.34.95-6.47-4.77-2.86-5.9Z"/>
      <path d="M77.86,167.03c1.16,1.87,0,6.86-3.35,5.84-4.47-1.36.39-10.63,3.35-5.84Z"/>
      <path d="M177.99,48.89c.26,2.24.59,8.24-3.48,6.99-3.45-1.06-.88-8.35,3.48-6.99Z"/>
      <path d="M89.99,54.88c-2.49,2.58-8.44-3.77-2.49-6.98,2.04.7,3.44,6,2.49,6.98Z"/>
      <path d="M78.9,63l.09,5.89-3.83-.16c-2.25-3.76-.53-7.93,3.74-5.73Z"/>
      <path d="M87.99,186.89c.95.98-.45,6.28-2.49,6.98-5.95-3.21,0-9.55,2.49-6.98Z"/>
      <path d="M65.26,188.14c3.72-3.9,6.97,4.92,2.12,5.68-2.45.38-4.24-3.45-2.12-5.68Z"/>
      <path d="M160.15,192.72c-1.93-3.14.6-7.13,4.42-3.91,2.57,4.08-2.81,6.52-4.42,3.91Z"/>
      <path d="M195.99,97.89c.7,3.65-1.36,5.82-4.99,5.99l.44-5.05,4.55-.94Z"/>
      <path d="M101.98,194.87c-3.24,2.21-5.95-4.95-2.47-5.98,4.34-1.29,3.59,5.22,2.47,5.98Z"/>
      <path d="M118.98,197.87c-3.24,2.21-5.95-4.95-2.47-5.98,4.34-1.29,3.59,5.22,2.47,5.98Z"/>
      <path d="M66.51,150.89c3.37-.71,3.14,5.8-.01,6.98l-2.53-3.48c-.02-1.08,1.85-3.35,2.54-3.49Z"/>
      <path d="M189.01,150.89l4.56.92c1.81,7.91-5.52,5.41-4.56-.92Z"/>
      <path d="M144.51,187.89c4.22-1.19,4.45,5.48,1.97,5.99s-5.12-5.1-1.97-5.99Z"/>
      <path d="M160.52,38.89c2.92-.58,3.58,5.62.97,6.99-2.92.58-3.58-5.62-.97-6.99Z"/>
      <path d="M116.51,32.88c4.8-1.12.86,12.27-2.35,3.68l2.35-3.68Z"/>
      <path d="M64.99,114.88l-3.83-.15c-3.34-6.61,5.13-6.69,3.83.15Z"/>
      <path d="M181.99,190.88l-3.83-.15c-3.34-6.61,5.13-6.69,3.83.15Z"/>
      <path d="M194.51,184.89c2.35-.42,5.21,4.41,1.99,5.97-1.55-1.83-5.42-3.51-1.99-5.97Z"/>
      <path d="M193.51,137.89c3.89-1.05,4.53,4.4,1.97,4.98-2.12.48-5.11-4.14-1.97-4.98Z"/>
      <path d="M140,37.88c-1.72-2.04,4.14-6.7,5-2.48.49,2.39-3.72,3.99-5,2.48Z"/>
    </g>
  </g>
</svg>