<?xml version="1.0" encoding="UTF-8"?>
<svg id="_레이어_2" data-name="레이어 2" xmlns="http://www.w3.org/2000/svg" viewBox="0 0 263.47 234.24">
  <defs>
    <style>
      .cls-1 {
        fill: #fff;
      }
    </style>
  </defs>
  <g id="_레이어_1-2" data-name="레이어 1">
    <g>
      <path class="cls-1" d="M109.95,165.58l-.95,3.36c.82,2.85,19.04,5.27,22.46,5.62,5.22.53,12.56.85,17.94,1.06,18.09.7,36.2-1.77,54.06-1.05,1.22.05,3.72-.75,3.48.99-18.36,1.92-37.03,2.72-55.54,2.06-8.86-.32-20.24-.88-28.94-2.06-3.18-.43-12.96-2.16-15.06-3.93-3.86-3.26,1.55-7.06,2.54-6.04Z"/>
      <path d="M60.22.38c57.61-.35,115.05.94,172.76.75,2.86,0,5.53-1.23,7.94-1.12,1.55.07,11.64,3.08,13.21,3.87,5.84,2.98,9.04,10.35,9.33,16.67v196.08c-.7,7.87-4.8,14.18-12.49,16.51-76.13,2.24-152.77.27-229.09.99-12.68-1.16-19.43-9.11-20.49-21.51-4.12-47.74,2.31-102.75,1.08-150.99C3.36,44.83-2.33,11.16,17.2,3.35,25.93-.15,49.68.45,60.22.38ZM244.43,7.08v204.5c0,.18-2.32,2.5-2.5,2.5H21.43l1-204c-6.08-.6-10.71,2.95-13.17,8.33-2.79,6.09-3.46,17.3-3.81,24.19-2.1,40.63.39,84.02.04,125.04-.12,13.46-2.15,27.37-1.08,40.99.42,5.34,1.19,12.84,7.03,14.47l2-3.01,2,5.01.51-4.99.51,5.99,3.02-.74.97-2.24.45,4.06,3.01.99h214.09c3.57-.31,7.93-.53,7.47-5.05l3.98,3,.02-5.99,2.48,4.99c8.28-7.81,4.55-18.97,4.46-28.45-.6-60.66,1.33-121.63-.89-182.11-1.67-5.32-5.55-7.63-11.06-7.44ZM243.43,61.08H27.43v2h216v-2ZM44.93,68.53c-8.66-.02-8.22,13.49,0,13.49,7.97,0,9.2-13.46,0-13.49ZM68.1,68.31c-9.18.76-8.53,16.27,3.64,12.57,6.47-1.97,3.34-13.14-3.64-12.57ZM86.7,79.83c5.28,5.58,15.28-1.43,10.8-8.32-5.34-8.22-16.52,2.27-10.8,8.32ZM185.91,68.54c-8.46.53-7.86,13.24,0,13.43,9.54.23,9.96-14.06,0-13.43ZM111.69,70.34c-5.96,5.65,2.78,16.4,9.78,9.28s-4.62-14.17-9.78-9.28ZM137.16,69.28c-6.09,1.34-6.43,9.5-.46,12.05,10.59,4.54,14.33-15.1.46-12.05ZM168.17,79.83c4.99-5.29-2.47-14.67-9.31-9.82-7.11,5.04,2.71,16.81,9.31,9.82ZM56.43,89.08h-30v36h28.5l1.5-1.5v-34.5ZM82.43,89.08h-23c-.31,10.2-2.24,22.44-1.05,32.55.17,1.46.12,2.57,1.55,3.45h21l1.5-1.5v-34.5ZM211.43,89.08h-127v119h127v-119ZM238.93,90.08v1c.65-.33.65-.67,0-1ZM56.43,128.08h-30v27h30v-27ZM82.43,128.08h-24l.24,25.54,1.26,1.46h22.5v-27ZM220.43,141.09h-3.99v.98h3.99v-.98ZM238.93,141.08v1c.65-.33.65-.67,0-1ZM56.43,158.08h-30v21.5l1.5,1.5h27l1.5-1.5v-21.5ZM81.43,158.08h-22v23h21.5l1.5-1.5v-18c0-.54-1.55-2.22-1-3.5ZM56.43,184.08h-30v23.5l1.5,1.5h27l1.5-1.5v-23.5ZM82.43,184.08h-23l-1,24h24v-24Z"/>
      <path class="cls-1" d="M211.43,89.08v119h-127v-119h127ZM104.43,108.08h98c.22-1.76-2.26-.95-3.49-1-23.41-.97-47.53.49-71.05.04-6.11-.12-12.32-1.63-19.01-1.09-1.76.14-3.86-.19-4.45,2.05ZM104.43,150.08h97c.22-1.76-2.26-.95-3.49-1-23.71-.99-48.22.39-72.05.04-5.28-.08-9.78-1.5-15.83-.92-1.12.11-5.52.46-5.63,1.88Z"/>
      <path class="cls-1" d="M244.43,7.08c5.51-.19,9.39,2.12,11.06,7.44,2.23,60.47.29,121.45.89,182.11.09,9.48,3.83,20.63-4.46,28.45l-2.48-4.99-.02,5.99-3.98-3c.46,4.52-3.9,4.74-7.47,5.04H23.88s-3.01-.98-3.01-.98l-.45-4.06-.97,2.24-3.02.74-.51-5.99-.51,4.99-2-5.01-2,3.01c-5.84-1.64-6.61-9.13-7.03-14.47-1.06-13.61.97-27.53,1.08-40.99.35-41.02-2.13-84.41-.04-125.04.36-6.89,1.03-18.09,3.81-24.19,2.46-5.38,7.1-8.93,13.17-8.33l-1,204h220.5c.18,0,2.5-2.32,2.5-2.5V7.08ZM12.43,205.08V44.58c-2.4-2.9-3.67-1.31-4.05,1.95-3.43,29.64,3.49,64.94-.99,95.01l.98,63.1,4.06.44ZM249.93,207.08v1c.65-.33.65-.67,0-1ZM253.93,207.08v1c.65-.33.65-.67,0-1ZM253.93,211.08v1c.65-.33.65-.67,0-1ZM12.93,216.08v1c.65-.33.65-.67,0-1ZM251.43,216.09h-1.99v.98h1.99v-.98ZM253.93,216.08v1c.65-.33.65-.67,0-1ZM10.42,219.08v-1.99h-.98v1.99h.98ZM15.93,218.08v1c.65-.33.65-.67,0-1ZM246.93,221.08v1c.65-.33.65-.67,0-1Z"/>
      <polygon class="cls-1" points="56.43 89.08 56.43 123.58 54.93 125.08 26.43 125.08 26.43 89.08 56.43 89.08"/>
      <path class="cls-1" d="M82.43,89.08v34.5l-1.5,1.5h-21c-1.43-.88-1.38-1.99-1.55-3.45-1.19-10.11.75-22.35,1.05-32.55h23Z"/>
      <rect class="cls-1" x="26.43" y="128.08" width="30" height="27"/>
      <polygon class="cls-1" points="56.43 184.08 56.43 207.58 54.93 209.08 27.93 209.08 26.43 207.58 26.43 184.08 56.43 184.08"/>
      <polygon class="cls-1" points="56.43 158.08 56.43 179.58 54.93 181.08 27.93 181.08 26.43 179.58 26.43 158.08 56.43 158.08"/>
      <polygon class="cls-1" points="82.43 128.08 82.43 155.08 59.93 155.08 58.68 153.63 58.43 128.08 82.43 128.08"/>
      <polygon class="cls-1" points="82.43 184.08 82.43 208.08 58.43 208.08 59.43 184.08 82.43 184.08"/>
      <path class="cls-1" d="M81.43,158.08c-.55,1.28,1,2.96,1,3.5v18l-1.5,1.5h-21.5v-23h22Z"/>
      <rect class="cls-1" x="27.43" y="61.08" width="216" height="2"/>
      <path class="cls-1" d="M137.16,69.28c13.87-3.05,10.13,16.59-.46,12.05-5.97-2.56-5.63-10.71.46-12.05Z"/>
      <path class="cls-1" d="M185.91,68.54c9.96-.62,9.54,13.67,0,13.43-7.85-.19-8.46-12.91,0-13.43Z"/>
      <path class="cls-1" d="M68.1,68.31c6.99-.58,10.12,10.6,3.64,12.57-12.17,3.7-12.83-11.81-3.64-12.57Z"/>
      <path class="cls-1" d="M111.69,70.34c5.16-4.89,16.51,2.45,9.78,9.28s-15.75-3.64-9.78-9.28Z"/>
      <path class="cls-1" d="M86.7,79.83c-5.72-6.04,5.46-16.54,10.8-8.32,4.48,6.89-5.52,13.9-10.8,8.32Z"/>
      <path class="cls-1" d="M44.93,68.53c9.2.03,7.97,13.49,0,13.49-8.22,0-8.66-13.51,0-13.49Z"/>
      <path class="cls-1" d="M168.17,79.83c-6.61,7-16.42-4.78-9.31-9.82,6.85-4.85,14.3,4.53,9.31,9.82Z"/>
      <rect class="cls-1" x="216.44" y="141.09" width="3.99" height=".98"/>
      <path class="cls-1" d="M238.93,141.08c.65.33.65.67,0,1v-1Z"/>
      <path class="cls-1" d="M238.93,90.08c.65.33.65.67,0,1v-1Z"/>
      <path d="M104.43,108.08c.58-2.24,2.69-1.91,4.45-2.05,6.69-.53,12.9.98,19.01,1.09,23.52.45,47.64-1.01,71.05-.04,1.23.05,3.71-.76,3.49,1h-98Z"/>
      <path d="M104.43,150.08c.1-1.42,4.5-1.77,5.63-1.88,6.05-.58,10.55.84,15.83.92,23.83.35,48.34-1.03,72.05-.04,1.23.05,3.71-.76,3.49,1h-97Z"/>
      <path d="M12.43,205.08l-4.06-.44-.98-63.1c4.49-30.06-2.43-65.37.99-95.01.38-3.26,1.65-4.86,4.05-1.95v160.5Z"/>
      <rect x="9.44" y="217.09" width=".98" height="1.99"/>
      <rect x="249.44" y="216.09" width="1.99" height=".98"/>
      <path d="M246.93,221.08c.65.33.65.67,0,1v-1Z"/>
      <path d="M15.93,218.08c.65.33.65.67,0,1v-1Z"/>
      <path d="M253.93,216.08c.65.33.65.67,0,1v-1Z"/>
      <path d="M12.93,216.08c.65.33.65.67,0,1v-1Z"/>
      <path d="M253.93,211.08c.65.33.65.67,0,1v-1Z"/>
      <path d="M253.93,207.08c.65.33.65.67,0,1v-1Z"/>
      <path d="M249.93,207.08c.65.33.65.67,0,1v-1Z"/>
    </g>
  </g>
</svg>