<?xml version="1.0" encoding="UTF-8"?>
<svg id="_레이어_2" data-name="레이어 2" xmlns="http://www.w3.org/2000/svg" viewBox="0 0 185.14 182.54">
  <defs>
    <style>
      .cls-1 {
        fill: #fff;
      }
    </style>
  </defs>
  <g id="_레이어_1-2" data-name="레이어 1">
    <g>
      <path d="M185.14,8.66c-.55,31.24-2.77,63.27-7.01,94.23-2.75,20.05-6.87,46.55-13.57,65.43-3.69,10.41-6.05,10.36-16.92,12.08-19.46,3.07-44.19,2.65-63.74.02-4.4-.59-20.83-3.94-23.6-6.4-6.11-5.44-9.62-35.57-11.17-44.33C16.64,122.22-8.16,81.22,2.51,49.27c5.75-17.22,20.26-24.09,37.68-20.82,1.98-4.47.05-17.38,3.05-20.45,1.8-1.84,19-4.81,22.67-5.33,7.03-.98,15.76-1.86,22.82-2.18,31.55-1.46,65.94.1,96.41,8.17ZM180.27,9.54c-39.54-5.13-80.68-7.52-120.35-1.87-4.56.65-9.48,1.32-13.65,3.36l39.47-3.54h56.08c11.63.91,23.31,2.19,34.93,3.08,1.07.08,3.8.63,3.53-1.03ZM155.77,20.53c-4.27-.7-10.02.51-14.5,0l16.01,2-7.52,75.01c3.72-24.94,7.57-50.09,8.55-75.32-.15-.62-2.05-1.61-2.54-1.69ZM46.27,117.52l-6.13-77.36c-.53-1.65-3.81-2.31-5.46-2.53-24.13-3.22-27.05,23.25-22.92,40.91,3.91,16.68,18.33,33.47,34.5,38.99ZM70.27,164.52c-5.43-13.18-7.06-29.27-8.88-43.61-3.17-24.99-4.19-48.81-5.12-73.89-.05-1.21.75-3.72-.99-3.48-1.49,7.02-1.31,15.25-1.05,22.53.9,25.42,4.35,71.44,12.14,94.89.89,2.69.11,4.24,3.9,3.56Z"/>
      <path class="cls-1" d="M46.27,117.52c-16.17-5.52-30.59-22.31-34.5-38.99-4.14-17.66-1.22-44.13,22.92-40.91,1.65.22,4.93.88,5.46,2.53l6.13,77.36Z"/>
      <path class="cls-1" d="M180.27,9.54c.27,1.66-2.46,1.11-3.53,1.03-11.62-.89-23.3-2.18-34.93-3.08h-56.08s-39.47,3.54-39.47,3.54c4.17-2.04,9.09-2.71,13.65-3.36,39.67-5.65,80.81-3.26,120.35,1.87Z"/>
      <path class="cls-1" d="M70.27,164.52c-3.79.68-3-.87-3.9-3.56-7.79-23.45-11.24-69.47-12.14-94.89-.26-7.28-.44-15.51,1.05-22.53,1.74-.24.94,2.27.99,3.48.94,25.07,1.95,48.89,5.12,73.89,1.82,14.34,3.44,30.43,8.88,43.61Z"/>
      <path class="cls-1" d="M155.77,20.53c.49.08,2.39,1.07,2.54,1.69-.97,25.23-4.83,50.38-8.55,75.32l7.52-75.01-16.01-2c4.48.51,10.23-.7,14.5,0Z"/>
    </g>
  </g>
</svg>