<?xml version="1.0" encoding="UTF-8"?>
<svg id="_레이어_2" data-name="레이어 2" xmlns="http://www.w3.org/2000/svg" viewBox="0 0 279.2 162.5">
  <defs>
    <style>
      .cls-1 {
        fill: #fff;
      }
    </style>
  </defs>
  <g id="_레이어_1-2" data-name="레이어 1">
    <g>
      <path d="M191.87,22.98l-97.54-.99c-1.5-.21-1.6.57-1.47-1.5.22-3.74,3.31-16.84,6.76-18.26,1.6-.66,5.78-1.14,7.72-1.28,17.03-1.31,44.99-1.22,62.08,0,2.06.15,7.03.7,8.72,1.28,3.39,1.16,15.61,18.84,13.74,20.76Z"/>
      <path d="M212.86,21.99c1.11-3.21.03-9.91,3.03-11.47,3.93-2.06,34.11-2.61,36.06.11l.91,11.36h-40Z"/>
      <path d="M57.66,19.77l-14.15,1.08c-8.72-13.43,18.91-15.94,14.15-1.08Z"/>
      <path class="cls-1" d="M142.62,40.24c20.67-2.63,41.43,10.21,49.27,29.21,8.24,19.95,3.17,40.03-9.2,56.86-1.99,2.71-5.18,4.58-6.34,7.65,23.86-15.52,33.78-49.75,15.53-73.49,4.82,2.79,7.78,10.73,9.13,15.86,8.77,33.38-15.72,65.45-50.64,64.63-70.2-1.63-60.12-94.06-7.75-100.73ZM163.86,131.99c.84-.3,1.33-.68,2-1,.72-.34,1.29-.58,2-1,.54-.32,1.17-.42,2-1,.38-.26.64-.73,1-1s.64-.71,1-1,.65-.69,1-1,.66-.67,1-1,.68-.66,1-1,.69-.64,1-1,.7-.64,1-1,.72-.63,1-1c1.07-1.4,1.16-1.67,2-3,.46-.74.66-1.36,1-2,.37-.69.67-1.28,1-2,5.12-11.29,5.85-15.57,4-28-.6-4.03-.63-4.27-2-8-.22-1.87-.73-2.08-1-3s-.71-1.35-1-2c-.33-.74-.5-1.27-1-2-.7-1.03-1.1-1.77-2-3-1.21-3.65-1.94-2.92-4-5-.32-.35-.69-.65-1-1s-.68-.65-1-1-.64-.71-1-1c-1.51-1.21-1.59-1.13-3-2-.7-.41-1.31-.65-2-1s-1.17-.69-2-1c-.58-.22-1.09-.77-2-1-4.22-1.64-5.88-2.64-11-2-3.1-1.51-2.21-4.43-3.48-6.01-2.7-3.35-17.17,3.24-20.46,5.57-5.22,3.71-9.16,10.09-12.69,15.31l-6.37,14.12c7.99-47.06,72.27-50.51,82.34-2.84l2.65,17.85v-14.5c0-1.9-3.98-12.47-5.12-14.88-15.64-33.11-57.99-34.27-76.68-2.92-22.75,38.15,6.99,83.57,51.8,67.3ZM192.85,101.98v-2.99h-.98v2.99h.98ZM190.36,106.99v1c.65-.33.65-.67,0-1Z"/>
      <path class="cls-1" d="M167.86,128.99c-.13.07.13.95,0,1-.46.19-1.44-.17-2,0,.61-.29,1.47-.68,2-1Z"/>
      <path class="cls-1" d="M174.86,123.99c-.16.17-.84-.17-1,0,.29-.36.75-.64,1-1-.17.18.17.82,0,1Z"/>
      <path class="cls-1" d="M170.86,127.99h-1c.34-.24.63-.71,1-1v1Z"/>
      <path class="cls-1" d="M169.86,127.99v1c-.59.13-1.63-.19-2,0,.68-.4,1.61-.73,2-1Z"/>
      <path class="cls-1" d="M173.86,124.99c-.17.17-.82-.17-1,0,.32-.34.72-.64,1-1-.17.17.17.84,0,1Z"/>
      <path class="cls-1" d="M175.86,122.99c-.15.17-.85-.17-1,0,.28-.39.79-.67,1-1-.16.19.17.82,0,1Z"/>
      <path class="cls-1" d="M180.86,70.99c.08.08.67,1.43,1,2s.68,1.36,1,2c.11.22.69,2.15,1,3,.15,1.29-.06,2.69,0,4-1.44-4.01-3.49-7.96-5-12,.43.42,1.61.59,2,1Z"/>
      <path class="cls-1" d="M185.86,85.99c1.17,7.33-1.38,20.92-4,28-.18.49-.69,1.3-1,2-.25.56-.7,1.48-1,2s-2.35,1.17-2,3l-1,1c-.14.16-.86-.16-1,0,7.97-12.58,8.7-25.45,8-40,.38,1.07,1.85,3.09,2,4Z"/>
      <path class="cls-1" d="M171.86,126.99c-.2.16-.79-.16-1,0,.36-.28.65-.69,1-1-.16.14.16.87,0,1Z"/>
      <path class="cls-1" d="M165.86,129.99c-.08.02.08.98,0,1-.6.13-1.38-.11-2,0,.65-.31,1.33-.67,2-1Z"/>
      <path class="cls-1" d="M162.86,54.99c.51.2,1.28.68,2,1,.6.26,1.4.68,2,1,.66.35,1.52.71,2,1,.37.22,2.68,1.76,3,2,.35.26.64.7,1,1s.65.68,1,1,.67.67,1,1c.4.44,3.53,4.35,4,5,.18.54-.19,1.5,0,2-8.6-8.58-16.78-15.86-30-15.01-.35-1.1,2.47-1.92,3-1.99,3.44,1.67,7.36,1.09,11,2Z"/>
      <path class="cls-1" d="M163.86,130.99c-.12.06.12.96,0,1-.6.23-4.38.29-5.01-.5,0-1.05,3.86-.3,5.01-.5Z"/>
      <path class="cls-1" d="M172.86,125.99c-.19.17-.8-.16-1,0,.35-.3.69-.66,1-1-.17.16.17.85,0,1Z"/>
      <path class="cls-1" d="M89.86,159.99l-2-1.48c-.28-27.68.36-55.38.04-83.06-.03-2.36-1.05-4.55-1.08-6.92-.07-5.58-.7-42.24,1.05-43.54.64-.08,1.99,1.33,1.99,1.5v133.5Z"/>
      <path class="cls-1" d="M218.86,59.99h22.5c11.21,1.76,16.7,2.28,12.51,15.51-10.67,3.89-21.55,1.49-32.51,1.49l-2.5-1.5v-15.5ZM252.87,74.99l-.95-11.56-31.06-2.44.12,14.89,31.89-.88Z"/>
      <path class="cls-1" d="M32.86,38.99v16.5c0,.33-1.32,1.52-1,2.5h-15.5l-1.5-1.5v-17.5h18ZM30.72,41.13l-13.72-1-.71,14.92,13.42.8,1-14.72Z"/>
      <path class="cls-1" d="M69.86,58.99h-15.5l-1.5-1.5v-17.5h16.5l1.5,1.5v15c0,.33-1.32,1.52-1,2.5ZM68.86,56.99v-14.5c-3.21-2.42-11.67-2.45-15,0v14.5h15Z"/>
      <path class="cls-1" d="M190.35,57c.55.64,2.01,1.3,1.02,1.96-.48-.59-2.01-1.26-1.02-1.96Z"/>
      <path d="M169.86,128.99v-1h1c-.36.27-.62.74-1,1Z"/>
      <path d="M178.86,67.99c-.47-.65-3.6-4.56-4-5,2.06,2.08,2.79,1.35,4,5Z"/>
      <path d="M177.86,120.99c-.35-1.83,1.71-2.49,2-3-.84,1.33-.93,1.6-2,3Z"/>
      <path d="M170.86,127.99v-1c.21-.16.8.16,1,0-.36.29-.63.72-1,1Z"/>
      <path d="M176.86,121.99l1-1c-.28.37-.71.64-1,1Z"/>
      <path d="M181.86,113.99c2.62-7.08,5.17-20.67,4-28,1.85,12.43,1.12,16.71-4,28Z"/>
      <path d="M163.86,131.99c-44.81,16.27-74.55-29.15-51.8-67.3,18.69-31.35,61.04-30.19,76.68,2.92,1.14,2.41,5.12,12.97,5.12,14.88v14.5l-2.65-17.85c-10.06-47.67-74.35-44.21-82.34,2.84l6.37-14.12c3.53-5.23,7.47-11.61,12.69-15.31,3.28-2.33,17.76-8.92,20.46-5.57,1.28,1.58.38,4.51,3.48,6.01-.52.07-3.35.89-3,1.99,13.21-.85,21.39,6.43,30,15.01,1.51,4.04,3.56,7.99,5,12,.7,14.55-.03,27.42-8,40-.21.33-.72.61-1,1-.25.36-.71.64-1,1s-.68.66-1,1-.65.7-1,1-.64.72-1,1-.66.76-1,1c-.39.27-1.32.6-2,1-.53.32-1.39.71-2,1-.67.33-1.35.69-2,1-1.15.2-5.01-.55-5.01.5.63.79,4.41.73,5.01.5ZM147.86,49c-12.83.66-24.17,10.4-30.16,21.32-17.59,32.08,3.68,61.95,39.56,57.56,30.65-3.75,35.93-58.85,3.83-68.61-46.59-14.17-59.2,55.18-19.47,63.46,2.1.44,20.59.85,17.25-1.73-28.61,6.49-48.65-18.66-35.88-45.39,7.02-14.69,19.72-18.77,35.1-15.35,33.92,7.55,28.14,62.99-1.83,66.61-47.05,5.68-57.39-48.05-22.72-71.73l14.33-6.15ZM108.86,100.49c-.94-4.9.69-12.27,0-17.5h-1v17.5c0,1.24,4.5,11.6,5.58,13.42,8.01,13.45,21.85,18.34,36.87,19.13,1.62.09,6.85.73,7.54-1.04-17.99.49-35.18-3.42-44.18-20.33-.88-1.65-4.58-9.95-4.82-11.18Z"/>
      <path d="M171.86,126.99c.16-.13-.16-.86,0-1,.2-.16.81.17,1,0-.35.31-.64.71-1,1Z"/>
      <path d="M169.86,128.99c-.83.58-1.46.68-2,1,.13-.05-.13-.93,0-1,.37-.19,1.41.13,2,0Z"/>
      <path d="M175.86,122.99c.17-.18-.16-.81,0-1,.14-.16.86.16,1,0-.3.36-.69.65-1,1Z"/>
      <path d="M185.86,85.99c-.15-.91-1.62-2.93-2-4-.06-1.31.15-2.71,0-4,1.37,3.73,1.4,3.97,2,8Z"/>
      <path d="M167.86,129.99c-.71.42-1.28.66-2,1,.08-.02-.08-.98,0-1,.56-.17,1.54.19,2,0Z"/>
      <path d="M174.86,123.99c.17-.18-.17-.82,0-1,.15-.17.85.17,1,0-.31.36-.68.66-1,1Z"/>
      <path d="M180.86,115.99c.31-.7.82-1.51,1-2-.33.72-.63,1.31-1,2Z"/>
      <path d="M183.86,77.99c-.31-.85-.89-2.78-1-3,.27.92.78,1.13,1,3Z"/>
      <path d="M182.86,74.99c-.32-.64-.66-1.41-1-2,.29.65.74,1.11,1,2Z"/>
      <path d="M181.86,72.99c-.33-.57-.92-1.92-1-2,.5.73.67,1.26,1,2Z"/>
      <path d="M173.86,124.99c.17-.16-.17-.83,0-1s.84.17,1,0c-.32.34-.66.67-1,1Z"/>
      <path d="M180.86,70.99c-.39-.41-1.57-.58-2-1-.19-.5.18-1.46,0-2,.9,1.23,1.3,1.97,2,3Z"/>
      <path d="M179.86,117.99c.3-.52.75-1.44,1-2-.34.64-.54,1.26-1,2Z"/>
      <path d="M174.86,62.99c-.33-.33-.66-.69-1-1,.31.35.68.65,1,1Z"/>
      <path d="M162.86,54.99c-3.64-.91-7.56-.33-11-2,5.12-.64,6.78.36,11,2Z"/>
      <path d="M173.86,61.99c-.35-.32-.64-.71-1-1,.32.35.69.64,1,1Z"/>
      <path d="M165.86,130.99c-.67.32-1.16.7-2,1,.12-.04-.12-.94,0-1,.62-.11,1.4.13,2,0Z"/>
      <path d="M172.86,60.99c-.36-.3-.65-.74-1-1,.36.29.69.66,1,1Z"/>
      <path d="M171.86,59.99c-.32-.24-2.63-1.78-3-2,1.41.87,1.49.79,3,2Z"/>
      <path d="M168.86,57.99c-.48-.29-1.34-.65-2-1,.69.35,1.3.59,2,1Z"/>
      <path d="M166.86,56.99c-.6-.32-1.4-.74-2-1,.83.31,1.31.66,2,1Z"/>
      <path d="M164.86,55.99c-.72-.32-1.49-.8-2-1,.91.23,1.42.78,2,1Z"/>
      <path d="M172.86,125.99c.17-.15-.17-.84,0-1,.18-.17.83.17,1,0-.34.33-.65.69-1,1Z"/>
      <rect x="191.87" y="98.99" width=".98" height="2.99"/>
      <path d="M270.51,151.63c-5.28,5.26-14.9,7.75-22.16,8.34-18.25,1.49-39.35-.31-58.03-.03-46.1.71-105.95,5.44-150.83-.09C-7.69,154.05,6.18,121.73.82,85.53L0,25.62c.71-2.11,5.26-2.51,7.32-2.68,33.69-2.78,72.08,1.56,105.99,2.09,46.33.72,92.88-2.72,139.01,0,10.67.63,21.64-3.58,24.31,9.69,3.92,19.52,2.5,70.35,1.28,91.81-.48,8.34-1.22,18.94-7.4,25.1ZM89.86,159.99V26.49c0-.17-1.35-1.57-1.99-1.5-1.75,1.3-1.13,37.96-1.05,43.54.03,2.36,1.06,4.55,1.08,6.92.32,27.68-.32,55.38-.04,83.06l2,1.48ZM32.86,38.99H14.86v17.5l1.5,1.5h15.5c-.32-.98,1-2.17,1-2.5v-16.5ZM69.86,58.99c-.32-.98,1-2.17,1-2.5v-15l-1.5-1.5h-16.5v17.5l1.5,1.5h15.5ZM142.62,40.24c-52.37,6.67-62.45,99.1,7.75,100.73,34.92.81,59.41-31.25,50.64-64.63-1.35-5.13-4.31-13.07-9.13-15.86,18.25,23.74,8.33,57.97-15.53,73.49,1.16-3.07,4.35-4.94,6.34-7.65,12.37-16.83,17.44-36.9,9.2-56.86-7.85-19-28.61-31.85-49.27-29.21ZM190.35,57c-.99.7.54,1.37,1.02,1.96.99-.66-.47-1.32-1.02-1.96ZM218.86,59.99v15.5l2.5,1.5c10.96,0,21.84,2.4,32.51-1.49,4.19-13.23-1.3-13.75-12.51-15.51h-22.5Z"/>
      <path d="M190.36,106.99c.65.33.65.67,0,1v-1Z"/>
      <polygon points="252.87 74.99 220.98 75.87 220.86 60.98 251.92 63.42 252.87 74.99"/>
      <polygon points="30.72 41.13 29.72 55.85 16.3 55.05 17.01 40.12 30.72 41.13"/>
      <path d="M68.86,56.99h-15v-14.5c3.33-2.45,11.79-2.42,15,0v14.5Z"/>
      <path class="cls-1" d="M147.86,49l-14.33,6.15c-34.66,23.67-24.32,77.4,22.72,71.73,29.98-3.62,35.76-59.07,1.83-66.61-15.37-3.42-28.08.65-35.1,15.35-12.77,26.73,7.27,51.87,35.88,45.39,3.35,2.58-15.15,2.17-17.25,1.73-39.73-8.28-27.12-77.63,19.47-63.46,32.1,9.76,26.81,64.86-3.83,68.61-35.88,4.39-57.15-25.48-39.56-57.56,5.99-10.92,17.33-20.67,30.16-21.32Z"/>
      <path class="cls-1" d="M108.86,100.49c.24,1.23,3.94,9.53,4.82,11.18,9,16.9,26.19,20.82,44.18,20.33-.69,1.77-5.93,1.12-7.54,1.04-15.02-.8-28.86-5.68-36.87-19.13-1.08-1.82-5.58-12.18-5.58-13.42v-17.5h1c.69,5.23-.94,12.6,0,17.5Z"/>
    </g>
  </g>
</svg>