<?xml version="1.0" encoding="UTF-8"?>
<svg id="_레이어_2" data-name="레이어 2" xmlns="http://www.w3.org/2000/svg" viewBox="0 0 246.54 389.09">
  <defs>
    <style>
      .cls-1 {
        fill: #fff;
      }
    </style>
  </defs>
  <g id="_레이어_1-2" data-name="레이어 1">
    <g>
      <path d="M3.08,389.09l-1.19-5.32c-.43-96.02.71-192.07.09-288.09-.17-25.9-3.54-56.4-1.1-82,.27-2.85,1.29-7.85,4.55-8.45,19.65-1.71,39.35-.47,59.05-.95C116.01,3,167.81,1.29,219.39.18c5.03-.11,18.94-.83,22.5,1.59,2.53,1.72,2.82,5.14,3.08,7.92,2.66,28.79.76,68.04,1.01,97.99.76,92.23.56,184.34.43,276.52-1.33,2.02-2.56,2.76-4.93,3.07-11.87,1.56-29.38-.34-42.09-.09-2.37.05-4.55,1.04-6.92,1.08-63.1,1.03-126.31.09-189.4.82ZM7.93,12.23l1.44,367.07,230.62-.53-2.5-370.58L7.93,12.23Z"/>
      <path class="cls-1" d="M7.93,12.23l229.56-4.05,2.5,370.58-230.62.53L7.93,12.23ZM20.18,21.47c-1.34,1.86-1.17,4.07-1.29,6.22-1.62,28.12.91,56.99,1.09,84.99.29,44.36-.24,88.8-1.09,133.01-.63,32.85-2.27,65.3-.92,98,.37,8.9-.89,17.87,1.4,26.6l211.56-2.56c1.67-.92,1.82-2.26,2.04-3.96,1.66-12.88-.93-27.19-1.09-40-1.08-88.74-1.03-177.46-3-266-.15-6.53,1.21-35.12-.45-38.55-.59-1.22-1.77-1.73-3.03-1.97-4.95-.93-16.33-.19-22.01-.07-39.86.84-80.05,2.46-119.92,3.08-18.4.29-39.08-1.46-57.08-.08-2.14.16-4.24.48-6.22,1.28Z"/>
      <path d="M20.18,21.47c1.98-.8,4.08-1.11,6.22-1.28,18-1.38,38.67.36,57.08.08,39.86-.62,80.06-2.24,119.92-3.08,5.68-.12,17.07-.86,22.01.07,1.27.24,2.44.75,3.03,1.97,1.67,3.43.31,32.01.45,38.55,1.97,88.54,1.92,177.26,3,266,.16,12.81,2.75,27.13,1.09,40-.22,1.7-.38,3.03-2.04,3.96l-211.56,2.56c-2.29-8.73-1.03-17.7-1.4-26.6-1.36-32.7.29-65.15.92-98,.85-44.2,1.38-88.64,1.09-133.01-.19-28.01-2.71-56.88-1.09-84.99.12-2.15-.04-4.36,1.29-6.22ZM24.93,361.23h200l-2.99-336.01c-10.16.21-20.38-.25-30.55-.04-25.19.51-50.7,1.34-75.99,2.01-26.79.71-56.51.28-82.99,2-2.52.16-4.9,1.01-7.41,1.09l-.05,330.95Z"/>
      <path class="cls-1" d="M24.93,361.23l.05-330.95c2.51-.08,4.89-.93,7.41-1.09,26.49-1.72,56.2-1.29,82.99-2,25.3-.67,50.8-1.5,75.99-2.01,10.17-.21,20.39.25,30.55.04l2.99,336.01H24.93ZM129.93,133.23c1.9-7.91,1.12-15.21-.48-23.01-1.15-5.61-4.14-19.29-5.99-24.01-.75-1.91-2.36-4.52-4.84-3.89-1.37.43-1.77,1.57-2.43,2.66-2.08,3.39-9.39,23.05-10.01,26.99-1.06,6.72.26,12.79,1.33,19.29-15.04,2.94-30.92.74-32.61,20.43-1.03,11.95.95,24.22,1.08,35.99.24,22.17-.27,44.37-.03,66.53,27.77,3.13,56.37,6.75,83.86-.13l-1.08-106.15c-5.17-10.63-17.93-13.75-28.79-14.72ZM159.93,256.23c-27.55,5.68-55.74,2.48-83.49,0-1.83,3.1.51,3.36,2.82,4.18,12.52,4.45,42.78,6.72,56.22,5.87,3.56-.23,24.78-3.09,25.17-5.48l-.72-4.56ZM160.93,264.23c-17.34,2.73-33.82,4.55-51.37,2.87-11.3-1.08-22.46-4.06-33.63-5.87v24c-6.96,1.02-19.74,8.43-22.83,14.67-2.4,4.84-3.79,23.54-.63,27.29,3.43,4.08,22.4,7.25,28.09,7.91,33.68,3.89,71.52-.04,102.89-12.86,1.67-14.73,4.51-23.68-9.6-32.44-4.29-2.66-8.73-3.56-12.92-6.08v-19.5Z"/>
      <path d="M129.93,133.23c10.87.96,23.63,4.08,28.79,14.72l1.08,106.15c-27.49,6.88-56.09,3.26-83.86.13-.24-22.16.27-44.36.03-66.53-.13-11.77-2.1-24.04-1.08-35.99,1.69-19.7,17.57-17.49,32.61-20.43-1.07-6.5-2.39-12.57-1.33-19.29.62-3.94,7.93-23.59,10.01-26.99.66-1.08,1.07-2.22,2.43-2.66,2.48-.64,4.09,1.98,4.84,3.89,1.85,4.72,4.84,18.4,5.99,24.01,1.6,7.8,2.39,15.09.48,23.01ZM124.71,132c5.88-13.87-3.59-27.93-5.27-41.77-6.88,11.22-19.53,47.79,5.27,41.77ZM120.84,151.13c-9.37,1.44-1.61-10.27-6.92-14.39-3.49-2.71-18.95-.05-23.54,1.43-3.4,1.09-10.83,5.15-9.37,9.43.82,2.4,14.48,4.93,17.58,5.47,8.92,1.54,20.82,2.77,29.85,3.15,5.16.22,24.74,1.58,26.33-3.69,3.39-11.22-24.79-18.38-32.61-14.06l-1.33,12.67Z"/>
      <path d="M160.93,264.23v19.5c4.19,2.52,8.63,3.42,12.92,6.08,14.11,8.76,11.27,17.7,9.6,32.44-31.37,12.82-69.21,16.75-102.89,12.86-5.69-.66-24.66-3.83-28.09-7.91-3.16-3.75-1.77-22.45.63-27.29,3.1-6.23,15.87-13.65,22.83-14.67v-24c11.17,1.81,22.33,4.79,33.63,5.87,17.55,1.67,34.03-.14,51.37-2.87ZM74.93,292.23c-1.01-1.06-25.06,10.2-7.99,18.5,21,10.22,85.13,12.46,103.93-2.06,8.31-6.42-.39-16.81-8.93-16.43,1.9,6.22.71,9.24-3.98,13.52-12.51,11.41-47.34,9.53-63.06,6.01-9.91-2.22-20.8-7.79-19.97-19.54Z"/>
      <path d="M159.93,256.23l.72,4.56c-.39,2.39-21.61,5.26-25.17,5.48-13.44.85-43.69-1.41-56.22-5.87-2.3-.82-4.64-1.08-2.82-4.18,27.75,2.49,55.93,5.68,83.49,0Z"/>
      <path class="cls-1" d="M120.84,151.13l1.33-12.67c7.82-4.32,35.99,2.84,32.61,14.06-1.59,5.27-21.17,3.91-26.33,3.69-9.03-.38-20.93-1.61-29.85-3.15-3.1-.54-16.76-3.07-17.58-5.47-1.46-4.28,5.97-8.33,9.37-9.43,4.59-1.48,20.05-4.14,23.54-1.43,5.3,4.11-2.46,15.82,6.92,14.39Z"/>
      <path class="cls-1" d="M124.71,132c-24.79,6.03-12.14-30.54-5.27-41.77,1.68,13.84,11.15,27.89,5.27,41.77Z"/>
      <path class="cls-1" d="M74.93,292.23c-.83,11.75,10.06,17.32,19.97,19.54,15.71,3.52,50.54,5.4,63.06-6.01,4.69-4.28,5.88-7.3,3.98-13.52,8.54-.38,17.24,10.01,8.93,16.43-18.8,14.52-82.93,12.28-103.93,2.06-17.06-8.3,6.98-19.57,7.99-18.5Z"/>
    </g>
  </g>
</svg>