<?xml version="1.0" encoding="UTF-8"?>
<svg id="_레이어_2" data-name="레이어 2" xmlns="http://www.w3.org/2000/svg" viewBox="0 0 234.19 243.66">
  <defs>
    <style>
      .cls-1 {
        fill: #f5bf07;
      }

      .cls-2 {
        fill: #f5bf05;
      }

      .cls-3 {
        fill: #f3bb0b;
      }

      .cls-4 {
        fill: #12181c;
      }

      .cls-5 {
        fill: #e1b638;
      }
    </style>
  </defs>
  <g id="_레이어_1-2" data-name="레이어 1">
    <g>
      <path class="cls-4" d="M186.05,33.54c-.61,1.29-7.07,9.41-8.49,11.01-12.35,13.99-29.95,21.77-44.51,32.98,33.86-2.02,67.54-5.62,101-10.99.35,11.61-.04,23.37,0,35l-105,4c3.53,45.48,2.07,91.5,1,137-10.15.19-20.66.88-31,1l4-136L1.05,113.54c.26-13.02.66-26,1-39,29.64-2.87,59.19,4.73,88.99,2.99l-23.91-12.58c-21.13-17.04-3.46-39.76,18.9-23.41-1.25-4.48-3.49-8.19-3.99-13-1.15-11.07.82-22.67,14.52-22.06,12.33.55,19.91,12.38,22.48,23.06,1.53,6.33,2.01,12.55,2.5,19.01l6.5-19.01c9.3-17.75,36.77-42.04,55.5-22,5.67,6.06,5.87,18.91,2.5,26ZM140.05,31.54c-6.92,10.72-13.85,25.15-13.49,38.01,15.26-10.84,36.87-21.35,47.49-37.01,3.42-5.05,9.03-13.56,1.73-18.23-14.05-8.99-28.81,6.51-35.73,17.23ZM89.05,29.54c1,8.93,16.39,23.67,23.02,30.48.96.98,1.3,1.88,2.98,1.52v-19.5c0-3.78-2.73-9.23-4-12.5-.34-.87-.03-2.28-.78-3.68-6.72-12.68-23.56-17.14-21.22,3.68ZM104.04,71.53c.72-.65-5.65-8.07-6.48-9.01-5.83-6.57-19.41-19.58-28.82-16.78-3.11.92-3.37,5.16-2.17,7.78,3.56,7.77,28.87,17.07,37.47,18.01Z"/>
      <path class="cls-2" d="M234.05,101.54c.12,34.7-.02,69.96-3.01,104.49-.96,11.07-2.52,22.3-4.23,33.26-1.99,2.3-24.48,1.06-29.3,1.21-22.49.68-44.85,1.61-67.46,2.04,1.07-45.51,2.53-91.53-1-137l105-4Z"/>
      <path class="cls-2" d="M1.05,113.54l102-6-4,136c-32.64.37-65.36-.28-98.01,0l-1.04-100.55c1.73-9.72.85-19.62,1.05-29.45Z"/>
      <path class="cls-1" d="M82.05,28.54c.5,4.81,2.74,8.52,3.99,13-22.36-16.34-40.03,6.38-18.9,23.41l23.91,12.58c-29.81,1.74-59.35-5.86-88.99-2.99.29-11.04.35-21.44,1.04-32.46.19-2.99-.94-13.82.9-15.1l78.06,1.56Z"/>
      <path class="cls-1" d="M234.05,66.54c-33.46,5.37-67.14,8.97-101,10.99,14.56-11.2,32.16-18.99,44.51-32.98,1.41-1.6,7.88-9.73,8.49-11.01l45.07,1.43c1.83,1.32,2.8,27.11,2.93,31.57Z"/>
      <path class="cls-5" d="M128.05,29.54l-6.5,19.01c-.49-6.46-.97-12.68-2.5-19.01h9Z"/>
      <path class="cls-3" d="M174.05,32.54c-10.62,15.66-32.23,26.17-47.49,37.01-.36-12.86,6.57-27.29,13.49-38.01l34,1Z"/>
      <path class="cls-3" d="M111.05,29.54c1.27,3.27,4,8.72,4,12.5v19.5c-1.68.36-2.02-.53-2.98-1.52-6.63-6.81-22.02-21.56-23.02-30.48h22Z"/>
      <path class="cls-3" d="M104.04,71.53c-8.6-.95-33.91-10.24-37.47-18.01-1.2-2.61-.93-6.85,2.17-7.78,9.41-2.8,22.99,10.21,28.82,16.78.83.94,7.2,8.36,6.48,9.01Z"/>
    </g>
  </g>
</svg>