<?xml version="1.0" encoding="UTF-8"?>
<svg id="_레이어_2" data-name="레이어 2" xmlns="http://www.w3.org/2000/svg" viewBox="0 0 183.34 161.28">
  <defs>
    <style>
      .cls-1 {
        fill: #0d1835;
      }

      .cls-2 {
        fill: #f2ae21;
      }

      .cls-3 {
        fill: #178993;
      }

      .cls-4 {
        fill: #e6bb51;
      }

      .cls-5 {
        fill: #ebebf0;
      }
    </style>
  </defs>
  <g id="_레이어_1-2" data-name="레이어 1">
    <g>
      <path class="cls-1" d="M2.71,50.35c2.7,1.71,6.66,2.15,9.81,2.69,21.49,3.64,48.78,4.07,70.73,3.36,3.86-.13,7.54-1.55,11.46-1.05l-2,104c-22.99.37-59.75,4.28-81.28-.22-8.04-1.68-10.21-12.23-10.76-19.24-2.15-27.34,1.7-57.43,0-85.07-.39-2.29,1.23-3.13,2.03-4.46ZM15.71,64.85v60c0,.21,1.68,1.81,1.99,1.5.05-1.88.8-3.64,1.01-5.5,1.45-12.77,3.64-35.71,2.95-47.97-.07-1.26-1.56-9.25-1.96-9.52-.84-.57-3.65.29-3.99,1.5Z"/>
      <path class="cls-1" d="M103.71,159.35l2.01-103.99c24.69-2.4,50-2.26,73.99-9.01.6,4.75,1.81,10.45,2.04,15.46.97,20.74,2.41,50.88,1,71.08-1.1,15.71-7.31,23.64-23.66,25.34-18.04,1.87-37.17.74-55.38,1.12Z"/>
      <path class="cls-3" d="M120.71,37.35c9.08-1.69,25.83.54,35.46,1.04,7.88.41,15.79-1.03,23.41,2.09.51,1.91-.11,3.95.13,5.87-23.99,6.75-49.3,6.61-73.99,9.01l-2.01,103.99c-3.65.08-7.34-.06-11,0l2-104c-3.91-.5-7.6.93-11.46,1.05-21.95.71-49.25.28-70.73-3.36-3.16-.54-7.11-.97-9.81-2.69.23-.39.03-1.43.53-1.97,4.3-4.58,39.15-8.53,46.98-9.02,5.08-.32,15.12-1.2,19.49-1.01,1.76.08,6.16,2.5,8,3,.31.08.69-.08,1,0,6.32,5.49,14.36,5.52,22,3,.33-.02.67.03,1,0l2-1c.33-.05.68.06,1,0,7.03-1.35,11.79-5.21,16-6Z"/>
      <path class="cls-2" d="M112.71,33.35c-1.52,1.44-3.69,2.64-4.99,4.51v1.48s1.99,0,1.99,0c-.1.07.26,1.34-.22,1.73-1.07.88-3.89.31-4.78,2.27-.32.06-.67-.05-1,0-1.68.25-1.89.99-2,1-.33.03-.67-.02-1,0-9.62.57-13.29-.82-22-3-.31-.08-.69.08-1,0-2.67-3.16-6.6-4.47-10-7-.21-.16-.79.16-1,0-1.1-2.96-5.26-8.15-8-9-.14-.25.15-.76,0-1l-1-1c-.14-.25.14-.73,0-1l-1-1c-.22-.52-.66-1.23-1-2v-6c2.3-.67,4.2.66,6,1,.33.06.69-.08,1,0,2.13,2.51,5.3,3.4,8,5,6.24,3.7,9.75,6.98,14.99,12,.18-9.51-2.33-18.5.02-28,4.72-1.89,9.99,6.25,9.99,9.5v16.5l6.19-13.31c3.76-7.7,20.38-21.53,28.35-13.74,9.34,9.14-11.45,25.27-17.54,31.04ZM106.71,31.35c2.11,2.06,12.88-11.27,14.02-13.47,1.43-2.74,3.76-8.15-.04-10.08-7.12-3.6-13.65,18.85-13.98,23.54Z"/>
      <path class="cls-4" d="M121.71,31.35c7.79-5.99,16.56-11.12,18.01-22,2.01-.27,1.63-.17,2.24,1.24,4.74,10.93-13.84,21.78-21.25,26.76-4.21.79-8.97,4.65-16,6,.89-1.95,3.7-1.39,4.78-2.27.49-.4.12-1.67.22-1.73,3.38-2.19,6.37-3.34,10-6,.37-.27.64-.73,1-1l1-1Z"/>
      <path class="cls-4" d="M61.71,14.35c-1.8-.34-3.7-1.67-6-1v6c-1.08-2.45-3.46-4.78-.57-7.09,2.31-1.85,5.28-.3,6.57,2.09Z"/>
      <path class="cls-4" d="M77.71,41.35c-1.84-.5-6.24-2.92-8-3l-2-4c3.4,2.53,7.33,3.84,10,7Z"/>
      <path class="cls-4" d="M62.71,14.35c3.91.98,5.47,1.62,8,5-2.7-1.6-5.87-2.49-8-5Z"/>
      <path class="cls-4" d="M58.71,25.35c2.74.85,6.9,6.04,8,9-1.94-1.46-7.01-7.25-8-9Z"/>
      <path class="cls-5" d="M120.71,32.35c.34-.25.62-.71,1-1l-1,1Z"/>
      <path class="cls-4" d="M58.71,24.35c-.12-.2-.69-.46-1-1l1,1Z"/>
      <path class="cls-4" d="M57.71,22.35c-.16-.31-.83-.6-1-1l1,1Z"/>
      <path class="cls-5" d="M15.71,64.85c.34-1.21,3.14-2.06,3.99-1.5.4.27,1.89,8.26,1.96,9.52.69,12.26-1.5,35.21-2.95,47.97-.21,1.87-.96,3.62-1.01,5.5-.31.32-1.99-1.29-1.99-1.5v-60Z"/>
      <path class="cls-4" d="M100.71,44.35c-7.64,2.52-15.68,2.49-22-3,8.71,2.18,12.38,3.57,22,3Z"/>
      <path class="cls-4" d="M103.71,43.35l-2,1c.11,0,.32-.75,2-1Z"/>
    </g>
  </g>
</svg>