<?xml version="1.0" encoding="UTF-8"?>
<svg id="_레이어_2" data-name="레이어 2" xmlns="http://www.w3.org/2000/svg" viewBox="0 0 191.42 286.32">
  <defs>
    <style>
      .cls-1 {
        fill: #f9ba02;
      }

      .cls-2 {
        fill: #242211;
      }

      .cls-3 {
        fill: #f0b714;
      }

      .cls-4 {
        fill: #171921;
      }

      .cls-5 {
        fill: #f33b31;
      }

      .cls-6 {
        fill: #f5bf05;
      }

      .cls-7 {
        fill: #f3bb0b;
      }

      .cls-8 {
        fill: #f33a30;
      }

      .cls-9 {
        fill: #e1b638;
      }
    </style>
  </defs>
  <g id="_레이어_1-2" data-name="레이어 1">
    <g>
      <path class="cls-8" d="M78.23,82.73l.5.98.5-.98c1,0,2,0,3,0,.96,13.6-1.97,27.05-2.99,40.51-2.74,36.18-5.46,72.39-8.01,108.49-.07.99.07,2.01,0,3-.05.66.05,1.34,0,2-1.58.66-1.58,4.34,0,5-.05.66.05,1.34,0,2-.49,7.03-1.58,14.62-2,22-.02.33.04.68,0,1-.03.21-1.04.7-.93,1.4l.93.6c.07,1.74-.76,3.35-1,5-.14.95.15,2.06,0,3-.41,2.65-1.12,5.26-1.02,7.98l-4.98,1.02c-16.19.26-35.64,1.15-51.54.04-2.16-.15-4.25-.63-6.32-1.18-2.71-13.65-2.55-27.49-3.15-41.35C-.3,208.24-.12,173.27.28,138.28c.21-18.86-.84-37.8.95-56.55,19.48.43,39.06-.54,58.55-.04,6,.15,11.99,1.05,18.46,1.04Z"/>
      <polygon class="cls-9" points="131.23 283.73 129.23 283.73 129.23 282.73 131.23 283.73"/>
      <path class="cls-3" d="M78.23,82.73c.33,0,.67,0,1,0l-.5.98-.5-.98Z"/>
      <path class="cls-9" d="M127.23,283.73c-.33.01-.67-.01-1,0l.5-.98.5.98Z"/>
      <path class="cls-9" d="M71.23,241.73c-1.58-.66-1.58-4.34,0-5-.12,1.65.12,3.35,0,5Z"/>
      <g>
        <path class="cls-5" d="M125.23,85.73c13.6.18,28.82,1.45,42.37,3.13,2.96.37,23.34,3.22,23.69,4.49.43,62.19.55,124.67-12.25,185.7-1.04,2.08-4.12,2.46-6.31,2.69-13.82,1.47-27.81.11-41.5,2l-2-1c-.21-6.3.29-12.7,0-19-.23-4.98-.79-9.95-1-15-.08-1.99-.89-4.36-1-7-.03-.66.03-1.34,0-2s.03-1.34,0-2c-.55-12.62-.37-25.36-1-38-.24-4.75-.99-8.93-1-14,0-1.45,1.74-4.75-1-7-.12-2.11-1-5.37-1-6-.08-10.43,1.01-22.07,1-33,0-6.74.85-14.62-1-21,.08-1.99-.03-4,0-6,.02-1.33-.04-2.67,0-4,.19-7.34-.04-6.54-1-13-.45-3.03.31-6.84,0-10,1-.03,2-.01,3,0Z"/>
        <path class="cls-4" d="M84.23,80.73c-21.6-4.05-45.7-14.79-54.48-37.02-6.32-16.01-.94-38.64,19.39-26.39,19.18,11.55,25.95,39.5,42.08,54.41-3.54-20.09-13.33-40.29-4.18-60.69,7.72-17.22,26.53-13.12,28.24,4.14,1.12,11.27-6.39,35.1-11.08,45.83-.27.61-3.73,1.15-1.96,2.72s11.09-11.46,12.48-13.01c9.42-10.55,23.93-26.57,36.84-32.16,29.61-12.81,36.22,19.4,21.08,39.08-12.48,16.24-33,22.11-52.41,25.09-5.74-1.08-8.81,2.14-14,2-1.78-.39-4.08-.28-5.99-1,1.06,47.5-.31,95.24,5,142.49,2.16,19.21,6.75,38.16,7.99,57.51-3.32.07-6.68-.1-10,0-1.72-24.74-8.89-48.84-10.99-73.51-1.51-17.72-1.7-37.6-2.01-55.49-.23-13.28-.2-26.72,0-40,.05-3.32-.09-6.68,0-10,0-.13,1-1.13,1.04-2.42.2-6.51-.22-13.08-.05-19.58-1.24.67-1.8.4-2.99,0-2.2-.73-1.72-1.57-4-2ZM106.89,8.08c-5.71-5.64-12.1-1.06-14.85,4.96-4.49,9.82-3.3,25.92-.94,36.33,1.32,5.84,4.72,11.21,4.14,17.36,2.56.41,1.56-.21,2.09-1.4,4.77-10.72,14.63-40.02,12.67-50.86-.32-1.77-1.86-5.14-3.12-6.39ZM85.23,74.72c-13.02-12.74-19.46-32.92-31.97-45.52-9.39-9.46-22.57-12.26-19.58,5.59,3.37,20.13,32.57,37.58,51.55,39.93ZM103.24,75.73c24.59,2.23,72.46-10.33,71.04-41.54-.31-6.76-2.81-12-10.37-12.08-15.1-.16-30.13,20.96-40.7,30.09l-19.97,23.52Z"/>
        <path class="cls-7" d="M106.23,84.73c2.12.47,5.23,1.08,6,3-.5,2.51-.21,9.6.12,12.39,1.37,11.52,4.81-.88,4.96-5.89.08-2.63-.84-4.95-1.08-7.49,1.79-.18,3.37-.93,6-1,.31,3.16-.45,6.97,0,10-3.3,2.76-3.15,9.86-3,14,.04,1-.05,2.01,0,3h4.01c-.03,1.99.08,4.01,0,6-.19,4.85.94,14.38-.21,18.29-.43,1.46-2.54,2.64-3.3,4.7-1.32,3.53-2.46,8.2-2.5,12.01-2.11-.7.12-8.09-3.99-5-.38.28-.75.59-1,1-2.83-.59-1.88,1.39-2.3,3.15-1.76,7.52-2.47,16.61-1.69,24.33.24,2.42.76,8.54,4.4,7.44s3.36-19.86,3.59-23.92l2.99,9.99c.46,2.96,1.43,3.81,4,2,0,.63.88,3.89,1,6,.12,2.21-.81,5.6,1,7,.01,5.07.76,9.25,1,14-2.44,5.09-.21,12.13-.93,17.52-.24,1.82-1.99,2.06-2.07,2.48-.62-.11-1.5.16-2,0-.17-.06-.17-1.25-.99-1-2.22,7.54-1.11,14.32-1.01,22l-4.87.13c-1.34.82-2.49,16.11.86,17.86h2c.18-.93-.2-2.2,0-3,4.47-.29.75-11.28,2.01-13,1.2.17,1.86,1.72,2.99,2,.55.13,1.35-.07,2,0,2.13-.94.39-6.17,1-7.01h2c.03.67-.03,1.34,0,2.01l-.68,1.2.68.8c.11,2.64.92,5.01,1,7-1.74,3.01-1.14,8.1-1,11.54.08,1.92-1.03,4.01,2,3.46.29,6.3-.21,12.7,0,19v1c-.67.02-1.33-.02-2,0l-.5-.98-.5.98c-1,.04-2-.04-3,0v-2c2.5-3.08.64-7.69,0-11-.52-2.69-1.5-5.3-2.01-8-3.89-2.9-3.11,12.09-3.03,13.53.15,2.54,1.15,4.9,1.04,7.46h-6c-1.24-19.35-5.83-38.3-7.99-57.51-5.32-47.24-3.95-94.98-5-142.49,1.91.71,4.21.6,5.99,1ZM109.23,102.73c-7.64-.21-5,25.03-3.49,25.01,2.24.5,3.49-6.43,3.49-7.51v-17.5ZM115.23,215.73c1.46-1.06,2.93-20.97,1.53-23.02-3.16-4.63-5.14,3.47-5.41,5.64-.21,1.68-.73,20.72,3.87,17.38Z"/>
        <path class="cls-3" d="M84.23,82.73c0,8.42.77,16.66,2.01,25,2.34.3,2.73-1.16,2.99-3h1c-.09,3.32.05,6.68,0,10l-1.01,5c-.23.41-1.58-.98-1.99-1-5.65-.28-2.63,14.96-2.99,18.99,1.79.91,2.87-2.21,2.99-2.99,3.03-.56,1.92,1.53,2,3.45.21,5.31-1,11.69,1,16.55.31,17.89.5,37.77,2.01,55.49,2.1,24.67,9.27,48.77,10.99,73.51-1.99.06-5.02.92-8,1,1.25-3.1,1.96-18.9-2.49-19.01l-2.51,19.01c-2.66.07-5.34-.06-8,0,.32-3.29.34-13.91-4.49-14.01l-.51,14.01c-4.54.1-9.86.92-15,1l4.98-1.02c-.1-2.72.61-5.33,1.02-7.98l6.99,4,1.98-10.55c3.6-1.59,3.89,3.48,7.03,3.55-.53.8.38,7.23,0,9l4.85-1.15.15-13.85c1.18-1.36,1.06-4.47,4.86-3.91,3.17,5.49,3.38,11.75,3.14,17.91h3.99c-.9-21.37-7.99-41.98-9.13-63.39-.77-2.78-3.79,1.41-4.86-3.62.66.09,1.8,1.36,2.99,1,1.34-6.47,1.15-13.22-.94-19.56-1.8-5.46-5.2-6.39-5.09,0,.07,4.45,2.02,13.82,3.03,18.55-.96-.13-2.02.08-3,0,.02,6.54.26,12.99-4.1,17.95-.51.45-.81-.92-.91-.95,3.78-6.45,3.66-16.15,3.04-23.54-.23-2.73-.48-9.3-4.52-8.47-3.05.62-1.33,27.9.49,32.01-2.54-.49-4.32-1.38-7,0,2.55-36.1,5.27-72.31,8.01-108.49,1.02-13.46,3.95-26.91,2.99-40.51h2ZM80.25,158.74c-1,.71-2.3,16.12.49,17.98,1.25-.02,7.3-18.55-.49-17.98Z"/>
        <path class="cls-2" d="M84.23,80.73c2.28.43,1.8,1.27,4,2,.67,6.66,1.97,15.41,1,22-.27,1.84-.66,3.3-2.99,3-1.23-8.33-2-16.58-2.01-25,0-.67,0-1.33,0-2Z"/>
        <path class="cls-2" d="M119.23,283.73c.1-2.56-.9-4.92-1.04-7.46-.08-1.44-.86-16.44,3.03-13.53.51,2.69,1.49,5.3,2.01,8v13c-1.33.05-2.67-.03-4,0Z"/>
        <path class="cls-2" d="M95.23,284.73c-1.66.04-3.34-.04-5,0l2.51-19.01c4.45.11,3.74,15.91,2.49,19.01Z"/>
        <path class="cls-2" d="M82.23,284.73c-1.67.04-3.34-.04-5,0l.51-14.01c4.83.1,4.81,10.72,4.49,14.01Z"/>
        <path class="cls-9" d="M120.23,82.73c.83.16,4.18,2.12,5,3-1-.01-2-.03-3,0-2.63.07-4.21.82-6,1-.63.06-3.3-2.55-4,1-.77-1.92-3.88-2.53-6-3,5.19.14,8.26-3.08,14-2Z"/>
        <path class="cls-1" d="M87.23,214.73c1.07,5.03,4.1.84,4.86,3.62,1.14,21.4,8.23,42.02,9.13,63.38h-3.99c.24-6.16.03-12.42-3.14-17.91-3.8-.56-3.69,2.55-4.86,3.91-.16.18-1.98-.02-2.53.93-.83,1.41-.13,3.1-.48,4.38-.3,1.14-1.93.6-1.99.69-3.14-.07-3.43-5.14-7.03-3.55l-1.98,10.55-6.99-4c.15-.94-.14-2.05,0-3h2s0-6.5,0-6.5l-.99-.5c.04-.32-.02-.67,0-1h1c.82,0,1.44-.78,2-1s2.05.42,2.79-.16c.25-.19,2.04-5.11,2.21-5.84,1.91-.58,1.19-7.2,3.49-5.99,2.72,1.43,1.22,10.89,5.51,7.99,3.73-2.51,2-12.66.96-16.97l-7.95,2.97c0-2-.88-6.05-3.36-5.92-.39.02-.5.88-.65.92-.32.09-.73-.11-1,0-3.28-.9-.89-5.1-3-7,.07-.99-.07-2.01,0-3,2.68-1.38,4.46-.49,7,0,.32.06.69-.08,1,0,.1.02.39,1.4.91.95,4.36-4.97,4.12-11.41,4.1-17.95.97.09,2.04-.13,3,0Z"/>
        <path class="cls-9" d="M72.23,263.73h-2s0,2,0,2h-1c.42-7.38,1.51-14.97,2-22,.66-.35,1.36-.63,2-1l-1,21Z"/>
        <path class="cls-3" d="M74.23,241.73c-.3.12-.62.78-1,1-.64.37-1.34.65-2,1,.05-.66-.05-1.34,0-2,.12-1.65-.12-3.35,0-5,.05-.66-.05-1.34,0-2,2.11,1.9-.28,6.1,3,7Z"/>
        <path class="cls-3" d="M69.23,266.73l.99.5v6.5s-1.99,0-1.99,0c.24-1.65,1.07-3.26,1-5v-2Z"/>
        <path class="cls-9" d="M69.23,268.73l-.93-.6c-.11-.69.9-1.18.93-1.4v2Z"/>
        <path class="cls-2" d="M124.23,139.73c.01,10.93-1.08,22.57-1,33-2.57,1.81-3.54.96-4-2-.86-5.54-1.42-12.8-.88-18.38.26-2.74,1.47-14.06,5.88-12.62Z"/>
        <path class="cls-9" d="M127.23,237.73h-2c-.61.83,1.13,6.06-1,7-.04-6.5.04-13.03.05-19.55,0-1.79-1.21-4.62-1.05-5.45.08-.42,1.83-.66,2.07-2.48.71-5.39-1.52-12.43.93-17.52.63,12.64.45,25.38,1,38Z"/>
        <path class="cls-2" d="M123.23,108.73c-1.45,3.29-1.83,4.82-4,1-.15-4.14-.3-11.24,3-14,.96,6.46,1.19,5.66,1,13Z"/>
        <path class="cls-9" d="M124.23,139.73c-4.41-1.44-5.62,9.88-5.88,12.62-.54,5.58.02,12.83.88,18.38l-2.99-9.99c-.23,4.06.07,22.81-3.59,23.92s-4.16-5.01-4.4-7.44c-.78-7.72-.07-16.82,1.69-24.33.41-1.76-.53-3.74,2.3-3.15-4.75,7.88-2.66,24.97-2,34.01h2.97c.66-11.12,4.62-24.66.02-35.01,4.11-3.1,1.88,4.29,3.99,5,.04-3.8,1.18-8.48,2.5-12.01.77-2.06,2.87-3.24,3.3-4.7,1.14-3.91.02-13.44.21-18.29,1.85,6.38.99,14.26,1,21Z"/>
        <path class="cls-9" d="M129.23,263.73c-3.03.56-1.92-1.53-2-3.46-.14-3.44-.74-8.54,1-11.54.21,5.05.77,10.02,1,15Z"/>
        <path class="cls-9" d="M125.23,185.73c-1.81-1.4-.88-4.79-1-7,2.74,2.25,1,5.55,1,7Z"/>
        <path class="cls-9" d="M123.23,112.73h-4.01c-.05-.99.04-2,0-3,2.17,3.82,2.55,2.29,4-1-.04,1.33.02,2.67,0,4Z"/>
        <path class="cls-9" d="M127.23,241.73l-.68-.8.68-1.2c.03.66-.03,1.34,0,2Z"/>
        <path class="cls-9" d="M90.23,154.73c-2-4.86-.79-11.24-1-16.55-.08-1.93,1.03-4.01-2-3.45.75-4.73-.54-11.05,0-16,.41.02,1.76,1.41,1.99,1l1.01-5c-.2,13.28-.23,26.72,0,40Z"/>
        <path class="cls-9" d="M88.23,82.73c1.19.39,1.75.67,2.99,0-.17,6.5.25,13.07.05,19.58-.04,1.29-1.04,2.29-1.04,2.42h-1c.97-6.59-.33-15.34-1-22Z"/>
        <path class="cls-2" d="M113.23,148.73c4.6,10.34.64,23.89-.02,35h-2.97c-.66-9.03-2.75-26.12,2-34,.25-.41.62-.72,1-1Z"/>
        <path class="cls-2" d="M115.23,215.73c-4.61,3.34-4.08-15.69-3.87-17.38.27-2.17,2.24-10.27,5.41-5.64,1.4,2.05-.07,21.96-1.53,23.02Z"/>
        <path class="cls-2" d="M109.23,102.73v17.5c0,1.08-1.25,8.01-3.49,7.51-1.51.02-4.15-25.22,3.49-25.01Z"/>
        <path class="cls-2" d="M123.23,219.73c-.16.83,1.05,3.66,1.05,5.45,0,6.52-.09,13.04-.05,19.55-.65-.07-1.45.13-2,0-2.25-8.07-3.06-16.77-1-25,.5.16,1.38-.11,2,0Z"/>
        <path class="cls-2" d="M116.23,86.73c.24,2.54,1.16,4.87,1.08,7.49-.15,5.02-3.59,17.42-4.96,5.89-.33-2.79-.61-9.88-.12-12.39.7-3.55,3.37-.94,4-1Z"/>
        <path class="cls-2" d="M115.23,258.73l-.52-16.02,3.52-.97c.19,5.08.24,9.1-.99,14-.2.8.18,2.07,0,3h-2Z"/>
        <path class="cls-9" d="M121.23,219.73c-2.06,8.23-1.25,16.93,1,25-1.13-.28-1.79-1.83-2.99-2-1.26,1.72,2.46,12.71-2.01,13,1.24-4.89,1.18-8.91.99-14l-3.52.97.52,16.02c-3.36-1.75-2.2-17.05-.86-17.86l4.87-.13c-.1-7.68-1.21-14.46,1.01-22,.82-.25.82.94.99,1Z"/>
        <path class="cls-9" d="M123.23,281.73v-11c.64,3.31,2.5,7.92,0,11Z"/>
        <path class="cls-2" d="M79.23,231.73c-.31-.08-.68.06-1,0-1.81-4.11-3.54-31.39-.49-32.01,4.05-.83,4.29,5.75,4.52,8.47.63,7.39.74,17.08-3.04,23.54Z"/>
        <path class="cls-2" d="M87.23,214.73c-1.01-4.73-2.96-14.1-3.03-18.55-.11-6.4,3.29-5.47,5.09,0,2.09,6.34,2.28,13.09.94,19.56-1.19.36-2.33-.91-2.99-1Z"/>
        <path class="cls-2" d="M80.25,158.74c7.79-.58,1.74,17.96.49,17.98-2.79-1.85-1.49-17.27-.49-17.98Z"/>
        <path class="cls-2" d="M87.23,118.73c-.54,4.95.75,11.27,0,16-.13.79-1.2,3.91-2.99,2.99.36-4.03-2.65-19.27,2.99-18.99Z"/>
        <path class="cls-6" d="M89.23,267.73l-.15,13.85-4.85,1.15c.38-1.76-.54-8.19,0-9,.06-.09,1.69.45,1.99-.69.34-1.28-.35-2.96.48-4.38.56-.95,2.37-.75,2.53-.93Z"/>
        <path class="cls-2" d="M75.23,241.73c2.73-.59,1.97,1.35,2.31,3.13.82,4.3.71,9.6-.31,13.87-.17.73-1.97,5.65-2.21,5.84-.74.58-2.24-.06-2.79.16v-1l1-21c.38-.22.7-.88,1-1,.27-.11.68.09,1,0Z"/>
        <path class="cls-3" d="M75.23,241.73c.15-.04.26-.9.65-.92,2.48-.13,3.35,3.92,3.36,5.92l7.95-2.97c1.04,4.31,2.76,14.46-.96,16.97,1.31-1.43,1.96-19.78-1.99-16-.71,5-3.14,12.6,1.99,16-4.3,2.9-2.8-6.56-5.51-7.99-2.29-1.21-1.57,5.41-3.49,5.99,1.03-4.27,1.13-9.57.31-13.87-.34-1.78.42-3.72-2.31-3.13Z"/>
        <path class="cls-3" d="M72.23,263.73v1c-.56.22-1.18,1-2,1v-2s2,0,2,0Z"/>
        <path class="cls-2" d="M86.23,260.73c-5.13-3.4-2.7-11-1.99-16,3.95-3.79,3.31,14.57,1.99,16Z"/>
      </g>
    </g>
  </g>
</svg>