<?xml version="1.0" encoding="UTF-8"?>
<svg id="_레이어_2" data-name="레이어 2" xmlns="http://www.w3.org/2000/svg" viewBox="0 0 229.12 250.82">
  <defs>
    <style>
      .cls-1 {
        fill: #1a161f;
      }

      .cls-2 {
        fill: #f8f9f9;
      }

      .cls-3 {
        fill: #f13b33;
      }

      .cls-4 {
        fill: #171921;
      }

      .cls-5 {
        fill: #faf2f0;
      }

      .cls-6 {
        fill: #f13b32;
      }
    </style>
  </defs>
  <g id="_레이어_1-2" data-name="레이어 1">
    <g>
      <path class="cls-3" d="M226.86,141.71c-7.57-.3-16.7-3.63-17.04,7.54s8.42,8.91,16.04,6.46c-.67,21.53-.86,43.01-2.04,64.46-.18,3.25.94,15.86-.89,17.11-35.56,3.78-71.39,4.36-107.07,6.43-1.92-18.25-1.23-37.11-1.96-55.54-1.01-25.49-3.45-51.42-4.08-76.92-.21-8.46-1.01-22.19-.01-30.09.68-5.39,5.88-2.73,9.02-5.98,1.47-1.52,1.49-3.6,2.03-5.47l107.06-.56c2.7,1.88-.01,15.52-.1,19.02-.47,17.83-.46,35.72-.96,53.54ZM167.59,80.89c-8.05,1.66-9.2,20.31,2.68,18.8,11.39-1.45,7.24-20.85-2.68-18.8ZM127.66,93.91c-12.17,1.01-12.96,20.7-5.09,22.58,17.39,4.15,19.18-23.74,5.09-22.58ZM203.57,94.92c-2.31.68-4.7,4.91-4.46,7.16,1.86,5.36,7.23,8.09,12.77,6.15,6.54-6.55.51-15.91-8.31-13.3ZM140.86,138.71c-2.79,1.21-5.11.85-5.8,5.72s1.43,4.63,3.8,6.28c2.99,2.09,3.94,3.45,7.8,2.36,6.61-1.86,7.97-11.11,2.12-14.78-3.79-2.37-4.64-1-7.92.42ZM178.1,149.47c6.05,6.14,15.17-7.64,7.77-11.26-7.09-3.47-12.73,6.23-7.77,11.26ZM202.6,175.86c-6.32,1.11-8.18,10.64-.16,11.8,13.73,2,10.58-13.64.16-11.8ZM129.58,176.92c-7.54,1.69-9.91,15.4-.78,18.34,16.22,5.22,16.57-21.88.78-18.34ZM167.56,178.87c-5,1.52-5.31,12.91-4.56,17.2.96,2.92,6.92,1.71,9.23.51,8.1-4.2,3.25-20.11-4.67-17.71ZM182.57,210.93c-7.74,1.78-7.98,15.97,2.05,17.62,12.18,1.99,14.95-21.52-2.05-17.62ZM135.55,220.9c-6.05,1.87-4.53,13.2,4.06,14.64,11.22,1.88,9.04-18.69-4.06-14.64Z"/>
      <path class="cls-6" d="M88.86,94.71c-12.52-2.23-28.48,10.53-13,20-.42.64-.59,2.51-1.54,3.92-3.84,5.73-18.6,23.43-19.99,28.03-1.84,6.09-.02,9.4,6.54,9.05-.13,1.65,1.65,4.58,2.92,5.58,8.81,6.97,25.23-13.48,10.08-19.58,4.73-6.38,9.91-15.91,14.42-23.08,4.95-7.88,8.98-16.63,14.57-23.92l3.01,150c-31.84,1.78-63.72,3.94-95.49,5.01-2.76.09-5.71,2.03-8.58.55L0,70.85l95.86-2.14c10.75,3.41-3.65,20.28-7,26ZM52.58,75.86c-6.25,1.69-6.15,14.07,1.72,12.89,8.25-1.24,6.48-15.1-1.72-12.89ZM25.55,116.39c5.36-4.9,2.18-21.5-8.43-16.92-5.45,2.35-7.59,14.98-2.26,18.74,2.83,1.36,8.39.29,10.69-1.82ZM24.1,162.47c3.49,3.48,11.02.3,12.99-4.03,2.57-5.63,1.66-22.28-7.21-18.22-5.04,2.31-9.52,18.52-5.78,22.25ZM86.6,184.89c-6.71,1.39-6.72,12.84.97,14.61,14.47,3.33,10.33-16.96-.97-14.61ZM55.59,185.9c-11.41,1.54-13.64,24.17,3.67,16.71,9.64-4.15,5.27-17.91-3.67-16.71ZM18.14,188.01c-3.46,2.9-5.06,17.22-1.71,19.62,2.92,2.28,9.54.11,10.91-2.94,2.74-6.14-1.26-23.34-9.2-16.68ZM41.58,221.87c-8.07,1.27-11.45,16.16-1.15,16.83s9.77-18.19,1.15-16.83Z"/>
      <path class="cls-4" d="M95.86,68.71c-19.37-6.14-43.99-20.68-47.55-42.95-2.89-18.07,7.8-31.58,26.23-23.23,19.31,8.74,31.26,33.62,35.82,53.19,4.76-21.72,18.55-42.54,39.51-51.5,21.28-9.09,47.26-1.49,35.76,25.76-6.28,14.87-24.29,23.88-38.53,29.47-3.87,1.52-25.13,7.47-26.11,8.42-.48.46,0,1.39-.13,1.83-.54,1.87-.57,3.95-2.03,5.47-3.14,3.25-8.34.59-9.02,5.98-1,7.9-.2,21.63.01,30.09.63,25.5,3.08,51.42,4.08,76.92.73,18.43.04,37.29,1.96,55.54-3.51.2-6.66.81-10,1l-3.01-150c-5.6,7.29-9.63,16.04-14.57,23.92-4.51,7.18-9.68,16.71-14.42,23.08-.09.12-1.81.17-2.49.97-2.25,2.66-10.26,9.95-10.51,13.03-6.56.35-8.38-2.96-6.54-9.05,1.39-4.6,16.15-22.3,19.99-28.03.95-1.42,1.12-3.29,1.54-3.92,4.53-6.81,8.71-12.68,13-20,3.35-5.72,17.75-22.59,7-26ZM102.86,61.71c-1.78-17.01-12.89-39.62-27.66-48.83-12.96-8.08-20.81.9-17.05,14.06,4.81,16.84,28.09,31.67,44.71,34.77ZM164.68,9.95c-22.51.84-45.45,30.91-49.33,51.74,18.99-8.49,54.23-15.44,63.01-36.98,4.38-10.75-3.71-15.13-13.67-14.76Z"/>
      <path class="cls-1" d="M226.86,141.71c-.13,4.84-.86,9.58-1,14-7.62,2.45-16.39,4.93-16.04-6.46s9.47-7.84,17.04-7.54Z"/>
      <path class="cls-2" d="M127.66,93.91c14.09-1.17,12.3,26.72-5.09,22.58-7.87-1.88-7.09-21.56,5.09-22.58Z"/>
      <path class="cls-5" d="M129.58,176.92c15.8-3.54,15.44,23.56-.78,18.34-9.13-2.94-6.77-16.65.78-18.34Z"/>
      <path class="cls-5" d="M182.57,210.93c17-3.9,14.23,19.61,2.05,17.62-10.03-1.64-9.79-15.84-2.05-17.62Z"/>
      <path class="cls-5" d="M167.59,80.89c9.91-2.05,14.07,17.35,2.68,18.8-11.87,1.51-10.72-17.14-2.68-18.8Z"/>
      <path class="cls-1" d="M167.56,178.87c7.92-2.4,12.76,13.51,4.67,17.71-2.31,1.2-8.27,2.42-9.23-.51-.75-4.29-.44-15.68,4.56-17.2Z"/>
      <path class="cls-4" d="M138.86,150.71c-2.56-4.35-.05-8.18,2-12,3.27-1.42,4.12-2.79,7.92-.42,5.85,3.66,4.5,12.92-2.12,14.78-3.86,1.09-4.81-.28-7.8-2.36Z"/>
      <path class="cls-5" d="M135.55,220.9c13.11-4.05,15.29,16.52,4.06,14.64-8.59-1.44-10.11-12.77-4.06-14.64Z"/>
      <path class="cls-5" d="M203.57,94.92c8.81-2.61,14.85,6.76,8.31,13.3-5.54,1.94-10.9-.78-12.77-6.15-.24-2.25,2.15-6.47,4.46-7.16Z"/>
      <path class="cls-5" d="M202.6,175.86c10.42-1.83,13.57,13.8-.16,11.8-8.02-1.17-6.15-10.69.16-11.8Z"/>
      <path class="cls-1" d="M178.1,149.47c-4.96-5.03.68-14.73,7.77-11.26,7.4,3.62-1.71,17.4-7.77,11.26Z"/>
      <path class="cls-5" d="M140.86,138.71c-2.05,3.82-4.56,7.65-2,12-2.37-1.65-4.45-1.63-3.8-6.28s3.01-4.51,5.8-5.72Z"/>
      <path class="cls-1" d="M24.1,162.47c-3.74-3.73.75-19.94,5.78-22.25,8.87-4.06,9.78,12.59,7.21,18.22-1.98,4.33-9.5,7.51-12.99,4.03Z"/>
      <path class="cls-5" d="M73.86,141.71c15.16,6.1-1.27,26.55-10.08,19.58-1.27-1-3.06-3.93-2.92-5.58.25-3.08,8.26-10.37,10.51-13.03.67-.8,2.4-.84,2.49-.97Z"/>
      <path class="cls-5" d="M25.55,116.39c-2.3,2.1-7.86,3.18-10.69,1.82-5.33-3.76-3.19-16.39,2.26-18.74,10.62-4.58,13.79,12.02,8.43,16.92Z"/>
      <path class="cls-1" d="M55.59,185.9c8.95-1.2,13.31,12.55,3.67,16.71-17.32,7.46-15.08-15.17-3.67-16.71Z"/>
      <path class="cls-1" d="M18.14,188.01c7.94-6.65,11.95,10.55,9.2,16.68-1.37,3.05-7.99,5.22-10.91,2.94-3.35-2.41-1.75-16.73,1.71-19.62Z"/>
      <path class="cls-5" d="M88.86,94.71c-4.29,7.32-8.47,13.19-13,20-15.48-9.47.48-22.23,13-20Z"/>
      <path class="cls-5" d="M41.58,221.87c8.62-1.36,9.07,17.5-1.15,16.83s-6.92-15.56,1.15-16.83Z"/>
      <path class="cls-1" d="M86.6,184.89c11.3-2.35,15.45,17.94.97,14.61-7.69-1.77-7.68-13.22-.97-14.61Z"/>
      <path class="cls-5" d="M52.58,75.86c8.2-2.22,9.97,11.65,1.72,12.89-7.87,1.18-7.97-11.2-1.72-12.89Z"/>
    </g>
  </g>
</svg>