<?xml version="1.0" encoding="UTF-8"?>
<svg id="_레이어_2" data-name="레이어 2" xmlns="http://www.w3.org/2000/svg" viewBox="0 0 121.17 134.39">
  <defs>
    <style>
      .cls-1 {
        fill: #131f3f;
      }

      .cls-2 {
        fill: #101e3e;
      }

      .cls-3 {
        fill: #f95a32;
      }
    </style>
  </defs>
  <g id="_레이어_1-2" data-name="레이어 1">
    <g>
      <path class="cls-2" d="M121.01,79.86c-.41,11.11.55,22.38-.02,33.49-.19,3.82-.53,10.46-1.06,13.94-.2,1.34-.76,3.33-1.95,4.05-1.76,1.07-14.47,2.31-17.49,2.51-16.72,1.08-33.38.23-49.95-.03-14.06-.23-28.03.42-42.04-.96-1.53-.11-2.16-.96-2.75-2.25-2.03-4.4-3.26-19.66-3.74-25.26-.75-8.75-1.01-17.71-1.01-26.5l120.01,1Z"/>
      <path class="cls-3" d="M99,50.87c-23.17-.69-49.72.12-73,1V.86C49.32-.76,72.81,0,96.04,2.33c4.61,3.01,2.43,41.41,2.96,48.54Z"/>
      <path class="cls-1" d="M99,50.87c5.49.16,13.68-.34,18.78,1.66,1.28.5,3.22,5.79,3.22,6.84v16c-.88,1.43-1.99,1.38-3.45,1.55-16.01,1.88-41.13.19-58.1,0-16.25-.18-40.9.77-56.01-1-1.46-.17-2.57-.12-3.45-1.55v-17c0-.38,1.11-3.25,1.72-3.51,7.16-1.79,14.57-.61,21.86-.95,1.29-.06,2.29-1.04,2.42-1.04,23.28-.88,49.83-1.69,73-1Z"/>
    </g>
  </g>
</svg>