<?xml version="1.0" encoding="UTF-8"?>
<svg id="_레이어_2" data-name="레이어 2" xmlns="http://www.w3.org/2000/svg" viewBox="0 0 202.56 156.41">
  <defs>
    <style>
      .cls-1 {
        fill: #fa5b32;
      }

      .cls-2 {
        fill: #fcc424;
      }

      .cls-3 {
        fill: #f6f4f1;
      }

      .cls-4 {
        fill: #fb5b30;
      }
    </style>
  </defs>
  <g id="_레이어_1-2" data-name="레이어 1">
    <g>
      <path class="cls-4" d="M117.24,5.27c21.54,1.21,43.9.39,65.21,4.29,10.5,1.92,17.21,3.41,18.68,15.32,2.7,21.84.87,45.97.07,67.85-.29,7.97-1.64,61.17-5.09,63.41-26,.75-51.98-.28-77.87-.87v-1c-.84-4.93.86-9.87,1.04-14.46,1.72-44.79-.93-89.87-2.04-134.54Z"/>
      <path class="cls-1" d="M50.24,2.27l5,151c-10.78-.4-21.73.03-32.49-1.01-3.86-.37-16.17-1.56-18.85-3.15-2.97-1.76-1.43-11.49-1.67-15.33C-.03,97.51-.91,51.01,1.2,14.73c.12-2.03.83-10.81,1.16-11.84C3.03.9,8.66.41,10.71.23c11.54-1.02,27.76,1.6,39.54,2.04Z"/>
      <path class="cls-2" d="M89.24,3.27c3.01.14,7.27.81,11,1,5.68.29,11.44.69,17,1,1.11,44.67,3.76,89.75,2.04,134.54-.18,4.59-1.88,9.53-1.04,14.46l-2,1c-1.33-.03-2.67.03-4,0-1.82-.04-5.85-.91-9-1-5.65-.15-11.36.18-17,0L80.24,3.27c2.98.1,6.02-.14,9,0Z"/>
      <path class="cls-3" d="M80.24,3.27l6,151c-10.37-.33-20.65-.61-31-1L50.24,2.27c.83.03,2.19-.91,3.29-.62l24.29.58,2.42,1.05Z"/>
      <path class="cls-3" d="M89.24,3.27c2.71-2.16,7.54-.54,11.01-1v2c-3.74-.19-8-.86-11.01-1Z"/>
      <path class="cls-3" d="M112.24,155.27c-2.47,1.92-6.03.76-9.01,1v-2c3.16.09,7.18.96,9.01,1Z"/>
      <path class="cls-3" d="M118.24,154.27v1c-.51-.01-1.43.01-2,0l2-1Z"/>
    </g>
  </g>
</svg>