<?xml version="1.0" encoding="UTF-8"?>
<svg id="_레이어_2" data-name="레이어 2" xmlns="http://www.w3.org/2000/svg" viewBox="0 0 238.14 269.41">
  <defs>
    <style>
      .cls-1 {
        fill: #f9ba02;
      }

      .cls-2 {
        fill: #12181d;
      }

      .cls-3 {
        fill: #171921;
      }

      .cls-4 {
        fill: #f8ba05;
      }

      .cls-5 {
        fill: #f7ba06;
      }

      .cls-6 {
        fill: #e1b638;
      }
    </style>
  </defs>
  <g id="_레이어_1-2" data-name="레이어 1">
    <g>
      <path class="cls-2" d="M112.14,74.09c-16.23-10.24-57.03-21.74-59.91-43.58C50.18,14.97,61.74-1.93,78.56.18c23.06,2.9,33.97,44.12,38.59,62.9,1.73.05,1.49-2.81,1.99-3.99,2.26-2.04,5.52-.16,6.55,2.03.93,1.97-1.14,3.03-1.29,4.62-.07.73.74,1.23.73,1.35-.08,1.63-.33.9,0,3,.28,1.75,1.6,3.4,1.7,4.62.22,2.82-2.38,7.64.3,10.38-.41,4.28-.62,8.69-1,13-.43,4.89-1.21,9.08-1,14.55.08,1.93-1.03,4.01,2,3.45l-1.01,18.01,109.01-6.01c-.57,12.24-.77,24.74-1,37l-109-1-2,103c-6.14.08-12.51.92-19,1l5.01-104.01-107.01,4.01c.18-10.93.85-22.41,1-33l106.86-.14,2.14-60.86ZM109.13,63.08c-2.72-13.4-15.42-51.54-30.56-53.93-7.51-1.18-14.46,2.39-17.64,9.24-6.03,13,5.23,21.32,14.89,27.5l33.3,17.19Z"/>
      <path class="cls-4" d="M2.14,168.09l107.01-4.01-5.01,104.01c-26.76.34-55.02,1.96-81.55,1.05-6.9-.24-14.41-1.54-21.52-1.48-1.41-.98-1.05-5.34-.98-7.11,1.18-30.77,1.54-61.64,2.05-92.45Z"/>
      <path class="cls-1" d="M196.14,266.09c-.18,0-1.56-1.05-3.38-1.07-22.51-.32-45.01.44-67.48.93l1.74-99.28c.61-.83,7.87-1.54,9.57-1.63,24.14-1.37,49.95.03,74.01,1.09,3.4.15,20.95-1.1,21.58,1.62.2,3.59-.37,7.34-.08,10.92.1,1.3,1.04,2.29,1.04,2.42.04.66-.03,1.34,0,2-3.03-.56-1.92,1.53-2,3.45-.57,14.45-.35,28.45,0,42.55.07,2.66-.08,5.34,0,8-3.03-.56-1.92,1.53-2,3.46-.18,4.43.88,8.36,1,11.54.06,1.66-.05,3.34,0,5l-2.94,6.56c-4.13.92-8.42.3-12.61.44-1.92.06-4.01-1.02-3.46,2-4.98-.02-10.02.09-15,0Z"/>
      <path class="cls-5" d="M112.14,74.09l-2.14,60.86-106.86.14c.24-17.45-2.03-41.08-.05-57.55.13-1.07-.04-2.3.98-3.02l108.06-.44Z"/>
      <path class="cls-4" d="M135.14,74.09h103.01c-.28,16.9-1.22,33.73-2,50.55-.07,1.48-.98,2.86-1.01,3.45l-109.01,6.01,1.01-18.01c-1.83-5.79-.72-12.01-1-18,.38-4.31.59-8.72,1-13,.61-6.29.89-9.85,8-11Z"/>
      <path class="cls-3" d="M135.14,74.09c-7.11,1.15-7.39,4.71-8,11-2.68-2.74-.08-7.56-.3-10.38-.1-1.22-1.42-2.87-1.7-4.62,12.27-4.68,48.24-31.87,48.99-44.58.4-6.79-5.42-8.37-11.02-6.95-16.16,4.11-31.89,34.18-37.97,48.52,0-.11-.8-.61-.73-1.35.15-1.59,2.21-2.65,1.29-4.62-1.03-2.19-4.29-4.07-6.55-2.03,6.88-16.49,18.57-39.16,35.63-46.87,12.4-5.61,28.15-2.79,27.44,13.39-.78,17.72-33.24,39.52-47.07,48.49Z"/>
      <path class="cls-6" d="M234.14,165.09c-.1,5.25.83,11.16-1,16,0-.13-.94-1.12-1.04-2.42-.28-3.58.28-7.32.08-10.92-.64-2.73-18.18-1.47-21.58-1.62-24.06-1.06-49.87-2.46-74.01-1.09-1.7.1-8.96.8-9.57,1.63l-1.74,99.28c22.46-.5,44.96-1.25,67.48-.93,1.82.03,3.2,1.07,3.38,1.07-19.91,2.05-40.41.7-60.54.96-4.11.05-8.54-.01-12.46.04l2-103,109,1Z"/>
      <path class="cls-6" d="M233.14,183.09c.28,6.14-.23,12.38.04,18.54l-2.04,27.46c-.35-14.09-.57-28.1,0-42.55.08-1.93-1.03-4.01,2-3.45Z"/>
      <path class="cls-6" d="M230.14,257.09c.06,2.01.58,7.5-.94,8.56-5.95.8-12.08.46-18.06.44-.56-3.02,1.53-1.94,3.46-2,4.19-.13,8.48.49,12.61-.44l2.94-6.56Z"/>
      <path class="cls-6" d="M231.14,237.09c.14,4.82.63,10.56-1,15-.12-3.18-1.18-7.12-1-11.54.08-1.93-1.03-4.01,2-3.46Z"/>
      <path class="cls-3" d="M127.14,116.09c-3.03.56-1.93-1.53-2-3.45-.21-5.46.57-9.66,1-14.55.28,5.99-.83,12.21,1,18Z"/>
    </g>
  </g>
</svg>