<?xml version="1.0" encoding="UTF-8"?>
<svg id="_레이어_2" data-name="레이어 2" xmlns="http://www.w3.org/2000/svg" viewBox="0 0 138.89 184.37">
  <defs>
    <style>
      .cls-1 {
        fill: #131f3f;
      }

      .cls-2 {
        fill: #fa5b31;
      }

      .cls-3 {
        fill: #f95a32;
      }
    </style>
  </defs>
  <g id="_레이어_1-2" data-name="레이어 1">
    <g>
      <path class="cls-2" d="M60.11,182.47c-3.27-46.59-1.47-93.29-1-140.01,9.94-.74,20.3-.41,30-1.99,6.65,2.77,14.88.16,21.46-.04,8.48-.26,17.21-.09,25.61.48.8.57,1.84,9.05,1.98,11.02,1.86,27.51-.3,56.54-1.08,84-.42,14.67-.15,29.36-.99,44.01-.52,2.74-1.89,3.24-4.43,3.57-16.92,2.25-42.52-.62-60.06-1.04-3.83-.09-7.68.11-11.49-.01Z"/>
      <path class="cls-3" d="M38.11,40.47l2,141c-8.25-.34-16.31-.44-24.51-.99-2.8-.19-11.77.84-13.03-.97-.58-2.81-1.27-5.64-1.5-8.5C-.46,151.72.12,125.79.07,106.01,0,84.12,1.38,62.34,1.1,40.47c1.97-1.97,32.08,3.15,37.01,0Z"/>
      <path class="cls-1" d="M89.11,40.47c-9.71,1.59-20.06,1.25-30,1.99-.46,46.72-2.26,93.41,1,140.01-6.73-.21-13.36-.73-20-1l-2-141c-11.73-2.17-29.96-9.29-26.77-24.27.95-4.46,5.7-9.89,10.32-10.67,21.61-3.65,25.05,20.94,34.95,33.93,9.4-13.74,15.81-29.69,32.52-36.46,12.25-4.96,28.97-5.45,28.97,11.98,0,16.11-15.32,23.27-28.99,25.5ZM101.11,9.48c-5.98-3.21-35.92,22.48-34,23.98,1.8.39,2.78-.56,4.16-1.33,6-3.36,18.36-11.88,23.76-16.24,2.2-1.78,4.51-4.05,6.08-6.41ZM46.1,34.47c1.21-1.13-7.88-9.47-9.08-10.41-1.72-1.35-11.49-8.01-12.91-6.58-2.34,6.19,20.46,18.41,21.99,16.99Z"/>
    </g>
  </g>
</svg>