<?xml version="1.0" encoding="UTF-8"?>
<svg id="_레이어_2" data-name="레이어 2" xmlns="http://www.w3.org/2000/svg" viewBox="0 0 213.14 310.2">
  <defs>
    <style>
      .cls-1 {
        fill: #f13b33;
      }

      .cls-2 {
        fill: #07417d;
      }

      .cls-3 {
        fill: #faf2f0;
      }

      .cls-4 {
        fill: #1b1f25;
      }
    </style>
  </defs>
  <g id="_레이어_1-2" data-name="레이어 1">
    <g>
      <path class="cls-1" d="M93.13,94.2c4.21.62,10.6,5.4,11,10-2.56.66-3.55,1.44-3.83,4.35,4.11,7.37,12.49,2.25,6.83-4.35,4.97-1.52,7.35-6.27,11.56-6.94,6.14-.98,12.7,1.06,18.98.98,7.85-.09,16.63-2.59,24.46-3.04,17-.97,34.02,1.38,51,1-2.13,21.36-4.44,42.6-6,64l-91.86,4.14,12.86,144.86c-12.98.01-26.02-.01-39,0l-1.44-144.06-86.56.06c0-.18-1.06-1.55-1.07-3.38-.15-21.88-.09-43.76,1.13-65.57,30.49-3.29,61.29-1.67,91.95-2.05ZM66.83,105.36c-3.06.87-3.68,4.85-.7,6.35,6.42,3.23,7.23-8.2.7-6.35ZM27.85,107.34c-4.32,1.21-3.35,8.04,1.63,7.63,5.95-.49,4.13-9.23-1.63-7.63ZM159.38,108.46c-3.4,3.33,2.13,9.92,5.84,5.33,3.27-4.05-2.26-8.84-5.84-5.33ZM8.77,113.32c-4.37,1.43-.35,8.74,4.42,5.43,2.82-1.96.56-7.06-4.42-5.43ZM156.88,120.45c-2.69-2.67-9.08-1.82-7.72,4.2,1.89,8.33,12.92.96,7.72-4.2ZM197.85,120.34c-3.19.89-3.57,4.96-.71,6.37,6.56,3.24,8.01-8.41.71-6.37ZM46.77,121.36c-5.8,1.04-.79,11.9,3.44,6.42,2.42-3.14-.4-6.96-3.44-6.42ZM130.84,121.34c-4.67,1.3-3.31,10.35,2.58,8.72,4.67-1.3,3.31-10.35-2.58-8.72ZM79.84,123.38c-3.98,1.2-3.58,7.2.85,7.84,7.32,1.06,6.61-10.08-.85-7.84ZM174.8,123.33c-3.78,1.28-2.77,7.17,1.3,8.48,7.12,2.29,6.77-11.2-1.3-8.48ZM108.88,139.94c3.54-3.45-3.05-11.09-6.85-6.33-3.59,4.5,2.94,10.14,6.85,6.33ZM65.38,146.94c3.98,3.92,9.63-2.36,5.32-5.85-3.8-3.08-8.56,2.66-5.32,5.85ZM160.88,141.44c-3.96-4.08-10.78,4.3-5.76,7.26,6.07,3.59,9.12-3.8,5.76-7.26ZM181.98,149.05c3.92-6.2-7.64-11.61-7.83-3.26-.12,5.21,6.6,5.21,7.83,3.26ZM134.86,144.33c-8.85,1.33-2.74,14.05,3.32,8.41,3.45-3.21.6-9-3.32-8.41ZM12.01,148.32c-2.82-1.77-8.06,1.33-5.45,4.95,3.41,4.72,8.96-2.75,5.45-4.95ZM23.23,150.3c-2.07,3,3.82,9.02,6.44,3.89,2.28-4.47-4.89-6.14-6.44-3.89ZM44.84,150.35c-3.13.89-3.63,4.91-.7,6.36,6.64,3.28,7.57-8.31.7-6.36ZM101.86,152.34c-6.34,1.74-3.26,11.71,3.57,9.68,5.46-1.62,2.15-11.25-3.57-9.68ZM99.83,181.36c-5.62,1.62-1.82,10.06,3.37,6.4,2.15-1.51,1.62-7.84-3.37-6.4ZM106.74,207.29c-3.84,1.23-.89,8.51,3.45,5.47,2.46-1.72.87-6.85-3.45-5.47ZM97.74,240.29c-3.84,1.23-.89,8.51,3.45,5.47,2.46-1.72.87-6.85-3.45-5.47ZM115.01,255.07c1.77-2.82-1.33-8.06-4.95-5.45-4.72,3.41,2.75,8.96,4.95,5.45ZM94.75,262.27c-3.21,1.02-2.09,8.02,3.37,5.42,4.2-2,.34-6.6-3.37-5.42ZM112.64,271.2c-2.21.69-2.5,7.06.99,7.03,5.22-.04,3.2-8.33-.99-7.03ZM107.05,286.28c-2.51-3.47-9.35,2.78-3.92,5.47,2.87,1.42,5.08-3.87,3.92-5.47Z"/>
      <path class="cls-2" d="M89.13,309.2c-28.99.03-58.09-.62-87.01,1.01-1.11-48.3-.7-96.61-.99-145.01l86.56-.06,1.44,144.06Z"/>
      <path class="cls-2" d="M207.13,160.2c-.62,8.46-.94,17.03-2.04,25.46l-3.95,123.55c-24.32.01-48.69-.03-73.01,0l-12.86-144.86,91.86-4.14Z"/>
      <path class="cls-4" d="M93.13,94.2c-13.2-10.85-30.56-14.63-45.68-21.82-12.64-6.02-28.6-17.87-12.8-31.15,22.5-18.91,55.9-.41,64.64,24.3l5.82,16.67c-1.12-19.09,3.01-72.6,23.61-80.9,20.49-8.25,26.65,25.03,25.41,38.9,14.2-4.39,32.89,2.93,37.71,17.78,6.05,18.65-15.53,30.97-29.72,37.22-7.83.45-16.61,2.95-24.46,3.04-6.28.07-12.84-1.96-18.98-.98-4.21.67-6.59,5.43-11.56,6.94-.78.24-2.16-.22-3,0-.4-4.6-6.79-9.38-11-10ZM147.97,42.04c4.32-21.81-11.42-56.36-28.02-21.53-10.13,21.26-9.25,45.78-10.8,68.68l10.82-21.67c6.46-11.49,15.37-20.85,28.01-25.49ZM101.13,92.19c-2.66-25.48-18.8-55.86-48.48-52.99-6.14.6-19.94,5.89-19.49,13.41.68,11.59,30.96,20.25,40.34,24.72s18.04,10.58,27.64,14.85ZM124.13,93.2h24.5c2.34,0,13.46-3.61,16.19-4.81,16.36-7.16,34.4-25.56,13.22-39.6-4.9-3.25-21.16-7.85-24.99-3.17-1.14,1.4-4.93,14.59-6.74,18.26-5.46,11.06-14.05,20.23-22.18,29.32ZM146.13,48.2c-7.98,3.44-14.66,11.02-19.4,18.09-5.56,8.29-10.13,18.57-13.59,27.9,2.64,2.71,19.21-18.43,20.81-20.68,5.26-7.4,10.99-16.1,12.18-25.31Z"/>
      <path class="cls-3" d="M101.86,152.34c5.71-1.57,9.03,8.06,3.57,9.68-6.82,2.02-9.91-7.94-3.57-9.68Z"/>
      <path class="cls-3" d="M134.86,144.33c3.92-.59,6.77,5.2,3.32,8.41-6.05,5.64-12.17-7.08-3.32-8.41Z"/>
      <path class="cls-3" d="M156.88,120.45c5.2,5.16-5.83,12.53-7.72,4.2-1.36-6.01,5.03-6.86,7.72-4.2Z"/>
      <path class="cls-3" d="M174.8,123.33c8.07-2.72,8.42,10.77,1.3,8.48-4.07-1.31-5.08-7.2-1.3-8.48Z"/>
      <path class="cls-3" d="M160.88,141.44c3.36,3.46.32,10.85-5.76,7.26-5.02-2.97,1.8-11.34,5.76-7.26Z"/>
      <path class="cls-3" d="M108.88,139.94c-3.91,3.82-10.44-1.83-6.85-6.33,3.79-4.76,10.38,2.88,6.85,6.33Z"/>
      <path class="cls-3" d="M130.84,121.34c5.88-1.64,7.25,7.42,2.58,8.72-5.88,1.64-7.25-7.42-2.58-8.72Z"/>
      <path class="cls-3" d="M181.98,149.05c-1.23,1.95-7.95,1.95-7.83-3.26.19-8.34,11.75-2.94,7.83,3.26Z"/>
      <path class="cls-3" d="M79.84,123.38c7.46-2.24,8.17,8.91.85,7.84-4.43-.64-4.83-6.65-.85-7.84Z"/>
      <path class="cls-3" d="M104.13,104.2c.84-.22,2.22.24,3,0,5.66,6.6-2.72,11.73-6.83,4.35.28-2.91,1.27-3.69,3.83-4.35Z"/>
      <path class="cls-3" d="M27.85,107.34c5.76-1.61,7.58,7.14,1.63,7.63-4.98.41-5.95-6.42-1.63-7.63Z"/>
      <path class="cls-3" d="M159.38,108.46c3.58-3.51,9.11,1.28,5.84,5.33-3.71,4.6-9.24-2-5.84-5.33Z"/>
      <path class="cls-3" d="M65.38,146.94c-3.24-3.19,1.52-8.93,5.32-5.85,4.31,3.49-1.34,9.77-5.32,5.85Z"/>
      <path class="cls-3" d="M46.77,121.36c3.03-.54,5.86,3.28,3.44,6.42-4.23,5.48-9.24-5.38-3.44-6.42Z"/>
      <path class="cls-3" d="M197.85,120.34c7.3-2.04,5.85,9.61-.71,6.37-2.86-1.41-2.48-5.48.71-6.37Z"/>
      <path class="cls-3" d="M99.83,181.36c4.99-1.44,5.51,4.89,3.37,6.4-5.19,3.65-8.99-4.79-3.37-6.4Z"/>
      <path class="cls-3" d="M44.84,150.35c6.86-1.95,5.93,9.64-.7,6.36-2.92-1.45-2.43-5.47.7-6.36Z"/>
      <path class="cls-3" d="M66.83,105.36c6.53-1.85,5.72,9.58-.7,6.35-2.98-1.5-2.36-5.48.7-6.35Z"/>
      <path class="cls-3" d="M23.23,150.3c1.55-2.25,8.72-.57,6.44,3.89-2.62,5.13-8.51-.9-6.44-3.89Z"/>
      <path class="cls-3" d="M8.77,113.32c4.97-1.63,7.24,3.46,4.42,5.43-4.77,3.32-8.78-3.99-4.42-5.43Z"/>
      <path class="cls-3" d="M12.01,148.32c3.51,2.2-2.03,9.67-5.45,4.95-2.61-3.62,2.63-6.72,5.45-4.95Z"/>
      <path class="cls-3" d="M115.01,255.07c-2.2,3.51-9.67-2.03-4.95-5.45,3.62-2.61,6.72,2.63,4.95,5.45Z"/>
      <path class="cls-3" d="M94.75,262.27c3.71-1.18,7.57,3.43,3.37,5.42-5.46,2.6-6.58-4.4-3.37-5.42Z"/>
      <path class="cls-3" d="M112.64,271.2c4.18-1.3,6.21,7,.99,7.03-3.48.03-3.2-6.35-.99-7.03Z"/>
      <path class="cls-3" d="M106.74,207.29c4.32-1.38,5.91,3.75,3.45,5.47-4.34,3.04-7.29-4.24-3.45-5.47Z"/>
      <path class="cls-3" d="M97.74,240.29c4.32-1.38,5.91,3.75,3.45,5.47-4.34,3.04-7.29-4.24-3.45-5.47Z"/>
      <path class="cls-3" d="M107.05,286.28c1.15,1.6-1.05,6.89-3.92,5.47-5.43-2.68,1.42-8.94,3.92-5.47Z"/>
    </g>
  </g>
</svg>