<?xml version="1.0" encoding="UTF-8"?>
<svg id="_레이어_2" data-name="레이어 2" xmlns="http://www.w3.org/2000/svg" viewBox="0 0 231.51 264.8">
  <defs>
    <style>
      .cls-1 {
        fill: #131a22;
      }

      .cls-2 {
        fill: #f5be06;
      }

      .cls-3 {
        fill: #f5bf07;
      }

      .cls-4 {
        fill: #1a161f;
      }

      .cls-5 {
        fill: #faf2f0;
      }

      .cls-6 {
        fill: #f33a30;
      }

      .cls-7 {
        fill: #f13b32;
      }
    </style>
  </defs>
  <g id="_레이어_1-2" data-name="레이어 1">
    <g>
      <path class="cls-2" d="M79.02,71.62v80.01s-79,0-79,0c.01-18.91.32-37.67,1.04-56.46.15-3.87-.91-23.14,1.1-24.4,25.56-1.96,51.37-1.14,76.86.86ZM32.76,96.85c-17.23,2.71-7.25,29.94,7.79,17.81,9.81-7.92,5.25-19.86-7.79-17.81Z"/>
      <path class="cls-3" d="M230.02,144.62l-85.01,4.01c-.13-24.49-3.62-48.83-6.99-73.01,30.4,1.79,60.76,4.44,91.07,7.43,1.02.7.85,1.95.98,3.02,2.02,16.68-.26,40.86-.05,58.55ZM165.72,102.83c-5.34,1.59-7.12,11.15-5.18,15.77,3.09,7.39,25.09,9.91,22.42-6.43-1.07-6.52-11.17-11.15-17.23-9.34Z"/>
      <path class="cls-1" d="M119.02,74.62c-1.01,1.04-2.9,1.98-4,3-5.14,4.8-4.33,5.05-4,12.55.09,1.92-1.04,4.01,2,3.45-.02,2.33-.05,4.67,0,7-1.61,5.02-1.28,12.19-1.07,17.57.07,1.73,1.07,3.51,1.07,3.93v25c0,5.27.77,13.13,1,19.05.08,1.93-1.03,4.01,2,3.45v1c.1,1.31,1.47.96,2.44,1.05,4.1.37,10.7.47,14.56-1.05,1.66,0,3.34-.04,5,0-.56,3.02,1.53,1.94,3.45,2,6.11.2,13.78.69,19.55-1,2.99.09,6.01-.09,9,0-.56,3.02,1.53,1.94,3.45,2,6.64.22,13.41.1,20.06.02,1.69-.02,4.45.64,5.49-1.02.67.02,1.33-.02,2,0-.56,3.02,1.53,1.94,3.45,2,3.59.12,19.8-.83,21.1.94l.44,3.05c-13.47.4-27.07-.53-40.54,0-1.93.08-4.01-1.03-3.45,2-2,0-4,.01-6,0,.56-3.03-1.53-1.92-3.45-2-14.98-.59-30.1.52-45.09.04-2.8-.09-10.27-2.6-12.02-.1l1.61,44.55-2.95.57-.66,13.03,3.62,1.53,1.93,25.39c-2.2.02-6.52.97-10,1l-2.11-86.89-59.89.89c-1-.01-2,0-3,0,.56-3.03-1.53-1.92-3.45-2-13.47-.53-27.07.39-40.55,0-.04-2.99.02-6.01,0-9,.67,0,1.33,0,2,0-.56,3.02,1.53,1.94,3.45,2,13.09.44,26.92.18,40.06.02,1.69-.02,4.45.64,5.49-1.02,1.33.03,2.67-.02,4,0-.56,3.02,1.53,1.94,3.45,2,15.77.53,31.65.41,47.4.86.87-1.66,1.05-3.47,1.19-5.32,1.04-14.27.53-33.59-.04-48.09-.08-1.93,1.03-4.01-2-3.45-.02-2,0-4,0-6,1.66-1.04,1-3.79,1.02-5.49.07-6.78.67-14.06-1.02-20.51-.15-.58-.71-1.35-1-2-.17-.36.33-1.54-.08-1.9-.57-.49-2.24.14-2.92-.1-.25-.09-.73-.7-1-1-2.31-2.58-2.18-3.86-7-5-.84-.2-2.07.15-3,0-11.49-10.17-35.78-17.24-38.76-34.74-3.5-20.48,13.43-37.15,33.09-26.09,9.42,5.3,15.79,17.74,19.42,27.58l4.24,13.24c3.37-15.75,7.96-36.83,21-47.5,16.18-13.25,27.7,1.48,26,19-1.75,18.06-23.77,37.96-35.99,50.51ZM114,69.61c9.25-15.44,30.72-27.05,32.91-46.6.85-7.55-1.17-18.26-10.78-13.78-16.1,7.5-21.99,44.05-24.13,59.87l2,.51ZM83.67,23.97c-11.09-9.76-27.2-1.96-23.18,13.68,2.69,10.5,21.74,19.54,30.5,25.52,1.3.89,1.61,2.64,2.33,3.14,2.1,1.47,7.25,2.94,9.69,5.3-2.46-12.54-9.81-39.26-19.34-47.65Z"/>
      <path class="cls-6" d="M138.02,75.62c3.38,24.17,6.87,48.52,6.99,73.01l85.01-4.01c.12,9.68.94,19.4,1,29-10-.22-19.99-.69-30-1-.67-.02-1.33.02-2,0-9.67-.3-19.35-.72-29-1-2.99-.09-6.01.09-9,0-7.69-.23-15.29-.82-23-1-1.66-.04-3.34,0-5,0h-17v-1c-.19-22.99-2.55-46.04-3-69-.05-2.33-.02-4.67,0-7,.04-5.23-1.27-11.9,2-16,1.1-1.02,2.99-1.96,4-3,6.31.47,12.69.63,19,1Z"/>
      <path class="cls-6" d="M44.02,178.62c1,0,2-.01,3,0,19.68.21,39.34.49,59.01.99l.99,85.01c-8.98.09-18.02-.11-27,0l-.99-56.01-78.01,1.01c-.32-10.32-.86-20.59-1-31,4.67-1.59,8.3-.04,12.46.05,10.5.21,21.05-.13,31.54-.05Z"/>
      <path class="cls-3" d="M231.02,199.62c.07,15.89,1.05,33.91.04,49.54-.18,2.81-1.13,12.85-3.03,13.97-27.31,1.13-54.69.18-82.01.49l.99-56.01c28.27.59,56.12-4.5,84.01-7.99ZM183.73,231.83c-9.78,2.19-9.45,21.71,5.81,20.86,16.05-.9,9.18-24.22-5.81-20.86Z"/>
      <path class="cls-6" d="M176.02,180.62c2,.01,4,0,6,0,16.29.05,32.85.7,49-1,.04,6.65-.03,13.35,0,20-27.88,3.49-55.74,8.58-84.01,7.99l-.99,56.01c-8.65.1-17.35-.08-26,0l-3.01-84.01c19.68.3,39.32.87,59.01,1.01Z"/>
      <path class="cls-2" d="M1.02,209.62l78.01-1.01.99,56.01c-12.69.15-24.76.19-37.46-.04-6.04-.11-35.62,1.1-38.29-1.2-3.7-17.48-2.7-35.89-3.25-53.76ZM41.73,231.84c-4.18.96-6.02,6.29-5.66,10.16.88,9.46,15.57,15.15,20.95,7.13,6.29-9.4-5.62-19.5-15.29-17.28Z"/>
      <path class="cls-7" d="M90.02,72.62c.93.15,2.16-.2,3,0,1.71,2.11,4.4,4.42,7,5,.27.3.75.91,1,1,.48,1.4,1.54,1.99,3,2,.29.65.85,1.42,1,2v26c0,2-.02,4,0,6,.14,18.36,1.09,36.65,1.01,55.01-17.02.51-34.01-.7-51.01-1.01-1.33-.02-2.67.03-4,0-16.32-.32-32.79-1-49-1-.67,0-1.33,0-2,0-.04-5.32,0-10.68,0-16h79.01s0-80,0-80c3.9.31,7,.35,11,1Z"/>
      <path class="cls-4" d="M119.02,263.62l-1.93-25.39-3.62-1.53.66-13.03,2.95-.57-1.61-44.55c1.75-2.49,9.22.01,12.02.1,14.99.48,30.1-.63,45.09-.04,1.93.08,4.01-1.03,3.45,2-19.69-.14-39.33-.71-59.01-1.01l3.01,84.01c-.33,0-.67,0-1,0Z"/>
      <path class="cls-4" d="M47.02,178.62l59.89-.89,2.11,86.89c-.67,0-1.33,0-2,0l-.99-85.01c-19.67-.5-39.32-.78-59.01-.99Z"/>
      <path class="cls-4" d="M231.02,173.62c.01,2-.01,4,0,6-16.15,1.7-32.71,1.05-49,1-.56-3.03,1.53-1.92,3.45-2,13.47-.53,27.07.4,40.54,0l-.44-3.05c-1.3-1.77-17.51-.82-21.1-.94-1.93-.06-4.01,1.02-3.45-2,10.01.31,20,.78,30,1Z"/>
      <path class="cls-4" d="M.02,176.62c13.47.39,27.07-.53,40.55,0,1.93.08,4.01-1.03,3.45,2-10.49-.08-21.04.26-31.54.05-4.16-.08-7.79-1.63-12.46-.05,0-.67,0-1.33,0-2Z"/>
      <path class="cls-6" d="M32.76,96.85c13.04-2.05,17.6,9.89,7.79,17.81-15.04,12.13-25.02-15.09-7.79-17.81Z"/>
      <path class="cls-5" d="M165.72,102.83c6.06-1.8,16.17,2.82,17.23,9.34,2.67,16.34-19.32,13.81-22.42,6.43-1.93-4.62-.15-14.18,5.18-15.77Z"/>
      <path class="cls-4" d="M116.02,169.62c-3.03.56-1.92-1.53-2-3.45-.23-5.92-1-13.78-1-19.05v-25c0-.42-1.01-2.2-1.07-3.93-.21-5.38-.54-12.55,1.07-17.57.45,22.96,2.81,46.01,3,69Z"/>
      <path class="cls-4" d="M105.02,114.62c3.03-.56,1.92,1.53,2,3.45.57,14.5,1.08,33.82.04,48.09-.13,1.85-.32,3.66-1.19,5.32-15.76-.45-31.64-.33-47.4-.86-1.93-.06-4.01,1.02-3.45-2,16.99.31,33.98,1.52,51.01,1.01.09-18.36-.86-36.65-1.01-55.01Z"/>
      <path class="cls-4" d="M51.02,168.62c-1.04,1.66-3.79,1-5.49,1.02-13.14.16-26.97.42-40.06-.02-1.93-.06-4.01,1.02-3.45-2,16.21,0,32.68.68,49,1Z"/>
      <path class="cls-4" d="M199.02,172.62c-1.04,1.66-3.79,1-5.49,1.02-6.65.08-13.42.2-20.06-.02-1.93-.06-4.01,1.02-3.45-2,9.65.28,19.33.7,29,1Z"/>
      <path class="cls-4" d="M161.02,171.62c-5.76,1.69-13.43,1.2-19.55,1-1.93-.06-4.01,1.02-3.45-2,7.71.18,15.31.77,23,1Z"/>
      <path class="cls-4" d="M113.02,93.62c-3.04.56-1.91-1.53-2-3.45-.34-7.5-1.15-7.75,4-12.55-3.27,4.1-1.96,10.77-2,16Z"/>
      <path class="cls-4" d="M105.02,108.62v-26c1.68,6.46,1.09,13.73,1.02,20.51-.02,1.69.64,4.45-1.02,5.49Z"/>
      <path class="cls-4" d="M133.02,170.62c-3.86,1.52-10.46,1.41-14.56,1.05-.97-.09-2.34.26-2.44-1.05h17Z"/>
      <path class="cls-4" d="M100.02,77.62c-2.6-.58-5.29-2.89-7-5,4.82,1.14,4.69,2.42,7,5Z"/>
      <path class="cls-4" d="M101.02,78.62c.68.24,2.35-.4,2.92.1.41.36-.08,1.54.08,1.9-1.46-.01-2.52-.6-3-2Z"/>
      <path class="cls-5" d="M183.73,231.83c14.99-3.36,21.86,19.96,5.81,20.86s-15.59-18.67-5.81-20.86Z"/>
      <path class="cls-5" d="M41.73,231.84c9.67-2.22,21.58,7.88,15.29,17.28-5.38,8.03-20.06,2.34-20.95-7.13-.36-3.86,1.48-9.2,5.66-10.16Z"/>
    </g>
  </g>
</svg>