<?xml version="1.0" encoding="UTF-8"?>
<svg id="_레이어_2" data-name="레이어 2" xmlns="http://www.w3.org/2000/svg" viewBox="0 0 279.12 90.83">
  <defs>
    <style>
      .cls-1 {
        fill: #2a192a;
      }

      .cls-2 {
        fill: #0e1936;
      }

      .cls-3 {
        fill: #138d96;
      }

      .cls-4 {
        fill: #f4ae1c;
      }

      .cls-5 {
        fill: #f44a2a;
      }

      .cls-6 {
        fill: #f54a28;
      }
    </style>
  </defs>
  <g id="_레이어_1-2" data-name="레이어 1">
    <g>
      <path class="cls-4" d="M222.24,86.38c.93-10.96-1.94-22.18-2-33,13.8.42,29.78.68,43.51,0,1.56-.08,3.93.95,3.5-1.49-.96-2.43-28.92-1.3-33.55-1.47-4.25-.16-8.88-.83-13.46-1.04-.33-.02-.67.02-1,0l-3-48c16,.15,34.81-1.22,50.42,1.08,4.38.64,10.99,2.62,11.63,7.37,1.95,14.53-.05,39.95-1.04,55.06-.51,7.78,2.42,19.22-8.49,20.51-13.93,1.65-32.12.48-46.52.98Z"/>
      <path class="cls-6" d="M75.24,42.38c.2,3.82-.28,7.72-.04,11.54.08,1.3,1.04,2.61,1.04,2.96v23c0,1.88,2.05,6.53,1,9.5-20.57.26-42.77,3.28-63.25-.25-10.98-1.89-10.99-4.78-11.74-15.26-.87-12.12-.62-25.28-1.01-37.49,24.69,1.49,49.36,3.92,74,6Z"/>
      <path class="cls-3" d="M216.24,1.38l3,48c-25.58-1.19-50.79-3.61-76-6l-1-42c24.64,0,49.36-.23,74,0Z"/>
      <path class="cls-3" d="M220.24,53.38c.06,10.82,2.93,22.04,2,33-26.76.92-53.98,1.46-81,2l1-40,1-1c23.94,3.91,48.35,4.17,72.52,5.01,1.6.06,3.23.95,4.48.99Z"/>
      <path class="cls-4" d="M142.24,48.38l-1,40c-21.33.42-42.62.73-64,1,1.05-2.97-1-7.62-1-9.5v-23c0-.35-.95-1.67-1.04-2.96-.24-3.82.24-7.72.04-11.54,22.34,1.89,44.76,3.23,67,6Z"/>
      <path class="cls-4" d="M142.24,1.38l1,42c-.33-.03-.67.03-1,0-22.34-2.13-44.68-4.83-67-7V1.38c3,.05,6.83,1,8.5,1h40c5.34,0,12.33-1,18.5-1Z"/>
      <path class="cls-5" d="M75.24,1.38v35c-24.65-2.39-49.5-3.33-74-7,0-.13-1.01-1.13-1.04-2.42C.1,22.33-.54,6.71,1.18,3.82S12.03.55,15.69.33c18.06-1.07,40.81.76,59.55,1.05Z"/>
      <path class="cls-1" d="M75.24,36.38c22.32,2.17,44.66,4.87,67,7l1,4-1,1c-22.24-2.77-44.66-4.11-67-6-24.64-2.08-49.31-4.51-74-6-.07-2.33.06-4.67,0-7,24.5,3.67,49.35,4.61,74,7Z"/>
      <path class="cls-2" d="M219.24,49.38c.33.02.67-.02,1,0,0,1.33,0,2.67,0,4-1.26-.04-2.88-.93-4.48-.99-24.17-.84-48.58-1.11-72.52-5.01l-1-4c.33.03.67-.03,1,0,25.21,2.39,50.42,4.81,76,6Z"/>
      <path class="cls-1" d="M220.24,49.38c4.58.21,9.21.88,13.46,1.04,4.63.17,32.59-.96,33.55,1.47.44,2.44-1.94,1.41-3.5,1.49-13.73.68-29.71.42-43.51,0,0-1.33,0-2.67,0-4Z"/>
    </g>
  </g>
</svg>