<?xml version="1.0" encoding="UTF-8"?>
<svg id="_레이어_2" data-name="레이어 2" xmlns="http://www.w3.org/2000/svg" viewBox="0 0 168.27 112.36">
  <defs>
    <style>
      .cls-1 {
        fill: #2a192a;
      }

      .cls-2 {
        fill: #f44a2a;
      }

      .cls-3 {
        fill: #f64a28;
      }

      .cls-4 {
        fill: #0f1835;
      }
    </style>
  </defs>
  <g id="_레이어_1-2" data-name="레이어 1">
    <g>
      <path class="cls-2" d="M78.31,1.3v110c-15.19-.67-30.3-2.14-45.46-3.04-10.45-.62-26.86,4.09-29.45-9.55C.67,84.34.51,59.1.26,43.85c-.13-7.9-1.12-26.89,1.81-33.28C4.89,4.44,22.37,3.82,28.82,3.31c15.95-1.26,33.4-1.44,49.49-2.01ZM13.25,20.34l-3.03.55c-2.29,3.11.88,19.97,1.13,24.87.65,12.53-.47,27.92.91,40.09.19,1.72.29,3.45,2.54,3.46,1.93.03,1.66-35.26,1.55-38.55-.08-2.36-.96-4.55-1.08-6.92-.41-7.94.95-15.76-2.02-23.5Z"/>
      <path class="cls-3" d="M115.31,112.3L114.31.3c11.95,0,35.55-1.57,46.02,2.48,5.37,2.08,6.58,7.84,7.02,12.98,1.11,12.99,1.75,68.59-1.31,78.76-5.66,18.76-34.71,17.42-50.72,17.78Z"/>
      <path class="cls-4" d="M114.31.3l1,112c-12.49.28-24.59-.46-37-1V1.3c12.01-.43,23.89-.99,36-1Z"/>
      <path class="cls-1" d="M13.25,20.34c2.97,7.74,1.6,15.56,2.02,23.5.12,2.37,1,4.56,1.08,6.92.11,3.3.38,38.59-1.55,38.55-2.25-.01-2.35-1.74-2.54-3.46-1.38-12.18-.26-27.56-.91-40.09-.25-4.91-3.42-21.76-1.13-24.87l3.03-.55Z"/>
    </g>
  </g>
</svg>