<?xml version="1.0" encoding="UTF-8"?>
<svg id="_레이어_2" data-name="레이어 2" xmlns="http://www.w3.org/2000/svg" viewBox="0 0 175.49 193.09">
  <defs>
    <style>
      .cls-1 {
        fill: #f9c428;
      }

      .cls-2 {
        fill: #fcc422;
      }

      .cls-3 {
        fill: #18223e;
      }

      .cls-4 {
        fill: #f45b32;
      }

      .cls-5 {
        fill: #181d3a;
      }

      .cls-6 {
        fill: #e6c04f;
      }

      .cls-7 {
        fill: #fbc424;
      }
    </style>
  </defs>
  <g id="_레이어_1-2" data-name="레이어 1">
    <g>
      <path class="cls-2" d="M89.04,190.91c-.13,0-1.12-.97-2.42-1.04-4.17-.22-8.42.24-12.58.05l-3.04-56.46.04-90.54h76l-2,148c-1.33.04-2.67-.06-4,0-1.04-1.66-3.79-1-5.49-1.02-13.19-.16-26.73.98-39.51,1.02-2.33,0-4.67.03-7,0Z"/>
      <path class="cls-7" d="M1.04,42.91l64.01-1.01,2.99,149.01c-13.3.09-27.84.69-41.54.96-5.07.1-20.27,3.7-22.96-1.96-1.08-2.28-.69-15.08-.49-18.49.86-14.67,5.08-29.35,5.98-44.02,1.85-29.99-5.61-55.6-7.99-84.49Z"/>
      <path class="cls-3" d="M1.04,42.91c-.03-.36-1.23-1.23-1.02-3.35.64-6.28,6.38-8.36,11.77-9.4,8.72-1.68,22.49-1.96,31.7-2.3,8.15-.3,16.39.31,24.54.03l-12.52-5.97c-7.4-3.53-12.82-14.05-4.44-19.48,9.77-6.32,22.89,11.58,26.47,19.47,2.08,0,7.29-10.91,9.51-13.49,5.33-6.17,14.53-11.5,22.34-6.39,6.62,4.33,6.66,17.06-1.21,20.52l-8.16,3.34h49.5c.75,0,7.12,1.33,8.32,1.68,9.07,2.66,11.65,6.58,13.18,15.32l-18.01-1-.99,148c-1.55.23-3.39-.16-5,0l1.01-148.01c-2.32-.05-4.68.07-7.01,0,.56-3.02-1.53-1.94-3.45-2-18.53-.62-46.31-1.84-64.16-.06-1.45.15-1.42.28-2.39,1.06-.37.3-.7.63-1,1,.21,49.74-1.11,99.51,3,149-1.67,0-3.33-.01-5,0l-2.99-149.01L1.04,42.91ZM64.69,13.27c-1.38-1.23-9.9-7.51-9.68-2.83s11.78,10.25,16.03,12.48c1.13-1.44-5.08-8.52-6.34-9.65ZM104.85,14.74c1.47-2.55-1-5.23-3.56-5.66-7.08-1.19-14.04,8.1-18.25,12.82,3.75-.25,20.47-4.83,21.81-7.16Z"/>
      <path class="cls-1" d="M171.04,42.91c3.37,19.3,2.44,41.79,2.96,61.54.54,20.45,3.12,42.44-.09,62.82-2.46,15.64-6.3,20.33-21.87,22.63l.99-148,18.01,1Z"/>
      <path class="cls-6" d="M83.04,40.91c6.52,1.77,14.63,1.09,21.51,1.02,1.69-.02,4.45.64,5.49-1.02,1,0,2,0,3,0,1.26,1.65,5.74,1.65,7,0,.67,0,1.33,0,2,0,1.66,1.78,5.5.98,8,1,3.65.03,7.35-.11,11,0,2.33.07,4.68-.05,7.01,0l-1.01,148.01-2,1,2-148h-76l-.04,90.54,3.04,56.46c4.16.19,8.42-.27,12.58-.05,1.3.07,2.29,1.04,2.42,1.04-4.59,2.86-11.35,0-16,0-4.11-49.49-2.79-99.26-3-149l1-1c3.99-.04,8.01.06,12,0Z"/>
      <path class="cls-6" d="M141.04,190.91c-8.14.35-16.39-.29-24.54-.04-6.28.19-14.1,2.81-20.46.04,12.78-.04,26.33-1.18,39.51-1.02,1.69.02,4.45-.64,5.49,1.02Z"/>
      <path class="cls-5" d="M71.04,40.91c.97-.77.94-.91,2.39-1.06,17.85-1.78,45.62-.56,64.16.06,1.93.06,4.01-1.02,3.45,2-3.65-.11-7.35.03-11,0-1.66-1.78-5.49-.97-8-1-.67,0-1.33,0-2,0-2.33-.01-4.67,0-7,0-1,0-2,0-3,0-8.98-.01-18.02-.13-27,0-3.99.06-8.01-.04-12,0Z"/>
      <path class="cls-4" d="M70.04,41.91c.3-.37.63-.7,1-1l-1,1Z"/>
      <path class="cls-4" d="M110.04,40.91c-1.04,1.66-3.79,1-5.49,1.02-6.88.07-14.99.75-21.51-1.02,8.98-.13,18.02-.01,27,0Z"/>
      <path class="cls-4" d="M130.04,41.91c-2.5-.02-6.34.78-8-1,2.51.03,6.34-.78,8,1Z"/>
      <path class="cls-4" d="M120.04,40.91c-1.26,1.65-5.74,1.65-7,0,2.33,0,4.67-.01,7,0Z"/>
    </g>
  </g>
</svg>