<?xml version="1.0" encoding="UTF-8"?>
<svg id="_레이어_2" data-name="레이어 2" xmlns="http://www.w3.org/2000/svg" viewBox="0 0 141.56 170.08">
  <defs>
    <style>
      .cls-1 {
        fill: #f3f4f5;
      }

      .cls-2 {
        fill: #f4f4f3;
      }

      .cls-3 {
        fill: #f6f4f1;
      }

      .cls-4 {
        fill: #101f41;
      }

      .cls-5 {
        fill: #111e3f;
      }

      .cls-6 {
        fill: #0f9594;
      }

      .cls-7 {
        fill: #1f7adc;
      }

      .cls-8 {
        fill: #fbc424;
      }
    </style>
  </defs>
  <g id="_레이어_1-2" data-name="레이어 1">
    <g>
      <path class="cls-2" d="M47.17,42.45c.15.05.97,1.59,2.26,2.2,28.15,13.24,63.62,30.53,91.74,7.8.1,8.28.04,17.07,0,25-1.65-1.33-2.72-.67-4.36.08-22.69,10.34-39.73,20.26-65.65,23.46-1.79.22-3.39,1.18-4.99-.54,10.79-7.2,10.48-23.35,3.83-33.33-18.4-27.62-45.13,21.97-22.83,35.33-4.76-.36-9.49-.7-14.24-1.26L1.17,92.45c-.43-16.91.24-34.04,0-51,9.51,3.08,19.21,5.88,29.38,4.88,3.89-.39,14.45-4.59,16.62-3.88Z"/>
      <path class="cls-7" d="M141.17,52.45c-28.12,22.73-63.59,5.44-91.74-7.8-1.29-.61-2.11-2.15-2.26-2.2,2.78-3.8,8.2-5.67,11.49-9.01,8.21-8.31,9.69-20.78,9.51-31.99,17.22-.52,36.53-2.22,53.54-1.04,13.19.91,18.24,1.55,19.44,15.56.98,11.38-.12,24.81.02,36.48Z"/>
      <path class="cls-2" d="M87.17,121.45c.39-.25.69-.66,1-1,.26-.13.71.12,1,0l1-1c.83-.2,2.06.13,3,0v1c-11.07,11.82-9.71,26.77,2.53,36.98,1.12.93,6.52,4.7,7.47,5.02l-42.46,4.04c-2.69-.68-8.73,2.15-7.54-3.04,2.68-2.98,3.49-12.43,2.91-16.41-2.24-15.5-26.86-15.93-30.47-4.64-1.88,5.87-1.03,20.63,3.56,25.06-5.77-.44-19.31,1.85-22.43-4.07-1.77-3.36-3.12-13.3-3.56-17.44-1.36-12.77-.6-26.64-1.01-39.49,4.67,2.13,8.24,6.1,12.7,8.8,19.07,11.55,52.39,18.96,72.3,6.2Z"/>
      <path class="cls-8" d="M141.17,77.45c-.01,2,.02,4,0,6l-1.2,5.81c-10.01,5.74-18.98,13.18-28.8,19.19-.52.32-1.28.57-2,1-.64.38-1.36.63-2,1-.84.5-2.69.64-4.04,1.43-1.23.71-9.15,5.47-9.58,5.93s-.45,1.05-.38,1.64c-.94.13-2.17-.2-3,0s-.93.97-1,1c-.29.12-.74-.13-1,0-.43.21-.76.59-1,1-19.91,12.77-53.24,5.35-72.3-6.2-4.46-2.7-8.03-6.67-12.7-8.8-.13-4.17-.88-9.2-1-14l31.76,8.74c4.75.56,9.48.89,14.24,1.26,7.75.59,11.61,2.93,19-2,1.6,1.72,3.19.77,4.99.54,25.92-3.2,42.96-13.12,65.65-23.46,1.64-.75,2.71-1.41,4.36-.08Z"/>
      <path class="cls-4" d="M68.17,1.45c.18,11.22-1.3,23.68-9.51,31.99-3.29,3.33-8.71,5.21-11.49,9.01-2.17-.71-12.73,3.49-16.62,3.88-10.16,1.01-19.86-1.8-29.38-4.88,0-.52-.98-1.98-1.01-3.45C0,28.24-1.4,11.66,8.46,6.24,18.37.79,55.09,1.84,68.17,1.45Z"/>
      <path class="cls-6" d="M128.17,115.45c.18.14,2.88,2.83,3,3l1,2c.09.3-.08.68,0,1,3.05,12.37.37,34.42-12,41-5.52.43-11.2,1.99-17,0-.96-.33-6.35-4.09-7.47-5.02-12.24-10.2-13.6-25.16-2.53-36.98,2.34-2.5,11.89-8.27,15-9,.3-.07.67.05,1,0,6.8-1.01,13.57-.31,19,4Z"/>
      <path class="cls-4" d="M53.17,163.45c-.28.31-6.16,4.16-6.94,4.56-4.65,2.4-13.05,3.32-17.06-.56-4.58-4.43-5.43-19.18-3.56-25.06,3.61-11.29,28.22-10.86,30.47,4.64.58,3.98-.23,13.43-2.91,16.41Z"/>
      <path class="cls-2" d="M140.17,130.45c-6.91,1.58-4.34-6.49-8-9-.08-.32.09-.7,0-1,.24-1.15-.6-1.44-1-2-.12-.17-2.82-2.86-3-3l-5.22-5.31-11.78-1.69c9.82-6.01,18.79-13.46,28.8-19.19l1.2-5.81c-.15,15.16-.21,31.3-1,47Z"/>
      <path class="cls-1" d="M132.17,121.45c3.66,2.51,1.09,10.58,8,9-.32,6.3.33,22.97-2.55,27.95-2.46,4.25-12.99,3.71-17.45,4.05,12.37-6.58,15.05-28.63,12-41Z"/>
      <path class="cls-5" d="M66.17,100.45c-7.39,4.93-11.25,2.59-19,2-22.29-13.36,4.43-62.96,22.83-35.33,6.65,9.98,6.95,26.13-3.83,33.33Z"/>
      <path class="cls-3" d="M107.17,110.45l1,1c-3.11.73-12.66,6.5-15,9v-1c-.07-.6-.05-1.17.38-1.64s8.35-5.22,9.58-5.93c1.35-.79,3.2-.93,4.04-1.43Z"/>
      <path class="cls-3" d="M87.17,121.45c.24-.41.57-.79,1-1-.31.34-.61.75-1,1Z"/>
      <path class="cls-3" d="M89.17,120.45c.07-.03.21-.81,1-1l-1,1Z"/>
      <path class="cls-1" d="M111.17,108.45l11.78,1.69,5.22,5.31c-5.43-4.31-12.2-5.01-19-4v-2c.72-.43,1.48-.68,2-1Z"/>
      <path class="cls-2" d="M109.17,111.45c-.33.05-.7-.07-1,0l-1-1c.64-.37,1.36-.62,2-1v2Z"/>
      <path class="cls-1" d="M132.17,120.45l-1-2c.4.56,1.24.85,1,2Z"/>
    </g>
  </g>
</svg>