<?xml version="1.0" encoding="UTF-8"?>
<svg id="_레이어_2" data-name="레이어 2" xmlns="http://www.w3.org/2000/svg" viewBox="0 0 207.15 130.4">
  <defs>
    <style>
      .cls-1 {
        fill: #f7c21e;
      }

      .cls-2 {
        fill: #18223e;
      }

      .cls-3 {
        fill: #111f3e;
      }

      .cls-4 {
        fill: #101e3e;
      }

      .cls-5 {
        fill: #111e3f;
      }

      .cls-6 {
        fill: #e6c04f;
      }
    </style>
  </defs>
  <g id="_레이어_1-2" data-name="레이어 1">
    <g>
      <path class="cls-4" d="M110.96,2.8c.32,2.5-1,6.27,1,8-2.02,11.23-.11,20.05,0,31-1.58.66-1.58,4.34,0,5,.01.67,0,1.33,0,2l-.69.79.69,1.21v24.01c-37.51,3.09-74.74,8.51-111-5.01.13-13.53-2.33-51.21,2.1-61.4C5.65,2.43,10.42,1.2,16.42.76c28.41-2.1,65.51.69,94.54,2.04Z"/>
      <path class="cls-5" d="M206.96,73.8c-7.1.2-15.61,3.05-22.5,3.09-10.87.06-23.52-2.6-34.5-3.09-.66-.03-1.34.03-2,0-8.96-.38-18.04.28-27,0,.07-.65-.1-1.38,0-2,1.53-9.08.15-13.12-.04-21.46-.35-15.49.47-31.11.04-46.54,22.01,1.23,50.13,1.22,71.21,7.29,10.15,2.93,12.19,9.57,13.68,19.32,2.06,13.56,1.05,29.53,1.12,43.38Z"/>
      <path class="cls-4" d="M.96,93.8c.05-.37,2.18-7,2.55-7.03,21.93,6.1,44.08,8.98,66.94,8.02,8.21-.34,17.69-1.32,26-2,2.33-.19,14.51-3.18,14.51-.49v34.5c-32.14.79-64.48-1.03-96.62-.07-1.86.06-3.06,1.05-3.38,1.07-.86.07-2.22.14-3,0-5.65-8.91-4.67-17.62-5-27.55-.06-1.92,1.02-4.01-2-3.45.08-.98-.13-2.06,0-3Z"/>
      <path class="cls-1" d="M119.96,3.8l1,68c-.1.62.07,1.35,0,2,.03,1.29,1.53.95,2.45,1.05,5.49.59,13.29.04,19.06-.03,1.69-.02,4.45.64,5.49-1.02.66.03,1.34-.03,2,0-.56,3.03,1.53,1.92,3.45,2,11.82.55,24.38,2.85,36.04,1.98,2.78-.21,14.2-3.07,14.93-2.89,2.35.58,2.24,10,.59,11.41-27.48,7.93-56-1.45-84.02.49-.05.66.05,1.34,0,2-.02.33,0,.67,0,1-.25,10.44-.15,21.05-.02,31.51.02,1.69-.64,4.45,1.02,5.49v2c-2.66-.03-5.34.03-8,0l-.4-38.54-2.33-2.29c-27.8,2.57-55.79,5.6-83.65,1.72-6.59-.92-12.98-2.87-19.62-3.88-2.33-.36-4.62-1.02-7-1,.23-4.96-.05-10.03,0-15,36.26,13.51,73.49,8.09,111,5.01v-24.01c-.01-.67,0-1.33,0-2s.01-1.33,0-2c-.03-1.67.02-3.33,0-5-.11-10.95-2.02-19.77,0-31,.43-2.37,1.31-5.61,2-8,2.45.11,4.86.94,6,1Z"/>
      <path class="cls-3" d="M206.96,87.8c-.13,8.67,2.01,36.02-6.07,40.43-2.29,1.25-5.78,1.43-8.38,1.62-22.26,1.61-47.85-.79-70.54-1.04v-2c0-10.49.15-21.02.02-31.51-.02-1.69.64-4.45-1.02-5.49,0-.33-.02-.67,0-1,28.5-2.58,57.76,6.77,86-1Z"/>
      <path class="cls-2" d="M7.96,85.8c33.15,11.55,69.7,6.33,104,4v38c-31.68-.36-63.57,1.35-95.52,1.02-1.69-.02-4.45.64-5.49-1.02.32-.03,1.53-1.02,3.38-1.07,32.14-.95,64.47.86,96.62.07v-34.5c0-2.69-12.18.3-14.51.49-8.31.68-17.79,1.66-26,2-22.86.95-45.01-1.93-66.94-8.02-.37.04-2.5,6.66-2.55,7.03-2.09-2.09-.14-5.95,0-9,2.38-.02,4.67.64,7,1Z"/>
      <path class="cls-6" d="M113.96,128.8c-.89,0-1.83-1-2-1v-38c-34.3,2.33-70.85,7.56-104-4,6.64,1.01,13.03,2.96,19.62,3.88,27.86,3.88,55.85.85,83.65-1.72l2.33,2.29.4,38.54Z"/>
      <path class="cls-6" d="M206.96,73.8c.02,4.65.07,9.35,0,14-28.24,7.77-57.5-1.58-86,1,.04-.66-.06-1.34,0-2,28.02-1.94,56.54,7.43,84.02-.49,1.65-1.41,1.76-10.84-.59-11.41-.74-.18-12.15,2.68-14.93,2.89-11.66.87-24.22-1.44-36.04-1.98-1.92-.09-4.01,1.03-3.45-2,10.98.49,23.63,3.15,34.5,3.09,6.9-.04,15.41-2.89,22.5-3.09Z"/>
      <path class="cls-6" d="M120.96,71.8l-1-68c.33.02.67-.02,1,0,.43,15.44-.39,31.05-.04,46.54.19,8.34,1.57,12.38.04,21.46Z"/>
      <path class="cls-2" d="M.96,96.8c3.02-.56,1.94,1.53,2,3.45.33,9.93-.65,18.63,5,27.55-1.08-.19-1.55-.06-2.47-.99C.82,122.06.45,103.41.96,96.8Z"/>
      <path class="cls-6" d="M113.96,2.8c-.69,2.39-1.57,5.63-2,8-2-1.73-.68-5.5-1-8,1,.05,2-.05,3,0Z"/>
      <path class="cls-6" d="M111.96,46.8c-1.58-.66-1.58-4.34,0-5,.02,1.67-.03,3.33,0,5Z"/>
      <path class="cls-6" d="M111.96,50.8l-.69-1.21.69-.79c0,.67,0,1.33,0,2Z"/>
      <path class="cls-6" d="M147.96,73.8c-1.04,1.66-3.79,1-5.49,1.02-5.78.07-13.58.62-19.06.03-.92-.1-2.42.24-2.45-1.05,8.96.28,18.04-.38,27,0Z"/>
      <path class="cls-6" d="M121.96,126.8c-1.66-1.04-1-3.79-1.02-5.49-.13-10.46-.23-21.07.02-31.51,1.66,1.04,1,3.79,1.02,5.49.13,10.5-.02,21.03-.02,31.51Z"/>
    </g>
  </g>
</svg>