<?xml version="1.0" encoding="UTF-8"?>
<svg id="_레이어_2" data-name="레이어 2" xmlns="http://www.w3.org/2000/svg" viewBox="0 0 206.57 146.74">
  <defs>
    <style>
      .cls-1 {
        fill: #111f3e;
      }

      .cls-2 {
        fill: #181d3a;
      }

      .cls-3 {
        fill: #fac424;
      }
    </style>
  </defs>
  <g id="_레이어_1-2" data-name="레이어 1">
    <g>
      <path class="cls-3" d="M204,69.64c-20.96,3.52-42.22,6.14-63.54,6.04l-63.46-4.04V2.64c21.21-.76,42.27-.63,63.55-.96,18.53-.29,38.4-2.79,57.01-1.09,6.82.63,7.93,4.03,8.49,10.51,1.69,19.26-1.14,39.59-2.04,58.54Z"/>
      <path class="cls-3" d="M204,78.64c-.88,16.02-1.22,32.56-3.01,48.49-.34,3.06-1.93,15.86-3.97,17.03-13.67,2.63-27.7,1.08-41.56,1.44-26.38.68-52.94,1.42-79.46,1.04l.99-65.01c42.71,1.52,84.79,6.35,127.01-2.99Z"/>
      <path class="cls-3" d="M64,3.64v1c0,1.33,0,2.67,0,4,.02,7.7-.73,15.31-1,23-.02.67.02,1.33,0,2-.41,11.72-1.67,25.58-1,37,.04.65-.12,1.44,0,2-14.69.37-29.32,2.5-44,3-1.33.05-2.67-.02-4,0-4.32.08-8.68-.06-13,0H0c.02-16.32.15-32.24,1.04-48.46C1.96,10.4-3.99,7.9,15.51,5.65c15.79-1.83,32.65-1.31,48.49-2.01Z"/>
      <path class="cls-3" d="M1,84.64l61.01-2.01v63.01c-12.93-.28-26.35-.28-39.52-.99-4.82-.26-16.83,1.23-19.97-2.03-2.66-2.75-1.27-13.17-1.53-17.47-.82-13.93.1-26.93.01-40.51Z"/>
      <path class="cls-1" d="M77,2.64v69.01s63.46,4.04,63.46,4.04c21.32.1,42.58-2.52,63.54-6.04-.14,2.98.16,6.02,0,9-42.22,9.35-84.29,4.52-127.01,2.99l-.99,65.01c-4.79-.07-10.08-.92-14-1v-63.01s-61,2.01-61,2.01C.99,82.47,0,78.95,0,75.64h1c-.56,3.02,1.53,1.93,3.45,2s4.09.08,6.09,0,4.01,1.03,3.45-2c1.33-.02,2.67.05,4,0,3.32,1.72,8.78,1.19,12.49.99,10.79-.57,21.74-2.27,32.51-3,.26-.81-.98-.87-1-.99-.12-.56.04-1.35,0-2,3.02.56,1.94-1.53,2-3.45.31-9.29.13-18.76.02-28.06-.02-1.69.64-4.45-1.02-5.49.02-.67-.02-1.33,0-2,3.02.56,1.94-1.53,2-3.45.2-6.11.69-13.78-1-19.55,0-1.33,0-2.67,0-4l2-1c2.99-.13,7.17-.86,11-1Z"/>
      <path class="cls-2" d="M62,72.64c.02.11,1.26.18,1,.99-10.77.73-21.72,2.43-32.51,3-3.71.2-9.17.73-12.49-.99,14.68-.5,29.31-2.63,44-3Z"/>
      <path class="cls-2" d="M63,33.64c1.66,1.04,1,3.79,1.02,5.49.12,9.3.29,18.77-.02,28.06-.06,1.93,1.02,4.01-2,3.45-.67-11.42.59-25.28,1-37Z"/>
      <path class="cls-2" d="M64,8.64c1.69,5.76,1.2,13.43,1,19.55-.06,1.93,1.02,4.01-2,3.45.27-7.69,1.02-15.3,1-23Z"/>
      <path class="cls-2" d="M14,75.64c.56,3.03-1.53,1.92-3.45,2s-4.09.07-6.09,0-4.01,1.02-3.45-2c4.32-.06,8.68.08,13,0Z"/>
    </g>
  </g>
</svg>