<?xml version="1.0" encoding="UTF-8"?>
<svg id="_레이어_2" data-name="레이어 2" xmlns="http://www.w3.org/2000/svg" viewBox="0 0 157.33 170.41">
  <defs>
    <style>
      .cls-1 {
        fill: #101f41;
      }

      .cls-2 {
        fill: #111e3f;
      }

      .cls-3 {
        fill: #181d3a;
      }

      .cls-4 {
        fill: #fbc424;
      }

      .cls-5 {
        fill: #fac424;
      }
    </style>
  </defs>
  <g id="_레이어_1-2" data-name="레이어 1">
    <g>
      <path class="cls-5" d="M156.2,88.16c-.22,7.31-1,15.54-1,22.5v19c0,5.35-1.56,13.58-2,19.5h-2c-.67,0-1.33,0-2,0-22.78,0-45.74,1.67-68.46,2.04-9.35.15-18.73-.16-28.08-.09l-47.46.05c-.64-7.45-2-18.68-2-25.5v-20c0-2.95-.83-8.65-1-12.5,11.88.2,23.62,1.17,35.54,1.04,10.78-.11,23.12-1.63,33.97-2.03,28.19-1.03,56.38-1.8,84.49-4.01Z"/>
      <path class="cls-2" d="M33.2,48.16c29.31.52,58.6,1.47,88,1,12-.19,23.95-1.74,36.01-1.01-.3,11.83.36,23.74.04,35.58-.05,1.89-1.02,3.67-1.04,4.43-28.11,2.21-56.3,2.98-84.49,4.01-10.85.4-23.19,1.92-33.97,2.03-11.92.13-23.66-.84-35.54-1.04-.46-10.56-.64-20.97-.96-31.54-.13-4.3-2.28-8.99-.6-13.52,1.82-2.62,11.99.01,15.02.1,5.83.18,11.72-.14,17.54-.04Z"/>
      <path class="cls-4" d="M33.2,48.16l2.44-46.06c2.18-3.1,29.62-1.85,35.1-1.9,6.05-.06,11.88-.06,17.92,0,11.16.11,22.49-.84,33.49,1.01l-.95,47.95c-29.4.47-58.69-.48-88-1Z"/>
      <path class="cls-1" d="M151.2,149.16v2s2,0,2,0c-.38,4.46.66,9.41-1.99,13.51-20.59,4.57-43.27,3.81-64.55,4.45-15.2.45-30.64,1.79-46,1.08l-31.76-2.24c-4.24-1.2-2.39-9.19-2.7-12.8.95-1.9,1.38-1.93,3.41-2.07,31.15-2.16,66.41-.14,98.14-.89,2.37-.06,4.55-1.02,6.92-1.08,11.25-.29,24.08,1.76,34.54-1.96.67,0,1.33,0,2,0Z"/>
      <path class="cls-3" d="M149.2,149.16c-10.46,3.72-23.29,1.66-34.54,1.96-2.37.06-4.55,1.03-6.92,1.08-31.72.75-66.99-1.27-98.14.89-2.02.14-2.45.17-3.41,2.07-.04-.49-.84-2.09-1-4l47.46-.05c9.35-.07,18.73.24,28.08.09,22.72-.37,45.68-2.04,68.46-2.04Z"/>
      <path class="cls-3" d="M153.2,149.16c-.05.66.06,1.34,0,2h-2s0-2,0-2h2Z"/>
    </g>
  </g>
</svg>