<?xml version="1.0" encoding="UTF-8"?>
<svg id="_레이어_2" data-name="레이어 2" xmlns="http://www.w3.org/2000/svg" viewBox="0 0 211.42 165.13">
  <defs>
    <style>
      .cls-1 {
        fill: #0b9492;
      }

      .cls-2 {
        fill: #f95a31;
      }

      .cls-3 {
        fill: #111e3f;
      }
    </style>
  </defs>
  <g id="_레이어_1-2" data-name="레이어 1">
    <g>
      <path class="cls-1" d="M82.69,60.42c3.28.1,15.72-.72,16.87,2.63l.09,69.91,3.04,31.46c-25.66.13-57.43,2.07-82.37-1.13-11.12-1.42-15.82-1.89-18.35-13.65-3.11-14.44-2.34-63.77,1-78.45,3.06-13.43,14.47-9.14,25.26-9.74,18.02-.99,36.3-1.58,54.46-1.04Z"/>
      <path class="cls-3" d="M144.69,61.42c8.02.88,62.34-1.64,64.81,1.19,4.67,33.13-.36,66.64-2.81,99.81-29.2,1.7-58.66.67-88,.99V63.42s26-1.99,26-1.99Z"/>
      <path class="cls-2" d="M82.69,60.42c-28.04-6.4-19.94-34.28-20.95-55.95L108.15.38c14.93,1.05,31.35-1.25,46.08,0,8.12.69,8.92,8.3,9.49,15.5,1.4,17.65-.02,38.57-19.04,45.54l-26.01,1.99v100.01c-4.82.05-10.69.97-15.99,1l-3.04-31.46-.09-69.91c-1.15-3.35-13.6-2.53-16.87-2.63Z"/>
    </g>
  </g>
</svg>