<?xml version="1.0" encoding="UTF-8"?>
<svg id="_레이어_2" data-name="레이어 2" xmlns="http://www.w3.org/2000/svg" viewBox="0 0 180 180">
  <defs>
    <style>
      .cls-1 {
        fill: #627077;
      }

      .cls-2 {
        fill: #727d84;
      }

      .cls-3 {
        fill: #505559;
      }
    </style>
  </defs>
  <g id="_레이어_1-2" data-name="레이어 1">
    <g>
      <path class="cls-3" d="M34.5,6.35c-.12-1.64-.25-3.29-.37-4.93C26.96.83,21.45.45,15.54.24c-.02,1.44-.04,2.88-.05,4.33,6.27.48,12.29,1.16,19.01,1.79Z"/>
      <path class="cls-3" d="M13.29.16c-3.94-.11-8.18-.16-13.29-.16v3.95c4.76,0,9.08.18,13.24.45.02-1.41.03-2.83.05-4.24Z"/>
      <path class="cls-3" d="M42.25,7.01c3.64.27,11.1-.2,18.45-.64-.01-1.13-.03-2.25-.04-3.38-8.38-.41-17.66-.81-21.84-1.17-.84-.07-1.64-.14-2.43-.21.13,1.65.26,3.3.38,4.95,1.76.16,3.58.31,5.47.45Z"/>
      <path class="cls-3" d="M0,159.08v20.92c5.56-.14,8.87-.56,12.15-.95.68-6.94.95-13.91.99-20.89-3.62.36-7.02.79-13.13.92Z"/>
      <path class="cls-3" d="M44.39,157.94c0,6.92-.01,13.84-.02,20.76,8.06.05,15.29-.38,22.38-.81-.78-6.96-1.41-13.95-1.86-20.94-6.64.53-13.39.97-20.5.99Z"/>
      <path class="cls-3" d="M39.76,157.89c-8.61-.22-11.01-.56-19.61-.23-1.81.07-3.35.17-4.78.3-.04,6.96-.31,13.91-.97,20.84,1.7-.18,3.52-.35,5.75-.44,8.6-.38,11.01.01,19.61.27.8.02,1.57.03,2.36.05,0-6.91.01-13.83.02-20.74-.79,0-1.58,0-2.38-.03Z"/>
      <path class="cls-3" d="M78.05,5.84c3.28.27,6.4.43,9.43.52-.03-.66-.07-1.32-.11-1.98-4.05.02-8.18-.12-12.46-.53-2.55-.24-7-.49-11.99-.74.01,1.04.02,2.09.04,3.13,6.18-.36,12.01-.65,15.09-.4Z"/>
      <path class="cls-3" d="M140.24,5.14c8.61.22,11.01.56,19.61.23,3.63-.14,6.18-.42,8.9-.7.02-1.28.03-2.56.05-3.84-2.73.33-5.3.66-8.94.82-8.6.38-11.01-.01-19.61-.27-1.15-.03-2.28-.04-3.41-.05.09,1.25.17,2.5.26,3.75,1.04.01,2.08.02,3.15.05Z"/>
      <path class="cls-3" d="M134.83,5.07c-.08-1.24-.17-2.49-.25-3.73-7.37.07-14.37.66-21.29,1.3-.04,1.04-.07,2.08-.1,3.13,6.87-.36,13.88-.72,21.64-.7Z"/>
      <path class="cls-3" d="M110.93,5.89c.03-1.01.07-2.02.1-3.03-7.08.67-14.11,1.33-21.39,1.48.04.69.07,1.39.1,2.08,7.43.13,14.28-.17,21.19-.53Z"/>
      <path class="cls-3" d="M171.05.58c-.02,1.29-.03,2.58-.05,3.87,2.42-.23,5.17-.42,9-.51V0c-3.8.1-6.54.32-8.95.58Z"/>
      <path class="cls-3" d="M105.09,155.76c-4.13-.34-8.13-.47-12.05-.46-.28,7.3-.44,14.6-.35,21.9,2.98.11,6.04.29,9.26.6,3.36.32,9.99-.1,16.78-.58-1.16-6.96-2.3-13.93-3.39-20.9-4.27-.19-8-.38-10.25-.57Z"/>
      <path class="cls-3" d="M148.67,158.05c-2.31-.16-4.78-.34-7.5-.54-4.46-.33-14.74-.7-23.53-1.08,1.1,6.88,2.22,13.76,3.35,20.64,6.78-.47,13.4-.91,16.76-.62,4.04.35,7.76.76,11.32,1.16.11-6.52-.05-13.04-.39-19.56Z"/>
      <path class="cls-3" d="M169.83,179.68c3.22.2,6.56.32,10.17.32v-20.92c-3.37,0-6.35-.02-9.13-.06-.06,6.9-.35,13.79-1.04,20.66Z"/>
      <path class="cls-3" d="M150.92,158.2c.35,6.55.5,13.1.38,19.66,5.54.64,10.76,1.26,16.31,1.67.69-6.83.97-13.69,1.03-20.55-6.11-.12-11.37-.37-17.72-.78Z"/>
      <path class="cls-3" d="M90.77,155.33c-8.05.13-15.78.8-23.62,1.43.43,7,1.05,14,1.82,20.99,6.99-.42,13.93-.78,21.45-.62-.09-7.27.06-14.54.34-21.8Z"/>
      <path class="cls-2" d="M105.12,149.44c-4.06-.01-7.99.01-11.84.06-.09,1.94-.17,3.87-.24,5.81,3.92,0,7.92.12,12.05.46,2.25.19,5.98.38,10.25.57-.35-2.23-.7-4.46-1.03-6.69-3.82-.11-7.13-.2-9.19-.2Z"/>
      <path class="cls-2" d="M141.17,150.41c-4.64-.01-15.57-.41-24.58-.7.18,1.21.36,2.41.55,3.62.16,1.03.33,2.06.5,3.09,8.79.38,19.07.75,23.53,1.08,2.72.2,5.19.38,7.5.54-.13-2.54-.29-5.08-.48-7.62-2.17,0-4.48-.01-7.02-.02Z"/>
      <path class="cls-2" d="M66.8,150.05c.1,2.24.22,4.48.36,6.71,7.83-.64,15.57-1.3,23.62-1.43.07-1.93.15-3.87.24-5.8-8.25.12-16.18.33-24.21.52Z"/>
      <path class="cls-2" d="M141.88,72.01c7.82-.78,19.44.49,20.18,1.54.57,7.77-11.51,6.36-19.69,4,.13,1.38.27,2.76.41,4.14,1.04-.09,1.99-.15,2.83-.17,9.6-.16,8.2,4.94.01,7.64-.66.22-1.32.39-1.99.58.89,7.96,1.88,15.91,2.87,23.86.14,1.15.29,2.3.43,3.45,7.31-.2,14.73.08,20.85,1.52-.07-3.08-.12-6.17-.13-9.26-.07-12.49.12-24.98.28-37.46.19-15.57.38-31.14.58-46.7-6.24,1.01-13.62.8-19.66-.65-1.09-.26-8.47-2.95-8.76-3.32-.87-1.1.08-3.36-.24-4.18h1.5l27.25,1.3c.06-4.54.11-9.08.17-13.62-2.71.28-5.27.56-8.9.7-8.6.33-11.01,0-19.61-.23-1.07-.03-2.11-.04-3.15-.05.79,11.39,1.57,22.78,2.36,34.17.75,10.92,1.5,21.84,2.43,32.74Z"/>
      <path class="cls-2" d="M168.61,150.46c-6.26,0-11.62-.01-18.18-.03.19,2.59.35,5.18.49,7.77,6.35.42,11.61.66,17.72.78.02-2.84.01-5.68-.03-8.52Z"/>
      <path class="cls-2" d="M170.83,18.4l2,.1c.33.58,1.31,1.04,1.5,1.5.17.4-.14,1.01,0,1.5.76,3.53-1.29,3.17-3.58,3.33-.06,4.74-.12,9.47-.18,14.21-.31,25.39-.98,50.81-.62,76.2.02,1.31.04,2.62.07,3.94,2.05.62,3.94,1.38,5.54,2.35.61.37,1.07.93,1.5,1.5-2.21.98-4.52,1.68-6.89,2.19.19,6.68.43,13.37.58,20.06,2.48,0,5.29-.01,9.24-.02v5.19c-3.38,0-6.37,0-9.15,0,.04,2.85.05,5.71.02,8.56,2.78.04,5.76.06,9.13.06V3.95c-3.82.08-6.58.28-9,.51-.06,4.65-.11,9.3-.17,13.95Z"/>
      <path class="cls-2" d="M113.21,41.87c.64,24.95,1.6,49.81,1.08,74.77-.2,9.67.47,19.17,1.7,28.68,7.55-.01,15.36-.02,24.25-.02,3.14,0,5.45,0,7.54,0-.58-6.65-1.28-13.28-2.05-19.91-7.27-.84-14.5-2.02-21.15-2.41l-.02-4.46c5.37-.39,12.63-1.12,20.18-1.41-1.09-8.94-2.23-17.87-3.25-26.81-8.28,1.99-16.89,1.97-25.2.25-.54-1.78,1.37-3.5,1.5-4.49,5.61-1.2,15.56-3.27,22.79-4.15-.18-1.7-.33-3.4-.49-5.11-2.94-1-4.97-2.03-4.98-2.54.63-.95,2.32-1.58,4.55-1.98-.01-.12-.02-.24-.03-.36-1.91-22.26-3.29-44.57-4.79-66.87-7.76-.02-14.77.34-21.64.7-.37,12.03-.28,24.07.03,36.1Z"/>
      <path class="cls-2" d="M150.7,125.93c-.91-.08-1.82-.17-2.72-.27.77,6.54,1.48,13.1,2.04,19.66,2.76,0,5.52,0,9.84,0,3.52,0,6.03-.01,8.66-.02-.15-6.55-.36-13.09-.55-19.64-5.51.89-11.36.78-17.27.27Z"/>
      <path class="cls-2" d="M64.59,74.57c.72,5.72,1.7,11.41,2.02,17.18.34,6.05.16,12.12-.05,18.17-.41,11.96-.41,23.91.04,35.84,4.59-.24,8.79-.43,11.45-.43,4.64.01,8.98.02,13.16.02,1.17-24.32,2.54-48.5,0-72.8-1.29-12.33-3.03-24.62-3.49-37.02-.35-9.72.21-19.47-.25-29.18-3.03-.09-6.15-.25-9.43-.52-3.08-.26-8.91.03-15.09.4.13,10.8.25,21.59.38,32.39.14,11.95-.23,24.06,1.26,35.94Z"/>
      <path class="cls-2" d="M44.41,139.58c0,2.36,0,4.73,0,7.09.47,0,.93.02,1.41.02,4,0,11.47-.43,18.5-.81-.06-1.41-.13-2.81-.18-4.22-.07-2.28-.09-4.56-.11-6.83-2.78,2.01-8.45,2.06-11.2,2.82-3.03.84-5.81,1.46-8.41,1.93Z"/>
      <path class="cls-2" d="M55.03,15.53c.52,7.01-9.27,6.55-17.19,4.66.46,5.9.92,11.81,1.37,17.71.48,6.17.88,12.35,1.6,18.49.68,5.77,1.68,11.5,2.41,17.26,1.5,11.84,1.22,23.79,1.2,35.7,0,6.37-.01,12.75-.02,19.12,8.46-.28,16.36,0,19.58,1.2.02-8.04.23-16.07.45-24.11.16-5.81.18-11.64-.36-17.43-.56-5.97-1.69-11.88-2.22-17.86-1.06-11.97-.71-24.11-.85-36.12-.11-9.26-.21-18.51-.32-27.77-7.36.44-14.81.91-18.45.64-1.89-.14-3.7-.29-5.47-.45.19,2.41.37,4.83.56,7.24,7.58-.35,17.02.78,17.69,1.72Z"/>
      <path class="cls-2" d="M13.1,150.43c-3.61.01-7,.03-13.1.03v8.62c6.11-.13,9.51-.56,13.13-.92.02-2.58,0-5.15-.04-7.73Z"/>
      <path class="cls-2" d="M14.72,62.02l21.35,1.02c.33.58,1.31,1.04,1.5,1.5.16.4-.14,1.01,0,1.5.88,4.1-2.02,2.96-4.69,3.47-5.63,1.08-12.38,1.09-18.27.06-.22,15.23-.38,30.46-.17,45.69.14,10.11.59,20.26.81,30.39,8.9.36,17.7.88,26.9,1.01,0-1.46,0-2.93,0-4.39,0-.77,0-1.54,0-2.3-12.42,1.82-19.88-.77-24.64-6.86.11-.47-.09-1.02,0-1.5,2.96-1.31,13.94-2.58,24.65-3.04,0-7.65.01-15.3.02-22.94.01-12.06-.04-24.01-1.76-35.98-2.39-16.61-3.74-33.33-4.97-50.07-4.19-1.2-7.38-2.66-7.39-3.3.84-1.27,3.57-1.97,6.98-2.3-.18-2.54-.37-5.07-.55-7.61-6.72-.63-12.73-1.31-19.01-1.79-.14,11.49-.28,22.99-.42,34.48-.09,7.66-.22,15.32-.34,22.98Z"/>
      <path class="cls-2" d="M39.76,150.42c-8.61,0-11.01-.02-19.61,0-1.82,0-3.37,0-4.81.01.03,2.51.05,5.02.03,7.52,1.43-.12,2.97-.23,4.78-.3,8.6-.33,11.01.01,19.61.23.8.02,1.59.02,2.38.03,0-2.5,0-5,0-7.5-.79,0-1.58,0-2.39,0Z"/>
      <path class="cls-2" d="M90.21,40.32c.76,12.38,2.58,24.66,3.72,37,1.14,12.36,1.29,24.76.93,37.17-.3,10.29-.9,20.58-1.39,30.87,6.98,0,13.54-.01,20.22-.02-.66-4.81-1.21-9.63-1.49-14.47-.35-6.07-.21-12.15-.06-18.23.31-12.53.18-25.05-.16-37.57-.63-23.05-1.76-46.11-1.05-69.17-6.91.36-13.76.66-21.19.53.55,11.28-.22,22.62.47,33.9Z"/>
      <path class="cls-2" d="M12.13,109.31c-.07-12.49.12-24.98.28-37.46.01-.91.02-1.83.03-2.74-.12-.03-.25-.05-.37-.08-1.09-.26-8.47-2.95-8.76-3.32-.87-1.1.09-3.36-.24-4.18h1.5l7.96.38c.24-19.17.47-38.34.71-57.51-4.16-.28-8.48-.45-13.24-.45v141.32c4.41,0,8.72.12,13.01.28-.27-12.08-.8-24.15-.88-36.24Z"/>
      <path class="cls-2" d="M44.4,150.41c0,2.51,0,5.02,0,7.53,7.1-.02,13.85-.46,20.5-.99-.15-2.28-.29-4.56-.4-6.84-6.51.15-13.13.27-20.09.31Z"/>
      <path class="cls-3" d="M150.01,145.32c.15,1.7.28,3.41.41,5.11,6.57.01,11.93.02,18.18.03-.02-1.22-.03-2.45-.06-3.67-.01-.5-.03-.99-.04-1.49-2.63,0-5.14.02-8.66.02-4.32,0-7.08,0-9.84,0Z"/>
      <path class="cls-3" d="M15.25,145.64c.03,1.6.06,3.19.08,4.79,1.44,0,2.99,0,4.81-.01,8.6-.01,11.01,0,19.61,0,.8,0,1.59,0,2.39,0,0-1.26,0-2.51,0-3.77-9.2-.14-18-.65-26.9-1.01Z"/>
      <path class="cls-3" d="M45.81,146.69c-.47,0-.93-.01-1.41-.02,0,1.24,0,2.49,0,3.73,6.96-.04,13.57-.16,20.09-.31-.07-1.41-.12-2.81-.18-4.22-7.03.38-14.5.82-18.5.81Z"/>
      <path class="cls-3" d="M113.69,145.33c-6.68.01-13.24.02-20.22.02-.07,1.38-.13,2.76-.19,4.14,3.85-.05,7.78-.07,11.84-.06,2.06,0,5.36.09,9.19.2-.04-.25-.08-.5-.12-.75-.18-1.18-.34-2.37-.51-3.56Z"/>
      <path class="cls-3" d="M180,150.46v-5.19c-3.95,0-6.77,0-9.24.02.04,1.72.07,3.45.09,5.17,2.78,0,5.77,0,9.15,0Z"/>
      <path class="cls-3" d="M91.21,145.36c-4.18,0-8.52,0-13.16-.02-2.66,0-6.86.18-11.45.43.05,1.43.13,2.86.2,4.29,8.03-.19,15.96-.4,24.21-.52.04-.87.08-1.73.12-2.6.02-.52.05-1.05.08-1.57Z"/>
      <path class="cls-3" d="M147.77,145.32c-2.09,0-4.4,0-7.54,0-8.89,0-16.69,0-24.25.02.19,1.46.39,2.92.6,4.38,9,.28,19.94.69,24.58.7,2.54,0,4.84.01,7.02.02-.11-1.44-.22-2.87-.34-4.31-.02-.27-.05-.53-.08-.8Z"/>
      <path class="cls-3" d="M13.04,146.79c0-.41-.02-.83-.03-1.24-4.28-.16-8.59-.28-13.01-.28v5.19c6.09,0,9.49-.02,13.1-.03-.02-1.21-.03-2.43-.06-3.64Z"/>
      <path class="cls-2" d="M124.56,118.54l.02,4.46c6.65.4,13.88,1.57,21.15,2.41-.32-2.76-.65-5.52-.98-8.29-7.55.29-14.81,1.02-20.18,1.41Z"/>
      <path class="cls-2" d="M177.07,123.03c-.43-.57-.89-1.13-1.5-1.5-1.61-.97-3.49-1.73-5.54-2.35.04,2.01.09,4.03.15,6.05,2.38-.51,4.69-1.21,6.89-2.19Z"/>
      <path class="cls-2" d="M146.93,117.05c.35,2.87.7,5.74,1.04,8.61.91.09,1.82.19,2.72.27,5.9.51,11.75.61,17.27-.27-.07-2.36-.13-4.73-.19-7.09-6.11-1.43-13.54-1.71-20.85-1.52Z"/>
      <path class="cls-2" d="M17.52,131.6c-.09.48.11,1.03,0,1.5,4.76,6.09,12.22,8.68,24.64,6.86,0-3.8,0-7.6.01-11.4-10.71.47-21.69,1.74-24.65,3.04Z"/>
      <path class="cls-2" d="M52.82,137.65c2.75-.76,8.42-.81,11.2-2.82-.02-1.72-.02-3.44-.02-5.16-3.22-1.21-11.13-1.48-19.58-1.2,0,3.71,0,7.41-.01,11.12,2.6-.47,5.38-1.1,8.41-1.93Z"/>
      <path class="cls-2" d="M117.78,86.08c-.14.99-2.05,2.71-1.5,4.49,8.31,1.72,16.93,1.74,25.2-.25-.32-2.8-.62-5.59-.91-8.39-7.22.87-17.18,2.95-22.79,4.15Z"/>
      <path class="cls-2" d="M145.62,89.16c8.19-2.7,9.59-7.8-.01-7.64-.84.01-1.79.07-2.83.17.27,2.68.55,5.37.85,8.05.66-.19,1.33-.36,1.99-.58Z"/>
      <path class="cls-2" d="M142.37,77.55c8.18,2.37,20.26,3.77,19.69-4-.74-1.05-12.36-2.33-20.18-1.54.13,1.57.26,3.13.4,4.7.03.28.06.56.08.84Z"/>
      <path class="cls-2" d="M135.1,74.28c0,.51,2.04,1.54,4.98,2.54-.14-1.51-.3-3.01-.43-4.52-2.23.39-3.92,1.03-4.55,1.98Z"/>
      <path class="cls-2" d="M28.07,16.26c0,.64,3.21,2.1,7.39,3.3-.14-1.87-.28-3.73-.41-5.59-3.41.32-6.14,1.03-6.98,2.3Z"/>
      <path class="cls-2" d="M55.03,15.53c-.67-.94-10.1-2.07-17.69-1.72.16,2.13.33,4.25.49,6.38,7.93,1.89,17.71,2.35,17.19-4.66Z"/>
      <path class="cls-2" d="M4.57,61.53h-1.5c.32.82-.63,3.07.24,4.18.29.37,7.67,3.06,8.76,3.32.12.03.25.05.37.08.03-2.4.06-4.8.09-7.2l-7.96-.38Z"/>
      <path class="cls-2" d="M32.87,69.5c2.67-.51,5.58.63,4.69-3.47-.14-.49.16-1.1,0-1.5-.19-.46-1.17-.92-1.5-1.5l-21.35-1.02c-.04,2.51-.08,5.03-.11,7.54,5.89,1.03,12.64,1.02,18.27-.06Z"/>
      <path class="cls-2" d="M174.33,21.5c-.14-.49.17-1.1,0-1.5-.19-.46-1.17-.92-1.5-1.5l-2-.1-.08,6.43c2.29-.16,4.34.2,3.58-3.33Z"/>
      <path class="cls-2" d="M139.83,17c.32.82-.63,3.07.24,4.18.29.37,7.67,3.06,8.76,3.32,6.04,1.45,13.43,1.66,19.66.65.03-2.28.06-4.57.08-6.85l-27.25-1.3h-1.5Z"/>
      <path class="cls-1" d="M15.49,4.56c.02-1.44.04-2.88.05-4.33-.74-.03-1.49-.05-2.25-.07-.02,1.41-.03,2.83-.05,4.24.75.05,1.5.1,2.25.16Z"/>
      <path class="cls-1" d="M13.13,158.16c-.04,6.98-.31,13.95-.99,20.89.74-.09,1.49-.18,2.26-.26.66-6.93.92-13.88.97-20.84-.77.07-1.51.14-2.23.21Z"/>
      <path class="cls-1" d="M15.33,150.42c-.77,0-1.51,0-2.24,0,.04,2.57.05,5.15.04,7.73.73-.07,1.46-.14,2.23-.21.02-2.51,0-5.02-.03-7.52Z"/>
      <path class="cls-1" d="M14.44,115.24c-.21-15.22-.06-30.46.17-45.69-.74-.13-1.46-.28-2.17-.45-.01.91-.02,1.83-.03,2.74-.15,12.49-.35,24.97-.28,37.46.07,12.09.6,24.16.88,36.24.75.03,1.5.06,2.25.09-.22-10.14-.67-20.28-.81-30.39Z"/>
      <path class="cls-1" d="M15.06,39.04c.14-11.49.28-22.99.42-34.48-.74-.06-1.49-.11-2.25-.16-.24,19.17-.47,38.34-.71,57.51l2.19.1c.12-7.66.25-15.32.34-22.98Z"/>
      <path class="cls-1" d="M15.25,145.64c-.75-.03-1.5-.06-2.25-.09,0,.41.02.83.03,1.24.03,1.21.04,2.43.06,3.64.73,0,1.47,0,2.24,0-.02-1.6-.05-3.19-.08-4.79Z"/>
      <path class="cls-1" d="M14.72,62.02l-2.19-.1c-.03,2.4-.06,4.8-.09,7.2.71.16,1.43.32,2.17.45.04-2.51.07-5.03.11-7.54Z"/>
      <path class="cls-1" d="M168.64,158.98c-.06,6.87-.35,13.73-1.03,20.55.74.05,1.48.1,2.23.15.68-6.87.97-13.76,1.04-20.66-.76-.01-1.5-.02-2.23-.04Z"/>
      <path class="cls-1" d="M171,4.45c.02-1.29.03-2.58.05-3.87-.78.08-1.52.17-2.25.26-.02,1.28-.03,2.56-.05,3.84.73-.08,1.48-.15,2.25-.22Z"/>
      <path class="cls-1" d="M168.58,18.3l2.25.11c.06-4.65.11-9.3.17-13.95-.78.07-1.52.15-2.25.22-.06,4.54-.11,9.08-.17,13.62Z"/>
      <path class="cls-1" d="M168.64,158.98c.73.01,1.47.03,2.23.04.03-2.85.02-5.71-.02-8.56-.76,0-1.51,0-2.24,0,.04,2.84.05,5.68.03,8.52Z"/>
      <path class="cls-1" d="M168.5,25.15c-.19,15.57-.38,31.14-.58,46.7-.15,12.49-.35,24.97-.28,37.46.02,3.09.07,6.17.13,9.26.77.18,1.52.39,2.25.61-.03-1.31-.05-2.62-.07-3.94-.35-25.39.31-50.81.62-76.2.06-4.74.12-9.47.18-14.21-.37.03-.74.06-1.11.13-.37.07-.76.12-1.14.18Z"/>
      <path class="cls-1" d="M168.51,145.3c.73,0,1.47,0,2.25,0-.15-6.69-.39-13.38-.58-20.06-.73.16-1.47.31-2.21.43.19,6.55.4,13.09.55,19.64Z"/>
      <path class="cls-1" d="M168.55,146.79c.03,1.22.04,2.45.06,3.67.73,0,1.48,0,2.24,0-.02-1.72-.05-3.45-.09-5.17-.77,0-1.52,0-2.25,0,.01.5.03.99.04,1.49Z"/>
      <path class="cls-1" d="M167.96,125.66c.74-.12,1.48-.27,2.21-.43-.06-2.02-.11-4.03-.15-6.05-.73-.22-1.47-.43-2.25-.61.05,2.36.12,4.73.19,7.09Z"/>
      <path class="cls-1" d="M168.5,25.15c.38-.06.77-.11,1.14-.18.37-.07.74-.11,1.11-.13l.08-6.43-2.25-.11c-.03,2.28-.06,4.57-.08,6.85Z"/>
      <path class="cls-1" d="M42.14,157.92c0,6.91-.01,13.83-.02,20.74.75.01,1.51.03,2.25.04,0-6.92.01-13.84.02-20.76-.74,0-1.5-.01-2.25-.02Z"/>
      <path class="cls-1" d="M36.79,6.56c-.13-1.65-.26-3.3-.38-4.95-.78-.07-1.53-.13-2.28-.19.12,1.64.25,3.28.37,4.93.76.07,1.51.14,2.29.21Z"/>
      <path class="cls-1" d="M44.44,109.35c.01-11.91.29-23.86-1.2-35.7-.73-5.76-1.73-11.49-2.41-17.26-.73-6.14-1.13-12.32-1.6-18.49-.46-5.9-.92-11.81-1.37-17.71-.82-.2-1.61-.41-2.38-.63,1.23,16.74,2.58,33.47,4.97,50.07,1.72,11.97,1.77,23.91,1.76,35.98,0,7.65-.01,15.3-.02,22.94.75-.03,1.5-.06,2.25-.09,0-6.37.01-12.75.02-19.12Z"/>
      <path class="cls-1" d="M44.41,139.58c-.77.14-1.52.26-2.25.37,0,.77,0,1.54,0,2.3,0,1.46,0,2.93,0,4.39.75.01,1.5.02,2.25.03,0-2.36,0-4.73,0-7.09Z"/>
      <path class="cls-1" d="M42.15,150.42c0,2.5,0,5,0,7.5.75,0,1.51.02,2.25.02,0-2.51,0-5.02,0-7.53-.74,0-1.5,0-2.25,0Z"/>
      <path class="cls-1" d="M37.35,13.8c-.19-2.41-.37-4.83-.56-7.24-.77-.07-1.53-.14-2.29-.21.19,2.54.37,5.07.55,7.61.74-.07,1.51-.12,2.3-.16Z"/>
      <path class="cls-1" d="M42.15,146.65c0,1.26,0,2.51,0,3.77.75,0,1.51,0,2.25,0,0-1.24,0-2.49,0-3.73-.75,0-1.5-.02-2.25-.03Z"/>
      <path class="cls-1" d="M44.42,128.47c-.75.02-1.5.05-2.25.09,0,3.8,0,7.6-.01,11.4.73-.11,1.48-.23,2.25-.37,0-3.71,0-7.41.01-11.12Z"/>
      <path class="cls-1" d="M37.35,13.8c-.79.04-1.56.09-2.3.16.14,1.87.27,3.73.41,5.59.77.22,1.56.43,2.38.63-.16-2.13-.33-4.25-.49-6.38Z"/>
      <path class="cls-1" d="M62.95,6.24c-.01-1.04-.02-2.09-.04-3.13-.74-.04-1.49-.07-2.25-.11.01,1.13.03,2.25.04,3.38.75-.05,1.5-.09,2.25-.13Z"/>
      <path class="cls-1" d="M64.89,156.95c.46,6.99,1.08,13.97,1.86,20.94.75-.05,1.49-.09,2.23-.13-.78-6.99-1.39-13.99-1.82-20.99-.76.06-1.51.12-2.27.18Z"/>
      <path class="cls-1" d="M64.48,150.1c.11,2.28.26,4.56.4,6.84.76-.06,1.51-.12,2.27-.18-.14-2.24-.25-4.48-.36-6.71-.77.02-1.54.04-2.32.05Z"/>
      <path class="cls-1" d="M61.87,70.27c.53,5.98,1.67,11.88,2.22,17.86.54,5.79.51,11.62.36,17.43-.22,8.05-.43,16.08-.45,24.11.88.33,1.43.72,1.53,1.2.38,1.85-.29,3.09-1.51,3.97.02,2.28.04,4.55.11,6.83.04,1.41.12,2.81.18,4.22.77-.04,1.54-.08,2.29-.12-.45-11.93-.44-23.88-.04-35.84.21-6.05.39-12.12.05-18.17-.32-5.77-1.3-11.45-2.02-17.18-1.49-11.88-1.12-23.99-1.26-35.94-.12-10.8-.25-21.59-.38-32.39-.75.04-1.5.09-2.25.13.11,9.26.21,18.51.32,27.77.14,12.01-.22,24.15.85,36.12Z"/>
      <path class="cls-1" d="M64.31,145.88c.06,1.41.11,2.81.18,4.22.77-.02,1.55-.04,2.32-.05-.07-1.43-.15-2.86-.2-4.29-.76.04-1.52.08-2.29.12Z"/>
      <path class="cls-1" d="M64.02,134.83c1.21-.88,1.88-2.12,1.51-3.97-.1-.48-.65-.87-1.53-1.2,0,1.72,0,3.44.02,5.16Z"/>
      <path class="cls-1" d="M89.74,6.42c-.03-.69-.06-1.39-.1-2.08-.75.02-1.5.04-2.26.04.04.66.08,1.32.11,1.98.76.02,1.51.04,2.26.06Z"/>
      <path class="cls-1" d="M93.03,155.3c-.76,0-1.51.01-2.26.03-.28,7.27-.43,14.54-.34,21.8.75.02,1.5.04,2.25.07-.09-7.3.07-14.6.35-21.9Z"/>
      <path class="cls-1" d="M91.02,149.53c-.09,1.93-.17,3.87-.24,5.8.75-.01,1.5-.02,2.26-.03.07-1.94.16-3.87.24-5.81-.76,0-1.51.02-2.26.03Z"/>
      <path class="cls-1" d="M87.73,35.54c.45,12.4,2.2,24.69,3.49,37.02,2.54,24.29,1.17,48.48,0,72.8.76,0,1.51,0,2.26,0,.5-10.29,1.09-20.58,1.39-30.87.36-12.4.21-24.8-.93-37.17-1.14-12.34-2.97-24.62-3.72-37-.69-11.28.08-22.62-.47-33.9-.75-.01-1.5-.03-2.26-.06.45,9.71-.11,19.46.25,29.18Z"/>
      <path class="cls-1" d="M91.21,145.36c-.03.52-.05,1.05-.08,1.57-.04.87-.08,1.73-.12,2.6.75-.01,1.5-.02,2.26-.03.06-1.38.13-2.76.19-4.14-.75,0-1.5,0-2.26,0Z"/>
      <path class="cls-1" d="M115.34,156.33c1.09,6.97,2.24,13.93,3.39,20.9.75-.05,1.51-.1,2.26-.16-1.13-6.88-2.25-13.76-3.35-20.64-.78-.03-1.55-.07-2.3-.1Z"/>
      <path class="cls-1" d="M113.19,5.77c.03-1.04.06-2.08.1-3.13-.75.07-1.51.14-2.26.21-.04,1.01-.07,2.02-.1,3.03.75-.04,1.51-.08,2.26-.12Z"/>
      <path class="cls-1" d="M116.59,149.71c-.78-.02-1.54-.05-2.29-.07.33,2.23.68,4.46,1.03,6.69.75.03,1.52.07,2.3.1-.16-1.03-.34-2.06-.5-3.09-.19-1.21-.37-2.42-.55-3.62Z"/>
      <path class="cls-1" d="M111.98,75.06c.34,12.52.47,25.05.16,37.57-.15,6.08-.29,12.16.06,18.23.28,4.84.83,9.67,1.49,14.47.77,0,1.53,0,2.31,0-1.23-9.52-1.9-19.01-1.7-28.68.52-24.96-.44-49.83-1.08-74.77-.31-12.03-.4-24.07-.03-36.1-.75.04-1.51.08-2.26.12-.71,23.06.42,46.12,1.05,69.17Z"/>
      <path class="cls-1" d="M113.69,145.33c.16,1.19.33,2.37.51,3.56.04.25.08.5.12.75.74.02,1.51.05,2.29.07-.21-1.46-.41-2.92-.6-4.38-.77,0-1.54,0-2.31,0Z"/>
      <path class="cls-1" d="M150.92,158.2c-.73-.05-1.48-.1-2.24-.15.34,6.51.5,13.04.39,19.56.75.09,1.5.17,2.24.26.12-6.56-.04-13.12-.38-19.66Z"/>
      <path class="cls-1" d="M137.09,5.09c-.09-1.25-.17-2.5-.26-3.75-.76,0-1.51,0-2.26,0,.08,1.24.17,2.49.25,3.73.75,0,1.5,0,2.27.02Z"/>
      <path class="cls-1" d="M142.37,77.55c-.81-.23-1.58-.48-2.29-.72.16,1.7.32,3.41.49,5.11.77-.09,1.52-.18,2.21-.24-.14-1.38-.28-2.76-.41-4.14Z"/>
      <path class="cls-1" d="M147.97,125.66c-.75-.08-1.5-.16-2.25-.25.77,6.63,1.48,13.26,2.05,19.91.77,0,1.51,0,2.24,0-.57-6.56-1.27-13.12-2.04-19.66Z"/>
      <path class="cls-1" d="M146.5,113.6c-.99-7.95-1.98-15.9-2.87-23.86-.72.2-1.43.41-2.15.58,1.02,8.94,2.16,17.87,3.25,26.81.73-.03,1.46-.06,2.2-.08-.14-1.15-.28-2.3-.43-3.45Z"/>
      <path class="cls-1" d="M148.19,150.43c.19,2.54.35,5.08.48,7.62.77.05,1.51.1,2.24.15-.14-2.59-.3-5.18-.49-7.77-.73,0-1.48,0-2.24,0Z"/>
      <path class="cls-1" d="M139.65,72.31c.7-.12,1.45-.22,2.23-.3-.94-10.9-1.68-21.83-2.43-32.74-.79-11.39-1.57-22.78-2.36-34.17-.76,0-1.52-.02-2.27-.02,1.5,22.3,2.88,44.61,4.79,66.87.01.12.02.24.03.36Z"/>
      <path class="cls-1" d="M147.77,145.32c.02.27.05.53.08.8.12,1.43.23,2.87.34,4.31.76,0,1.51,0,2.24,0-.13-1.7-.27-3.41-.41-5.11-.74,0-1.47,0-2.24,0Z"/>
      <path class="cls-1" d="M146.93,117.05c-.74.02-1.47.05-2.2.08.34,2.76.66,5.52.98,8.29.75.09,1.5.17,2.25.25-.34-2.87-.69-5.74-1.04-8.61Z"/>
      <path class="cls-1" d="M142.78,81.69c-.7.06-1.45.15-2.21.24.29,2.8.59,5.6.91,8.39.72-.17,1.44-.38,2.15-.58-.3-2.68-.58-5.36-.85-8.05Z"/>
      <path class="cls-1" d="M142.29,76.7c-.14-1.56-.27-3.13-.4-4.7-.79.08-1.54.18-2.23.3.13,1.51.28,3.01.43,4.52.72.25,1.49.49,2.29.72-.03-.28-.06-.56-.08-.84Z"/>
    </g>
  </g>
</svg>